G75*
%MOIN*%
%OFA0B0*%
%FSLAX25Y25*%
%IPPOS*%
%LPD*%
%AMOC8*
5,1,8,0,0,1.08239X$1,22.5*
%
%ADD10C,0.01600*%
%ADD11C,0.05906*%
D10*
X0005758Y0017569D02*
X0015600Y0022490D01*
X0022490Y0015600D02*
X0017569Y0005758D01*
X0022490Y0015601D02*
X0022851Y0015416D01*
X0023216Y0015239D01*
X0023586Y0015072D01*
X0023959Y0014914D01*
X0024336Y0014765D01*
X0024717Y0014625D01*
X0025101Y0014495D01*
X0025488Y0014374D01*
X0025877Y0014263D01*
X0026270Y0014161D01*
X0026665Y0014069D01*
X0027062Y0013986D01*
X0027461Y0013914D01*
X0027861Y0013851D01*
X0028263Y0013798D01*
X0028666Y0013755D01*
X0029070Y0013721D01*
X0029475Y0013698D01*
X0029880Y0013685D01*
X0030286Y0013681D01*
X0030691Y0013688D01*
X0031096Y0013704D01*
X0031501Y0013730D01*
X0031905Y0013766D01*
X0032307Y0013812D01*
X0032709Y0013868D01*
X0033109Y0013934D01*
X0033507Y0014010D01*
X0033904Y0014095D01*
X0034298Y0014190D01*
X0034690Y0014295D01*
X0035079Y0014409D01*
X0035465Y0014532D01*
X0035848Y0014665D01*
X0036227Y0014808D01*
X0036603Y0014960D01*
X0036976Y0015120D01*
X0037344Y0015290D01*
X0037708Y0015469D01*
X0038067Y0015657D01*
X0038422Y0015853D01*
X0038771Y0016059D01*
X0039116Y0016272D01*
X0039455Y0016494D01*
X0039789Y0016725D01*
X0040117Y0016963D01*
X0040439Y0017209D01*
X0040755Y0017463D01*
X0041064Y0017725D01*
X0041367Y0017995D01*
X0041664Y0018271D01*
X0041953Y0018555D01*
X0042236Y0018846D01*
X0042511Y0019144D01*
X0042779Y0019448D01*
X0043039Y0019759D01*
X0043292Y0020076D01*
X0043537Y0020399D01*
X0043773Y0020728D01*
X0044002Y0021063D01*
X0044222Y0021403D01*
X0044434Y0021749D01*
X0044638Y0022100D01*
X0044833Y0022455D01*
X0045019Y0022816D01*
X0045196Y0023180D01*
X0045364Y0023549D01*
X0045523Y0023922D01*
X0045673Y0024299D01*
X0045813Y0024679D01*
X0045945Y0025063D01*
X0046067Y0025449D01*
X0046179Y0025839D01*
X0046281Y0026231D01*
X0046375Y0026626D01*
X0046458Y0027023D01*
X0046532Y0027421D01*
X0046595Y0027822D01*
X0046649Y0028224D01*
X0046694Y0028627D01*
X0046728Y0029031D01*
X0046752Y0029435D01*
X0046767Y0029840D01*
X0046771Y0030246D01*
X0046766Y0030651D01*
X0046750Y0031056D01*
X0046725Y0031461D01*
X0046690Y0031865D01*
X0046645Y0032268D01*
X0046590Y0032670D01*
X0046525Y0033070D01*
X0046450Y0033468D01*
X0046366Y0033865D01*
X0046272Y0034259D01*
X0046168Y0034651D01*
X0046055Y0035041D01*
X0045932Y0035427D01*
X0045800Y0035810D01*
X0045659Y0036190D01*
X0045508Y0036567D01*
X0045348Y0036939D01*
X0045179Y0037308D01*
X0045001Y0037672D01*
X0044814Y0038032D01*
X0044618Y0038387D01*
X0044414Y0038737D01*
X0044201Y0039082D01*
X0043980Y0039422D01*
X0043750Y0039756D01*
X0043513Y0040085D01*
X0043267Y0040407D01*
X0043014Y0040724D01*
X0042753Y0041034D01*
X0042484Y0041338D01*
X0042208Y0041635D01*
X0041925Y0041925D01*
X0041635Y0042208D01*
X0041338Y0042484D01*
X0041034Y0042753D01*
X0040724Y0043014D01*
X0040407Y0043267D01*
X0040085Y0043513D01*
X0039756Y0043750D01*
X0039422Y0043980D01*
X0039082Y0044201D01*
X0038737Y0044414D01*
X0038387Y0044618D01*
X0038032Y0044814D01*
X0037672Y0045001D01*
X0037308Y0045179D01*
X0036939Y0045348D01*
X0036567Y0045508D01*
X0036190Y0045659D01*
X0035810Y0045800D01*
X0035427Y0045932D01*
X0035041Y0046055D01*
X0034651Y0046168D01*
X0034259Y0046272D01*
X0033865Y0046366D01*
X0033468Y0046450D01*
X0033070Y0046525D01*
X0032670Y0046590D01*
X0032268Y0046645D01*
X0031865Y0046690D01*
X0031461Y0046725D01*
X0031056Y0046750D01*
X0030651Y0046766D01*
X0030246Y0046771D01*
X0029840Y0046767D01*
X0029435Y0046752D01*
X0029031Y0046728D01*
X0028627Y0046694D01*
X0028224Y0046649D01*
X0027822Y0046595D01*
X0027421Y0046532D01*
X0027023Y0046458D01*
X0026626Y0046375D01*
X0026231Y0046281D01*
X0025839Y0046179D01*
X0025449Y0046067D01*
X0025063Y0045945D01*
X0024679Y0045813D01*
X0024299Y0045673D01*
X0023922Y0045523D01*
X0023549Y0045364D01*
X0023180Y0045196D01*
X0022816Y0045019D01*
X0022455Y0044833D01*
X0022100Y0044638D01*
X0021749Y0044434D01*
X0021403Y0044222D01*
X0021063Y0044002D01*
X0020728Y0043773D01*
X0020399Y0043537D01*
X0020076Y0043292D01*
X0019759Y0043039D01*
X0019448Y0042779D01*
X0019144Y0042511D01*
X0018846Y0042236D01*
X0018555Y0041953D01*
X0018271Y0041664D01*
X0017995Y0041367D01*
X0017725Y0041064D01*
X0017463Y0040755D01*
X0017209Y0040439D01*
X0016963Y0040117D01*
X0016725Y0039789D01*
X0016494Y0039455D01*
X0016272Y0039116D01*
X0016059Y0038771D01*
X0015853Y0038422D01*
X0015657Y0038067D01*
X0015469Y0037708D01*
X0015290Y0037344D01*
X0015120Y0036976D01*
X0014960Y0036603D01*
X0014808Y0036227D01*
X0014665Y0035848D01*
X0014532Y0035465D01*
X0014409Y0035079D01*
X0014295Y0034690D01*
X0014190Y0034298D01*
X0014095Y0033904D01*
X0014010Y0033507D01*
X0013934Y0033109D01*
X0013868Y0032709D01*
X0013812Y0032307D01*
X0013766Y0031905D01*
X0013730Y0031501D01*
X0013704Y0031096D01*
X0013688Y0030691D01*
X0013681Y0030286D01*
X0013685Y0029880D01*
X0013698Y0029475D01*
X0013721Y0029070D01*
X0013755Y0028666D01*
X0013798Y0028263D01*
X0013851Y0027861D01*
X0013914Y0027461D01*
X0013986Y0027062D01*
X0014069Y0026665D01*
X0014161Y0026270D01*
X0014263Y0025877D01*
X0014374Y0025488D01*
X0014495Y0025101D01*
X0014625Y0024717D01*
X0014765Y0024336D01*
X0014914Y0023959D01*
X0015072Y0023586D01*
X0015239Y0023216D01*
X0015416Y0022851D01*
X0015601Y0022490D01*
X0005758Y0017570D02*
X0005404Y0018200D01*
X0005066Y0018839D01*
X0004743Y0019485D01*
X0004437Y0020140D01*
X0004146Y0020802D01*
X0003872Y0021471D01*
X0003615Y0022146D01*
X0003374Y0022827D01*
X0003149Y0023514D01*
X0002942Y0024207D01*
X0002751Y0024904D01*
X0002578Y0025606D01*
X0002422Y0026311D01*
X0002283Y0027021D01*
X0002161Y0027733D01*
X0002057Y0028448D01*
X0001971Y0029166D01*
X0001902Y0029885D01*
X0001851Y0030606D01*
X0001817Y0031328D01*
X0001801Y0032051D01*
X0001803Y0032774D01*
X0001823Y0033496D01*
X0001860Y0034218D01*
X0001915Y0034939D01*
X0001987Y0035658D01*
X0002077Y0036375D01*
X0002184Y0037090D01*
X0002309Y0037802D01*
X0002452Y0038510D01*
X0002611Y0039215D01*
X0002788Y0039916D01*
X0002982Y0040612D01*
X0003193Y0041304D01*
X0003420Y0041989D01*
X0003665Y0042670D01*
X0003926Y0043344D01*
X0004203Y0044011D01*
X0004497Y0044672D01*
X0004807Y0045325D01*
X0005132Y0045970D01*
X0005474Y0046607D01*
X0005830Y0047236D01*
X0006202Y0047855D01*
X0006589Y0048466D01*
X0006991Y0049066D01*
X0007408Y0049657D01*
X0007839Y0050237D01*
X0008284Y0050807D01*
X0008742Y0051365D01*
X0009215Y0051913D01*
X0009700Y0052448D01*
X0010198Y0052972D01*
X0010709Y0053483D01*
X0011233Y0053981D01*
X0011768Y0054466D01*
X0012316Y0054939D01*
X0012874Y0055397D01*
X0013444Y0055842D01*
X0014024Y0056273D01*
X0014615Y0056690D01*
X0015215Y0057092D01*
X0015826Y0057479D01*
X0016445Y0057851D01*
X0017074Y0058207D01*
X0017711Y0058549D01*
X0018356Y0058874D01*
X0019009Y0059184D01*
X0019670Y0059478D01*
X0020337Y0059755D01*
X0021011Y0060016D01*
X0021692Y0060261D01*
X0022377Y0060488D01*
X0023069Y0060699D01*
X0023765Y0060893D01*
X0024466Y0061070D01*
X0025171Y0061229D01*
X0025879Y0061372D01*
X0026591Y0061497D01*
X0027306Y0061604D01*
X0028023Y0061694D01*
X0028742Y0061766D01*
X0029463Y0061821D01*
X0030185Y0061858D01*
X0030907Y0061878D01*
X0031630Y0061880D01*
X0032353Y0061864D01*
X0033075Y0061830D01*
X0033796Y0061779D01*
X0034515Y0061710D01*
X0035233Y0061624D01*
X0035948Y0061520D01*
X0036660Y0061398D01*
X0037370Y0061259D01*
X0038075Y0061103D01*
X0038777Y0060930D01*
X0039474Y0060739D01*
X0040167Y0060532D01*
X0040854Y0060307D01*
X0041535Y0060066D01*
X0042210Y0059809D01*
X0042879Y0059535D01*
X0043541Y0059244D01*
X0044196Y0058938D01*
X0044842Y0058615D01*
X0045481Y0058277D01*
X0046112Y0057923D01*
X0046112Y0057923D02*
X0113041Y0124852D01*
X0113041Y0278396D01*
X0046112Y0345325D01*
X0057923Y0357136D02*
X0124852Y0290207D01*
X0278396Y0290207D01*
X0345325Y0357136D01*
X0357136Y0345325D02*
X0290207Y0278396D01*
X0290207Y0124852D01*
X0357136Y0057923D01*
X0345325Y0046112D02*
X0278396Y0113041D01*
X0124852Y0113041D01*
X0057923Y0046112D01*
X0058277Y0045481D01*
X0058615Y0044842D01*
X0058938Y0044196D01*
X0059244Y0043541D01*
X0059535Y0042879D01*
X0059809Y0042210D01*
X0060066Y0041535D01*
X0060307Y0040854D01*
X0060532Y0040167D01*
X0060739Y0039474D01*
X0060930Y0038777D01*
X0061103Y0038075D01*
X0061259Y0037370D01*
X0061398Y0036660D01*
X0061520Y0035948D01*
X0061624Y0035233D01*
X0061710Y0034515D01*
X0061779Y0033796D01*
X0061830Y0033075D01*
X0061864Y0032353D01*
X0061880Y0031630D01*
X0061878Y0030907D01*
X0061858Y0030185D01*
X0061821Y0029463D01*
X0061766Y0028742D01*
X0061694Y0028023D01*
X0061604Y0027306D01*
X0061497Y0026591D01*
X0061372Y0025879D01*
X0061229Y0025171D01*
X0061070Y0024466D01*
X0060893Y0023765D01*
X0060699Y0023069D01*
X0060488Y0022377D01*
X0060261Y0021692D01*
X0060016Y0021011D01*
X0059755Y0020337D01*
X0059478Y0019670D01*
X0059184Y0019009D01*
X0058874Y0018356D01*
X0058549Y0017711D01*
X0058207Y0017074D01*
X0057851Y0016445D01*
X0057479Y0015826D01*
X0057092Y0015215D01*
X0056690Y0014615D01*
X0056273Y0014024D01*
X0055842Y0013444D01*
X0055397Y0012874D01*
X0054939Y0012316D01*
X0054466Y0011768D01*
X0053981Y0011233D01*
X0053483Y0010709D01*
X0052972Y0010198D01*
X0052448Y0009700D01*
X0051913Y0009215D01*
X0051365Y0008742D01*
X0050807Y0008284D01*
X0050237Y0007839D01*
X0049657Y0007408D01*
X0049066Y0006991D01*
X0048466Y0006589D01*
X0047855Y0006202D01*
X0047236Y0005830D01*
X0046607Y0005474D01*
X0045970Y0005132D01*
X0045325Y0004807D01*
X0044672Y0004497D01*
X0044011Y0004203D01*
X0043344Y0003926D01*
X0042670Y0003665D01*
X0041989Y0003420D01*
X0041304Y0003193D01*
X0040612Y0002982D01*
X0039916Y0002788D01*
X0039215Y0002611D01*
X0038510Y0002452D01*
X0037802Y0002309D01*
X0037090Y0002184D01*
X0036375Y0002077D01*
X0035658Y0001987D01*
X0034939Y0001915D01*
X0034218Y0001860D01*
X0033496Y0001823D01*
X0032774Y0001803D01*
X0032051Y0001801D01*
X0031328Y0001817D01*
X0030606Y0001851D01*
X0029885Y0001902D01*
X0029166Y0001971D01*
X0028448Y0002057D01*
X0027733Y0002161D01*
X0027021Y0002283D01*
X0026311Y0002422D01*
X0025606Y0002578D01*
X0024904Y0002751D01*
X0024207Y0002942D01*
X0023514Y0003149D01*
X0022827Y0003374D01*
X0022146Y0003615D01*
X0021471Y0003872D01*
X0020802Y0004146D01*
X0020140Y0004437D01*
X0019485Y0004743D01*
X0018839Y0005066D01*
X0018200Y0005404D01*
X0017570Y0005758D01*
X0345325Y0046111D02*
X0344971Y0045481D01*
X0344633Y0044842D01*
X0344310Y0044196D01*
X0344004Y0043541D01*
X0343713Y0042879D01*
X0343439Y0042210D01*
X0343182Y0041535D01*
X0342941Y0040854D01*
X0342716Y0040167D01*
X0342509Y0039474D01*
X0342318Y0038777D01*
X0342145Y0038075D01*
X0341989Y0037370D01*
X0341850Y0036660D01*
X0341728Y0035948D01*
X0341624Y0035233D01*
X0341538Y0034515D01*
X0341469Y0033796D01*
X0341418Y0033075D01*
X0341384Y0032353D01*
X0341368Y0031630D01*
X0341370Y0030907D01*
X0341390Y0030185D01*
X0341427Y0029463D01*
X0341482Y0028742D01*
X0341554Y0028023D01*
X0341644Y0027306D01*
X0341751Y0026591D01*
X0341876Y0025879D01*
X0342019Y0025171D01*
X0342178Y0024466D01*
X0342355Y0023765D01*
X0342549Y0023069D01*
X0342760Y0022377D01*
X0342987Y0021692D01*
X0343232Y0021011D01*
X0343493Y0020337D01*
X0343770Y0019670D01*
X0344064Y0019009D01*
X0344374Y0018356D01*
X0344699Y0017711D01*
X0345041Y0017074D01*
X0345397Y0016445D01*
X0345769Y0015826D01*
X0346156Y0015215D01*
X0346558Y0014615D01*
X0346975Y0014024D01*
X0347406Y0013444D01*
X0347851Y0012874D01*
X0348309Y0012316D01*
X0348782Y0011768D01*
X0349267Y0011233D01*
X0349765Y0010709D01*
X0350276Y0010198D01*
X0350800Y0009700D01*
X0351335Y0009215D01*
X0351883Y0008742D01*
X0352441Y0008284D01*
X0353011Y0007839D01*
X0353591Y0007408D01*
X0354182Y0006991D01*
X0354782Y0006589D01*
X0355393Y0006202D01*
X0356012Y0005830D01*
X0356641Y0005474D01*
X0357278Y0005132D01*
X0357923Y0004807D01*
X0358576Y0004497D01*
X0359237Y0004203D01*
X0359904Y0003926D01*
X0360578Y0003665D01*
X0361259Y0003420D01*
X0361944Y0003193D01*
X0362636Y0002982D01*
X0363332Y0002788D01*
X0364033Y0002611D01*
X0364738Y0002452D01*
X0365446Y0002309D01*
X0366158Y0002184D01*
X0366873Y0002077D01*
X0367590Y0001987D01*
X0368309Y0001915D01*
X0369030Y0001860D01*
X0369752Y0001823D01*
X0370474Y0001803D01*
X0371197Y0001801D01*
X0371920Y0001817D01*
X0372642Y0001851D01*
X0373363Y0001902D01*
X0374082Y0001971D01*
X0374800Y0002057D01*
X0375515Y0002161D01*
X0376227Y0002283D01*
X0376937Y0002422D01*
X0377642Y0002578D01*
X0378344Y0002751D01*
X0379041Y0002942D01*
X0379734Y0003149D01*
X0380421Y0003374D01*
X0381102Y0003615D01*
X0381777Y0003872D01*
X0382446Y0004146D01*
X0383108Y0004437D01*
X0383763Y0004743D01*
X0384409Y0005066D01*
X0385048Y0005404D01*
X0385679Y0005758D01*
X0385679Y0005758D02*
X0380758Y0015600D01*
X0387648Y0022490D02*
X0397490Y0017569D01*
X0387647Y0022490D02*
X0387832Y0022851D01*
X0388009Y0023216D01*
X0388176Y0023586D01*
X0388334Y0023959D01*
X0388483Y0024336D01*
X0388623Y0024717D01*
X0388753Y0025101D01*
X0388874Y0025488D01*
X0388985Y0025877D01*
X0389087Y0026270D01*
X0389179Y0026665D01*
X0389262Y0027062D01*
X0389334Y0027461D01*
X0389397Y0027861D01*
X0389450Y0028263D01*
X0389493Y0028666D01*
X0389527Y0029070D01*
X0389550Y0029475D01*
X0389563Y0029880D01*
X0389567Y0030286D01*
X0389560Y0030691D01*
X0389544Y0031096D01*
X0389518Y0031501D01*
X0389482Y0031905D01*
X0389436Y0032307D01*
X0389380Y0032709D01*
X0389314Y0033109D01*
X0389238Y0033507D01*
X0389153Y0033904D01*
X0389058Y0034298D01*
X0388953Y0034690D01*
X0388839Y0035079D01*
X0388716Y0035465D01*
X0388583Y0035848D01*
X0388440Y0036227D01*
X0388288Y0036603D01*
X0388128Y0036976D01*
X0387958Y0037344D01*
X0387779Y0037708D01*
X0387591Y0038067D01*
X0387395Y0038422D01*
X0387189Y0038771D01*
X0386976Y0039116D01*
X0386754Y0039455D01*
X0386523Y0039789D01*
X0386285Y0040117D01*
X0386039Y0040439D01*
X0385785Y0040755D01*
X0385523Y0041064D01*
X0385253Y0041367D01*
X0384977Y0041664D01*
X0384693Y0041953D01*
X0384402Y0042236D01*
X0384104Y0042511D01*
X0383800Y0042779D01*
X0383489Y0043039D01*
X0383172Y0043292D01*
X0382849Y0043537D01*
X0382520Y0043773D01*
X0382185Y0044002D01*
X0381845Y0044222D01*
X0381499Y0044434D01*
X0381148Y0044638D01*
X0380793Y0044833D01*
X0380432Y0045019D01*
X0380068Y0045196D01*
X0379699Y0045364D01*
X0379326Y0045523D01*
X0378949Y0045673D01*
X0378569Y0045813D01*
X0378185Y0045945D01*
X0377799Y0046067D01*
X0377409Y0046179D01*
X0377017Y0046281D01*
X0376622Y0046375D01*
X0376225Y0046458D01*
X0375827Y0046532D01*
X0375426Y0046595D01*
X0375024Y0046649D01*
X0374621Y0046694D01*
X0374217Y0046728D01*
X0373813Y0046752D01*
X0373408Y0046767D01*
X0373002Y0046771D01*
X0372597Y0046766D01*
X0372192Y0046750D01*
X0371787Y0046725D01*
X0371383Y0046690D01*
X0370980Y0046645D01*
X0370578Y0046590D01*
X0370178Y0046525D01*
X0369780Y0046450D01*
X0369383Y0046366D01*
X0368989Y0046272D01*
X0368597Y0046168D01*
X0368207Y0046055D01*
X0367821Y0045932D01*
X0367438Y0045800D01*
X0367058Y0045659D01*
X0366681Y0045508D01*
X0366309Y0045348D01*
X0365940Y0045179D01*
X0365576Y0045001D01*
X0365216Y0044814D01*
X0364861Y0044618D01*
X0364511Y0044414D01*
X0364166Y0044201D01*
X0363826Y0043980D01*
X0363492Y0043750D01*
X0363163Y0043513D01*
X0362841Y0043267D01*
X0362524Y0043014D01*
X0362214Y0042753D01*
X0361910Y0042484D01*
X0361613Y0042208D01*
X0361323Y0041925D01*
X0361040Y0041635D01*
X0360764Y0041338D01*
X0360495Y0041034D01*
X0360234Y0040724D01*
X0359981Y0040407D01*
X0359735Y0040085D01*
X0359498Y0039756D01*
X0359268Y0039422D01*
X0359047Y0039082D01*
X0358834Y0038737D01*
X0358630Y0038387D01*
X0358434Y0038032D01*
X0358247Y0037672D01*
X0358069Y0037308D01*
X0357900Y0036939D01*
X0357740Y0036567D01*
X0357589Y0036190D01*
X0357448Y0035810D01*
X0357316Y0035427D01*
X0357193Y0035041D01*
X0357080Y0034651D01*
X0356976Y0034259D01*
X0356882Y0033865D01*
X0356798Y0033468D01*
X0356723Y0033070D01*
X0356658Y0032670D01*
X0356603Y0032268D01*
X0356558Y0031865D01*
X0356523Y0031461D01*
X0356498Y0031056D01*
X0356482Y0030651D01*
X0356477Y0030246D01*
X0356481Y0029840D01*
X0356496Y0029435D01*
X0356520Y0029031D01*
X0356554Y0028627D01*
X0356599Y0028224D01*
X0356653Y0027822D01*
X0356716Y0027421D01*
X0356790Y0027023D01*
X0356873Y0026626D01*
X0356967Y0026231D01*
X0357069Y0025839D01*
X0357181Y0025449D01*
X0357303Y0025063D01*
X0357435Y0024679D01*
X0357575Y0024299D01*
X0357725Y0023922D01*
X0357884Y0023549D01*
X0358052Y0023180D01*
X0358229Y0022816D01*
X0358415Y0022455D01*
X0358610Y0022100D01*
X0358814Y0021749D01*
X0359026Y0021403D01*
X0359246Y0021063D01*
X0359475Y0020728D01*
X0359711Y0020399D01*
X0359956Y0020076D01*
X0360209Y0019759D01*
X0360469Y0019448D01*
X0360737Y0019144D01*
X0361012Y0018846D01*
X0361295Y0018555D01*
X0361584Y0018271D01*
X0361881Y0017995D01*
X0362184Y0017725D01*
X0362493Y0017463D01*
X0362809Y0017209D01*
X0363131Y0016963D01*
X0363459Y0016725D01*
X0363793Y0016494D01*
X0364132Y0016272D01*
X0364477Y0016059D01*
X0364826Y0015853D01*
X0365181Y0015657D01*
X0365540Y0015469D01*
X0365904Y0015290D01*
X0366272Y0015120D01*
X0366645Y0014960D01*
X0367021Y0014808D01*
X0367400Y0014665D01*
X0367783Y0014532D01*
X0368169Y0014409D01*
X0368558Y0014295D01*
X0368950Y0014190D01*
X0369344Y0014095D01*
X0369741Y0014010D01*
X0370139Y0013934D01*
X0370539Y0013868D01*
X0370941Y0013812D01*
X0371343Y0013766D01*
X0371747Y0013730D01*
X0372152Y0013704D01*
X0372557Y0013688D01*
X0372962Y0013681D01*
X0373368Y0013685D01*
X0373773Y0013698D01*
X0374178Y0013721D01*
X0374582Y0013755D01*
X0374985Y0013798D01*
X0375387Y0013851D01*
X0375787Y0013914D01*
X0376186Y0013986D01*
X0376583Y0014069D01*
X0376978Y0014161D01*
X0377371Y0014263D01*
X0377760Y0014374D01*
X0378147Y0014495D01*
X0378531Y0014625D01*
X0378912Y0014765D01*
X0379289Y0014914D01*
X0379662Y0015072D01*
X0380032Y0015239D01*
X0380397Y0015416D01*
X0380758Y0015601D01*
X0397489Y0017570D02*
X0397843Y0018200D01*
X0398181Y0018839D01*
X0398504Y0019485D01*
X0398810Y0020140D01*
X0399101Y0020802D01*
X0399375Y0021471D01*
X0399632Y0022146D01*
X0399873Y0022827D01*
X0400098Y0023514D01*
X0400305Y0024207D01*
X0400496Y0024904D01*
X0400669Y0025606D01*
X0400825Y0026311D01*
X0400964Y0027021D01*
X0401086Y0027733D01*
X0401190Y0028448D01*
X0401276Y0029166D01*
X0401345Y0029885D01*
X0401396Y0030606D01*
X0401430Y0031328D01*
X0401446Y0032051D01*
X0401444Y0032774D01*
X0401424Y0033496D01*
X0401387Y0034218D01*
X0401332Y0034939D01*
X0401260Y0035658D01*
X0401170Y0036375D01*
X0401063Y0037090D01*
X0400938Y0037802D01*
X0400795Y0038510D01*
X0400636Y0039215D01*
X0400459Y0039916D01*
X0400265Y0040612D01*
X0400054Y0041304D01*
X0399827Y0041989D01*
X0399582Y0042670D01*
X0399321Y0043344D01*
X0399044Y0044011D01*
X0398750Y0044672D01*
X0398440Y0045325D01*
X0398115Y0045970D01*
X0397773Y0046607D01*
X0397417Y0047236D01*
X0397045Y0047855D01*
X0396658Y0048466D01*
X0396256Y0049066D01*
X0395839Y0049657D01*
X0395408Y0050237D01*
X0394963Y0050807D01*
X0394505Y0051365D01*
X0394032Y0051913D01*
X0393547Y0052448D01*
X0393049Y0052972D01*
X0392538Y0053483D01*
X0392014Y0053981D01*
X0391479Y0054466D01*
X0390931Y0054939D01*
X0390373Y0055397D01*
X0389803Y0055842D01*
X0389223Y0056273D01*
X0388632Y0056690D01*
X0388032Y0057092D01*
X0387421Y0057479D01*
X0386802Y0057851D01*
X0386173Y0058207D01*
X0385536Y0058549D01*
X0384891Y0058874D01*
X0384238Y0059184D01*
X0383577Y0059478D01*
X0382910Y0059755D01*
X0382236Y0060016D01*
X0381555Y0060261D01*
X0380870Y0060488D01*
X0380178Y0060699D01*
X0379482Y0060893D01*
X0378781Y0061070D01*
X0378076Y0061229D01*
X0377368Y0061372D01*
X0376656Y0061497D01*
X0375941Y0061604D01*
X0375224Y0061694D01*
X0374505Y0061766D01*
X0373784Y0061821D01*
X0373062Y0061858D01*
X0372340Y0061878D01*
X0371617Y0061880D01*
X0370894Y0061864D01*
X0370172Y0061830D01*
X0369451Y0061779D01*
X0368732Y0061710D01*
X0368014Y0061624D01*
X0367299Y0061520D01*
X0366587Y0061398D01*
X0365877Y0061259D01*
X0365172Y0061103D01*
X0364470Y0060930D01*
X0363773Y0060739D01*
X0363080Y0060532D01*
X0362393Y0060307D01*
X0361712Y0060066D01*
X0361037Y0059809D01*
X0360368Y0059535D01*
X0359706Y0059244D01*
X0359051Y0058938D01*
X0358405Y0058615D01*
X0357766Y0058277D01*
X0357135Y0057923D01*
X0357136Y0345325D02*
X0357766Y0344971D01*
X0358405Y0344633D01*
X0359051Y0344310D01*
X0359706Y0344004D01*
X0360368Y0343713D01*
X0361037Y0343439D01*
X0361712Y0343182D01*
X0362393Y0342941D01*
X0363080Y0342716D01*
X0363773Y0342509D01*
X0364470Y0342318D01*
X0365172Y0342145D01*
X0365877Y0341989D01*
X0366587Y0341850D01*
X0367299Y0341728D01*
X0368014Y0341624D01*
X0368732Y0341538D01*
X0369451Y0341469D01*
X0370172Y0341418D01*
X0370894Y0341384D01*
X0371617Y0341368D01*
X0372340Y0341370D01*
X0373062Y0341390D01*
X0373784Y0341427D01*
X0374505Y0341482D01*
X0375224Y0341554D01*
X0375941Y0341644D01*
X0376656Y0341751D01*
X0377368Y0341876D01*
X0378076Y0342019D01*
X0378781Y0342178D01*
X0379482Y0342355D01*
X0380178Y0342549D01*
X0380870Y0342760D01*
X0381555Y0342987D01*
X0382236Y0343232D01*
X0382910Y0343493D01*
X0383577Y0343770D01*
X0384238Y0344064D01*
X0384891Y0344374D01*
X0385536Y0344699D01*
X0386173Y0345041D01*
X0386802Y0345397D01*
X0387421Y0345769D01*
X0388032Y0346156D01*
X0388632Y0346558D01*
X0389223Y0346975D01*
X0389803Y0347406D01*
X0390373Y0347851D01*
X0390931Y0348309D01*
X0391479Y0348782D01*
X0392014Y0349267D01*
X0392538Y0349765D01*
X0393049Y0350276D01*
X0393547Y0350800D01*
X0394032Y0351335D01*
X0394505Y0351883D01*
X0394963Y0352441D01*
X0395408Y0353011D01*
X0395839Y0353591D01*
X0396256Y0354182D01*
X0396658Y0354782D01*
X0397045Y0355393D01*
X0397417Y0356012D01*
X0397773Y0356641D01*
X0398115Y0357278D01*
X0398440Y0357923D01*
X0398750Y0358576D01*
X0399044Y0359237D01*
X0399321Y0359904D01*
X0399582Y0360578D01*
X0399827Y0361259D01*
X0400054Y0361944D01*
X0400265Y0362636D01*
X0400459Y0363332D01*
X0400636Y0364033D01*
X0400795Y0364738D01*
X0400938Y0365446D01*
X0401063Y0366158D01*
X0401170Y0366873D01*
X0401260Y0367590D01*
X0401332Y0368309D01*
X0401387Y0369030D01*
X0401424Y0369752D01*
X0401444Y0370474D01*
X0401446Y0371197D01*
X0401430Y0371920D01*
X0401396Y0372642D01*
X0401345Y0373363D01*
X0401276Y0374082D01*
X0401190Y0374800D01*
X0401086Y0375515D01*
X0400964Y0376227D01*
X0400825Y0376937D01*
X0400669Y0377642D01*
X0400496Y0378344D01*
X0400305Y0379041D01*
X0400098Y0379734D01*
X0399873Y0380421D01*
X0399632Y0381102D01*
X0399375Y0381777D01*
X0399101Y0382446D01*
X0398810Y0383108D01*
X0398504Y0383763D01*
X0398181Y0384409D01*
X0397843Y0385048D01*
X0397489Y0385679D01*
X0397490Y0385679D02*
X0387648Y0380758D01*
X0380758Y0387648D02*
X0385679Y0397490D01*
X0380758Y0387647D02*
X0380397Y0387832D01*
X0380032Y0388009D01*
X0379662Y0388176D01*
X0379289Y0388334D01*
X0378912Y0388483D01*
X0378531Y0388623D01*
X0378147Y0388753D01*
X0377760Y0388874D01*
X0377371Y0388985D01*
X0376978Y0389087D01*
X0376583Y0389179D01*
X0376186Y0389262D01*
X0375787Y0389334D01*
X0375387Y0389397D01*
X0374985Y0389450D01*
X0374582Y0389493D01*
X0374178Y0389527D01*
X0373773Y0389550D01*
X0373368Y0389563D01*
X0372962Y0389567D01*
X0372557Y0389560D01*
X0372152Y0389544D01*
X0371747Y0389518D01*
X0371343Y0389482D01*
X0370941Y0389436D01*
X0370539Y0389380D01*
X0370139Y0389314D01*
X0369741Y0389238D01*
X0369344Y0389153D01*
X0368950Y0389058D01*
X0368558Y0388953D01*
X0368169Y0388839D01*
X0367783Y0388716D01*
X0367400Y0388583D01*
X0367021Y0388440D01*
X0366645Y0388288D01*
X0366272Y0388128D01*
X0365904Y0387958D01*
X0365540Y0387779D01*
X0365181Y0387591D01*
X0364826Y0387395D01*
X0364477Y0387189D01*
X0364132Y0386976D01*
X0363793Y0386754D01*
X0363459Y0386523D01*
X0363131Y0386285D01*
X0362809Y0386039D01*
X0362493Y0385785D01*
X0362184Y0385523D01*
X0361881Y0385253D01*
X0361584Y0384977D01*
X0361295Y0384693D01*
X0361012Y0384402D01*
X0360737Y0384104D01*
X0360469Y0383800D01*
X0360209Y0383489D01*
X0359956Y0383172D01*
X0359711Y0382849D01*
X0359475Y0382520D01*
X0359246Y0382185D01*
X0359026Y0381845D01*
X0358814Y0381499D01*
X0358610Y0381148D01*
X0358415Y0380793D01*
X0358229Y0380432D01*
X0358052Y0380068D01*
X0357884Y0379699D01*
X0357725Y0379326D01*
X0357575Y0378949D01*
X0357435Y0378569D01*
X0357303Y0378185D01*
X0357181Y0377799D01*
X0357069Y0377409D01*
X0356967Y0377017D01*
X0356873Y0376622D01*
X0356790Y0376225D01*
X0356716Y0375827D01*
X0356653Y0375426D01*
X0356599Y0375024D01*
X0356554Y0374621D01*
X0356520Y0374217D01*
X0356496Y0373813D01*
X0356481Y0373408D01*
X0356477Y0373002D01*
X0356482Y0372597D01*
X0356498Y0372192D01*
X0356523Y0371787D01*
X0356558Y0371383D01*
X0356603Y0370980D01*
X0356658Y0370578D01*
X0356723Y0370178D01*
X0356798Y0369780D01*
X0356882Y0369383D01*
X0356976Y0368989D01*
X0357080Y0368597D01*
X0357193Y0368207D01*
X0357316Y0367821D01*
X0357448Y0367438D01*
X0357589Y0367058D01*
X0357740Y0366681D01*
X0357900Y0366309D01*
X0358069Y0365940D01*
X0358247Y0365576D01*
X0358434Y0365216D01*
X0358630Y0364861D01*
X0358834Y0364511D01*
X0359047Y0364166D01*
X0359268Y0363826D01*
X0359498Y0363492D01*
X0359735Y0363163D01*
X0359981Y0362841D01*
X0360234Y0362524D01*
X0360495Y0362214D01*
X0360764Y0361910D01*
X0361040Y0361613D01*
X0361323Y0361323D01*
X0361613Y0361040D01*
X0361910Y0360764D01*
X0362214Y0360495D01*
X0362524Y0360234D01*
X0362841Y0359981D01*
X0363163Y0359735D01*
X0363492Y0359498D01*
X0363826Y0359268D01*
X0364166Y0359047D01*
X0364511Y0358834D01*
X0364861Y0358630D01*
X0365216Y0358434D01*
X0365576Y0358247D01*
X0365940Y0358069D01*
X0366309Y0357900D01*
X0366681Y0357740D01*
X0367058Y0357589D01*
X0367438Y0357448D01*
X0367821Y0357316D01*
X0368207Y0357193D01*
X0368597Y0357080D01*
X0368989Y0356976D01*
X0369383Y0356882D01*
X0369780Y0356798D01*
X0370178Y0356723D01*
X0370578Y0356658D01*
X0370980Y0356603D01*
X0371383Y0356558D01*
X0371787Y0356523D01*
X0372192Y0356498D01*
X0372597Y0356482D01*
X0373002Y0356477D01*
X0373408Y0356481D01*
X0373813Y0356496D01*
X0374217Y0356520D01*
X0374621Y0356554D01*
X0375024Y0356599D01*
X0375426Y0356653D01*
X0375827Y0356716D01*
X0376225Y0356790D01*
X0376622Y0356873D01*
X0377017Y0356967D01*
X0377409Y0357069D01*
X0377799Y0357181D01*
X0378185Y0357303D01*
X0378569Y0357435D01*
X0378949Y0357575D01*
X0379326Y0357725D01*
X0379699Y0357884D01*
X0380068Y0358052D01*
X0380432Y0358229D01*
X0380793Y0358415D01*
X0381148Y0358610D01*
X0381499Y0358814D01*
X0381845Y0359026D01*
X0382185Y0359246D01*
X0382520Y0359475D01*
X0382849Y0359711D01*
X0383172Y0359956D01*
X0383489Y0360209D01*
X0383800Y0360469D01*
X0384104Y0360737D01*
X0384402Y0361012D01*
X0384693Y0361295D01*
X0384977Y0361584D01*
X0385253Y0361881D01*
X0385523Y0362184D01*
X0385785Y0362493D01*
X0386039Y0362809D01*
X0386285Y0363131D01*
X0386523Y0363459D01*
X0386754Y0363793D01*
X0386976Y0364132D01*
X0387189Y0364477D01*
X0387395Y0364826D01*
X0387591Y0365181D01*
X0387779Y0365540D01*
X0387958Y0365904D01*
X0388128Y0366272D01*
X0388288Y0366645D01*
X0388440Y0367021D01*
X0388583Y0367400D01*
X0388716Y0367783D01*
X0388839Y0368169D01*
X0388953Y0368558D01*
X0389058Y0368950D01*
X0389153Y0369344D01*
X0389238Y0369741D01*
X0389314Y0370139D01*
X0389380Y0370539D01*
X0389436Y0370941D01*
X0389482Y0371343D01*
X0389518Y0371747D01*
X0389544Y0372152D01*
X0389560Y0372557D01*
X0389567Y0372962D01*
X0389563Y0373368D01*
X0389550Y0373773D01*
X0389527Y0374178D01*
X0389493Y0374582D01*
X0389450Y0374985D01*
X0389397Y0375387D01*
X0389334Y0375787D01*
X0389262Y0376186D01*
X0389179Y0376583D01*
X0389087Y0376978D01*
X0388985Y0377371D01*
X0388874Y0377760D01*
X0388753Y0378147D01*
X0388623Y0378531D01*
X0388483Y0378912D01*
X0388334Y0379289D01*
X0388176Y0379662D01*
X0388009Y0380032D01*
X0387832Y0380397D01*
X0387647Y0380758D01*
X0385678Y0397489D02*
X0385679Y0397489D02*
X0385048Y0397843D01*
X0384409Y0398181D01*
X0383763Y0398504D01*
X0383108Y0398810D01*
X0382446Y0399101D01*
X0381777Y0399375D01*
X0381102Y0399632D01*
X0380421Y0399873D01*
X0379734Y0400098D01*
X0379041Y0400305D01*
X0378344Y0400496D01*
X0377642Y0400669D01*
X0376937Y0400825D01*
X0376227Y0400964D01*
X0375515Y0401086D01*
X0374800Y0401190D01*
X0374082Y0401276D01*
X0373363Y0401345D01*
X0372642Y0401396D01*
X0371920Y0401430D01*
X0371197Y0401446D01*
X0370474Y0401444D01*
X0369752Y0401424D01*
X0369030Y0401387D01*
X0368309Y0401332D01*
X0367590Y0401260D01*
X0366873Y0401170D01*
X0366158Y0401063D01*
X0365446Y0400938D01*
X0364738Y0400795D01*
X0364033Y0400636D01*
X0363332Y0400459D01*
X0362636Y0400265D01*
X0361944Y0400054D01*
X0361259Y0399827D01*
X0360578Y0399582D01*
X0359904Y0399321D01*
X0359237Y0399044D01*
X0358576Y0398750D01*
X0357923Y0398440D01*
X0357278Y0398115D01*
X0356641Y0397773D01*
X0356012Y0397417D01*
X0355393Y0397045D01*
X0354782Y0396658D01*
X0354182Y0396256D01*
X0353591Y0395839D01*
X0353011Y0395408D01*
X0352441Y0394963D01*
X0351883Y0394505D01*
X0351335Y0394032D01*
X0350800Y0393547D01*
X0350276Y0393049D01*
X0349765Y0392538D01*
X0349267Y0392014D01*
X0348782Y0391479D01*
X0348309Y0390931D01*
X0347851Y0390373D01*
X0347406Y0389803D01*
X0346975Y0389223D01*
X0346558Y0388632D01*
X0346156Y0388032D01*
X0345769Y0387421D01*
X0345397Y0386802D01*
X0345041Y0386173D01*
X0344699Y0385536D01*
X0344374Y0384891D01*
X0344064Y0384238D01*
X0343770Y0383577D01*
X0343493Y0382910D01*
X0343232Y0382236D01*
X0342987Y0381555D01*
X0342760Y0380870D01*
X0342549Y0380178D01*
X0342355Y0379482D01*
X0342178Y0378781D01*
X0342019Y0378076D01*
X0341876Y0377368D01*
X0341751Y0376656D01*
X0341644Y0375941D01*
X0341554Y0375224D01*
X0341482Y0374505D01*
X0341427Y0373784D01*
X0341390Y0373062D01*
X0341370Y0372340D01*
X0341368Y0371617D01*
X0341384Y0370894D01*
X0341418Y0370172D01*
X0341469Y0369451D01*
X0341538Y0368732D01*
X0341624Y0368014D01*
X0341728Y0367299D01*
X0341850Y0366587D01*
X0341989Y0365877D01*
X0342145Y0365172D01*
X0342318Y0364470D01*
X0342509Y0363773D01*
X0342716Y0363080D01*
X0342941Y0362393D01*
X0343182Y0361712D01*
X0343439Y0361037D01*
X0343713Y0360368D01*
X0344004Y0359706D01*
X0344310Y0359051D01*
X0344633Y0358405D01*
X0344971Y0357766D01*
X0345325Y0357136D01*
X0057923Y0357136D02*
X0058277Y0357766D01*
X0058615Y0358405D01*
X0058938Y0359051D01*
X0059244Y0359706D01*
X0059535Y0360368D01*
X0059809Y0361037D01*
X0060066Y0361712D01*
X0060307Y0362393D01*
X0060532Y0363080D01*
X0060739Y0363773D01*
X0060930Y0364470D01*
X0061103Y0365172D01*
X0061259Y0365877D01*
X0061398Y0366587D01*
X0061520Y0367299D01*
X0061624Y0368014D01*
X0061710Y0368732D01*
X0061779Y0369451D01*
X0061830Y0370172D01*
X0061864Y0370894D01*
X0061880Y0371617D01*
X0061878Y0372340D01*
X0061858Y0373062D01*
X0061821Y0373784D01*
X0061766Y0374505D01*
X0061694Y0375224D01*
X0061604Y0375941D01*
X0061497Y0376656D01*
X0061372Y0377368D01*
X0061229Y0378076D01*
X0061070Y0378781D01*
X0060893Y0379482D01*
X0060699Y0380178D01*
X0060488Y0380870D01*
X0060261Y0381555D01*
X0060016Y0382236D01*
X0059755Y0382910D01*
X0059478Y0383577D01*
X0059184Y0384238D01*
X0058874Y0384891D01*
X0058549Y0385536D01*
X0058207Y0386173D01*
X0057851Y0386802D01*
X0057479Y0387421D01*
X0057092Y0388032D01*
X0056690Y0388632D01*
X0056273Y0389223D01*
X0055842Y0389803D01*
X0055397Y0390373D01*
X0054939Y0390931D01*
X0054466Y0391479D01*
X0053981Y0392014D01*
X0053483Y0392538D01*
X0052972Y0393049D01*
X0052448Y0393547D01*
X0051913Y0394032D01*
X0051365Y0394505D01*
X0050807Y0394963D01*
X0050237Y0395408D01*
X0049657Y0395839D01*
X0049066Y0396256D01*
X0048466Y0396658D01*
X0047855Y0397045D01*
X0047236Y0397417D01*
X0046607Y0397773D01*
X0045970Y0398115D01*
X0045325Y0398440D01*
X0044672Y0398750D01*
X0044011Y0399044D01*
X0043344Y0399321D01*
X0042670Y0399582D01*
X0041989Y0399827D01*
X0041304Y0400054D01*
X0040612Y0400265D01*
X0039916Y0400459D01*
X0039215Y0400636D01*
X0038510Y0400795D01*
X0037802Y0400938D01*
X0037090Y0401063D01*
X0036375Y0401170D01*
X0035658Y0401260D01*
X0034939Y0401332D01*
X0034218Y0401387D01*
X0033496Y0401424D01*
X0032774Y0401444D01*
X0032051Y0401446D01*
X0031328Y0401430D01*
X0030606Y0401396D01*
X0029885Y0401345D01*
X0029166Y0401276D01*
X0028448Y0401190D01*
X0027733Y0401086D01*
X0027021Y0400964D01*
X0026311Y0400825D01*
X0025606Y0400669D01*
X0024904Y0400496D01*
X0024207Y0400305D01*
X0023514Y0400098D01*
X0022827Y0399873D01*
X0022146Y0399632D01*
X0021471Y0399375D01*
X0020802Y0399101D01*
X0020140Y0398810D01*
X0019485Y0398504D01*
X0018839Y0398181D01*
X0018200Y0397843D01*
X0017569Y0397489D01*
X0017569Y0397490D02*
X0022490Y0387648D01*
X0015600Y0380758D02*
X0005758Y0385679D01*
X0015601Y0380758D02*
X0015416Y0380397D01*
X0015239Y0380032D01*
X0015072Y0379662D01*
X0014914Y0379289D01*
X0014765Y0378912D01*
X0014625Y0378531D01*
X0014495Y0378147D01*
X0014374Y0377760D01*
X0014263Y0377371D01*
X0014161Y0376978D01*
X0014069Y0376583D01*
X0013986Y0376186D01*
X0013914Y0375787D01*
X0013851Y0375387D01*
X0013798Y0374985D01*
X0013755Y0374582D01*
X0013721Y0374178D01*
X0013698Y0373773D01*
X0013685Y0373368D01*
X0013681Y0372962D01*
X0013688Y0372557D01*
X0013704Y0372152D01*
X0013730Y0371747D01*
X0013766Y0371343D01*
X0013812Y0370941D01*
X0013868Y0370539D01*
X0013934Y0370139D01*
X0014010Y0369741D01*
X0014095Y0369344D01*
X0014190Y0368950D01*
X0014295Y0368558D01*
X0014409Y0368169D01*
X0014532Y0367783D01*
X0014665Y0367400D01*
X0014808Y0367021D01*
X0014960Y0366645D01*
X0015120Y0366272D01*
X0015290Y0365904D01*
X0015469Y0365540D01*
X0015657Y0365181D01*
X0015853Y0364826D01*
X0016059Y0364477D01*
X0016272Y0364132D01*
X0016494Y0363793D01*
X0016725Y0363459D01*
X0016963Y0363131D01*
X0017209Y0362809D01*
X0017463Y0362493D01*
X0017725Y0362184D01*
X0017995Y0361881D01*
X0018271Y0361584D01*
X0018555Y0361295D01*
X0018846Y0361012D01*
X0019144Y0360737D01*
X0019448Y0360469D01*
X0019759Y0360209D01*
X0020076Y0359956D01*
X0020399Y0359711D01*
X0020728Y0359475D01*
X0021063Y0359246D01*
X0021403Y0359026D01*
X0021749Y0358814D01*
X0022100Y0358610D01*
X0022455Y0358415D01*
X0022816Y0358229D01*
X0023180Y0358052D01*
X0023549Y0357884D01*
X0023922Y0357725D01*
X0024299Y0357575D01*
X0024679Y0357435D01*
X0025063Y0357303D01*
X0025449Y0357181D01*
X0025839Y0357069D01*
X0026231Y0356967D01*
X0026626Y0356873D01*
X0027023Y0356790D01*
X0027421Y0356716D01*
X0027822Y0356653D01*
X0028224Y0356599D01*
X0028627Y0356554D01*
X0029031Y0356520D01*
X0029435Y0356496D01*
X0029840Y0356481D01*
X0030246Y0356477D01*
X0030651Y0356482D01*
X0031056Y0356498D01*
X0031461Y0356523D01*
X0031865Y0356558D01*
X0032268Y0356603D01*
X0032670Y0356658D01*
X0033070Y0356723D01*
X0033468Y0356798D01*
X0033865Y0356882D01*
X0034259Y0356976D01*
X0034651Y0357080D01*
X0035041Y0357193D01*
X0035427Y0357316D01*
X0035810Y0357448D01*
X0036190Y0357589D01*
X0036567Y0357740D01*
X0036939Y0357900D01*
X0037308Y0358069D01*
X0037672Y0358247D01*
X0038032Y0358434D01*
X0038387Y0358630D01*
X0038737Y0358834D01*
X0039082Y0359047D01*
X0039422Y0359268D01*
X0039756Y0359498D01*
X0040085Y0359735D01*
X0040407Y0359981D01*
X0040724Y0360234D01*
X0041034Y0360495D01*
X0041338Y0360764D01*
X0041635Y0361040D01*
X0041925Y0361323D01*
X0042208Y0361613D01*
X0042484Y0361910D01*
X0042753Y0362214D01*
X0043014Y0362524D01*
X0043267Y0362841D01*
X0043513Y0363163D01*
X0043750Y0363492D01*
X0043980Y0363826D01*
X0044201Y0364166D01*
X0044414Y0364511D01*
X0044618Y0364861D01*
X0044814Y0365216D01*
X0045001Y0365576D01*
X0045179Y0365940D01*
X0045348Y0366309D01*
X0045508Y0366681D01*
X0045659Y0367058D01*
X0045800Y0367438D01*
X0045932Y0367821D01*
X0046055Y0368207D01*
X0046168Y0368597D01*
X0046272Y0368989D01*
X0046366Y0369383D01*
X0046450Y0369780D01*
X0046525Y0370178D01*
X0046590Y0370578D01*
X0046645Y0370980D01*
X0046690Y0371383D01*
X0046725Y0371787D01*
X0046750Y0372192D01*
X0046766Y0372597D01*
X0046771Y0373002D01*
X0046767Y0373408D01*
X0046752Y0373813D01*
X0046728Y0374217D01*
X0046694Y0374621D01*
X0046649Y0375024D01*
X0046595Y0375426D01*
X0046532Y0375827D01*
X0046458Y0376225D01*
X0046375Y0376622D01*
X0046281Y0377017D01*
X0046179Y0377409D01*
X0046067Y0377799D01*
X0045945Y0378185D01*
X0045813Y0378569D01*
X0045673Y0378949D01*
X0045523Y0379326D01*
X0045364Y0379699D01*
X0045196Y0380068D01*
X0045019Y0380432D01*
X0044833Y0380793D01*
X0044638Y0381148D01*
X0044434Y0381499D01*
X0044222Y0381845D01*
X0044002Y0382185D01*
X0043773Y0382520D01*
X0043537Y0382849D01*
X0043292Y0383172D01*
X0043039Y0383489D01*
X0042779Y0383800D01*
X0042511Y0384104D01*
X0042236Y0384402D01*
X0041953Y0384693D01*
X0041664Y0384977D01*
X0041367Y0385253D01*
X0041064Y0385523D01*
X0040755Y0385785D01*
X0040439Y0386039D01*
X0040117Y0386285D01*
X0039789Y0386523D01*
X0039455Y0386754D01*
X0039116Y0386976D01*
X0038771Y0387189D01*
X0038422Y0387395D01*
X0038067Y0387591D01*
X0037708Y0387779D01*
X0037344Y0387958D01*
X0036976Y0388128D01*
X0036603Y0388288D01*
X0036227Y0388440D01*
X0035848Y0388583D01*
X0035465Y0388716D01*
X0035079Y0388839D01*
X0034690Y0388953D01*
X0034298Y0389058D01*
X0033904Y0389153D01*
X0033507Y0389238D01*
X0033109Y0389314D01*
X0032709Y0389380D01*
X0032307Y0389436D01*
X0031905Y0389482D01*
X0031501Y0389518D01*
X0031096Y0389544D01*
X0030691Y0389560D01*
X0030286Y0389567D01*
X0029880Y0389563D01*
X0029475Y0389550D01*
X0029070Y0389527D01*
X0028666Y0389493D01*
X0028263Y0389450D01*
X0027861Y0389397D01*
X0027461Y0389334D01*
X0027062Y0389262D01*
X0026665Y0389179D01*
X0026270Y0389087D01*
X0025877Y0388985D01*
X0025488Y0388874D01*
X0025101Y0388753D01*
X0024717Y0388623D01*
X0024336Y0388483D01*
X0023959Y0388334D01*
X0023586Y0388176D01*
X0023216Y0388009D01*
X0022851Y0387832D01*
X0022490Y0387647D01*
X0005758Y0385678D02*
X0005758Y0385679D02*
X0005404Y0385048D01*
X0005066Y0384409D01*
X0004743Y0383763D01*
X0004437Y0383108D01*
X0004146Y0382446D01*
X0003872Y0381777D01*
X0003615Y0381102D01*
X0003374Y0380421D01*
X0003149Y0379734D01*
X0002942Y0379041D01*
X0002751Y0378344D01*
X0002578Y0377642D01*
X0002422Y0376937D01*
X0002283Y0376227D01*
X0002161Y0375515D01*
X0002057Y0374800D01*
X0001971Y0374082D01*
X0001902Y0373363D01*
X0001851Y0372642D01*
X0001817Y0371920D01*
X0001801Y0371197D01*
X0001803Y0370474D01*
X0001823Y0369752D01*
X0001860Y0369030D01*
X0001915Y0368309D01*
X0001987Y0367590D01*
X0002077Y0366873D01*
X0002184Y0366158D01*
X0002309Y0365446D01*
X0002452Y0364738D01*
X0002611Y0364033D01*
X0002788Y0363332D01*
X0002982Y0362636D01*
X0003193Y0361944D01*
X0003420Y0361259D01*
X0003665Y0360578D01*
X0003926Y0359904D01*
X0004203Y0359237D01*
X0004497Y0358576D01*
X0004807Y0357923D01*
X0005132Y0357278D01*
X0005474Y0356641D01*
X0005830Y0356012D01*
X0006202Y0355393D01*
X0006589Y0354782D01*
X0006991Y0354182D01*
X0007408Y0353591D01*
X0007839Y0353011D01*
X0008284Y0352441D01*
X0008742Y0351883D01*
X0009215Y0351335D01*
X0009700Y0350800D01*
X0010198Y0350276D01*
X0010709Y0349765D01*
X0011233Y0349267D01*
X0011768Y0348782D01*
X0012316Y0348309D01*
X0012874Y0347851D01*
X0013444Y0347406D01*
X0014024Y0346975D01*
X0014615Y0346558D01*
X0015215Y0346156D01*
X0015826Y0345769D01*
X0016445Y0345397D01*
X0017074Y0345041D01*
X0017711Y0344699D01*
X0018356Y0344374D01*
X0019009Y0344064D01*
X0019670Y0343770D01*
X0020337Y0343493D01*
X0021011Y0343232D01*
X0021692Y0342987D01*
X0022377Y0342760D01*
X0023069Y0342549D01*
X0023765Y0342355D01*
X0024466Y0342178D01*
X0025171Y0342019D01*
X0025879Y0341876D01*
X0026591Y0341751D01*
X0027306Y0341644D01*
X0028023Y0341554D01*
X0028742Y0341482D01*
X0029463Y0341427D01*
X0030185Y0341390D01*
X0030907Y0341370D01*
X0031630Y0341368D01*
X0032353Y0341384D01*
X0033075Y0341418D01*
X0033796Y0341469D01*
X0034515Y0341538D01*
X0035233Y0341624D01*
X0035948Y0341728D01*
X0036660Y0341850D01*
X0037370Y0341989D01*
X0038075Y0342145D01*
X0038777Y0342318D01*
X0039474Y0342509D01*
X0040167Y0342716D01*
X0040854Y0342941D01*
X0041535Y0343182D01*
X0042210Y0343439D01*
X0042879Y0343713D01*
X0043541Y0344004D01*
X0044196Y0344310D01*
X0044842Y0344633D01*
X0045481Y0344971D01*
X0046112Y0345325D01*
D11*
X0172096Y0237057D02*
X0172096Y0213435D01*
X0183907Y0205561D01*
X0172096Y0193750D01*
X0172096Y0166191D01*
X0195718Y0150443D01*
X0183907Y0166191D01*
X0183907Y0189813D01*
X0207529Y0213435D01*
X0207529Y0233120D01*
X0195718Y0237057D01*
X0195718Y0213435D01*
X0183907Y0221309D01*
X0183907Y0237057D01*
X0195718Y0252805D01*
X0172096Y0237057D01*
X0207529Y0252805D02*
X0231151Y0237057D01*
X0231151Y0209498D01*
X0219340Y0197687D01*
X0231151Y0189813D01*
X0231151Y0166191D01*
X0207529Y0150443D01*
X0219340Y0166191D01*
X0219340Y0181939D01*
X0207529Y0189813D01*
X0207529Y0166191D01*
X0195718Y0170128D01*
X0195718Y0189813D01*
X0219340Y0213435D01*
X0219340Y0237057D01*
X0207529Y0252805D01*
M02*
