G75*
%MOIN*%
%OFA0B0*%
%FSLAX25Y25*%
%IPPOS*%
%LPD*%
%AMOC8*
5,1,8,0,0,1.08239X$1,22.5*
%
%ADD10R,0.07100X0.07100*%
%ADD11OC8,0.07100*%
%ADD12C,0.07400*%
%ADD13C,0.04356*%
%ADD14C,0.01102*%
%ADD15C,0.03100*%
D10*
X0251742Y0211624D03*
D11*
X0261742Y0211624D03*
X0261742Y0201624D03*
X0251742Y0201624D03*
X0251742Y0191624D03*
X0261742Y0191624D03*
D12*
X0276427Y0200837D03*
X0276427Y0210837D03*
X0276427Y0220837D03*
X0276427Y0230837D03*
X0276427Y0240837D03*
X0276427Y0250837D03*
X0276608Y0269356D03*
X0269537Y0276427D03*
X0221309Y0154380D03*
X0221309Y0144380D03*
X0211624Y0126821D03*
X0201624Y0126821D03*
X0191624Y0126821D03*
X0133907Y0126624D03*
X0126836Y0133695D03*
X0126821Y0150443D03*
X0126821Y0160443D03*
X0126821Y0170443D03*
X0126821Y0180443D03*
X0126821Y0190443D03*
X0126821Y0200443D03*
X0126639Y0269356D03*
X0133711Y0276427D03*
X0276608Y0134876D03*
X0269537Y0127805D03*
D13*
X0337451Y0065797D03*
X0168159Y0224262D03*
X0168159Y0235088D03*
X0163238Y0237057D03*
X0158317Y0238041D03*
X0153396Y0237057D03*
X0148474Y0235088D03*
X0147490Y0217372D03*
X0170128Y0266585D03*
X0226230Y0271506D03*
X0257726Y0260679D03*
X0337451Y0337451D03*
X0149459Y0158317D03*
X0065797Y0065797D03*
X0065797Y0337451D03*
D14*
X0059892Y0068378D02*
X0059892Y0059892D01*
X0068378Y0059892D01*
X0123878Y0115392D01*
X0279369Y0115392D01*
X0280747Y0114015D01*
X0334870Y0059892D01*
X0343356Y0059892D01*
X0343356Y0068378D01*
X0289233Y0122501D01*
X0287855Y0123878D01*
X0287855Y0279369D01*
X0343356Y0334870D01*
X0343356Y0343356D01*
X0334870Y0343356D01*
X0279369Y0287855D01*
X0123878Y0287855D01*
X0068378Y0343356D01*
X0059892Y0343356D01*
X0059892Y0334870D01*
X0115392Y0279369D01*
X0115392Y0258711D01*
X0144537Y0258711D01*
X0144537Y0205561D01*
X0128062Y0205561D01*
X0128837Y0205309D01*
X0129573Y0204934D01*
X0130242Y0204448D01*
X0130826Y0203864D01*
X0131312Y0203195D01*
X0131687Y0202459D01*
X0131943Y0201672D01*
X0132066Y0200892D01*
X0127270Y0200892D01*
X0127270Y0199994D01*
X0132066Y0199994D01*
X0131943Y0199213D01*
X0131687Y0198427D01*
X0131312Y0197691D01*
X0130826Y0197022D01*
X0130242Y0196437D01*
X0129573Y0195952D01*
X0128837Y0195576D01*
X0128050Y0195321D01*
X0127812Y0195283D01*
X0129569Y0194555D01*
X0130933Y0193191D01*
X0131672Y0191408D01*
X0131672Y0189478D01*
X0130933Y0187695D01*
X0129569Y0186330D01*
X0127786Y0185592D01*
X0125856Y0185592D01*
X0124073Y0186330D01*
X0122708Y0187695D01*
X0121970Y0189478D01*
X0121970Y0191408D01*
X0122708Y0193191D01*
X0124073Y0194555D01*
X0125830Y0195283D01*
X0125591Y0195321D01*
X0124805Y0195576D01*
X0124069Y0195952D01*
X0123400Y0196437D01*
X0122815Y0197022D01*
X0122330Y0197691D01*
X0121954Y0198427D01*
X0121699Y0199213D01*
X0121575Y0199994D01*
X0126372Y0199994D01*
X0126372Y0200892D01*
X0121575Y0200892D01*
X0121699Y0201672D01*
X0121954Y0202459D01*
X0122330Y0203195D01*
X0122815Y0203864D01*
X0123400Y0204448D01*
X0124069Y0204934D01*
X0124805Y0205309D01*
X0125580Y0205561D01*
X0115392Y0205561D01*
X0115392Y0123878D01*
X0059892Y0068378D01*
X0059932Y0068418D02*
X0076904Y0068418D01*
X0075803Y0067317D02*
X0059892Y0067317D01*
X0059892Y0066216D02*
X0074702Y0066216D01*
X0073602Y0065116D02*
X0059892Y0065116D01*
X0059892Y0064015D02*
X0072501Y0064015D01*
X0071400Y0062914D02*
X0059892Y0062914D01*
X0059892Y0061813D02*
X0070299Y0061813D01*
X0069198Y0060712D02*
X0059892Y0060712D01*
X0061033Y0069519D02*
X0078005Y0069519D01*
X0079106Y0070620D02*
X0062134Y0070620D01*
X0063235Y0071721D02*
X0080207Y0071721D01*
X0081308Y0072822D02*
X0064336Y0072822D01*
X0065437Y0073923D02*
X0082409Y0073923D01*
X0083509Y0075023D02*
X0066538Y0075023D01*
X0067638Y0076124D02*
X0084610Y0076124D01*
X0085711Y0077225D02*
X0068739Y0077225D01*
X0069840Y0078326D02*
X0086812Y0078326D01*
X0087913Y0079427D02*
X0070941Y0079427D01*
X0072042Y0080528D02*
X0089014Y0080528D01*
X0090115Y0081629D02*
X0073143Y0081629D01*
X0074244Y0082730D02*
X0091216Y0082730D01*
X0092316Y0083830D02*
X0075345Y0083830D01*
X0076445Y0084931D02*
X0093417Y0084931D01*
X0094518Y0086032D02*
X0077546Y0086032D01*
X0078647Y0087133D02*
X0095619Y0087133D01*
X0096720Y0088234D02*
X0079748Y0088234D01*
X0080849Y0089335D02*
X0097821Y0089335D01*
X0098922Y0090436D02*
X0081950Y0090436D01*
X0083051Y0091537D02*
X0100023Y0091537D01*
X0101123Y0092637D02*
X0084151Y0092637D01*
X0085252Y0093738D02*
X0102224Y0093738D01*
X0103325Y0094839D02*
X0086353Y0094839D01*
X0087454Y0095940D02*
X0104426Y0095940D01*
X0105527Y0097041D02*
X0088555Y0097041D01*
X0089656Y0098142D02*
X0106628Y0098142D01*
X0107729Y0099243D02*
X0090757Y0099243D01*
X0091858Y0100344D02*
X0108830Y0100344D01*
X0109930Y0101444D02*
X0092958Y0101444D01*
X0094059Y0102545D02*
X0111031Y0102545D01*
X0112132Y0103646D02*
X0095160Y0103646D01*
X0096261Y0104747D02*
X0113233Y0104747D01*
X0114334Y0105848D02*
X0097362Y0105848D01*
X0098463Y0106949D02*
X0115435Y0106949D01*
X0116536Y0108050D02*
X0099564Y0108050D01*
X0100665Y0109151D02*
X0117637Y0109151D01*
X0118737Y0110251D02*
X0101765Y0110251D01*
X0102866Y0111352D02*
X0119838Y0111352D01*
X0120939Y0112453D02*
X0103967Y0112453D01*
X0105068Y0113554D02*
X0122040Y0113554D01*
X0123141Y0114655D02*
X0106169Y0114655D01*
X0107270Y0115756D02*
X0295978Y0115756D01*
X0294877Y0116857D02*
X0108371Y0116857D01*
X0109472Y0117958D02*
X0293776Y0117958D01*
X0292675Y0119058D02*
X0110572Y0119058D01*
X0111673Y0120159D02*
X0291575Y0120159D01*
X0290474Y0121260D02*
X0112774Y0121260D01*
X0113875Y0122361D02*
X0131522Y0122361D01*
X0131159Y0122511D02*
X0132942Y0121773D01*
X0134872Y0121773D01*
X0136655Y0122511D01*
X0138020Y0123876D01*
X0138759Y0125659D01*
X0138759Y0127589D01*
X0138020Y0129372D01*
X0136655Y0130737D01*
X0134872Y0131475D01*
X0132942Y0131475D01*
X0131159Y0130737D01*
X0129795Y0129372D01*
X0129056Y0127589D01*
X0129056Y0125659D01*
X0129795Y0123876D01*
X0131159Y0122511D01*
X0130209Y0123462D02*
X0114976Y0123462D01*
X0115392Y0124563D02*
X0129510Y0124563D01*
X0129056Y0125664D02*
X0115392Y0125664D01*
X0115392Y0126765D02*
X0129056Y0126765D01*
X0129171Y0127865D02*
X0115392Y0127865D01*
X0115392Y0128966D02*
X0125576Y0128966D01*
X0125871Y0128844D02*
X0127801Y0128844D01*
X0129584Y0129582D01*
X0130949Y0130947D01*
X0131687Y0132730D01*
X0131687Y0134660D01*
X0130949Y0136443D01*
X0129584Y0137808D01*
X0127801Y0138546D01*
X0125871Y0138546D01*
X0124088Y0137808D01*
X0122724Y0136443D01*
X0121985Y0134660D01*
X0121985Y0132730D01*
X0122724Y0130947D01*
X0124088Y0129582D01*
X0125871Y0128844D01*
X0128097Y0128966D02*
X0129627Y0128966D01*
X0130069Y0130067D02*
X0130490Y0130067D01*
X0131040Y0131168D02*
X0132201Y0131168D01*
X0131496Y0132269D02*
X0267637Y0132269D01*
X0266789Y0131918D02*
X0265425Y0130553D01*
X0264686Y0128770D01*
X0264686Y0126840D01*
X0265425Y0125057D01*
X0266789Y0123692D01*
X0268572Y0122954D01*
X0270502Y0122954D01*
X0272285Y0123692D01*
X0273650Y0125057D01*
X0274388Y0126840D01*
X0274388Y0128770D01*
X0273650Y0130553D01*
X0272285Y0131918D01*
X0270502Y0132656D01*
X0268572Y0132656D01*
X0266789Y0131918D01*
X0266040Y0131168D02*
X0213805Y0131168D01*
X0214372Y0130933D02*
X0212589Y0131672D01*
X0210659Y0131672D01*
X0208876Y0130933D01*
X0207511Y0129569D01*
X0206773Y0127786D01*
X0206773Y0125856D01*
X0207511Y0124073D01*
X0208876Y0122708D01*
X0210659Y0121970D01*
X0212589Y0121970D01*
X0214372Y0122708D01*
X0215737Y0124073D01*
X0216475Y0125856D01*
X0216475Y0127786D01*
X0215737Y0129569D01*
X0214372Y0130933D01*
X0215238Y0130067D02*
X0265223Y0130067D01*
X0264767Y0128966D02*
X0215986Y0128966D01*
X0216442Y0127865D02*
X0264686Y0127865D01*
X0264717Y0126765D02*
X0216475Y0126765D01*
X0216395Y0125664D02*
X0265173Y0125664D01*
X0265919Y0124563D02*
X0215940Y0124563D01*
X0215126Y0123462D02*
X0267346Y0123462D01*
X0271729Y0123462D02*
X0288272Y0123462D01*
X0287855Y0124563D02*
X0273156Y0124563D01*
X0273901Y0125664D02*
X0287855Y0125664D01*
X0287855Y0126765D02*
X0274357Y0126765D01*
X0274388Y0127865D02*
X0287855Y0127865D01*
X0287855Y0128966D02*
X0274307Y0128966D01*
X0273851Y0130067D02*
X0275541Y0130067D01*
X0275643Y0130025D02*
X0277573Y0130025D01*
X0279356Y0130763D01*
X0280721Y0132128D01*
X0281460Y0133911D01*
X0281460Y0135841D01*
X0280721Y0137624D01*
X0279356Y0138989D01*
X0277573Y0139727D01*
X0275643Y0139727D01*
X0273860Y0138989D01*
X0272496Y0137624D01*
X0271757Y0135841D01*
X0271757Y0133911D01*
X0272496Y0132128D01*
X0273860Y0130763D01*
X0275643Y0130025D01*
X0277675Y0130067D02*
X0287855Y0130067D01*
X0287855Y0131168D02*
X0279761Y0131168D01*
X0280779Y0132269D02*
X0287855Y0132269D01*
X0287855Y0133370D02*
X0281235Y0133370D01*
X0281460Y0134471D02*
X0287855Y0134471D01*
X0287855Y0135572D02*
X0281460Y0135572D01*
X0281115Y0136672D02*
X0287855Y0136672D01*
X0287855Y0137773D02*
X0280572Y0137773D01*
X0279471Y0138874D02*
X0287855Y0138874D01*
X0287855Y0139975D02*
X0223352Y0139975D01*
X0224057Y0140267D02*
X0225422Y0141632D01*
X0226160Y0143415D01*
X0226160Y0145345D01*
X0225422Y0147128D01*
X0224057Y0148492D01*
X0222300Y0149220D01*
X0222539Y0149258D01*
X0223325Y0149513D01*
X0224061Y0149889D01*
X0224730Y0150374D01*
X0225314Y0150959D01*
X0225800Y0151628D01*
X0226175Y0152364D01*
X0226431Y0153150D01*
X0226555Y0153931D01*
X0221758Y0153931D01*
X0221758Y0154829D01*
X0220860Y0154829D01*
X0220860Y0159625D01*
X0220079Y0159502D01*
X0219293Y0159246D01*
X0218557Y0158871D01*
X0217888Y0158385D01*
X0217304Y0157801D01*
X0216818Y0157132D01*
X0216443Y0156396D01*
X0216187Y0155609D01*
X0216063Y0154829D01*
X0220860Y0154829D01*
X0220860Y0153931D01*
X0216063Y0153931D01*
X0216187Y0153150D01*
X0216443Y0152364D01*
X0216818Y0151628D01*
X0217304Y0150959D01*
X0217888Y0150374D01*
X0218557Y0149889D01*
X0219293Y0149513D01*
X0220079Y0149258D01*
X0220318Y0149220D01*
X0218561Y0148492D01*
X0217196Y0147128D01*
X0216458Y0145345D01*
X0216458Y0143415D01*
X0217196Y0141632D01*
X0218561Y0140267D01*
X0220344Y0139529D01*
X0222274Y0139529D01*
X0224057Y0140267D01*
X0224866Y0141076D02*
X0287855Y0141076D01*
X0287855Y0142177D02*
X0225647Y0142177D01*
X0226103Y0143278D02*
X0287855Y0143278D01*
X0287855Y0144379D02*
X0226160Y0144379D01*
X0226104Y0145479D02*
X0287855Y0145479D01*
X0287855Y0146580D02*
X0225648Y0146580D01*
X0224868Y0147681D02*
X0287855Y0147681D01*
X0287855Y0148782D02*
X0223358Y0148782D01*
X0224050Y0149883D02*
X0287855Y0149883D01*
X0287855Y0150984D02*
X0225332Y0150984D01*
X0226033Y0152085D02*
X0248335Y0152085D01*
X0248322Y0152090D02*
X0249315Y0151679D01*
X0250390Y0151679D01*
X0251382Y0152090D01*
X0252142Y0152850D01*
X0252553Y0153843D01*
X0252553Y0154917D01*
X0252142Y0155910D01*
X0251555Y0156498D01*
X0251555Y0180805D01*
X0252142Y0181393D01*
X0252553Y0182386D01*
X0252553Y0183460D01*
X0252142Y0184453D01*
X0251382Y0185213D01*
X0250390Y0185624D01*
X0249315Y0185624D01*
X0248322Y0185213D01*
X0247562Y0184453D01*
X0247151Y0183460D01*
X0247151Y0182386D01*
X0247562Y0181393D01*
X0248150Y0180805D01*
X0248150Y0156498D01*
X0247562Y0155910D01*
X0247151Y0154917D01*
X0247151Y0153843D01*
X0247562Y0152850D01*
X0248322Y0152090D01*
X0247423Y0153185D02*
X0226436Y0153185D01*
X0226555Y0154829D02*
X0226431Y0155609D01*
X0226175Y0156396D01*
X0225800Y0157132D01*
X0225314Y0157801D01*
X0224730Y0158385D01*
X0224061Y0158871D01*
X0223325Y0159246D01*
X0222539Y0159502D01*
X0221758Y0159625D01*
X0221758Y0154829D01*
X0226555Y0154829D01*
X0226466Y0155387D02*
X0247346Y0155387D01*
X0247151Y0154286D02*
X0221758Y0154286D01*
X0220860Y0154286D02*
X0129838Y0154286D01*
X0129569Y0154555D02*
X0127786Y0155294D01*
X0125856Y0155294D01*
X0124073Y0154555D01*
X0122708Y0153191D01*
X0121970Y0151408D01*
X0121970Y0149478D01*
X0122708Y0147695D01*
X0124073Y0146330D01*
X0125856Y0145592D01*
X0127786Y0145592D01*
X0129569Y0146330D01*
X0130933Y0147695D01*
X0131672Y0149478D01*
X0131672Y0151408D01*
X0130933Y0153191D01*
X0129569Y0154555D01*
X0129569Y0156330D02*
X0130933Y0157695D01*
X0131672Y0159478D01*
X0131672Y0161408D01*
X0130933Y0163191D01*
X0129569Y0164555D01*
X0127786Y0165294D01*
X0125856Y0165294D01*
X0124073Y0164555D01*
X0122708Y0163191D01*
X0121970Y0161408D01*
X0121970Y0159478D01*
X0122708Y0157695D01*
X0124073Y0156330D01*
X0125856Y0155592D01*
X0127786Y0155592D01*
X0129569Y0156330D01*
X0129727Y0156488D02*
X0216490Y0156488D01*
X0216152Y0155387D02*
X0115392Y0155387D01*
X0115392Y0154286D02*
X0123804Y0154286D01*
X0122706Y0153185D02*
X0115392Y0153185D01*
X0115392Y0152085D02*
X0122250Y0152085D01*
X0121970Y0150984D02*
X0115392Y0150984D01*
X0115392Y0149883D02*
X0121970Y0149883D01*
X0122258Y0148782D02*
X0115392Y0148782D01*
X0115392Y0147681D02*
X0122722Y0147681D01*
X0123823Y0146580D02*
X0115392Y0146580D01*
X0115392Y0145479D02*
X0216514Y0145479D01*
X0216458Y0144379D02*
X0115392Y0144379D01*
X0115392Y0143278D02*
X0216515Y0143278D01*
X0216971Y0142177D02*
X0115392Y0142177D01*
X0115392Y0141076D02*
X0217752Y0141076D01*
X0219266Y0139975D02*
X0115392Y0139975D01*
X0115392Y0138874D02*
X0273746Y0138874D01*
X0272645Y0137773D02*
X0129619Y0137773D01*
X0130720Y0136672D02*
X0272102Y0136672D01*
X0271757Y0135572D02*
X0131310Y0135572D01*
X0131687Y0134471D02*
X0271757Y0134471D01*
X0271981Y0133370D02*
X0131687Y0133370D01*
X0135614Y0131168D02*
X0189442Y0131168D01*
X0188876Y0130933D02*
X0187511Y0129569D01*
X0186773Y0127786D01*
X0186773Y0125856D01*
X0187511Y0124073D01*
X0188876Y0122708D01*
X0190659Y0121970D01*
X0192589Y0121970D01*
X0194372Y0122708D01*
X0195737Y0124073D01*
X0196475Y0125856D01*
X0196475Y0127786D01*
X0195737Y0129569D01*
X0194372Y0130933D01*
X0192589Y0131672D01*
X0190659Y0131672D01*
X0188876Y0130933D01*
X0188010Y0130067D02*
X0137325Y0130067D01*
X0138188Y0128966D02*
X0187262Y0128966D01*
X0186806Y0127865D02*
X0138644Y0127865D01*
X0138759Y0126765D02*
X0186773Y0126765D01*
X0186852Y0125664D02*
X0138759Y0125664D01*
X0138305Y0124563D02*
X0187308Y0124563D01*
X0188122Y0123462D02*
X0137606Y0123462D01*
X0136293Y0122361D02*
X0189714Y0122361D01*
X0193534Y0122361D02*
X0199714Y0122361D01*
X0198876Y0122708D02*
X0200659Y0121970D01*
X0202589Y0121970D01*
X0204372Y0122708D01*
X0205737Y0124073D01*
X0206475Y0125856D01*
X0206475Y0127786D01*
X0205737Y0129569D01*
X0204372Y0130933D01*
X0202589Y0131672D01*
X0200659Y0131672D01*
X0198876Y0130933D01*
X0197511Y0129569D01*
X0196773Y0127786D01*
X0196773Y0125856D01*
X0197511Y0124073D01*
X0198876Y0122708D01*
X0198122Y0123462D02*
X0195126Y0123462D01*
X0195940Y0124563D02*
X0197308Y0124563D01*
X0196852Y0125664D02*
X0196395Y0125664D01*
X0196475Y0126765D02*
X0196773Y0126765D01*
X0196806Y0127865D02*
X0196442Y0127865D01*
X0195986Y0128966D02*
X0197262Y0128966D01*
X0198010Y0130067D02*
X0195238Y0130067D01*
X0193805Y0131168D02*
X0199442Y0131168D01*
X0203805Y0131168D02*
X0209442Y0131168D01*
X0208010Y0130067D02*
X0205238Y0130067D01*
X0205986Y0128966D02*
X0207262Y0128966D01*
X0206806Y0127865D02*
X0206442Y0127865D01*
X0206475Y0126765D02*
X0206773Y0126765D01*
X0206852Y0125664D02*
X0206395Y0125664D01*
X0205940Y0124563D02*
X0207308Y0124563D01*
X0208122Y0123462D02*
X0205126Y0123462D01*
X0203534Y0122361D02*
X0209714Y0122361D01*
X0213534Y0122361D02*
X0289373Y0122361D01*
X0297079Y0114655D02*
X0280107Y0114655D01*
X0281208Y0113554D02*
X0298180Y0113554D01*
X0299281Y0112453D02*
X0282309Y0112453D01*
X0283410Y0111352D02*
X0300382Y0111352D01*
X0301482Y0110251D02*
X0284510Y0110251D01*
X0285611Y0109151D02*
X0302583Y0109151D01*
X0303684Y0108050D02*
X0286712Y0108050D01*
X0287813Y0106949D02*
X0304785Y0106949D01*
X0305886Y0105848D02*
X0288914Y0105848D01*
X0290015Y0104747D02*
X0306987Y0104747D01*
X0308088Y0103646D02*
X0291116Y0103646D01*
X0292217Y0102545D02*
X0309188Y0102545D01*
X0310289Y0101444D02*
X0293317Y0101444D01*
X0294418Y0100344D02*
X0311390Y0100344D01*
X0312491Y0099243D02*
X0295519Y0099243D01*
X0296620Y0098142D02*
X0313592Y0098142D01*
X0314693Y0097041D02*
X0297721Y0097041D01*
X0298822Y0095940D02*
X0315794Y0095940D01*
X0316895Y0094839D02*
X0299923Y0094839D01*
X0301024Y0093738D02*
X0317995Y0093738D01*
X0319096Y0092637D02*
X0302124Y0092637D01*
X0303225Y0091537D02*
X0320197Y0091537D01*
X0321298Y0090436D02*
X0304326Y0090436D01*
X0305427Y0089335D02*
X0322399Y0089335D01*
X0323500Y0088234D02*
X0306528Y0088234D01*
X0307629Y0087133D02*
X0324601Y0087133D01*
X0325702Y0086032D02*
X0308730Y0086032D01*
X0309831Y0084931D02*
X0326802Y0084931D01*
X0327903Y0083830D02*
X0310931Y0083830D01*
X0312032Y0082730D02*
X0329004Y0082730D01*
X0330105Y0081629D02*
X0313133Y0081629D01*
X0314234Y0080528D02*
X0331206Y0080528D01*
X0332307Y0079427D02*
X0315335Y0079427D01*
X0316436Y0078326D02*
X0333408Y0078326D01*
X0334509Y0077225D02*
X0317537Y0077225D01*
X0318638Y0076124D02*
X0335609Y0076124D01*
X0336710Y0075023D02*
X0319738Y0075023D01*
X0320839Y0073923D02*
X0337811Y0073923D01*
X0338912Y0072822D02*
X0321940Y0072822D01*
X0323041Y0071721D02*
X0340013Y0071721D01*
X0341114Y0070620D02*
X0324142Y0070620D01*
X0325243Y0069519D02*
X0342215Y0069519D01*
X0343316Y0068418D02*
X0326344Y0068418D01*
X0327445Y0067317D02*
X0343356Y0067317D01*
X0343356Y0066216D02*
X0328545Y0066216D01*
X0329646Y0065116D02*
X0343356Y0065116D01*
X0343356Y0064015D02*
X0330747Y0064015D01*
X0331848Y0062914D02*
X0343356Y0062914D01*
X0343356Y0061813D02*
X0332949Y0061813D01*
X0334050Y0060712D02*
X0343356Y0060712D01*
X0273456Y0131168D02*
X0273035Y0131168D01*
X0272437Y0132269D02*
X0271437Y0132269D01*
X0287855Y0152085D02*
X0251370Y0152085D01*
X0252281Y0153185D02*
X0287855Y0153185D01*
X0287855Y0154286D02*
X0252553Y0154286D01*
X0252359Y0155387D02*
X0287855Y0155387D01*
X0287855Y0156488D02*
X0251564Y0156488D01*
X0251555Y0157589D02*
X0287855Y0157589D01*
X0287855Y0158690D02*
X0251555Y0158690D01*
X0251555Y0159791D02*
X0287855Y0159791D01*
X0287855Y0160892D02*
X0251555Y0160892D01*
X0251555Y0161992D02*
X0287855Y0161992D01*
X0287855Y0163093D02*
X0251555Y0163093D01*
X0251555Y0164194D02*
X0287855Y0164194D01*
X0287855Y0165295D02*
X0251555Y0165295D01*
X0251555Y0166396D02*
X0287855Y0166396D01*
X0287855Y0167497D02*
X0251555Y0167497D01*
X0251555Y0168598D02*
X0287855Y0168598D01*
X0287855Y0169699D02*
X0251555Y0169699D01*
X0251555Y0170799D02*
X0287855Y0170799D01*
X0287855Y0171900D02*
X0251555Y0171900D01*
X0251555Y0173001D02*
X0287855Y0173001D01*
X0287855Y0174102D02*
X0251555Y0174102D01*
X0251555Y0175203D02*
X0287855Y0175203D01*
X0287855Y0176304D02*
X0251555Y0176304D01*
X0251555Y0177405D02*
X0287855Y0177405D01*
X0287855Y0178506D02*
X0251555Y0178506D01*
X0251555Y0179606D02*
X0287855Y0179606D01*
X0287855Y0180707D02*
X0251555Y0180707D01*
X0252314Y0181808D02*
X0287855Y0181808D01*
X0287855Y0182909D02*
X0252553Y0182909D01*
X0252326Y0184010D02*
X0287855Y0184010D01*
X0287855Y0185111D02*
X0251485Y0185111D01*
X0249795Y0186923D02*
X0253689Y0186923D01*
X0256443Y0189677D01*
X0256443Y0193571D01*
X0253689Y0196325D01*
X0249795Y0196325D01*
X0249248Y0195778D01*
X0246633Y0198392D01*
X0246633Y0220604D01*
X0249586Y0223557D01*
X0249586Y0248719D01*
X0250174Y0249306D01*
X0250585Y0250299D01*
X0250585Y0251374D01*
X0250174Y0252367D01*
X0249414Y0253126D01*
X0248421Y0253538D01*
X0247346Y0253538D01*
X0246354Y0253126D01*
X0245594Y0252367D01*
X0245183Y0251374D01*
X0245183Y0250299D01*
X0245594Y0249306D01*
X0246181Y0248719D01*
X0246181Y0224967D01*
X0244226Y0223011D01*
X0232415Y0211200D01*
X0177167Y0211200D01*
X0176579Y0211788D01*
X0175586Y0212199D01*
X0174512Y0212199D01*
X0173519Y0211788D01*
X0172759Y0211028D01*
X0172348Y0210035D01*
X0172348Y0208961D01*
X0172759Y0207968D01*
X0173519Y0207208D01*
X0174512Y0206797D01*
X0175586Y0206797D01*
X0176579Y0207208D01*
X0177167Y0207796D01*
X0233825Y0207796D01*
X0234822Y0208793D01*
X0243229Y0217199D01*
X0243229Y0196982D01*
X0247041Y0193170D01*
X0247041Y0189677D01*
X0249795Y0186923D01*
X0249405Y0187313D02*
X0202712Y0187313D01*
X0203813Y0188413D02*
X0248304Y0188413D01*
X0247203Y0189514D02*
X0204914Y0189514D01*
X0206015Y0190615D02*
X0247041Y0190615D01*
X0247041Y0191716D02*
X0207116Y0191716D01*
X0208217Y0192817D02*
X0247041Y0192817D01*
X0246293Y0193918D02*
X0209317Y0193918D01*
X0210019Y0194620D02*
X0210019Y0201081D01*
X0210607Y0201669D01*
X0211018Y0202661D01*
X0211018Y0203736D01*
X0210607Y0204729D01*
X0209847Y0205489D01*
X0208854Y0205900D01*
X0207780Y0205900D01*
X0206787Y0205489D01*
X0206027Y0204729D01*
X0205616Y0203736D01*
X0205616Y0202661D01*
X0206027Y0201669D01*
X0206614Y0201081D01*
X0206614Y0196030D01*
X0205181Y0194597D01*
X0204898Y0195280D01*
X0204138Y0196040D01*
X0203145Y0196451D01*
X0202071Y0196451D01*
X0201078Y0196040D01*
X0200318Y0195280D01*
X0199907Y0194287D01*
X0199907Y0193456D01*
X0196996Y0190546D01*
X0196165Y0190546D01*
X0195173Y0190134D01*
X0194413Y0189374D01*
X0194001Y0188382D01*
X0194001Y0187307D01*
X0194413Y0186314D01*
X0195173Y0185554D01*
X0195856Y0185271D01*
X0189305Y0178720D01*
X0184899Y0178720D01*
X0185241Y0178862D01*
X0186000Y0179621D01*
X0186412Y0180614D01*
X0186412Y0181445D01*
X0202708Y0197742D01*
X0203342Y0197742D01*
X0204335Y0198153D01*
X0205095Y0198913D01*
X0205506Y0199906D01*
X0205506Y0200980D01*
X0205095Y0201973D01*
X0204335Y0202733D01*
X0203342Y0203144D01*
X0202268Y0203144D01*
X0201275Y0202733D01*
X0200515Y0201973D01*
X0200104Y0200980D01*
X0200104Y0199952D01*
X0184004Y0183853D01*
X0183173Y0183853D01*
X0182180Y0183441D01*
X0181421Y0182682D01*
X0181009Y0181689D01*
X0181009Y0180614D01*
X0181421Y0179621D01*
X0182180Y0178862D01*
X0182522Y0178720D01*
X0180120Y0178720D01*
X0179532Y0179308D01*
X0178539Y0179719D01*
X0177465Y0179719D01*
X0176472Y0179308D01*
X0175712Y0178548D01*
X0175301Y0177555D01*
X0175301Y0176480D01*
X0175712Y0175488D01*
X0176472Y0174728D01*
X0177465Y0174316D01*
X0178539Y0174316D01*
X0179532Y0174728D01*
X0180120Y0175315D01*
X0190715Y0175315D01*
X0191712Y0176312D01*
X0192805Y0177405D01*
X0192804Y0177405D01*
X0192805Y0177405D02*
X0192805Y0161632D01*
X0193128Y0161309D01*
X0210120Y0161309D01*
X0210443Y0161632D01*
X0210443Y0178624D01*
X0210120Y0178947D01*
X0194346Y0178947D01*
X0210019Y0194620D01*
X0210019Y0195019D02*
X0245192Y0195019D01*
X0244091Y0196120D02*
X0210019Y0196120D01*
X0210019Y0197220D02*
X0243229Y0197220D01*
X0243229Y0198321D02*
X0210019Y0198321D01*
X0210019Y0199422D02*
X0243229Y0199422D01*
X0243229Y0200523D02*
X0210019Y0200523D01*
X0210562Y0201624D02*
X0243229Y0201624D01*
X0243229Y0202725D02*
X0211018Y0202725D01*
X0210981Y0203826D02*
X0243229Y0203826D01*
X0243229Y0204927D02*
X0210409Y0204927D01*
X0208317Y0203199D02*
X0208317Y0195325D01*
X0190010Y0177018D01*
X0178002Y0177018D01*
X0180007Y0175203D02*
X0192805Y0175203D01*
X0192805Y0176304D02*
X0191703Y0176304D01*
X0192805Y0174102D02*
X0168989Y0174102D01*
X0168877Y0174214D02*
X0168877Y0207809D01*
X0179691Y0218622D01*
X0198522Y0218622D01*
X0199110Y0218035D01*
X0200102Y0217624D01*
X0201177Y0217624D01*
X0202170Y0218035D01*
X0202930Y0218795D01*
X0203341Y0219787D01*
X0203341Y0220862D01*
X0202930Y0221855D01*
X0202170Y0222615D01*
X0201177Y0223026D01*
X0200102Y0223026D01*
X0199110Y0222615D01*
X0198522Y0222027D01*
X0178281Y0222027D01*
X0166470Y0210216D01*
X0166470Y0210216D01*
X0165473Y0209219D01*
X0165473Y0174214D01*
X0164885Y0173626D01*
X0164474Y0172634D01*
X0164474Y0171559D01*
X0164885Y0170566D01*
X0165645Y0169806D01*
X0166638Y0169395D01*
X0167712Y0169395D01*
X0168705Y0169806D01*
X0169465Y0170566D01*
X0169876Y0171559D01*
X0169876Y0172634D01*
X0169465Y0173626D01*
X0168877Y0174214D01*
X0168877Y0175203D02*
X0175996Y0175203D01*
X0175374Y0176304D02*
X0168877Y0176304D01*
X0168877Y0177405D02*
X0175301Y0177405D01*
X0175694Y0178506D02*
X0168877Y0178506D01*
X0168877Y0179606D02*
X0177193Y0179606D01*
X0178810Y0179606D02*
X0181436Y0179606D01*
X0181009Y0180707D02*
X0168877Y0180707D01*
X0168877Y0181808D02*
X0181059Y0181808D01*
X0181648Y0182909D02*
X0168877Y0182909D01*
X0168877Y0184010D02*
X0184162Y0184010D01*
X0185262Y0185111D02*
X0168877Y0185111D01*
X0168877Y0186212D02*
X0186363Y0186212D01*
X0187464Y0187313D02*
X0168877Y0187313D01*
X0168877Y0188413D02*
X0188565Y0188413D01*
X0189666Y0189514D02*
X0168877Y0189514D01*
X0168877Y0190615D02*
X0190767Y0190615D01*
X0191868Y0191716D02*
X0168877Y0191716D01*
X0168877Y0192817D02*
X0192969Y0192817D01*
X0194069Y0193918D02*
X0168877Y0193918D01*
X0168877Y0195019D02*
X0195170Y0195019D01*
X0196271Y0196120D02*
X0168877Y0196120D01*
X0168877Y0197220D02*
X0197372Y0197220D01*
X0198473Y0198321D02*
X0168877Y0198321D01*
X0168877Y0199422D02*
X0199574Y0199422D01*
X0200104Y0200523D02*
X0168877Y0200523D01*
X0168877Y0201624D02*
X0200371Y0201624D01*
X0201267Y0202725D02*
X0168877Y0202725D01*
X0168877Y0203826D02*
X0205653Y0203826D01*
X0205616Y0202725D02*
X0204343Y0202725D01*
X0205240Y0201624D02*
X0206072Y0201624D01*
X0206614Y0200523D02*
X0205506Y0200523D01*
X0205306Y0199422D02*
X0206614Y0199422D01*
X0206614Y0198321D02*
X0204504Y0198321D01*
X0203946Y0196120D02*
X0206614Y0196120D01*
X0206614Y0197220D02*
X0202187Y0197220D01*
X0201271Y0196120D02*
X0201086Y0196120D01*
X0200210Y0195019D02*
X0199985Y0195019D01*
X0199907Y0193918D02*
X0198884Y0193918D01*
X0199268Y0192817D02*
X0197783Y0192817D01*
X0198167Y0191716D02*
X0196683Y0191716D01*
X0197066Y0190615D02*
X0195582Y0190615D01*
X0194553Y0189514D02*
X0194481Y0189514D01*
X0194015Y0188413D02*
X0193380Y0188413D01*
X0194001Y0187313D02*
X0192279Y0187313D01*
X0191178Y0186212D02*
X0194515Y0186212D01*
X0195695Y0185111D02*
X0190077Y0185111D01*
X0188977Y0184010D02*
X0194595Y0184010D01*
X0193494Y0182909D02*
X0187876Y0182909D01*
X0186775Y0181808D02*
X0192393Y0181808D01*
X0191292Y0180707D02*
X0186412Y0180707D01*
X0185986Y0179606D02*
X0190191Y0179606D01*
X0195006Y0179606D02*
X0248150Y0179606D01*
X0248150Y0178506D02*
X0210443Y0178506D01*
X0210443Y0177405D02*
X0248150Y0177405D01*
X0248150Y0176304D02*
X0210443Y0176304D01*
X0210443Y0175203D02*
X0248150Y0175203D01*
X0248150Y0174102D02*
X0210443Y0174102D01*
X0210443Y0173001D02*
X0248150Y0173001D01*
X0248150Y0171900D02*
X0210443Y0171900D01*
X0210443Y0170799D02*
X0248150Y0170799D01*
X0248150Y0169699D02*
X0210443Y0169699D01*
X0210443Y0168598D02*
X0248150Y0168598D01*
X0248150Y0167497D02*
X0210443Y0167497D01*
X0210443Y0166396D02*
X0248150Y0166396D01*
X0248150Y0165295D02*
X0210443Y0165295D01*
X0210443Y0164194D02*
X0248150Y0164194D01*
X0248150Y0163093D02*
X0210443Y0163093D01*
X0210443Y0161992D02*
X0248150Y0161992D01*
X0248150Y0160892D02*
X0131672Y0160892D01*
X0131672Y0159791D02*
X0248150Y0159791D01*
X0248150Y0158690D02*
X0224311Y0158690D01*
X0225468Y0157589D02*
X0248150Y0157589D01*
X0248141Y0156488D02*
X0226128Y0156488D01*
X0221758Y0156488D02*
X0220860Y0156488D01*
X0220860Y0155387D02*
X0221758Y0155387D01*
X0221758Y0157589D02*
X0220860Y0157589D01*
X0220860Y0158690D02*
X0221758Y0158690D01*
X0218307Y0158690D02*
X0131346Y0158690D01*
X0130828Y0157589D02*
X0217150Y0157589D01*
X0216181Y0153185D02*
X0130936Y0153185D01*
X0131392Y0152085D02*
X0216585Y0152085D01*
X0217286Y0150984D02*
X0131672Y0150984D01*
X0131672Y0149883D02*
X0218568Y0149883D01*
X0219260Y0148782D02*
X0131384Y0148782D01*
X0130920Y0147681D02*
X0217750Y0147681D01*
X0216970Y0146580D02*
X0129819Y0146580D01*
X0124054Y0137773D02*
X0115392Y0137773D01*
X0115392Y0136672D02*
X0122953Y0136672D01*
X0122363Y0135572D02*
X0115392Y0135572D01*
X0115392Y0134471D02*
X0121985Y0134471D01*
X0121985Y0133370D02*
X0115392Y0133370D01*
X0115392Y0132269D02*
X0122176Y0132269D01*
X0122632Y0131168D02*
X0115392Y0131168D01*
X0115392Y0130067D02*
X0123604Y0130067D01*
X0123915Y0156488D02*
X0115392Y0156488D01*
X0115392Y0157589D02*
X0122814Y0157589D01*
X0122296Y0158690D02*
X0115392Y0158690D01*
X0115392Y0159791D02*
X0121970Y0159791D01*
X0121970Y0160892D02*
X0115392Y0160892D01*
X0115392Y0161992D02*
X0122212Y0161992D01*
X0122668Y0163093D02*
X0115392Y0163093D01*
X0115392Y0164194D02*
X0123712Y0164194D01*
X0124073Y0166330D02*
X0125856Y0165592D01*
X0127786Y0165592D01*
X0129569Y0166330D01*
X0130933Y0167695D01*
X0131672Y0169478D01*
X0131672Y0171408D01*
X0130933Y0173191D01*
X0129569Y0174555D01*
X0127786Y0175294D01*
X0125856Y0175294D01*
X0124073Y0174555D01*
X0122708Y0173191D01*
X0121970Y0171408D01*
X0121970Y0169478D01*
X0122708Y0167695D01*
X0124073Y0166330D01*
X0124007Y0166396D02*
X0115392Y0166396D01*
X0115392Y0167497D02*
X0122906Y0167497D01*
X0122334Y0168598D02*
X0115392Y0168598D01*
X0115392Y0169699D02*
X0121970Y0169699D01*
X0121970Y0170799D02*
X0115392Y0170799D01*
X0115392Y0171900D02*
X0122174Y0171900D01*
X0122630Y0173001D02*
X0115392Y0173001D01*
X0115392Y0174102D02*
X0123619Y0174102D01*
X0124136Y0176304D02*
X0115392Y0176304D01*
X0115392Y0177405D02*
X0122998Y0177405D01*
X0122708Y0177695D02*
X0124073Y0176330D01*
X0125856Y0175592D01*
X0127786Y0175592D01*
X0129569Y0176330D01*
X0130933Y0177695D01*
X0131672Y0179478D01*
X0131672Y0181408D01*
X0130933Y0183191D01*
X0129569Y0184555D01*
X0127786Y0185294D01*
X0125856Y0185294D01*
X0124073Y0184555D01*
X0122708Y0183191D01*
X0121970Y0181408D01*
X0121970Y0179478D01*
X0122708Y0177695D01*
X0122372Y0178506D02*
X0115392Y0178506D01*
X0115392Y0179606D02*
X0121970Y0179606D01*
X0121970Y0180707D02*
X0115392Y0180707D01*
X0115392Y0181808D02*
X0122135Y0181808D01*
X0122591Y0182909D02*
X0115392Y0182909D01*
X0115392Y0184010D02*
X0123527Y0184010D01*
X0125414Y0185111D02*
X0115392Y0185111D01*
X0115392Y0186212D02*
X0124359Y0186212D01*
X0123090Y0187313D02*
X0115392Y0187313D01*
X0115392Y0188413D02*
X0122410Y0188413D01*
X0121970Y0189514D02*
X0115392Y0189514D01*
X0115392Y0190615D02*
X0121970Y0190615D01*
X0122097Y0191716D02*
X0115392Y0191716D01*
X0115392Y0192817D02*
X0122553Y0192817D01*
X0123435Y0193918D02*
X0115392Y0193918D01*
X0115392Y0195019D02*
X0125191Y0195019D01*
X0123837Y0196120D02*
X0115392Y0196120D01*
X0115392Y0197220D02*
X0122671Y0197220D01*
X0122008Y0198321D02*
X0115392Y0198321D01*
X0115392Y0199422D02*
X0121666Y0199422D01*
X0121691Y0201624D02*
X0115392Y0201624D01*
X0115392Y0202725D02*
X0122090Y0202725D01*
X0122788Y0203826D02*
X0115392Y0203826D01*
X0115392Y0204927D02*
X0124058Y0204927D01*
X0126372Y0200523D02*
X0115392Y0200523D01*
X0127270Y0200523D02*
X0165473Y0200523D01*
X0165473Y0199422D02*
X0131976Y0199422D01*
X0131633Y0198321D02*
X0165473Y0198321D01*
X0165473Y0197220D02*
X0130970Y0197220D01*
X0129804Y0196120D02*
X0165473Y0196120D01*
X0165473Y0195019D02*
X0128450Y0195019D01*
X0130206Y0193918D02*
X0165473Y0193918D01*
X0165473Y0192817D02*
X0131088Y0192817D01*
X0131544Y0191716D02*
X0165473Y0191716D01*
X0165473Y0190615D02*
X0131672Y0190615D01*
X0131672Y0189514D02*
X0165473Y0189514D01*
X0165473Y0188413D02*
X0131231Y0188413D01*
X0130551Y0187313D02*
X0165473Y0187313D01*
X0165473Y0186212D02*
X0129283Y0186212D01*
X0128228Y0185111D02*
X0165473Y0185111D01*
X0165473Y0184010D02*
X0130114Y0184010D01*
X0131050Y0182909D02*
X0165473Y0182909D01*
X0165473Y0181808D02*
X0131506Y0181808D01*
X0131672Y0180707D02*
X0165473Y0180707D01*
X0165473Y0179606D02*
X0131672Y0179606D01*
X0131269Y0178506D02*
X0165473Y0178506D01*
X0165473Y0177405D02*
X0130643Y0177405D01*
X0129505Y0176304D02*
X0165473Y0176304D01*
X0165473Y0175203D02*
X0128006Y0175203D01*
X0130022Y0174102D02*
X0165361Y0174102D01*
X0164626Y0173001D02*
X0131012Y0173001D01*
X0131468Y0171900D02*
X0164474Y0171900D01*
X0164789Y0170799D02*
X0131672Y0170799D01*
X0131672Y0169699D02*
X0165905Y0169699D01*
X0168445Y0169699D02*
X0192805Y0169699D01*
X0192805Y0170799D02*
X0169562Y0170799D01*
X0169876Y0171900D02*
X0192805Y0171900D01*
X0192805Y0173001D02*
X0169724Y0173001D01*
X0167175Y0172096D02*
X0167175Y0208514D01*
X0178986Y0220325D01*
X0200640Y0220325D01*
X0203341Y0220339D02*
X0225512Y0220339D01*
X0225512Y0221440D02*
X0203102Y0221440D01*
X0202244Y0222541D02*
X0225512Y0222541D01*
X0225512Y0223641D02*
X0144537Y0223641D01*
X0144537Y0222541D02*
X0199035Y0222541D01*
X0199007Y0218137D02*
X0179206Y0218137D01*
X0178105Y0217036D02*
X0225512Y0217036D01*
X0225512Y0216537D02*
X0224925Y0215949D01*
X0224513Y0214956D01*
X0224513Y0213882D01*
X0224925Y0212889D01*
X0225684Y0212129D01*
X0226677Y0211718D01*
X0227752Y0211718D01*
X0228745Y0212129D01*
X0229504Y0212889D01*
X0229916Y0213882D01*
X0229916Y0214956D01*
X0229504Y0215949D01*
X0228917Y0216537D01*
X0228917Y0242683D01*
X0227920Y0243681D01*
X0223026Y0248574D01*
X0223026Y0249405D01*
X0222615Y0250398D01*
X0221855Y0251158D01*
X0220862Y0251569D01*
X0219787Y0251569D01*
X0218795Y0251158D01*
X0218035Y0250398D01*
X0217624Y0249405D01*
X0217624Y0248331D01*
X0218035Y0247338D01*
X0218795Y0246578D01*
X0219787Y0246167D01*
X0220618Y0246167D01*
X0225512Y0241273D01*
X0225512Y0216537D01*
X0224919Y0215935D02*
X0177004Y0215935D01*
X0175903Y0214834D02*
X0224513Y0214834D01*
X0224575Y0213734D02*
X0174802Y0213734D01*
X0173702Y0212633D02*
X0225181Y0212633D01*
X0227214Y0214419D02*
X0227214Y0241978D01*
X0220325Y0248868D01*
X0217818Y0247861D02*
X0176878Y0247861D01*
X0176579Y0247562D02*
X0177339Y0248322D01*
X0177750Y0249315D01*
X0177750Y0250146D01*
X0181660Y0254055D01*
X0201475Y0254055D01*
X0202062Y0253468D01*
X0203055Y0253057D01*
X0204130Y0253057D01*
X0205123Y0253468D01*
X0205882Y0254228D01*
X0206294Y0255220D01*
X0206294Y0256295D01*
X0205882Y0257288D01*
X0205123Y0258048D01*
X0204130Y0258459D01*
X0203055Y0258459D01*
X0202062Y0258048D01*
X0201475Y0257460D01*
X0180249Y0257460D01*
X0175343Y0252553D01*
X0174512Y0252553D01*
X0173519Y0252142D01*
X0172759Y0251382D01*
X0172348Y0250390D01*
X0172348Y0249315D01*
X0172759Y0248322D01*
X0173519Y0247562D01*
X0174512Y0247151D01*
X0175586Y0247151D01*
X0176579Y0247562D01*
X0177604Y0248961D02*
X0217624Y0248961D01*
X0217896Y0250062D02*
X0177750Y0250062D01*
X0178768Y0251163D02*
X0218807Y0251163D01*
X0221842Y0251163D02*
X0245183Y0251163D01*
X0245281Y0250062D02*
X0222754Y0250062D01*
X0223026Y0248961D02*
X0245939Y0248961D01*
X0246181Y0247861D02*
X0223740Y0247861D01*
X0224840Y0246760D02*
X0246181Y0246760D01*
X0246181Y0245659D02*
X0225941Y0245659D01*
X0227042Y0244558D02*
X0246181Y0244558D01*
X0246181Y0243457D02*
X0228143Y0243457D01*
X0228917Y0242356D02*
X0246181Y0242356D01*
X0246181Y0241255D02*
X0228917Y0241255D01*
X0228917Y0240155D02*
X0246181Y0240155D01*
X0246181Y0239054D02*
X0228917Y0239054D01*
X0228917Y0237953D02*
X0246181Y0237953D01*
X0246181Y0236852D02*
X0228917Y0236852D01*
X0228917Y0235751D02*
X0246181Y0235751D01*
X0246181Y0234650D02*
X0228917Y0234650D01*
X0228917Y0233549D02*
X0246181Y0233549D01*
X0246181Y0232448D02*
X0228917Y0232448D01*
X0228917Y0231348D02*
X0246181Y0231348D01*
X0246181Y0230247D02*
X0228917Y0230247D01*
X0228917Y0229146D02*
X0246181Y0229146D01*
X0246181Y0228045D02*
X0228917Y0228045D01*
X0228917Y0226944D02*
X0246181Y0226944D01*
X0246181Y0225843D02*
X0228917Y0225843D01*
X0228917Y0224742D02*
X0245957Y0224742D01*
X0244856Y0223641D02*
X0228917Y0223641D01*
X0228917Y0222541D02*
X0243755Y0222541D01*
X0242654Y0221440D02*
X0228917Y0221440D01*
X0228917Y0220339D02*
X0241553Y0220339D01*
X0240452Y0219238D02*
X0228917Y0219238D01*
X0228917Y0218137D02*
X0239352Y0218137D01*
X0238251Y0217036D02*
X0228917Y0217036D01*
X0229510Y0215935D02*
X0237150Y0215935D01*
X0236049Y0214834D02*
X0229916Y0214834D01*
X0229854Y0213734D02*
X0234948Y0213734D01*
X0233847Y0212633D02*
X0229248Y0212633D01*
X0232746Y0211532D02*
X0176835Y0211532D01*
X0175049Y0209498D02*
X0233120Y0209498D01*
X0244931Y0221309D01*
X0244931Y0197687D01*
X0250994Y0191624D01*
X0251742Y0191624D01*
X0256443Y0191716D02*
X0261293Y0191716D01*
X0261293Y0192073D02*
X0261293Y0191175D01*
X0256641Y0191175D01*
X0256641Y0189511D01*
X0259629Y0186523D01*
X0261293Y0186523D01*
X0261293Y0191175D01*
X0262191Y0191175D01*
X0262191Y0192073D01*
X0261293Y0192073D01*
X0261293Y0196725D01*
X0259629Y0196725D01*
X0256641Y0193737D01*
X0256641Y0192073D01*
X0261293Y0192073D01*
X0261293Y0192817D02*
X0262191Y0192817D01*
X0262191Y0192073D02*
X0262191Y0196725D01*
X0263855Y0196725D01*
X0266843Y0193737D01*
X0266843Y0192073D01*
X0262191Y0192073D01*
X0262191Y0191716D02*
X0287855Y0191716D01*
X0287855Y0190615D02*
X0266843Y0190615D01*
X0266843Y0191175D02*
X0262191Y0191175D01*
X0262191Y0186523D01*
X0263855Y0186523D01*
X0266843Y0189511D01*
X0266843Y0191175D01*
X0266843Y0192817D02*
X0287855Y0192817D01*
X0287855Y0193918D02*
X0266662Y0193918D01*
X0265561Y0195019D02*
X0287855Y0195019D01*
X0287855Y0196120D02*
X0278736Y0196120D01*
X0278443Y0195970D02*
X0279179Y0196345D01*
X0279848Y0196831D01*
X0280432Y0197416D01*
X0280918Y0198084D01*
X0281294Y0198821D01*
X0281549Y0199607D01*
X0281673Y0200388D01*
X0276876Y0200388D01*
X0276876Y0201285D01*
X0281673Y0201285D01*
X0281549Y0202066D01*
X0281294Y0202852D01*
X0280918Y0203589D01*
X0280432Y0204257D01*
X0279848Y0204842D01*
X0279179Y0205328D01*
X0278443Y0205703D01*
X0277657Y0205958D01*
X0277418Y0205996D01*
X0279175Y0206724D01*
X0280540Y0208089D01*
X0281278Y0209872D01*
X0281278Y0211801D01*
X0280540Y0213584D01*
X0279175Y0214949D01*
X0277392Y0215688D01*
X0275462Y0215688D01*
X0273679Y0214949D01*
X0272314Y0213584D01*
X0271576Y0211801D01*
X0271576Y0209872D01*
X0272314Y0208089D01*
X0273679Y0206724D01*
X0275436Y0205996D01*
X0275197Y0205958D01*
X0274411Y0205703D01*
X0273675Y0205328D01*
X0273006Y0204842D01*
X0272422Y0204257D01*
X0271936Y0203589D01*
X0271561Y0202852D01*
X0271305Y0202066D01*
X0271182Y0201285D01*
X0275978Y0201285D01*
X0275978Y0200388D01*
X0271182Y0200388D01*
X0271305Y0199607D01*
X0271561Y0198821D01*
X0271936Y0198084D01*
X0272422Y0197416D01*
X0273006Y0196831D01*
X0273675Y0196345D01*
X0274411Y0195970D01*
X0275197Y0195715D01*
X0275978Y0195591D01*
X0275978Y0200388D01*
X0276876Y0200388D01*
X0276876Y0195591D01*
X0277657Y0195715D01*
X0278443Y0195970D01*
X0276876Y0196120D02*
X0275978Y0196120D01*
X0275978Y0197220D02*
X0276876Y0197220D01*
X0276876Y0198321D02*
X0275978Y0198321D01*
X0275978Y0199422D02*
X0276876Y0199422D01*
X0276876Y0200523D02*
X0287855Y0200523D01*
X0287855Y0199422D02*
X0281489Y0199422D01*
X0281039Y0198321D02*
X0287855Y0198321D01*
X0287855Y0197220D02*
X0280237Y0197220D01*
X0275978Y0200523D02*
X0266443Y0200523D01*
X0266443Y0199677D02*
X0263689Y0196923D01*
X0259795Y0196923D01*
X0257041Y0199677D01*
X0257041Y0203571D01*
X0259795Y0206325D01*
X0263689Y0206325D01*
X0266443Y0203571D01*
X0266443Y0199677D01*
X0266189Y0199422D02*
X0271365Y0199422D01*
X0271815Y0198321D02*
X0265088Y0198321D01*
X0263987Y0197220D02*
X0272617Y0197220D01*
X0274118Y0196120D02*
X0264461Y0196120D01*
X0262191Y0196120D02*
X0261293Y0196120D01*
X0261293Y0195019D02*
X0262191Y0195019D01*
X0262191Y0193918D02*
X0261293Y0193918D01*
X0259024Y0196120D02*
X0253895Y0196120D01*
X0253689Y0196923D02*
X0256443Y0199677D01*
X0256443Y0203571D01*
X0253689Y0206325D01*
X0249795Y0206325D01*
X0247041Y0203571D01*
X0247041Y0199677D01*
X0249795Y0196923D01*
X0253689Y0196923D01*
X0253987Y0197220D02*
X0259497Y0197220D01*
X0258396Y0198321D02*
X0255088Y0198321D01*
X0256189Y0199422D02*
X0257295Y0199422D01*
X0257041Y0200523D02*
X0256443Y0200523D01*
X0256443Y0201624D02*
X0257041Y0201624D01*
X0257041Y0202725D02*
X0256443Y0202725D01*
X0256189Y0203826D02*
X0257295Y0203826D01*
X0258396Y0204927D02*
X0255088Y0204927D01*
X0253987Y0206027D02*
X0259497Y0206027D01*
X0259795Y0206923D02*
X0263689Y0206923D01*
X0266443Y0209677D01*
X0266443Y0213571D01*
X0263689Y0216325D01*
X0259795Y0216325D01*
X0257041Y0213571D01*
X0257041Y0209677D01*
X0259795Y0206923D01*
X0259589Y0207128D02*
X0255974Y0207128D01*
X0255769Y0206923D02*
X0256443Y0207597D01*
X0256443Y0215651D01*
X0255769Y0216325D01*
X0247715Y0216325D01*
X0247041Y0215651D01*
X0247041Y0207597D01*
X0247715Y0206923D01*
X0255769Y0206923D01*
X0256443Y0208229D02*
X0258488Y0208229D01*
X0257387Y0209330D02*
X0256443Y0209330D01*
X0256443Y0210431D02*
X0257041Y0210431D01*
X0257041Y0211532D02*
X0256443Y0211532D01*
X0256443Y0212633D02*
X0257041Y0212633D01*
X0257203Y0213734D02*
X0256443Y0213734D01*
X0256443Y0214834D02*
X0258304Y0214834D01*
X0259405Y0215935D02*
X0256159Y0215935D01*
X0264079Y0215935D02*
X0287855Y0215935D01*
X0287855Y0214834D02*
X0279290Y0214834D01*
X0280391Y0213734D02*
X0287855Y0213734D01*
X0287855Y0212633D02*
X0280934Y0212633D01*
X0281278Y0211532D02*
X0287855Y0211532D01*
X0287855Y0210431D02*
X0281278Y0210431D01*
X0281054Y0209330D02*
X0287855Y0209330D01*
X0287855Y0208229D02*
X0280598Y0208229D01*
X0279579Y0207128D02*
X0287855Y0207128D01*
X0287855Y0206027D02*
X0277494Y0206027D01*
X0275361Y0206027D02*
X0263987Y0206027D01*
X0263895Y0207128D02*
X0273275Y0207128D01*
X0272256Y0208229D02*
X0264996Y0208229D01*
X0266097Y0209330D02*
X0271800Y0209330D01*
X0271576Y0210431D02*
X0266443Y0210431D01*
X0266443Y0211532D02*
X0271576Y0211532D01*
X0271920Y0212633D02*
X0266443Y0212633D01*
X0266281Y0213734D02*
X0272463Y0213734D01*
X0273564Y0214834D02*
X0265180Y0214834D01*
X0272314Y0218089D02*
X0273679Y0216724D01*
X0275462Y0215985D01*
X0277392Y0215985D01*
X0279175Y0216724D01*
X0280540Y0218089D01*
X0281278Y0219872D01*
X0281278Y0221801D01*
X0280540Y0223584D01*
X0279175Y0224949D01*
X0277392Y0225688D01*
X0275462Y0225688D01*
X0273679Y0224949D01*
X0272314Y0223584D01*
X0271576Y0221801D01*
X0271576Y0219872D01*
X0272314Y0218089D01*
X0272294Y0218137D02*
X0246633Y0218137D01*
X0246633Y0217036D02*
X0273367Y0217036D01*
X0271838Y0219238D02*
X0246633Y0219238D01*
X0246633Y0220339D02*
X0271576Y0220339D01*
X0271576Y0221440D02*
X0247469Y0221440D01*
X0248570Y0222541D02*
X0271882Y0222541D01*
X0272371Y0223641D02*
X0249586Y0223641D01*
X0249586Y0224742D02*
X0273472Y0224742D01*
X0273679Y0226724D02*
X0275462Y0225985D01*
X0277392Y0225985D01*
X0279175Y0226724D01*
X0280540Y0228089D01*
X0281278Y0229872D01*
X0281278Y0231801D01*
X0280540Y0233584D01*
X0279175Y0234949D01*
X0277392Y0235688D01*
X0275462Y0235688D01*
X0273679Y0234949D01*
X0272314Y0233584D01*
X0271576Y0231801D01*
X0271576Y0229872D01*
X0272314Y0228089D01*
X0273679Y0226724D01*
X0273459Y0226944D02*
X0249586Y0226944D01*
X0249586Y0225843D02*
X0287855Y0225843D01*
X0287855Y0224742D02*
X0279382Y0224742D01*
X0280483Y0223641D02*
X0287855Y0223641D01*
X0287855Y0222541D02*
X0280972Y0222541D01*
X0281278Y0221440D02*
X0287855Y0221440D01*
X0287855Y0220339D02*
X0281278Y0220339D01*
X0281016Y0219238D02*
X0287855Y0219238D01*
X0287855Y0218137D02*
X0280560Y0218137D01*
X0279487Y0217036D02*
X0287855Y0217036D01*
X0287855Y0226944D02*
X0279395Y0226944D01*
X0280496Y0228045D02*
X0287855Y0228045D01*
X0287855Y0229146D02*
X0280978Y0229146D01*
X0281278Y0230247D02*
X0287855Y0230247D01*
X0287855Y0231348D02*
X0281278Y0231348D01*
X0281010Y0232448D02*
X0287855Y0232448D01*
X0287855Y0233549D02*
X0280554Y0233549D01*
X0279474Y0234650D02*
X0287855Y0234650D01*
X0287855Y0235751D02*
X0249586Y0235751D01*
X0249586Y0234650D02*
X0273380Y0234650D01*
X0272300Y0233549D02*
X0249586Y0233549D01*
X0249586Y0232448D02*
X0271844Y0232448D01*
X0271576Y0231348D02*
X0249586Y0231348D01*
X0249586Y0230247D02*
X0271576Y0230247D01*
X0271877Y0229146D02*
X0249586Y0229146D01*
X0249586Y0228045D02*
X0272358Y0228045D01*
X0275462Y0235985D02*
X0273679Y0236724D01*
X0272314Y0238089D01*
X0271576Y0239872D01*
X0271576Y0241801D01*
X0272314Y0243584D01*
X0273679Y0244949D01*
X0275462Y0245688D01*
X0277392Y0245688D01*
X0279175Y0244949D01*
X0280540Y0243584D01*
X0281278Y0241801D01*
X0281278Y0239872D01*
X0280540Y0238089D01*
X0279175Y0236724D01*
X0277392Y0235985D01*
X0275462Y0235985D01*
X0273551Y0236852D02*
X0249586Y0236852D01*
X0249586Y0237953D02*
X0272450Y0237953D01*
X0271915Y0239054D02*
X0249586Y0239054D01*
X0249586Y0240155D02*
X0271576Y0240155D01*
X0271576Y0241255D02*
X0249586Y0241255D01*
X0249586Y0242356D02*
X0271806Y0242356D01*
X0272262Y0243457D02*
X0249586Y0243457D01*
X0249586Y0244558D02*
X0273288Y0244558D01*
X0273679Y0246724D02*
X0275462Y0245985D01*
X0277392Y0245985D01*
X0279175Y0246724D01*
X0280540Y0248089D01*
X0281278Y0249872D01*
X0281278Y0251801D01*
X0280540Y0253584D01*
X0279175Y0254949D01*
X0277392Y0255688D01*
X0275462Y0255688D01*
X0273679Y0254949D01*
X0272314Y0253584D01*
X0271576Y0251801D01*
X0271576Y0249872D01*
X0272314Y0248089D01*
X0273679Y0246724D01*
X0273643Y0246760D02*
X0249586Y0246760D01*
X0249586Y0247861D02*
X0272542Y0247861D01*
X0271953Y0248961D02*
X0249829Y0248961D01*
X0250487Y0250062D02*
X0271576Y0250062D01*
X0271576Y0251163D02*
X0250585Y0251163D01*
X0250216Y0252264D02*
X0271768Y0252264D01*
X0272224Y0253365D02*
X0248838Y0253365D01*
X0246930Y0253365D02*
X0204874Y0253365D01*
X0205981Y0254466D02*
X0273196Y0254466D01*
X0275170Y0255567D02*
X0206294Y0255567D01*
X0206139Y0256668D02*
X0287855Y0256668D01*
X0287855Y0257768D02*
X0205402Y0257768D01*
X0203592Y0255758D02*
X0180955Y0255758D01*
X0175049Y0249852D01*
X0173221Y0247861D02*
X0144537Y0247861D01*
X0144537Y0248961D02*
X0172494Y0248961D01*
X0172348Y0250062D02*
X0144537Y0250062D01*
X0144537Y0251163D02*
X0172668Y0251163D01*
X0173813Y0252264D02*
X0144537Y0252264D01*
X0144537Y0253365D02*
X0176154Y0253365D01*
X0177255Y0254466D02*
X0144537Y0254466D01*
X0144537Y0255567D02*
X0178356Y0255567D01*
X0179457Y0256668D02*
X0144537Y0256668D01*
X0144537Y0257768D02*
X0201783Y0257768D01*
X0202311Y0253365D02*
X0180969Y0253365D01*
X0179868Y0252264D02*
X0245551Y0252264D01*
X0247884Y0250837D02*
X0247884Y0224262D01*
X0244931Y0221309D01*
X0243229Y0217036D02*
X0243066Y0217036D01*
X0243229Y0215935D02*
X0241965Y0215935D01*
X0240864Y0214834D02*
X0243229Y0214834D01*
X0243229Y0213734D02*
X0239763Y0213734D01*
X0238662Y0212633D02*
X0243229Y0212633D01*
X0243229Y0211532D02*
X0237561Y0211532D01*
X0236460Y0210431D02*
X0243229Y0210431D01*
X0243229Y0209330D02*
X0235360Y0209330D01*
X0234259Y0208229D02*
X0243229Y0208229D01*
X0243229Y0207128D02*
X0176387Y0207128D01*
X0173711Y0207128D02*
X0168877Y0207128D01*
X0168877Y0206027D02*
X0243229Y0206027D01*
X0246633Y0206027D02*
X0249497Y0206027D01*
X0248396Y0204927D02*
X0246633Y0204927D01*
X0246633Y0203826D02*
X0247295Y0203826D01*
X0247041Y0202725D02*
X0246633Y0202725D01*
X0246633Y0201624D02*
X0247041Y0201624D01*
X0247041Y0200523D02*
X0246633Y0200523D01*
X0246633Y0199422D02*
X0247295Y0199422D01*
X0246704Y0198321D02*
X0248396Y0198321D01*
X0247805Y0197220D02*
X0249497Y0197220D01*
X0249589Y0196120D02*
X0248906Y0196120D01*
X0254996Y0195019D02*
X0257923Y0195019D01*
X0256822Y0193918D02*
X0256097Y0193918D01*
X0256443Y0192817D02*
X0256641Y0192817D01*
X0256641Y0190615D02*
X0256443Y0190615D01*
X0256281Y0189514D02*
X0256641Y0189514D01*
X0257738Y0188413D02*
X0255180Y0188413D01*
X0254079Y0187313D02*
X0258839Y0187313D01*
X0261293Y0187313D02*
X0262191Y0187313D01*
X0262191Y0188413D02*
X0261293Y0188413D01*
X0261293Y0189514D02*
X0262191Y0189514D01*
X0262191Y0190615D02*
X0261293Y0190615D01*
X0264645Y0187313D02*
X0287855Y0187313D01*
X0287855Y0188413D02*
X0265746Y0188413D01*
X0266843Y0189514D02*
X0287855Y0189514D01*
X0287855Y0186212D02*
X0201611Y0186212D01*
X0200510Y0185111D02*
X0248220Y0185111D01*
X0247379Y0184010D02*
X0199410Y0184010D01*
X0198309Y0182909D02*
X0247151Y0182909D01*
X0247390Y0181808D02*
X0197208Y0181808D01*
X0196107Y0180707D02*
X0248150Y0180707D01*
X0249852Y0182923D02*
X0249852Y0154380D01*
X0205603Y0195019D02*
X0205006Y0195019D01*
X0202608Y0193750D02*
X0196703Y0187844D01*
X0202805Y0200246D02*
X0183711Y0181151D01*
X0192805Y0168598D02*
X0131307Y0168598D01*
X0130735Y0167497D02*
X0192805Y0167497D01*
X0192805Y0166396D02*
X0129635Y0166396D01*
X0129930Y0164194D02*
X0192805Y0164194D01*
X0192805Y0163093D02*
X0130974Y0163093D01*
X0131430Y0161992D02*
X0192805Y0161992D01*
X0192805Y0165295D02*
X0115392Y0165295D01*
X0115392Y0175203D02*
X0125636Y0175203D01*
X0131950Y0201624D02*
X0165473Y0201624D01*
X0165473Y0202725D02*
X0131552Y0202725D01*
X0130854Y0203826D02*
X0165473Y0203826D01*
X0165473Y0204927D02*
X0129583Y0204927D01*
X0144537Y0206027D02*
X0165473Y0206027D01*
X0165473Y0207128D02*
X0144537Y0207128D01*
X0144537Y0208229D02*
X0165473Y0208229D01*
X0165584Y0209330D02*
X0144537Y0209330D01*
X0144537Y0210431D02*
X0166685Y0210431D01*
X0167786Y0211532D02*
X0144537Y0211532D01*
X0144537Y0212633D02*
X0168887Y0212633D01*
X0169987Y0213734D02*
X0144537Y0213734D01*
X0144537Y0214834D02*
X0171088Y0214834D01*
X0172189Y0215935D02*
X0144537Y0215935D01*
X0144537Y0217036D02*
X0173290Y0217036D01*
X0174391Y0218137D02*
X0144537Y0218137D01*
X0144537Y0219238D02*
X0175492Y0219238D01*
X0176593Y0220339D02*
X0144537Y0220339D01*
X0144537Y0221440D02*
X0177694Y0221440D01*
X0173263Y0211532D02*
X0172601Y0211532D01*
X0172512Y0210431D02*
X0171500Y0210431D01*
X0172348Y0209330D02*
X0170399Y0209330D01*
X0169298Y0208229D02*
X0172651Y0208229D01*
X0168877Y0204927D02*
X0206225Y0204927D01*
X0202805Y0200443D02*
X0202805Y0200246D01*
X0202272Y0218137D02*
X0225512Y0218137D01*
X0225512Y0219238D02*
X0203113Y0219238D01*
X0225512Y0224742D02*
X0144537Y0224742D01*
X0144537Y0225843D02*
X0225512Y0225843D01*
X0225512Y0226944D02*
X0144537Y0226944D01*
X0144537Y0228045D02*
X0225512Y0228045D01*
X0225512Y0229146D02*
X0144537Y0229146D01*
X0144537Y0230247D02*
X0225512Y0230247D01*
X0225512Y0231348D02*
X0144537Y0231348D01*
X0144537Y0232448D02*
X0225512Y0232448D01*
X0225512Y0233549D02*
X0144537Y0233549D01*
X0144537Y0234650D02*
X0225512Y0234650D01*
X0225512Y0235751D02*
X0144537Y0235751D01*
X0144537Y0236852D02*
X0225512Y0236852D01*
X0225512Y0237953D02*
X0144537Y0237953D01*
X0144537Y0239054D02*
X0225512Y0239054D01*
X0225512Y0240155D02*
X0144537Y0240155D01*
X0144537Y0241255D02*
X0225512Y0241255D01*
X0224429Y0242356D02*
X0144537Y0242356D01*
X0144537Y0243457D02*
X0223328Y0243457D01*
X0222227Y0244558D02*
X0144537Y0244558D01*
X0144537Y0245659D02*
X0221126Y0245659D01*
X0218613Y0246760D02*
X0144537Y0246760D01*
X0129387Y0265243D02*
X0127604Y0264505D01*
X0125674Y0264505D01*
X0123891Y0265243D01*
X0122527Y0266608D01*
X0121788Y0268391D01*
X0121788Y0270321D01*
X0122527Y0272104D01*
X0123891Y0273469D01*
X0125674Y0274207D01*
X0127604Y0274207D01*
X0129387Y0273469D01*
X0130752Y0272104D01*
X0131491Y0270321D01*
X0131491Y0268391D01*
X0130752Y0266608D01*
X0129387Y0265243D01*
X0129619Y0265475D02*
X0273629Y0265475D01*
X0273860Y0265243D02*
X0275643Y0264505D01*
X0277573Y0264505D01*
X0279356Y0265243D01*
X0280721Y0266608D01*
X0281460Y0268391D01*
X0281460Y0270321D01*
X0280721Y0272104D01*
X0279356Y0273469D01*
X0277573Y0274207D01*
X0275643Y0274207D01*
X0273860Y0273469D01*
X0272496Y0272104D01*
X0271757Y0270321D01*
X0271757Y0268391D01*
X0272496Y0266608D01*
X0273860Y0265243D01*
X0272528Y0266575D02*
X0130720Y0266575D01*
X0131195Y0267676D02*
X0272053Y0267676D01*
X0271757Y0268777D02*
X0131491Y0268777D01*
X0131491Y0269878D02*
X0271757Y0269878D01*
X0272030Y0270979D02*
X0131218Y0270979D01*
X0131529Y0272080D02*
X0130762Y0272080D01*
X0130963Y0272314D02*
X0132746Y0271576D01*
X0134676Y0271576D01*
X0136459Y0272314D01*
X0137823Y0273679D01*
X0138562Y0275462D01*
X0138562Y0277392D01*
X0137823Y0279175D01*
X0136459Y0280540D01*
X0134676Y0281278D01*
X0132746Y0281278D01*
X0130963Y0280540D01*
X0129598Y0279175D01*
X0128859Y0277392D01*
X0128859Y0275462D01*
X0129598Y0273679D01*
X0130963Y0272314D01*
X0130096Y0273181D02*
X0129675Y0273181D01*
X0129348Y0274282D02*
X0115392Y0274282D01*
X0115392Y0275382D02*
X0128892Y0275382D01*
X0128859Y0276483D02*
X0115392Y0276483D01*
X0115392Y0277584D02*
X0128939Y0277584D01*
X0129395Y0278685D02*
X0115392Y0278685D01*
X0114976Y0279786D02*
X0130209Y0279786D01*
X0131801Y0280887D02*
X0113875Y0280887D01*
X0112774Y0281988D02*
X0290474Y0281988D01*
X0291575Y0283089D02*
X0111673Y0283089D01*
X0110572Y0284189D02*
X0292675Y0284189D01*
X0293776Y0285290D02*
X0109472Y0285290D01*
X0108371Y0286391D02*
X0294877Y0286391D01*
X0295978Y0287492D02*
X0107270Y0287492D01*
X0106169Y0288593D02*
X0123141Y0288593D01*
X0122040Y0289694D02*
X0105068Y0289694D01*
X0103967Y0290795D02*
X0120939Y0290795D01*
X0119838Y0291896D02*
X0102866Y0291896D01*
X0101765Y0292996D02*
X0118737Y0292996D01*
X0117637Y0294097D02*
X0100665Y0294097D01*
X0099564Y0295198D02*
X0116536Y0295198D01*
X0115435Y0296299D02*
X0098463Y0296299D01*
X0097362Y0297400D02*
X0114334Y0297400D01*
X0113233Y0298501D02*
X0096261Y0298501D01*
X0095160Y0299602D02*
X0112132Y0299602D01*
X0111031Y0300703D02*
X0094059Y0300703D01*
X0092958Y0301803D02*
X0109930Y0301803D01*
X0108830Y0302904D02*
X0091858Y0302904D01*
X0090757Y0304005D02*
X0107729Y0304005D01*
X0106628Y0305106D02*
X0089656Y0305106D01*
X0088555Y0306207D02*
X0105527Y0306207D01*
X0104426Y0307308D02*
X0087454Y0307308D01*
X0086353Y0308409D02*
X0103325Y0308409D01*
X0102224Y0309510D02*
X0085252Y0309510D01*
X0084151Y0310610D02*
X0101123Y0310610D01*
X0100023Y0311711D02*
X0083051Y0311711D01*
X0081950Y0312812D02*
X0098922Y0312812D01*
X0097821Y0313913D02*
X0080849Y0313913D01*
X0079748Y0315014D02*
X0096720Y0315014D01*
X0095619Y0316115D02*
X0078647Y0316115D01*
X0077546Y0317216D02*
X0094518Y0317216D01*
X0093417Y0318317D02*
X0076445Y0318317D01*
X0075344Y0319417D02*
X0092316Y0319417D01*
X0091216Y0320518D02*
X0074244Y0320518D01*
X0073143Y0321619D02*
X0090115Y0321619D01*
X0089014Y0322720D02*
X0072042Y0322720D01*
X0070941Y0323821D02*
X0087913Y0323821D01*
X0086812Y0324922D02*
X0069840Y0324922D01*
X0068739Y0326023D02*
X0085711Y0326023D01*
X0084610Y0327124D02*
X0067638Y0327124D01*
X0066538Y0328224D02*
X0083509Y0328224D01*
X0082409Y0329325D02*
X0065437Y0329325D01*
X0064336Y0330426D02*
X0081308Y0330426D01*
X0080207Y0331527D02*
X0063235Y0331527D01*
X0062134Y0332628D02*
X0079106Y0332628D01*
X0078005Y0333729D02*
X0061033Y0333729D01*
X0059932Y0334830D02*
X0076904Y0334830D01*
X0075803Y0335930D02*
X0059892Y0335930D01*
X0059892Y0337031D02*
X0074702Y0337031D01*
X0073602Y0338132D02*
X0059892Y0338132D01*
X0059892Y0339233D02*
X0072501Y0339233D01*
X0071400Y0340334D02*
X0059892Y0340334D01*
X0059892Y0341435D02*
X0070299Y0341435D01*
X0069198Y0342536D02*
X0059892Y0342536D01*
X0115392Y0273181D02*
X0123604Y0273181D01*
X0122517Y0272080D02*
X0115392Y0272080D01*
X0115392Y0270979D02*
X0122061Y0270979D01*
X0121788Y0269878D02*
X0115392Y0269878D01*
X0115392Y0268777D02*
X0121788Y0268777D01*
X0122084Y0267676D02*
X0115392Y0267676D01*
X0115392Y0266575D02*
X0122559Y0266575D01*
X0123660Y0265475D02*
X0115392Y0265475D01*
X0115392Y0264374D02*
X0287855Y0264374D01*
X0287855Y0265475D02*
X0279588Y0265475D01*
X0280688Y0266575D02*
X0287855Y0266575D01*
X0287855Y0267676D02*
X0281164Y0267676D01*
X0281460Y0268777D02*
X0287855Y0268777D01*
X0287855Y0269878D02*
X0281460Y0269878D01*
X0281187Y0270979D02*
X0287855Y0270979D01*
X0287855Y0272080D02*
X0280731Y0272080D01*
X0279644Y0273181D02*
X0287855Y0273181D01*
X0287855Y0274282D02*
X0273899Y0274282D01*
X0273650Y0273679D02*
X0274388Y0275462D01*
X0274388Y0277392D01*
X0273650Y0279175D01*
X0272285Y0280540D01*
X0270502Y0281278D01*
X0268572Y0281278D01*
X0266789Y0280540D01*
X0265425Y0279175D01*
X0264686Y0277392D01*
X0264686Y0275462D01*
X0265425Y0273679D01*
X0266789Y0272314D01*
X0268572Y0271576D01*
X0270502Y0271576D01*
X0272285Y0272314D01*
X0273650Y0273679D01*
X0273572Y0273181D02*
X0273152Y0273181D01*
X0272486Y0272080D02*
X0271719Y0272080D01*
X0274355Y0275382D02*
X0287855Y0275382D01*
X0287855Y0276483D02*
X0274388Y0276483D01*
X0274309Y0277584D02*
X0287855Y0277584D01*
X0287855Y0278685D02*
X0273853Y0278685D01*
X0273039Y0279786D02*
X0288272Y0279786D01*
X0289373Y0280887D02*
X0271447Y0280887D01*
X0267627Y0280887D02*
X0135620Y0280887D01*
X0137212Y0279786D02*
X0266036Y0279786D01*
X0265222Y0278685D02*
X0138026Y0278685D01*
X0138482Y0277584D02*
X0264766Y0277584D01*
X0264686Y0276483D02*
X0138562Y0276483D01*
X0138529Y0275382D02*
X0264719Y0275382D01*
X0265175Y0274282D02*
X0138073Y0274282D01*
X0137325Y0273181D02*
X0265923Y0273181D01*
X0267356Y0272080D02*
X0135892Y0272080D01*
X0115392Y0263273D02*
X0287855Y0263273D01*
X0287855Y0262172D02*
X0115392Y0262172D01*
X0115392Y0261071D02*
X0287855Y0261071D01*
X0287855Y0259970D02*
X0115392Y0259970D01*
X0115392Y0258869D02*
X0287855Y0258869D01*
X0287855Y0255567D02*
X0277684Y0255567D01*
X0279658Y0254466D02*
X0287855Y0254466D01*
X0287855Y0253365D02*
X0280631Y0253365D01*
X0281087Y0252264D02*
X0287855Y0252264D01*
X0287855Y0251163D02*
X0281278Y0251163D01*
X0281278Y0250062D02*
X0287855Y0250062D01*
X0287855Y0248961D02*
X0280901Y0248961D01*
X0280312Y0247861D02*
X0287855Y0247861D01*
X0287855Y0246760D02*
X0279211Y0246760D01*
X0277462Y0245659D02*
X0287855Y0245659D01*
X0287855Y0244558D02*
X0279566Y0244558D01*
X0280592Y0243457D02*
X0287855Y0243457D01*
X0287855Y0242356D02*
X0281048Y0242356D01*
X0281278Y0241255D02*
X0287855Y0241255D01*
X0287855Y0240155D02*
X0281278Y0240155D01*
X0280939Y0239054D02*
X0287855Y0239054D01*
X0287855Y0237953D02*
X0280404Y0237953D01*
X0279303Y0236852D02*
X0287855Y0236852D01*
X0275393Y0245659D02*
X0249586Y0245659D01*
X0247325Y0215935D02*
X0246633Y0215935D01*
X0246633Y0214834D02*
X0247041Y0214834D01*
X0247041Y0213734D02*
X0246633Y0213734D01*
X0246633Y0212633D02*
X0247041Y0212633D01*
X0247041Y0211532D02*
X0246633Y0211532D01*
X0246633Y0210431D02*
X0247041Y0210431D01*
X0247041Y0209330D02*
X0246633Y0209330D01*
X0246633Y0208229D02*
X0247041Y0208229D01*
X0246633Y0207128D02*
X0247510Y0207128D01*
X0265088Y0204927D02*
X0273123Y0204927D01*
X0272108Y0203826D02*
X0266189Y0203826D01*
X0266443Y0202725D02*
X0271519Y0202725D01*
X0271235Y0201624D02*
X0266443Y0201624D01*
X0279731Y0204927D02*
X0287855Y0204927D01*
X0287855Y0203826D02*
X0280746Y0203826D01*
X0281335Y0202725D02*
X0287855Y0202725D01*
X0287855Y0201624D02*
X0281619Y0201624D01*
X0280107Y0288593D02*
X0297079Y0288593D01*
X0298180Y0289694D02*
X0281208Y0289694D01*
X0282309Y0290795D02*
X0299281Y0290795D01*
X0300382Y0291896D02*
X0283410Y0291896D01*
X0284510Y0292996D02*
X0301482Y0292996D01*
X0302583Y0294097D02*
X0285611Y0294097D01*
X0286712Y0295198D02*
X0303684Y0295198D01*
X0304785Y0296299D02*
X0287813Y0296299D01*
X0288914Y0297400D02*
X0305886Y0297400D01*
X0306987Y0298501D02*
X0290015Y0298501D01*
X0291116Y0299602D02*
X0308088Y0299602D01*
X0309189Y0300703D02*
X0292217Y0300703D01*
X0293317Y0301803D02*
X0310289Y0301803D01*
X0311390Y0302904D02*
X0294418Y0302904D01*
X0295519Y0304005D02*
X0312491Y0304005D01*
X0313592Y0305106D02*
X0296620Y0305106D01*
X0297721Y0306207D02*
X0314693Y0306207D01*
X0315794Y0307308D02*
X0298822Y0307308D01*
X0299923Y0308409D02*
X0316895Y0308409D01*
X0317996Y0309510D02*
X0301024Y0309510D01*
X0302124Y0310610D02*
X0319096Y0310610D01*
X0320197Y0311711D02*
X0303225Y0311711D01*
X0304326Y0312812D02*
X0321298Y0312812D01*
X0322399Y0313913D02*
X0305427Y0313913D01*
X0306528Y0315014D02*
X0323500Y0315014D01*
X0324601Y0316115D02*
X0307629Y0316115D01*
X0308730Y0317216D02*
X0325702Y0317216D01*
X0326802Y0318317D02*
X0309831Y0318317D01*
X0310931Y0319417D02*
X0327903Y0319417D01*
X0329004Y0320518D02*
X0312032Y0320518D01*
X0313133Y0321619D02*
X0330105Y0321619D01*
X0331206Y0322720D02*
X0314234Y0322720D01*
X0315335Y0323821D02*
X0332307Y0323821D01*
X0333408Y0324922D02*
X0316436Y0324922D01*
X0317537Y0326023D02*
X0334509Y0326023D01*
X0335609Y0327124D02*
X0318638Y0327124D01*
X0319738Y0328224D02*
X0336710Y0328224D01*
X0337811Y0329325D02*
X0320839Y0329325D01*
X0321940Y0330426D02*
X0338912Y0330426D01*
X0340013Y0331527D02*
X0323041Y0331527D01*
X0324142Y0332628D02*
X0341114Y0332628D01*
X0342215Y0333729D02*
X0325243Y0333729D01*
X0326344Y0334830D02*
X0343316Y0334830D01*
X0343356Y0335930D02*
X0327445Y0335930D01*
X0328545Y0337031D02*
X0343356Y0337031D01*
X0343356Y0338132D02*
X0329646Y0338132D01*
X0330747Y0339233D02*
X0343356Y0339233D01*
X0343356Y0340334D02*
X0331848Y0340334D01*
X0332949Y0341435D02*
X0343356Y0341435D01*
X0343356Y0342536D02*
X0334050Y0342536D01*
D15*
X0247884Y0250837D03*
X0220325Y0248868D03*
X0203592Y0255758D03*
X0175049Y0249852D03*
X0200640Y0220325D03*
X0208317Y0203199D03*
X0202805Y0200443D03*
X0202608Y0193750D03*
X0196703Y0187844D03*
X0183711Y0181151D03*
X0178002Y0177018D03*
X0167175Y0172096D03*
X0173081Y0197687D03*
X0175049Y0209498D03*
X0216388Y0204577D03*
X0227214Y0214419D03*
X0249852Y0182923D03*
X0249852Y0154380D03*
M02*
