%
M48
M72
T01C0.0150
T02C0.0276
T03C0.0400
%
T01
X16718Y17210
X17800Y17702
X18371Y18115
X19670Y18784
X20261Y19375
X20281Y20044
X20832Y20320
X21639Y20458
X22721Y21442
X20064Y22032
X17505Y20950
X17308Y19769
X17505Y24985
X20359Y25576
X22032Y24887
X24788Y25084
X24985Y18292
X24985Y15438
T02
X6580Y6580
X14946Y15832
X14749Y21737
X14847Y23509
X15340Y23706
X15832Y23804
X16324Y23706
X16816Y23509
X16816Y22426
X17013Y26658
X22623Y27151
X25773Y26068
X33745Y33745
X33745Y6580
X6580Y33745
T03
X13371Y27643
X12664Y26936
X12682Y20044
X12682Y19044
X12682Y18044
X12682Y17044
X12682Y16044
X12682Y15044
X12684Y13369
X13391Y12662
X19162Y12682
X20162Y12682
X21162Y12682
X22131Y14438
X22131Y15438
X25174Y19162
X26174Y19162
X26174Y20162
X25174Y20162
X25174Y21162
X26174Y21162
X27643Y21084
X27643Y22084
X27643Y23084
X27643Y24084
X27643Y25084
X27661Y26936
X26954Y27643
X27643Y20084
X27661Y13488
X26954Y12781
M30
