%
M48
M72
T01C0.01500
T02C0.02756
T03C0.04000
%
T01
X167175Y172096
X178002Y177018
X183711Y181151
X196703Y187844
X202608Y193750
X202805Y200443
X208317Y203199
X216388Y204577
X227214Y214419
X200640Y220325
X175049Y209498
X173081Y197687
X175049Y249852
X203592Y255758
X220325Y248868
X247884Y250837
X249852Y182923
X249852Y154380
T02
X65797Y65797
X149459Y158317
X147490Y217372
X148474Y235088
X153396Y237057
X158317Y238041
X163238Y237057
X168159Y235088
X168159Y224262
X170128Y266585
X226230Y271506
X257726Y260679
X337451Y337451
X337451Y65797
X65797Y337451
T03
X133711Y276427
X126639Y269356
X126821Y200443
X126821Y190443
X126821Y180443
X126821Y170443
X126821Y160443
X126821Y150443
X126836Y133695
X133907Y126624
X191624Y126821
X201624Y126821
X211624Y126821
X221309Y144380
X221309Y154380
X251742Y191624
X261742Y191624
X261742Y201624
X261742Y211624
X251742Y211624
X251742Y201624
X276427Y200837
X276427Y210837
X276427Y220837
X276427Y230837
X276427Y240837
X276427Y250837
X276608Y269356
X269537Y276427
X276608Y134876
X269537Y127805
M30
