G75*
%MOIN*%
%OFA0B0*%
%FSLAX25Y25*%
%IPPOS*%
%LPD*%
%AMOC8*
5,1,8,0,0,1.08239X$1,22.5*
%
%ADD10R,0.07900X0.07900*%
%ADD11OC8,0.07900*%
%ADD12C,0.08200*%
%ADD13C,0.05156*%
%ADD14C,0.03900*%
D10*
X0251742Y0211624D03*
D11*
X0261742Y0211624D03*
X0261742Y0201624D03*
X0251742Y0201624D03*
X0251742Y0191624D03*
X0261742Y0191624D03*
D12*
X0276427Y0200837D03*
X0276427Y0210837D03*
X0276427Y0220837D03*
X0276427Y0230837D03*
X0276427Y0240837D03*
X0276427Y0250837D03*
X0276608Y0269356D03*
X0269537Y0276427D03*
X0221309Y0154380D03*
X0221309Y0144380D03*
X0211624Y0126821D03*
X0201624Y0126821D03*
X0191624Y0126821D03*
X0133907Y0126624D03*
X0126836Y0133695D03*
X0126821Y0150443D03*
X0126821Y0160443D03*
X0126821Y0170443D03*
X0126821Y0180443D03*
X0126821Y0190443D03*
X0126821Y0200443D03*
X0126639Y0269356D03*
X0133711Y0276427D03*
X0276608Y0134876D03*
X0269537Y0127805D03*
D13*
X0065797Y0065797D03*
X0149459Y0158317D03*
X0147490Y0217372D03*
X0148474Y0235088D03*
X0153396Y0237057D03*
X0158317Y0238041D03*
X0163238Y0237057D03*
X0168159Y0235088D03*
X0168159Y0224262D03*
X0170128Y0266585D03*
X0226230Y0271506D03*
X0257726Y0260679D03*
X0337451Y0337451D03*
X0337451Y0065797D03*
X0065797Y0337451D03*
D14*
X0175049Y0249852D03*
X0203592Y0255758D03*
X0220325Y0248868D03*
X0247884Y0250837D03*
X0227214Y0214419D03*
X0216388Y0204577D03*
X0208317Y0203199D03*
X0202805Y0200443D03*
X0202608Y0193750D03*
X0196703Y0187844D03*
X0183711Y0181151D03*
X0178002Y0177018D03*
X0167175Y0172096D03*
X0173081Y0197687D03*
X0175049Y0209498D03*
X0200640Y0220325D03*
X0249852Y0182923D03*
X0249852Y0154380D03*
M02*
