%
M48
M72
T01C0.02756
T02C0.04000
%
T01
X53769Y53769
X137430Y146288
X155146Y160068
X165973Y164989
X171682Y169123
X184674Y176800
X190580Y182706
X190776Y188414
X196288Y191170
X204359Y192548
X215186Y202391
X188611Y208296
X163020Y197469
X156131Y212233
X156131Y223060
X151209Y225028
X146288Y226013
X141367Y225028
X136446Y223060
X135461Y205343
X161052Y185658
X163020Y237824
X158099Y254556
X191564Y243729
X208296Y236839
X214202Y259477
X235855Y238808
X245698Y248650
X237824Y170894
X237824Y142351
X325422Y53769
X325422Y325422
X53769Y325422
T02
X121682Y264398
X114611Y257327
X114792Y188414
X114792Y178414
X114792Y168414
X114792Y158414
X114792Y148414
X114792Y138414
X114808Y121666
X121879Y114595
X179595Y114792
X189595Y114792
X199595Y114792
X209280Y132351
X209280Y142351
X239713Y179595
X249713Y179595
X249713Y189595
X239713Y189595
X239713Y199595
X249713Y199595
X264398Y198808
X264398Y208808
X264398Y218808
X264398Y228808
X264398Y238808
X264580Y257327
X257509Y264398
X264398Y188808
X264580Y122847
X257509Y115776
M30
