G75*
%MOIN*%
%OFA0B0*%
%FSLAX25Y25*%
%IPPOS*%
%LPD*%
%AMOC8*
5,1,8,0,0,1.08239X$1,22.5*
%
%ADD10R,0.01378X0.03150*%
%ADD11R,0.05906X0.05118*%
%ADD12R,0.05118X0.05906*%
%ADD13R,0.04331X0.02362*%
%ADD14R,0.07100X0.07100*%
%ADD15OC8,0.07100*%
%ADD16C,0.07400*%
%ADD17R,0.04724X0.04724*%
%ADD18R,0.04724X0.04724*%
%ADD19R,0.11417X0.08071*%
%ADD20R,0.03937X0.05906*%
%ADD21R,0.04000X0.10000*%
%ADD22R,0.04724X0.02165*%
%ADD23R,0.06150X0.01102*%
%ADD24R,0.01102X0.06150*%
%ADD25R,0.05906X0.01102*%
%ADD26R,0.01102X0.05906*%
%ADD27R,0.04331X0.07480*%
%ADD28C,0.01102*%
%ADD29C,0.04356*%
%ADD30C,0.01181*%
%ADD31C,0.01969*%
%ADD32C,0.01800*%
%ADD33C,0.07874*%
D10*
X0143729Y0214005D03*
X0146288Y0214005D03*
X0148847Y0214005D03*
X0148847Y0220304D03*
X0146288Y0220304D03*
X0143729Y0220304D03*
D11*
X0142351Y0205146D03*
X0142351Y0197666D03*
X0152194Y0197666D03*
X0152194Y0205146D03*
X0167942Y0189398D03*
X0167942Y0181918D03*
X0177784Y0183493D03*
X0177784Y0176013D03*
X0169910Y0155934D03*
X0169910Y0148454D03*
X0154162Y0176406D03*
X0154162Y0183099D03*
X0197469Y0184083D03*
X0197469Y0177391D03*
X0207312Y0177391D03*
X0207312Y0184083D03*
X0209280Y0165776D03*
X0209280Y0158296D03*
X0219123Y0158296D03*
X0219123Y0165776D03*
X0246682Y0157902D03*
X0246682Y0150422D03*
X0219123Y0223257D03*
X0219123Y0230737D03*
X0197469Y0254753D03*
X0197469Y0262233D03*
X0169910Y0262233D03*
X0169910Y0254753D03*
D12*
X0169713Y0245698D03*
X0162233Y0245698D03*
X0147666Y0248650D03*
X0140973Y0248650D03*
G36*
X0087353Y0287663D02*
X0083734Y0291282D01*
X0087909Y0295457D01*
X0091528Y0291838D01*
X0087353Y0287663D01*
G37*
G36*
X0082620Y0292395D02*
X0079001Y0296014D01*
X0083176Y0300189D01*
X0086795Y0296570D01*
X0082620Y0292395D01*
G37*
X0230540Y0248650D03*
X0237233Y0248650D03*
X0244910Y0238808D03*
X0252391Y0238808D03*
X0236249Y0221091D03*
X0229556Y0221091D03*
X0229556Y0211249D03*
X0236249Y0211249D03*
X0246879Y0167942D03*
X0254359Y0167942D03*
X0258690Y0142351D03*
X0266170Y0142351D03*
X0238217Y0134477D03*
X0231524Y0134477D03*
X0191367Y0138414D03*
X0183887Y0138414D03*
X0151603Y0132509D03*
X0144910Y0132509D03*
G36*
X0091528Y0087353D02*
X0087909Y0083734D01*
X0083734Y0087909D01*
X0087353Y0091528D01*
X0091528Y0087353D01*
G37*
G36*
X0086795Y0082620D02*
X0083176Y0079001D01*
X0079001Y0083176D01*
X0082620Y0086795D01*
X0086795Y0082620D01*
G37*
G36*
X0291838Y0091528D02*
X0295457Y0087909D01*
X0291282Y0083734D01*
X0287663Y0087353D01*
X0291838Y0091528D01*
G37*
G36*
X0296570Y0086795D02*
X0300189Y0083176D01*
X0296014Y0079001D01*
X0292395Y0082620D01*
X0296570Y0086795D01*
G37*
G36*
X0287663Y0291838D02*
X0291282Y0295457D01*
X0295457Y0291282D01*
X0291838Y0287663D01*
X0287663Y0291838D01*
G37*
G36*
X0292395Y0296570D02*
X0296014Y0300189D01*
X0300189Y0296014D01*
X0296570Y0292395D01*
X0292395Y0296570D01*
G37*
D13*
G36*
X0249524Y0253981D02*
X0246464Y0257041D01*
X0248134Y0258711D01*
X0251194Y0255651D01*
X0249524Y0253981D01*
G37*
G36*
X0257041Y0246464D02*
X0253981Y0249524D01*
X0255651Y0251194D01*
X0258711Y0248134D01*
X0257041Y0246464D01*
G37*
G36*
X0258711Y0132041D02*
X0255651Y0128981D01*
X0253981Y0130651D01*
X0257041Y0133711D01*
X0258711Y0132041D01*
G37*
G36*
X0251194Y0124524D02*
X0248134Y0121464D01*
X0246464Y0123134D01*
X0249524Y0126194D01*
X0251194Y0124524D01*
G37*
G36*
X0129666Y0125210D02*
X0132726Y0122150D01*
X0131056Y0120480D01*
X0127996Y0123540D01*
X0129666Y0125210D01*
G37*
G36*
X0122150Y0132726D02*
X0125210Y0129666D01*
X0123540Y0127996D01*
X0120480Y0131056D01*
X0122150Y0132726D01*
G37*
G36*
X0120480Y0248134D02*
X0123540Y0251194D01*
X0125210Y0249524D01*
X0122150Y0246464D01*
X0120480Y0248134D01*
G37*
G36*
X0127996Y0255651D02*
X0131056Y0258711D01*
X0132726Y0257041D01*
X0129666Y0253981D01*
X0127996Y0255651D01*
G37*
D14*
X0239713Y0199595D03*
D15*
X0239713Y0189595D03*
X0239713Y0179595D03*
X0249713Y0179595D03*
X0249713Y0189595D03*
X0249713Y0199595D03*
D16*
X0264398Y0198808D03*
X0264398Y0208808D03*
X0264398Y0218808D03*
X0264398Y0228808D03*
X0264398Y0238808D03*
X0264580Y0257327D03*
X0257509Y0264398D03*
X0264398Y0188808D03*
X0209280Y0142351D03*
X0209280Y0132351D03*
X0199595Y0114792D03*
X0189595Y0114792D03*
X0179595Y0114792D03*
X0121879Y0114595D03*
X0114808Y0121666D03*
X0114792Y0138414D03*
X0114792Y0148414D03*
X0114792Y0158414D03*
X0114792Y0168414D03*
X0114792Y0178414D03*
X0114792Y0188414D03*
X0114611Y0257327D03*
X0121682Y0264398D03*
X0264580Y0122847D03*
X0257509Y0115776D03*
D17*
X0252784Y0211249D03*
X0244517Y0211249D03*
X0244517Y0221091D03*
X0252784Y0221091D03*
D18*
G36*
X0314625Y0311285D02*
X0311285Y0314625D01*
X0314625Y0317965D01*
X0317965Y0314625D01*
X0314625Y0311285D01*
G37*
G36*
X0320471Y0317131D02*
X0317131Y0320471D01*
X0320471Y0323811D01*
X0323811Y0320471D01*
X0320471Y0317131D01*
G37*
G36*
X0311285Y0064566D02*
X0314625Y0067906D01*
X0317965Y0064566D01*
X0314625Y0061226D01*
X0311285Y0064566D01*
G37*
G36*
X0317131Y0058719D02*
X0320471Y0062059D01*
X0323811Y0058719D01*
X0320471Y0055379D01*
X0317131Y0058719D01*
G37*
G36*
X0064566Y0067906D02*
X0067906Y0064566D01*
X0064566Y0061226D01*
X0061226Y0064566D01*
X0064566Y0067906D01*
G37*
G36*
X0058719Y0062059D02*
X0062059Y0058719D01*
X0058719Y0055379D01*
X0055379Y0058719D01*
X0058719Y0062059D01*
G37*
G36*
X0067906Y0314625D02*
X0064566Y0311285D01*
X0061226Y0314625D01*
X0064566Y0317965D01*
X0067906Y0314625D01*
G37*
G36*
X0062059Y0320471D02*
X0058719Y0317131D01*
X0055379Y0320471D01*
X0058719Y0323811D01*
X0062059Y0320471D01*
G37*
D19*
X0144320Y0264989D03*
X0233887Y0264989D03*
X0234871Y0118139D03*
X0147272Y0116170D03*
D20*
X0143532Y0124143D03*
X0151013Y0124143D03*
X0231131Y0126111D03*
X0238611Y0126111D03*
X0237627Y0257017D03*
X0230146Y0257017D03*
X0148060Y0257017D03*
X0140580Y0257017D03*
D21*
X0134682Y0214202D03*
X0108682Y0214202D03*
D22*
X0255343Y0157902D03*
X0255343Y0150422D03*
X0265580Y0150422D03*
X0265580Y0154162D03*
X0265580Y0157902D03*
D23*
X0202906Y0202391D03*
X0202906Y0204359D03*
X0202906Y0206328D03*
X0202906Y0208296D03*
X0202906Y0210265D03*
X0202906Y0212233D03*
X0202906Y0214202D03*
X0202906Y0216170D03*
X0202906Y0218139D03*
X0202906Y0220107D03*
X0202906Y0222076D03*
X0202906Y0224044D03*
X0202906Y0226013D03*
X0202906Y0227981D03*
X0202906Y0229950D03*
X0202906Y0231918D03*
X0164473Y0231918D03*
X0164473Y0229950D03*
X0164473Y0227981D03*
X0164473Y0226013D03*
X0164473Y0224044D03*
X0164473Y0222076D03*
X0164473Y0220107D03*
X0164473Y0218139D03*
X0164473Y0216170D03*
X0164473Y0214202D03*
X0164473Y0212233D03*
X0164473Y0210265D03*
X0164473Y0208296D03*
X0164473Y0206328D03*
X0164473Y0204359D03*
X0164473Y0202391D03*
D24*
X0168926Y0197938D03*
X0170894Y0197938D03*
X0172863Y0197938D03*
X0174831Y0197938D03*
X0176800Y0197938D03*
X0178769Y0197938D03*
X0180737Y0197938D03*
X0182706Y0197938D03*
X0184674Y0197938D03*
X0186643Y0197938D03*
X0188611Y0197938D03*
X0190580Y0197938D03*
X0192548Y0197938D03*
X0194517Y0197938D03*
X0196485Y0197938D03*
X0198454Y0197938D03*
X0198454Y0236371D03*
X0196485Y0236371D03*
X0194517Y0236371D03*
X0192548Y0236371D03*
X0190580Y0236371D03*
X0188611Y0236371D03*
X0186643Y0236371D03*
X0184674Y0236371D03*
X0182706Y0236371D03*
X0180737Y0236371D03*
X0178769Y0236371D03*
X0176800Y0236371D03*
X0174831Y0236371D03*
X0172863Y0236371D03*
X0170894Y0236371D03*
X0168926Y0236371D03*
D25*
X0180540Y0163020D03*
X0180540Y0161052D03*
X0180540Y0159083D03*
X0180540Y0157115D03*
X0180540Y0155146D03*
X0180540Y0153178D03*
X0198650Y0153178D03*
X0198650Y0155146D03*
X0198650Y0157115D03*
X0198650Y0159083D03*
X0198650Y0161052D03*
X0198650Y0163020D03*
D26*
X0194517Y0167154D03*
X0192548Y0167154D03*
X0190580Y0167154D03*
X0188611Y0167154D03*
X0186643Y0167154D03*
X0184674Y0167154D03*
X0184674Y0149044D03*
X0186643Y0149044D03*
X0188611Y0149044D03*
X0190580Y0149044D03*
X0192548Y0149044D03*
X0194517Y0149044D03*
D27*
X0188217Y0251209D03*
X0179162Y0251209D03*
X0179162Y0265776D03*
X0188217Y0265776D03*
D28*
X0182706Y0262233D02*
X0179162Y0265776D01*
X0173454Y0265776D01*
X0169910Y0262233D01*
X0182706Y0262233D02*
X0182706Y0236371D01*
X0184674Y0236371D02*
X0184674Y0247666D01*
X0188217Y0251209D01*
X0193926Y0251209D01*
X0197469Y0254753D01*
X0203375Y0248650D02*
X0230540Y0248650D01*
X0230146Y0249044D01*
X0230146Y0257017D01*
X0235855Y0238808D02*
X0244910Y0238808D01*
X0252391Y0238808D02*
X0264398Y0238808D01*
X0259477Y0233729D02*
X0264398Y0228808D01*
X0259477Y0233729D02*
X0230894Y0233729D01*
X0227784Y0236839D01*
X0214398Y0236839D01*
X0207509Y0229950D01*
X0202906Y0229950D01*
X0202906Y0227981D02*
X0208296Y0227981D01*
X0215186Y0234871D01*
X0226997Y0234871D01*
X0230146Y0231721D01*
X0251485Y0231721D01*
X0264398Y0218808D01*
X0244517Y0221091D02*
X0236249Y0221091D01*
X0229556Y0221091D02*
X0227587Y0219123D01*
X0215186Y0219123D01*
X0212233Y0222076D01*
X0202906Y0222076D01*
X0202906Y0224044D02*
X0199438Y0224044D01*
X0196485Y0224044D01*
X0188611Y0231918D01*
X0188611Y0236371D01*
X0186643Y0236371D02*
X0186643Y0232509D01*
X0185658Y0231524D01*
X0181721Y0231524D01*
X0180737Y0232509D01*
X0180737Y0236371D01*
X0178769Y0236371D02*
X0178769Y0230934D01*
X0185658Y0224044D01*
X0196485Y0224044D01*
X0198454Y0218139D02*
X0188611Y0208296D01*
X0182706Y0209280D02*
X0182706Y0204359D01*
X0180737Y0202391D01*
X0180737Y0197938D01*
X0180737Y0192548D01*
X0177784Y0189595D01*
X0177784Y0183493D01*
X0177587Y0183493D01*
X0170501Y0176406D01*
X0154162Y0176406D01*
X0154162Y0183099D02*
X0154162Y0188611D01*
X0158099Y0192548D01*
X0163020Y0197469D01*
X0158099Y0192548D02*
X0158099Y0208296D01*
X0160068Y0210265D01*
X0164473Y0210265D01*
X0164473Y0212233D02*
X0168926Y0212233D01*
X0174831Y0206328D01*
X0174831Y0197938D01*
X0176800Y0197938D02*
X0178769Y0197938D01*
X0176800Y0197938D02*
X0176800Y0193532D01*
X0172666Y0189398D01*
X0167942Y0189398D01*
X0182706Y0197938D02*
X0182706Y0201603D01*
X0183493Y0202391D01*
X0202906Y0202391D01*
X0202906Y0194001D01*
X0204359Y0192548D01*
X0196288Y0191170D02*
X0194320Y0193139D01*
X0191170Y0193139D01*
X0190580Y0193729D01*
X0190580Y0197938D01*
X0188611Y0197938D02*
X0188611Y0190580D01*
X0190776Y0188414D01*
X0186643Y0186643D02*
X0190580Y0182706D01*
X0186643Y0186643D02*
X0186643Y0197938D01*
X0184674Y0197938D02*
X0184674Y0182706D01*
X0190580Y0176800D01*
X0190580Y0167154D01*
X0192548Y0167154D02*
X0192548Y0172469D01*
X0197469Y0177391D01*
X0197469Y0184083D02*
X0207312Y0184083D01*
X0209280Y0184083D01*
X0209280Y0203375D01*
X0208296Y0204359D01*
X0202906Y0204359D01*
X0182706Y0204359D01*
X0198454Y0218139D02*
X0202906Y0218139D01*
X0202906Y0220107D02*
X0211446Y0220107D01*
X0220304Y0211249D01*
X0229556Y0211249D01*
X0236249Y0211249D02*
X0244517Y0211249D01*
X0239713Y0199595D02*
X0229202Y0199595D01*
X0214595Y0214202D01*
X0202906Y0214202D01*
X0202906Y0212233D02*
X0213808Y0212233D01*
X0231426Y0194615D01*
X0244694Y0194615D01*
X0249713Y0189595D01*
X0239713Y0189595D02*
X0233690Y0189595D01*
X0213020Y0210265D01*
X0202906Y0210265D01*
X0215186Y0202391D02*
X0215186Y0193532D01*
X0237824Y0170894D01*
X0232706Y0158296D02*
X0240580Y0150422D01*
X0246682Y0150422D01*
X0255343Y0150422D01*
X0255343Y0157902D02*
X0255343Y0166957D01*
X0254359Y0167942D01*
X0232706Y0158296D02*
X0219123Y0158296D01*
X0209280Y0158296D01*
X0208099Y0157115D01*
X0198650Y0157115D01*
X0198650Y0159083D01*
X0198650Y0161052D01*
X0198650Y0163020D01*
X0198650Y0165186D01*
X0205343Y0171879D01*
X0211249Y0171879D01*
X0213217Y0173847D01*
X0213217Y0181721D01*
X0210855Y0184083D01*
X0209280Y0184083D01*
X0207312Y0177391D02*
X0197076Y0167154D01*
X0194517Y0167154D01*
X0186643Y0167154D02*
X0186643Y0162036D01*
X0185658Y0161052D01*
X0180540Y0161052D01*
X0184674Y0167154D02*
X0184674Y0176800D01*
X0171682Y0169123D02*
X0125422Y0169123D01*
X0114792Y0158414D01*
X0114792Y0148414D02*
X0131367Y0164989D01*
X0165973Y0164989D01*
X0155146Y0160068D02*
X0155146Y0136052D01*
X0151603Y0132509D01*
X0151013Y0131131D01*
X0151013Y0124143D01*
X0169910Y0148454D02*
X0184083Y0148454D01*
X0184674Y0149044D01*
X0186643Y0149044D02*
X0186643Y0143335D01*
X0183887Y0140580D01*
X0183887Y0138414D01*
X0188611Y0143335D02*
X0188611Y0149044D01*
X0188611Y0143335D02*
X0191367Y0140580D01*
X0191367Y0138414D01*
X0209280Y0165776D02*
X0219123Y0165776D01*
X0237824Y0142351D02*
X0237824Y0132902D01*
X0238217Y0134477D01*
X0238611Y0132115D01*
X0238611Y0126111D01*
X0296292Y0082898D02*
X0314625Y0064566D01*
X0320471Y0058719D02*
X0325422Y0053769D01*
X0164473Y0212233D02*
X0156131Y0212233D01*
X0154359Y0216170D02*
X0152194Y0214005D01*
X0148847Y0214005D01*
X0146288Y0214005D02*
X0146288Y0211052D01*
X0152194Y0205146D01*
X0142351Y0205146D02*
X0142351Y0212627D01*
X0143729Y0214005D01*
X0143926Y0213814D02*
X0133690Y0213814D01*
X0133690Y0212824D02*
X0133690Y0215186D01*
X0143926Y0215186D01*
X0143926Y0212824D01*
X0133690Y0212824D01*
X0133690Y0214915D02*
X0143926Y0214915D01*
X0148847Y0220304D02*
X0152194Y0220304D01*
X0154359Y0218139D01*
X0164473Y0218139D01*
X0164473Y0216170D02*
X0154359Y0216170D01*
X0146682Y0237824D02*
X0140973Y0243532D01*
X0140973Y0248650D01*
X0140580Y0249044D01*
X0146682Y0237824D02*
X0163020Y0237824D01*
X0169713Y0245698D02*
X0173847Y0245698D01*
X0176800Y0242745D01*
X0176800Y0236371D01*
X0191564Y0243729D02*
X0194517Y0240776D01*
X0194517Y0236371D01*
X0196485Y0236371D02*
X0196485Y0241761D01*
X0203375Y0248650D01*
X0198922Y0236839D02*
X0198454Y0236371D01*
X0198922Y0236839D02*
X0208296Y0236839D01*
X0213611Y0230540D02*
X0218926Y0230540D01*
X0213611Y0230540D02*
X0209083Y0226013D01*
X0202906Y0226013D01*
X0202906Y0224044D02*
X0218335Y0224044D01*
X0219123Y0223257D01*
X0296292Y0296292D02*
X0314625Y0314625D01*
X0320471Y0320471D02*
X0325422Y0325422D01*
X0082898Y0296292D02*
X0064566Y0314625D01*
X0058719Y0320471D02*
X0053769Y0325422D01*
X0082898Y0082898D02*
X0064566Y0064566D01*
X0058719Y0058719D02*
X0053769Y0053769D01*
D29*
X0053769Y0053769D03*
X0137430Y0146288D03*
X0155146Y0160068D03*
X0165973Y0164989D03*
X0171682Y0169123D03*
X0184674Y0176800D03*
X0190580Y0182706D03*
X0190776Y0188414D03*
X0196288Y0191170D03*
X0204359Y0192548D03*
X0215186Y0202391D03*
X0188611Y0208296D03*
X0163020Y0197469D03*
X0156131Y0212233D03*
X0156131Y0223060D03*
X0151209Y0225028D03*
X0146288Y0226013D03*
X0141367Y0225028D03*
X0136446Y0223060D03*
X0135461Y0205343D03*
X0161052Y0185658D03*
X0163020Y0237824D03*
X0158099Y0254556D03*
X0191564Y0243729D03*
X0208296Y0236839D03*
X0214202Y0259477D03*
X0235855Y0238808D03*
X0245698Y0248650D03*
X0237824Y0170894D03*
X0237824Y0142351D03*
X0325422Y0053769D03*
X0325422Y0325422D03*
X0053769Y0325422D03*
D30*
X0132509Y0262614D02*
X0132509Y0259227D01*
X0134118Y0257618D01*
X0134118Y0256466D01*
X0132509Y0254856D01*
X0132509Y0220592D01*
X0137258Y0220592D01*
X0138072Y0219778D01*
X0138072Y0217128D01*
X0144730Y0217128D01*
X0144888Y0216970D01*
X0144994Y0216970D01*
X0145009Y0216955D01*
X0145023Y0216970D01*
X0147553Y0216970D01*
X0147568Y0216955D01*
X0147582Y0216970D01*
X0150112Y0216970D01*
X0150927Y0216156D01*
X0150927Y0215946D01*
X0151389Y0215946D01*
X0152597Y0217154D01*
X0151389Y0218362D01*
X0150927Y0218362D01*
X0150927Y0218153D01*
X0150112Y0217339D01*
X0147750Y0217339D01*
X0147591Y0217247D01*
X0147187Y0217139D01*
X0146288Y0217139D01*
X0146288Y0220304D01*
X0146288Y0223469D01*
X0145390Y0223469D01*
X0144985Y0223361D01*
X0144827Y0223269D01*
X0142464Y0223269D01*
X0141650Y0222455D01*
X0141650Y0218153D01*
X0142464Y0217339D01*
X0144827Y0217339D01*
X0144985Y0217247D01*
X0145390Y0217139D01*
X0146288Y0217139D01*
X0146288Y0220304D01*
X0146288Y0220304D01*
X0146288Y0220304D01*
X0146288Y0223469D01*
X0147187Y0223469D01*
X0147591Y0223361D01*
X0147750Y0223269D01*
X0150112Y0223269D01*
X0150927Y0222455D01*
X0150927Y0222246D01*
X0152998Y0222246D01*
X0154135Y0221108D01*
X0155163Y0220080D01*
X0159808Y0220080D01*
X0159808Y0220107D01*
X0164473Y0220107D01*
X0164473Y0220107D01*
X0159808Y0220107D01*
X0159808Y0220868D01*
X0159916Y0221272D01*
X0160008Y0221431D01*
X0160008Y0233045D01*
X0160822Y0233860D01*
X0166984Y0233860D01*
X0166984Y0240022D01*
X0167799Y0240836D01*
X0173508Y0240836D01*
X0173666Y0240928D01*
X0174071Y0241036D01*
X0174831Y0241036D01*
X0174831Y0236371D01*
X0174832Y0236371D01*
X0174832Y0241036D01*
X0174858Y0241036D01*
X0174858Y0241941D01*
X0173663Y0243136D01*
X0173663Y0242169D01*
X0172848Y0241354D01*
X0166578Y0241354D01*
X0166101Y0241831D01*
X0166065Y0241768D01*
X0165769Y0241472D01*
X0165406Y0241263D01*
X0165002Y0241154D01*
X0164304Y0241154D01*
X0165042Y0240849D01*
X0166046Y0239845D01*
X0166589Y0238533D01*
X0166589Y0237114D01*
X0166046Y0235802D01*
X0165042Y0234798D01*
X0163730Y0234255D01*
X0162311Y0234255D01*
X0160999Y0234798D01*
X0159995Y0235802D01*
X0159962Y0235882D01*
X0145878Y0235882D01*
X0140169Y0241591D01*
X0139031Y0242728D01*
X0139031Y0244307D01*
X0137838Y0244307D01*
X0137024Y0245122D01*
X0137024Y0252179D01*
X0137776Y0252932D01*
X0137220Y0253488D01*
X0137220Y0262614D01*
X0132509Y0262614D01*
X0132509Y0261552D02*
X0137220Y0261552D01*
X0137220Y0260372D02*
X0132509Y0260372D01*
X0132543Y0259192D02*
X0137220Y0259192D01*
X0137220Y0258013D02*
X0133723Y0258013D01*
X0134118Y0256833D02*
X0137220Y0256833D01*
X0137220Y0255654D02*
X0133306Y0255654D01*
X0132509Y0254474D02*
X0137220Y0254474D01*
X0137414Y0253294D02*
X0132509Y0253294D01*
X0132509Y0252115D02*
X0137024Y0252115D01*
X0137024Y0250935D02*
X0132509Y0250935D01*
X0132509Y0249756D02*
X0137024Y0249756D01*
X0137024Y0248576D02*
X0132509Y0248576D01*
X0132509Y0247396D02*
X0137024Y0247396D01*
X0137024Y0246217D02*
X0132509Y0246217D01*
X0132509Y0245037D02*
X0137108Y0245037D01*
X0139031Y0243858D02*
X0132509Y0243858D01*
X0132509Y0242678D02*
X0139082Y0242678D01*
X0140261Y0241498D02*
X0132509Y0241498D01*
X0132509Y0240319D02*
X0141441Y0240319D01*
X0142620Y0239139D02*
X0132509Y0239139D01*
X0132509Y0237959D02*
X0143800Y0237959D01*
X0144980Y0236780D02*
X0132509Y0236780D01*
X0132509Y0235600D02*
X0160197Y0235600D01*
X0161911Y0234421D02*
X0132509Y0234421D01*
X0132509Y0233241D02*
X0160204Y0233241D01*
X0160008Y0232061D02*
X0132509Y0232061D01*
X0132509Y0230882D02*
X0160008Y0230882D01*
X0160008Y0229702D02*
X0132509Y0229702D01*
X0132509Y0228523D02*
X0160008Y0228523D01*
X0160008Y0227343D02*
X0132509Y0227343D01*
X0132509Y0226163D02*
X0160008Y0226163D01*
X0160008Y0224984D02*
X0132509Y0224984D01*
X0132509Y0223804D02*
X0160008Y0223804D01*
X0160008Y0222624D02*
X0150757Y0222624D01*
X0153799Y0221445D02*
X0160008Y0221445D01*
X0159808Y0220265D02*
X0154978Y0220265D01*
X0151846Y0217906D02*
X0150680Y0217906D01*
X0150356Y0216726D02*
X0152169Y0216726D01*
X0155163Y0214228D02*
X0159808Y0214228D01*
X0159808Y0214202D01*
X0160672Y0214202D01*
X0160672Y0214202D01*
X0159808Y0214202D01*
X0159808Y0213441D01*
X0159868Y0213217D01*
X0159808Y0212994D01*
X0159808Y0212233D01*
X0159808Y0212206D01*
X0159263Y0212206D01*
X0157295Y0210238D01*
X0156157Y0209100D01*
X0156157Y0208661D01*
X0155722Y0209096D01*
X0150990Y0209096D01*
X0149047Y0211039D01*
X0150112Y0211039D01*
X0150927Y0211854D01*
X0150927Y0212063D01*
X0152998Y0212063D01*
X0154135Y0213200D01*
X0155163Y0214228D01*
X0154123Y0213188D02*
X0159860Y0213188D01*
X0159808Y0212233D02*
X0160672Y0212233D01*
X0160672Y0212233D01*
X0159808Y0212233D01*
X0159065Y0212008D02*
X0150927Y0212008D01*
X0149258Y0210828D02*
X0157885Y0210828D01*
X0156706Y0209649D02*
X0150437Y0209649D01*
X0147850Y0206744D02*
X0147850Y0202011D01*
X0148327Y0201534D01*
X0148264Y0201498D01*
X0147968Y0201202D01*
X0147759Y0200839D01*
X0147650Y0200435D01*
X0147650Y0198257D01*
X0151603Y0198257D01*
X0151603Y0197076D01*
X0147650Y0197076D01*
X0147650Y0194898D01*
X0147759Y0194493D01*
X0147968Y0194130D01*
X0148264Y0193834D01*
X0148627Y0193625D01*
X0149032Y0193517D01*
X0151603Y0193517D01*
X0151603Y0197076D01*
X0152784Y0197076D01*
X0152784Y0193517D01*
X0155356Y0193517D01*
X0155760Y0193625D01*
X0156123Y0193834D01*
X0156157Y0193869D01*
X0156157Y0193352D01*
X0152220Y0189415D01*
X0152220Y0187049D01*
X0150633Y0187049D01*
X0149819Y0186234D01*
X0149819Y0179964D01*
X0150030Y0179753D01*
X0149819Y0179541D01*
X0149819Y0173271D01*
X0150633Y0172457D01*
X0157691Y0172457D01*
X0158505Y0173271D01*
X0158505Y0174465D01*
X0171305Y0174465D01*
X0173444Y0176603D01*
X0177194Y0176603D01*
X0177194Y0175422D01*
X0178375Y0175422D01*
X0178375Y0171863D01*
X0180946Y0171863D01*
X0181351Y0171971D01*
X0181714Y0172181D01*
X0182010Y0172477D01*
X0182219Y0172840D01*
X0182328Y0173244D01*
X0182328Y0174100D01*
X0182653Y0173775D01*
X0182732Y0173742D01*
X0182732Y0164962D01*
X0177011Y0164962D01*
X0176197Y0164148D01*
X0176197Y0162376D01*
X0176105Y0162217D01*
X0175997Y0161813D01*
X0175997Y0161052D01*
X0176861Y0161052D01*
X0175997Y0161052D01*
X0175997Y0160291D01*
X0176057Y0160068D01*
X0175997Y0159844D01*
X0175997Y0159084D01*
X0176861Y0159084D01*
X0176861Y0159083D01*
X0175997Y0159083D01*
X0175997Y0158323D01*
X0176057Y0158099D01*
X0175997Y0157876D01*
X0175997Y0157115D01*
X0176861Y0157115D01*
X0176861Y0157115D01*
X0175997Y0157115D01*
X0175997Y0156354D01*
X0176057Y0156131D01*
X0175997Y0155907D01*
X0175997Y0155147D01*
X0176861Y0155147D01*
X0176861Y0155146D01*
X0175997Y0155146D01*
X0175997Y0154386D01*
X0176057Y0154162D01*
X0175997Y0153939D01*
X0175997Y0153178D01*
X0176861Y0153178D01*
X0176861Y0153178D01*
X0175997Y0153178D01*
X0175997Y0152417D01*
X0176105Y0152013D01*
X0176315Y0151650D01*
X0176611Y0151354D01*
X0176973Y0151145D01*
X0177378Y0151036D01*
X0180540Y0151036D01*
X0180540Y0153178D01*
X0180540Y0155146D01*
X0180540Y0155146D01*
X0180540Y0153178D01*
X0180540Y0153178D01*
X0180540Y0153178D01*
X0180540Y0151036D01*
X0182732Y0151036D01*
X0182732Y0150395D01*
X0174254Y0150395D01*
X0174254Y0151589D01*
X0173776Y0152066D01*
X0173840Y0152102D01*
X0174136Y0152398D01*
X0174345Y0152761D01*
X0174454Y0153165D01*
X0174454Y0155343D01*
X0170501Y0155343D01*
X0170501Y0156524D01*
X0174454Y0156524D01*
X0174454Y0158702D01*
X0174345Y0159107D01*
X0174136Y0159470D01*
X0173840Y0159766D01*
X0173477Y0159975D01*
X0173072Y0160083D01*
X0170501Y0160083D01*
X0170501Y0156524D01*
X0169320Y0156524D01*
X0169320Y0155343D01*
X0165367Y0155343D01*
X0165367Y0153165D01*
X0165475Y0152761D01*
X0165685Y0152398D01*
X0165981Y0152102D01*
X0166044Y0152066D01*
X0165567Y0151589D01*
X0165567Y0145318D01*
X0166381Y0144504D01*
X0173439Y0144504D01*
X0174254Y0145318D01*
X0174254Y0146512D01*
X0182732Y0146512D01*
X0182732Y0145515D01*
X0183547Y0144701D01*
X0184701Y0144701D01*
X0184701Y0144140D01*
X0183319Y0142757D01*
X0180752Y0142757D01*
X0179937Y0141943D01*
X0179937Y0134885D01*
X0180752Y0134071D01*
X0187022Y0134071D01*
X0187627Y0134676D01*
X0188232Y0134071D01*
X0194502Y0134071D01*
X0195317Y0134885D01*
X0195317Y0141943D01*
X0194502Y0142757D01*
X0191935Y0142757D01*
X0190553Y0144140D01*
X0190553Y0144501D01*
X0190579Y0144501D01*
X0190579Y0149044D01*
X0190580Y0149044D01*
X0190580Y0144501D01*
X0191340Y0144501D01*
X0191745Y0144609D01*
X0191903Y0144701D01*
X0195644Y0144701D01*
X0196458Y0145515D01*
X0196458Y0151236D01*
X0202179Y0151236D01*
X0202994Y0152051D01*
X0202994Y0155173D01*
X0204937Y0155173D01*
X0204937Y0155161D01*
X0205752Y0154346D01*
X0212809Y0154346D01*
X0213624Y0155161D01*
X0213624Y0156354D01*
X0214780Y0156354D01*
X0214780Y0155161D01*
X0215594Y0154346D01*
X0222652Y0154346D01*
X0223466Y0155161D01*
X0223466Y0156354D01*
X0231901Y0156354D01*
X0238638Y0149618D01*
X0239775Y0148480D01*
X0242339Y0148480D01*
X0242339Y0147287D01*
X0243153Y0146472D01*
X0250211Y0146472D01*
X0251025Y0147287D01*
X0251025Y0148480D01*
X0251874Y0148480D01*
X0252405Y0147949D01*
X0258281Y0147949D01*
X0259096Y0148763D01*
X0259096Y0152081D01*
X0258281Y0152895D01*
X0252405Y0152895D01*
X0251874Y0152364D01*
X0251025Y0152364D01*
X0251025Y0153557D01*
X0250548Y0154034D01*
X0250611Y0154071D01*
X0250907Y0154367D01*
X0251117Y0154729D01*
X0251225Y0155134D01*
X0251225Y0157312D01*
X0247272Y0157312D01*
X0247272Y0158493D01*
X0246091Y0158493D01*
X0246091Y0157312D01*
X0242139Y0157312D01*
X0242139Y0155134D01*
X0242247Y0154729D01*
X0242456Y0154367D01*
X0242753Y0154071D01*
X0242816Y0154034D01*
X0242339Y0153557D01*
X0242339Y0152364D01*
X0241384Y0152364D01*
X0233510Y0160238D01*
X0223466Y0160238D01*
X0223466Y0161431D01*
X0222989Y0161908D01*
X0223052Y0161945D01*
X0223348Y0162241D01*
X0223558Y0162603D01*
X0223666Y0163008D01*
X0223666Y0165186D01*
X0219713Y0165186D01*
X0219713Y0166367D01*
X0218532Y0166367D01*
X0218532Y0165186D01*
X0214580Y0165186D01*
X0214580Y0163008D01*
X0214688Y0162603D01*
X0214897Y0162241D01*
X0215193Y0161945D01*
X0215257Y0161908D01*
X0214780Y0161431D01*
X0214780Y0160238D01*
X0213624Y0160238D01*
X0213624Y0161431D01*
X0213147Y0161908D01*
X0213210Y0161945D01*
X0213506Y0162241D01*
X0213715Y0162603D01*
X0213824Y0163008D01*
X0213824Y0165186D01*
X0209871Y0165186D01*
X0209871Y0166367D01*
X0213824Y0166367D01*
X0213824Y0168545D01*
X0213715Y0168949D01*
X0213506Y0169312D01*
X0213210Y0169608D01*
X0212847Y0169818D01*
X0212442Y0169926D01*
X0209871Y0169926D01*
X0209871Y0166367D01*
X0208690Y0166367D01*
X0208690Y0169926D01*
X0206137Y0169926D01*
X0206148Y0169937D01*
X0212053Y0169937D01*
X0214022Y0171906D01*
X0215159Y0173043D01*
X0215159Y0182526D01*
X0212797Y0184888D01*
X0211659Y0186025D01*
X0211655Y0186025D01*
X0211655Y0187219D01*
X0211222Y0187652D01*
X0211222Y0204179D01*
X0210085Y0205317D01*
X0209100Y0206301D01*
X0207572Y0206301D01*
X0207572Y0206327D01*
X0202906Y0206327D01*
X0198241Y0206327D01*
X0198241Y0206301D01*
X0191647Y0206301D01*
X0192180Y0207586D01*
X0192180Y0209006D01*
X0192147Y0209086D01*
X0198441Y0215380D01*
X0198441Y0207651D01*
X0198349Y0207493D01*
X0198241Y0207088D01*
X0198241Y0206328D01*
X0202906Y0206328D01*
X0202906Y0206327D01*
X0202906Y0206328D01*
X0207572Y0206328D01*
X0207572Y0207088D01*
X0207463Y0207493D01*
X0207372Y0207651D01*
X0207372Y0208323D01*
X0212216Y0208323D01*
X0214580Y0205959D01*
X0214476Y0205959D01*
X0213164Y0205416D01*
X0212161Y0204412D01*
X0211617Y0203100D01*
X0211617Y0201681D01*
X0212161Y0200369D01*
X0213164Y0199365D01*
X0213244Y0199332D01*
X0213244Y0192728D01*
X0234288Y0171684D01*
X0234255Y0171604D01*
X0234255Y0170185D01*
X0234798Y0168873D01*
X0235802Y0167869D01*
X0237114Y0167326D01*
X0238533Y0167326D01*
X0239845Y0167869D01*
X0240849Y0168873D01*
X0241392Y0170185D01*
X0241392Y0171604D01*
X0240849Y0172916D01*
X0239845Y0173920D01*
X0238533Y0174463D01*
X0237114Y0174463D01*
X0237034Y0174430D01*
X0217128Y0194337D01*
X0217128Y0199332D01*
X0217207Y0199365D01*
X0218211Y0200369D01*
X0218754Y0201681D01*
X0218754Y0201785D01*
X0231748Y0188791D01*
X0232885Y0187654D01*
X0234773Y0187654D01*
X0234773Y0187549D01*
X0237667Y0184655D01*
X0241760Y0184655D01*
X0244654Y0187549D01*
X0244654Y0191642D01*
X0243622Y0192673D01*
X0243889Y0192673D01*
X0244847Y0191716D01*
X0244773Y0191642D01*
X0244773Y0187549D01*
X0247586Y0184736D01*
X0247584Y0184736D01*
X0244573Y0181725D01*
X0244573Y0181723D01*
X0241760Y0184536D01*
X0237667Y0184536D01*
X0234773Y0181642D01*
X0234773Y0177549D01*
X0237667Y0174655D01*
X0241760Y0174655D01*
X0244573Y0177468D01*
X0244573Y0177466D01*
X0247584Y0174455D01*
X0249304Y0174455D01*
X0249304Y0179186D01*
X0250123Y0179186D01*
X0250123Y0180005D01*
X0254854Y0180005D01*
X0254854Y0181725D01*
X0251843Y0184736D01*
X0251841Y0184736D01*
X0254654Y0187549D01*
X0254654Y0191642D01*
X0251760Y0194536D01*
X0247667Y0194536D01*
X0247593Y0194462D01*
X0245498Y0196557D01*
X0244654Y0196557D01*
X0244654Y0203721D01*
X0243839Y0204536D01*
X0235587Y0204536D01*
X0234773Y0203721D01*
X0234773Y0201537D01*
X0230006Y0201537D01*
X0222236Y0209307D01*
X0225606Y0209307D01*
X0225606Y0207720D01*
X0226421Y0206906D01*
X0232691Y0206906D01*
X0232902Y0207117D01*
X0233114Y0206906D01*
X0239384Y0206906D01*
X0240198Y0207720D01*
X0240198Y0209307D01*
X0240764Y0209307D01*
X0240764Y0208311D01*
X0241578Y0207496D01*
X0247455Y0207496D01*
X0248269Y0208311D01*
X0248269Y0214187D01*
X0247455Y0215002D01*
X0241578Y0215002D01*
X0240764Y0214187D01*
X0240764Y0213191D01*
X0240198Y0213191D01*
X0240198Y0214778D01*
X0239384Y0215592D01*
X0233114Y0215592D01*
X0232902Y0215381D01*
X0232691Y0215592D01*
X0226421Y0215592D01*
X0225606Y0214778D01*
X0225606Y0213191D01*
X0221108Y0213191D01*
X0217118Y0217181D01*
X0225988Y0217181D01*
X0226421Y0216748D01*
X0232691Y0216748D01*
X0232902Y0216959D01*
X0233114Y0216748D01*
X0239384Y0216748D01*
X0240198Y0217563D01*
X0240198Y0219150D01*
X0240764Y0219150D01*
X0240764Y0218153D01*
X0241578Y0217339D01*
X0247455Y0217339D01*
X0248269Y0218153D01*
X0248269Y0224030D01*
X0247455Y0224844D01*
X0241578Y0224844D01*
X0240764Y0224030D01*
X0240764Y0223033D01*
X0240198Y0223033D01*
X0240198Y0224620D01*
X0239384Y0225435D01*
X0233114Y0225435D01*
X0232902Y0225223D01*
X0232691Y0225435D01*
X0226421Y0225435D01*
X0225606Y0224620D01*
X0225606Y0221065D01*
X0223466Y0221065D01*
X0223466Y0226392D01*
X0222989Y0226869D01*
X0223052Y0226905D01*
X0223348Y0227201D01*
X0223558Y0227564D01*
X0223666Y0227969D01*
X0223666Y0230146D01*
X0219713Y0230146D01*
X0219713Y0231328D01*
X0223666Y0231328D01*
X0223666Y0232929D01*
X0226193Y0232929D01*
X0228205Y0230917D01*
X0229342Y0229780D01*
X0250681Y0229780D01*
X0255438Y0225022D01*
X0255356Y0225044D01*
X0253375Y0225044D01*
X0253375Y0221682D01*
X0256737Y0221682D01*
X0256737Y0223663D01*
X0256715Y0223745D01*
X0259698Y0220762D01*
X0259308Y0219820D01*
X0259308Y0217795D01*
X0260083Y0215924D01*
X0261515Y0214492D01*
X0263167Y0213808D01*
X0261515Y0213123D01*
X0260083Y0211691D01*
X0259308Y0209820D01*
X0259308Y0207795D01*
X0260083Y0205924D01*
X0261515Y0204492D01*
X0263167Y0203808D01*
X0261515Y0203123D01*
X0260083Y0201691D01*
X0259308Y0199820D01*
X0259308Y0197795D01*
X0260083Y0195924D01*
X0261515Y0194492D01*
X0262947Y0193899D01*
X0262368Y0193711D01*
X0261626Y0193333D01*
X0260952Y0192843D01*
X0260363Y0192254D01*
X0259874Y0191581D01*
X0259495Y0190839D01*
X0259238Y0190047D01*
X0259108Y0189224D01*
X0259108Y0189217D01*
X0263989Y0189217D01*
X0263989Y0188398D01*
X0264808Y0188398D01*
X0264808Y0183517D01*
X0264815Y0183517D01*
X0265383Y0183607D01*
X0265383Y0160376D01*
X0262641Y0160376D01*
X0261827Y0159561D01*
X0261827Y0156244D01*
X0261910Y0156161D01*
X0261735Y0155859D01*
X0261627Y0155454D01*
X0261627Y0154162D01*
X0261627Y0152870D01*
X0261735Y0152466D01*
X0261910Y0152164D01*
X0261827Y0152081D01*
X0261827Y0148763D01*
X0262641Y0147949D01*
X0265383Y0147949D01*
X0265383Y0146694D01*
X0263035Y0146694D01*
X0262558Y0146217D01*
X0262522Y0146281D01*
X0262225Y0146577D01*
X0261863Y0146786D01*
X0261458Y0146894D01*
X0259280Y0146894D01*
X0259280Y0142942D01*
X0258099Y0142942D01*
X0258099Y0146894D01*
X0255921Y0146894D01*
X0255517Y0146786D01*
X0255154Y0146577D01*
X0254858Y0146281D01*
X0254649Y0145918D01*
X0254540Y0145513D01*
X0254540Y0142942D01*
X0258099Y0142942D01*
X0258099Y0141761D01*
X0254540Y0141761D01*
X0254540Y0139189D01*
X0254649Y0138784D01*
X0254858Y0138422D01*
X0255154Y0138126D01*
X0255517Y0137916D01*
X0255921Y0137808D01*
X0258099Y0137808D01*
X0258099Y0141761D01*
X0259280Y0141761D01*
X0259280Y0137808D01*
X0261458Y0137808D01*
X0261863Y0137916D01*
X0262225Y0138126D01*
X0262522Y0138422D01*
X0262558Y0138485D01*
X0263035Y0138008D01*
X0265383Y0138008D01*
X0265383Y0135461D01*
X0251603Y0135461D01*
X0251603Y0126084D01*
X0250101Y0127586D01*
X0248949Y0127586D01*
X0245072Y0123709D01*
X0245072Y0122557D01*
X0247557Y0120072D01*
X0248709Y0120072D01*
X0248852Y0120215D01*
X0251203Y0118151D01*
X0241970Y0118151D01*
X0241970Y0129640D01*
X0241414Y0130196D01*
X0242167Y0130948D01*
X0242167Y0138006D01*
X0241352Y0138820D01*
X0239765Y0138820D01*
X0239765Y0139293D01*
X0239845Y0139326D01*
X0240849Y0140330D01*
X0241392Y0141641D01*
X0241392Y0143061D01*
X0240849Y0144373D01*
X0239845Y0145376D01*
X0238533Y0145920D01*
X0237114Y0145920D01*
X0235802Y0145376D01*
X0234798Y0144373D01*
X0234255Y0143061D01*
X0234255Y0141641D01*
X0234798Y0140330D01*
X0235802Y0139326D01*
X0235882Y0139293D01*
X0235882Y0138820D01*
X0235082Y0138820D01*
X0234999Y0138738D01*
X0234697Y0138912D01*
X0234293Y0139020D01*
X0232115Y0139020D01*
X0232115Y0135068D01*
X0230934Y0135068D01*
X0230934Y0139020D01*
X0228756Y0139020D01*
X0228351Y0138912D01*
X0227989Y0138703D01*
X0227693Y0138407D01*
X0227483Y0138044D01*
X0227375Y0137639D01*
X0227375Y0135068D01*
X0230934Y0135068D01*
X0230934Y0133887D01*
X0227375Y0133887D01*
X0227375Y0131315D01*
X0227483Y0130910D01*
X0227693Y0130548D01*
X0227989Y0130252D01*
X0228060Y0130211D01*
X0227889Y0130040D01*
X0227680Y0129678D01*
X0227572Y0129273D01*
X0227572Y0126505D01*
X0230737Y0126505D01*
X0230737Y0129934D01*
X0230934Y0129934D01*
X0230934Y0133887D01*
X0232115Y0133887D01*
X0232115Y0130654D01*
X0231524Y0130654D01*
X0231524Y0126505D01*
X0230737Y0126505D01*
X0230737Y0125717D01*
X0227572Y0125717D01*
X0227572Y0122949D01*
X0227680Y0122544D01*
X0227772Y0122386D01*
X0227772Y0114130D01*
X0204923Y0114130D01*
X0204923Y0115852D01*
X0204112Y0117810D01*
X0202613Y0119309D01*
X0200655Y0120120D01*
X0198536Y0120120D01*
X0198509Y0120109D01*
X0205424Y0127024D01*
X0210340Y0127024D01*
X0212298Y0127835D01*
X0213797Y0129333D01*
X0214608Y0131291D01*
X0214608Y0133411D01*
X0213797Y0135369D01*
X0212298Y0136868D01*
X0211079Y0137373D01*
X0211311Y0137448D01*
X0212053Y0137826D01*
X0212727Y0138316D01*
X0213316Y0138905D01*
X0213805Y0139578D01*
X0214183Y0140320D01*
X0214441Y0141112D01*
X0214571Y0141935D01*
X0214571Y0141942D01*
X0209690Y0141942D01*
X0209690Y0142761D01*
X0208871Y0142761D01*
X0208871Y0147642D01*
X0208864Y0147642D01*
X0208041Y0147511D01*
X0207249Y0147254D01*
X0206507Y0146876D01*
X0205834Y0146387D01*
X0205245Y0145798D01*
X0204755Y0145124D01*
X0204377Y0144382D01*
X0204120Y0143590D01*
X0203990Y0142768D01*
X0203990Y0142761D01*
X0208871Y0142761D01*
X0208871Y0141942D01*
X0203990Y0141942D01*
X0203990Y0141935D01*
X0204120Y0141112D01*
X0204377Y0140320D01*
X0204755Y0139578D01*
X0205245Y0138905D01*
X0205834Y0138316D01*
X0206507Y0137826D01*
X0206797Y0137679D01*
X0202158Y0137679D01*
X0200199Y0136868D01*
X0198701Y0135369D01*
X0185079Y0121747D01*
X0184268Y0119789D01*
X0184268Y0116814D01*
X0183911Y0117676D01*
X0182479Y0119108D01*
X0180608Y0119883D01*
X0178583Y0119883D01*
X0176712Y0119108D01*
X0175280Y0117676D01*
X0174505Y0115805D01*
X0174505Y0114130D01*
X0154372Y0114130D01*
X0154372Y0127671D01*
X0153878Y0128165D01*
X0154738Y0128165D01*
X0155553Y0128980D01*
X0155553Y0133712D01*
X0157088Y0135248D01*
X0157088Y0157009D01*
X0157168Y0157042D01*
X0158172Y0158046D01*
X0158715Y0159358D01*
X0158715Y0160778D01*
X0158172Y0162089D01*
X0157214Y0163047D01*
X0162915Y0163047D01*
X0162948Y0162968D01*
X0163952Y0161964D01*
X0165263Y0161420D01*
X0166683Y0161420D01*
X0167995Y0161964D01*
X0168998Y0162968D01*
X0169542Y0164279D01*
X0169542Y0165699D01*
X0169176Y0166582D01*
X0169660Y0166098D01*
X0170972Y0165554D01*
X0172392Y0165554D01*
X0173703Y0166098D01*
X0174707Y0167101D01*
X0175250Y0168413D01*
X0175250Y0169833D01*
X0174707Y0171144D01*
X0173703Y0172148D01*
X0172392Y0172691D01*
X0170972Y0172691D01*
X0169660Y0172148D01*
X0168657Y0171144D01*
X0168624Y0171065D01*
X0126222Y0171065D01*
X0126219Y0171068D01*
X0125418Y0171065D01*
X0124618Y0171065D01*
X0124615Y0171062D01*
X0124611Y0171062D01*
X0124046Y0170493D01*
X0123480Y0169927D01*
X0123480Y0169923D01*
X0116729Y0163122D01*
X0116023Y0163414D01*
X0117676Y0164099D01*
X0119108Y0165531D01*
X0119883Y0167402D01*
X0119883Y0169427D01*
X0119108Y0171298D01*
X0117676Y0172730D01*
X0116023Y0173414D01*
X0117676Y0174099D01*
X0119108Y0175531D01*
X0119883Y0177402D01*
X0119883Y0179427D01*
X0119108Y0181298D01*
X0117676Y0182730D01*
X0116244Y0183323D01*
X0116823Y0183511D01*
X0117565Y0183889D01*
X0118239Y0184379D01*
X0118828Y0184968D01*
X0119317Y0185641D01*
X0119695Y0186383D01*
X0119952Y0187175D01*
X0120083Y0187998D01*
X0120083Y0188005D01*
X0115202Y0188005D01*
X0115202Y0188824D01*
X0120083Y0188824D01*
X0120083Y0188831D01*
X0119952Y0189653D01*
X0119695Y0190445D01*
X0119317Y0191187D01*
X0118828Y0191861D01*
X0118239Y0192450D01*
X0117565Y0192939D01*
X0116823Y0193317D01*
X0116161Y0193532D01*
X0132509Y0193532D01*
X0132509Y0207811D01*
X0137258Y0207811D01*
X0138072Y0208626D01*
X0138072Y0210882D01*
X0140409Y0210882D01*
X0140409Y0209096D01*
X0138822Y0209096D01*
X0138008Y0208281D01*
X0138008Y0202011D01*
X0138485Y0201534D01*
X0138422Y0201498D01*
X0138126Y0201202D01*
X0137916Y0200839D01*
X0137808Y0200435D01*
X0137808Y0198257D01*
X0141761Y0198257D01*
X0141761Y0197076D01*
X0137808Y0197076D01*
X0137808Y0194898D01*
X0137916Y0194493D01*
X0138126Y0194130D01*
X0138422Y0193834D01*
X0138784Y0193625D01*
X0139189Y0193517D01*
X0141761Y0193517D01*
X0141761Y0197076D01*
X0142942Y0197076D01*
X0142942Y0198257D01*
X0146894Y0198257D01*
X0146894Y0200435D01*
X0146786Y0200839D01*
X0146577Y0201202D01*
X0146281Y0201498D01*
X0146217Y0201534D01*
X0146694Y0202011D01*
X0146694Y0207900D01*
X0147850Y0206744D01*
X0147850Y0206110D02*
X0146694Y0206110D01*
X0146694Y0207289D02*
X0147305Y0207289D01*
X0147850Y0204930D02*
X0146694Y0204930D01*
X0146694Y0203751D02*
X0147850Y0203751D01*
X0147850Y0202571D02*
X0146694Y0202571D01*
X0146387Y0201391D02*
X0148158Y0201391D01*
X0147650Y0200212D02*
X0146894Y0200212D01*
X0146894Y0199032D02*
X0147650Y0199032D01*
X0146894Y0197076D02*
X0142942Y0197076D01*
X0142942Y0193517D01*
X0145513Y0193517D01*
X0145918Y0193625D01*
X0146281Y0193834D01*
X0146577Y0194130D01*
X0146786Y0194493D01*
X0146894Y0194898D01*
X0146894Y0197076D01*
X0146894Y0196673D02*
X0147650Y0196673D01*
X0147650Y0195493D02*
X0146894Y0195493D01*
X0146682Y0194314D02*
X0147862Y0194314D01*
X0151603Y0194314D02*
X0152784Y0194314D01*
X0152784Y0195493D02*
X0151603Y0195493D01*
X0151603Y0196673D02*
X0152784Y0196673D01*
X0151603Y0197853D02*
X0142942Y0197853D01*
X0142942Y0196673D02*
X0141761Y0196673D01*
X0141761Y0197853D02*
X0132509Y0197853D01*
X0132509Y0199032D02*
X0137808Y0199032D01*
X0137808Y0200212D02*
X0132509Y0200212D01*
X0132509Y0201391D02*
X0138315Y0201391D01*
X0138008Y0202571D02*
X0132509Y0202571D01*
X0132509Y0203751D02*
X0138008Y0203751D01*
X0138008Y0204930D02*
X0132509Y0204930D01*
X0132509Y0206110D02*
X0138008Y0206110D01*
X0138008Y0207289D02*
X0132509Y0207289D01*
X0137916Y0208469D02*
X0138195Y0208469D01*
X0138072Y0209649D02*
X0140409Y0209649D01*
X0140409Y0210828D02*
X0138072Y0210828D01*
X0138072Y0217906D02*
X0141897Y0217906D01*
X0141650Y0219086D02*
X0138072Y0219086D01*
X0137585Y0220265D02*
X0141650Y0220265D01*
X0141650Y0221445D02*
X0132509Y0221445D01*
X0132509Y0222624D02*
X0141819Y0222624D01*
X0146288Y0222624D02*
X0146288Y0222624D01*
X0146288Y0221445D02*
X0146288Y0221445D01*
X0146288Y0220265D02*
X0146288Y0220265D01*
X0146288Y0219086D02*
X0146288Y0219086D01*
X0146288Y0217906D02*
X0146288Y0217906D01*
X0164473Y0220107D02*
X0164473Y0220107D01*
X0169139Y0220107D01*
X0169139Y0219346D01*
X0169030Y0218942D01*
X0168939Y0218783D01*
X0168939Y0215525D01*
X0169030Y0215367D01*
X0169139Y0214962D01*
X0169139Y0214202D01*
X0168274Y0214202D01*
X0168274Y0214202D01*
X0169139Y0214202D01*
X0169139Y0213441D01*
X0169079Y0213217D01*
X0169139Y0212994D01*
X0169139Y0212233D01*
X0168274Y0212233D01*
X0168274Y0212233D01*
X0169139Y0212233D01*
X0169139Y0211472D01*
X0169030Y0211068D01*
X0168939Y0210909D01*
X0168939Y0202403D01*
X0173508Y0202403D01*
X0173666Y0202495D01*
X0174071Y0202603D01*
X0174831Y0202603D01*
X0174831Y0197938D01*
X0174832Y0197938D01*
X0174832Y0202603D01*
X0175592Y0202603D01*
X0175997Y0202495D01*
X0176155Y0202403D01*
X0178795Y0202403D01*
X0178795Y0203195D01*
X0179933Y0204332D01*
X0180764Y0205163D01*
X0180764Y0208420D01*
X0180724Y0208460D01*
X0180724Y0210101D01*
X0192726Y0222102D01*
X0184854Y0222102D01*
X0177964Y0228992D01*
X0176827Y0230130D01*
X0176827Y0231906D01*
X0176155Y0231906D01*
X0175997Y0231814D01*
X0175592Y0231706D01*
X0174832Y0231706D01*
X0174832Y0236371D01*
X0174831Y0236371D01*
X0174831Y0231706D01*
X0174071Y0231706D01*
X0173666Y0231814D01*
X0173508Y0231906D01*
X0168939Y0231906D01*
X0168939Y0221431D01*
X0169030Y0221272D01*
X0169139Y0220868D01*
X0169139Y0220107D01*
X0164473Y0220107D01*
X0168939Y0221445D02*
X0192068Y0221445D01*
X0190889Y0220265D02*
X0169139Y0220265D01*
X0169069Y0219086D02*
X0189709Y0219086D01*
X0188530Y0217906D02*
X0168939Y0217906D01*
X0168939Y0216726D02*
X0187350Y0216726D01*
X0186170Y0215547D02*
X0168939Y0215547D01*
X0169139Y0214367D02*
X0184991Y0214367D01*
X0183811Y0213188D02*
X0169087Y0213188D01*
X0169139Y0212008D02*
X0182631Y0212008D01*
X0181452Y0210828D02*
X0168939Y0210828D01*
X0168939Y0209649D02*
X0180724Y0209649D01*
X0180724Y0208469D02*
X0168939Y0208469D01*
X0168939Y0207289D02*
X0180764Y0207289D01*
X0180764Y0206110D02*
X0168939Y0206110D01*
X0168939Y0204930D02*
X0180531Y0204930D01*
X0179351Y0203751D02*
X0168939Y0203751D01*
X0168939Y0202571D02*
X0173951Y0202571D01*
X0174831Y0202571D02*
X0174832Y0202571D01*
X0175712Y0202571D02*
X0178795Y0202571D01*
X0182705Y0201613D02*
X0182705Y0197938D01*
X0182706Y0197938D01*
X0182706Y0201613D01*
X0182705Y0201613D01*
X0182705Y0201391D02*
X0182706Y0201391D01*
X0182705Y0200212D02*
X0182706Y0200212D01*
X0182705Y0199032D02*
X0182706Y0199032D01*
X0182706Y0197938D02*
X0182706Y0193272D01*
X0182732Y0193272D01*
X0182732Y0181901D01*
X0184265Y0180368D01*
X0183964Y0180368D01*
X0182653Y0179825D01*
X0182144Y0179316D01*
X0182010Y0179548D01*
X0181714Y0179844D01*
X0181651Y0179881D01*
X0182128Y0180358D01*
X0182128Y0186628D01*
X0181313Y0187443D01*
X0179726Y0187443D01*
X0179726Y0188791D01*
X0182679Y0191744D01*
X0182679Y0193272D01*
X0182705Y0193272D01*
X0182705Y0197938D01*
X0182706Y0197938D01*
X0182705Y0197853D02*
X0182706Y0197853D01*
X0182705Y0196673D02*
X0182706Y0196673D01*
X0182705Y0195493D02*
X0182706Y0195493D01*
X0182705Y0194314D02*
X0182706Y0194314D01*
X0182679Y0193134D02*
X0182732Y0193134D01*
X0182732Y0191955D02*
X0182679Y0191955D01*
X0182732Y0190775D02*
X0181710Y0190775D01*
X0182732Y0189595D02*
X0180530Y0189595D01*
X0179726Y0188416D02*
X0182732Y0188416D01*
X0182732Y0187236D02*
X0181519Y0187236D01*
X0182128Y0186056D02*
X0182732Y0186056D01*
X0182732Y0184877D02*
X0182128Y0184877D01*
X0182128Y0183697D02*
X0182732Y0183697D01*
X0182732Y0182518D02*
X0182128Y0182518D01*
X0182128Y0181338D02*
X0183296Y0181338D01*
X0183457Y0180158D02*
X0181928Y0180158D01*
X0177194Y0175440D02*
X0172280Y0175440D01*
X0173241Y0175422D02*
X0173241Y0173244D01*
X0173349Y0172840D01*
X0173559Y0172477D01*
X0173855Y0172181D01*
X0174218Y0171971D01*
X0174622Y0171863D01*
X0177194Y0171863D01*
X0177194Y0175422D01*
X0173241Y0175422D01*
X0173241Y0174260D02*
X0158505Y0174260D01*
X0158315Y0173081D02*
X0173285Y0173081D01*
X0173950Y0171901D02*
X0174480Y0171901D01*
X0174882Y0170721D02*
X0182732Y0170721D01*
X0182732Y0169542D02*
X0175250Y0169542D01*
X0175229Y0168362D02*
X0182732Y0168362D01*
X0182732Y0167183D02*
X0174741Y0167183D01*
X0173475Y0166003D02*
X0182732Y0166003D01*
X0184883Y0162811D02*
X0185319Y0162811D01*
X0185477Y0162719D01*
X0185882Y0162611D01*
X0186642Y0162611D01*
X0186642Y0163475D01*
X0186643Y0163475D01*
X0186643Y0162611D01*
X0187403Y0162611D01*
X0187627Y0162671D01*
X0187850Y0162611D01*
X0188611Y0162611D01*
X0188611Y0163475D01*
X0188611Y0163475D01*
X0188611Y0162611D01*
X0189372Y0162611D01*
X0189776Y0162719D01*
X0189935Y0162811D01*
X0194307Y0162811D01*
X0194307Y0153387D01*
X0191903Y0153387D01*
X0191745Y0153479D01*
X0191340Y0153587D01*
X0190580Y0153587D01*
X0190580Y0149044D01*
X0190579Y0149044D01*
X0190579Y0153587D01*
X0189819Y0153587D01*
X0189414Y0153479D01*
X0189256Y0153387D01*
X0185083Y0153387D01*
X0185083Y0153939D01*
X0185024Y0154162D01*
X0185083Y0154386D01*
X0185083Y0155146D01*
X0184219Y0155146D01*
X0184219Y0155146D01*
X0184219Y0155147D01*
X0185083Y0155147D01*
X0185083Y0155907D01*
X0185024Y0156131D01*
X0185083Y0156354D01*
X0185083Y0157115D01*
X0185083Y0157876D01*
X0185024Y0158099D01*
X0185083Y0158323D01*
X0185083Y0159083D01*
X0184219Y0159083D01*
X0184219Y0159083D01*
X0184219Y0159084D01*
X0185083Y0159084D01*
X0185083Y0159844D01*
X0185024Y0160068D01*
X0185083Y0160291D01*
X0185083Y0161052D01*
X0185083Y0161813D01*
X0184975Y0162217D01*
X0184883Y0162376D01*
X0184883Y0162811D01*
X0184883Y0162464D02*
X0194307Y0162464D01*
X0194307Y0161285D02*
X0185083Y0161285D01*
X0185083Y0161052D02*
X0184219Y0161052D01*
X0184219Y0161052D01*
X0185083Y0161052D01*
X0185033Y0160105D02*
X0194307Y0160105D01*
X0194307Y0158925D02*
X0185083Y0158925D01*
X0185083Y0157746D02*
X0194307Y0157746D01*
X0194307Y0156566D02*
X0185083Y0156566D01*
X0185083Y0157115D02*
X0184219Y0157115D01*
X0184219Y0157115D01*
X0184219Y0157115D01*
X0185083Y0157115D01*
X0185083Y0155386D02*
X0194307Y0155386D01*
X0194307Y0154207D02*
X0185035Y0154207D01*
X0182732Y0150668D02*
X0174254Y0150668D01*
X0173994Y0151848D02*
X0176201Y0151848D01*
X0175997Y0153027D02*
X0174417Y0153027D01*
X0174454Y0154207D02*
X0176045Y0154207D01*
X0175997Y0155386D02*
X0170501Y0155386D01*
X0170501Y0156566D02*
X0169320Y0156566D01*
X0169320Y0156524D02*
X0169320Y0160083D01*
X0166748Y0160083D01*
X0166344Y0159975D01*
X0165981Y0159766D01*
X0165685Y0159470D01*
X0165475Y0159107D01*
X0165367Y0158702D01*
X0165367Y0156524D01*
X0169320Y0156524D01*
X0169320Y0155386D02*
X0157088Y0155386D01*
X0157088Y0154207D02*
X0165367Y0154207D01*
X0165404Y0153027D02*
X0157088Y0153027D01*
X0157088Y0151848D02*
X0165826Y0151848D01*
X0165567Y0150668D02*
X0157088Y0150668D01*
X0157088Y0149488D02*
X0165567Y0149488D01*
X0165567Y0148309D02*
X0157088Y0148309D01*
X0157088Y0147129D02*
X0165567Y0147129D01*
X0165567Y0145950D02*
X0157088Y0145950D01*
X0157088Y0144770D02*
X0166115Y0144770D01*
X0173705Y0144770D02*
X0183478Y0144770D01*
X0184151Y0143590D02*
X0157088Y0143590D01*
X0157088Y0142411D02*
X0180405Y0142411D01*
X0179937Y0141231D02*
X0157088Y0141231D01*
X0157088Y0140052D02*
X0179937Y0140052D01*
X0179937Y0138872D02*
X0157088Y0138872D01*
X0157088Y0137692D02*
X0179937Y0137692D01*
X0179937Y0136513D02*
X0157088Y0136513D01*
X0157088Y0135333D02*
X0179937Y0135333D01*
X0180669Y0134153D02*
X0155994Y0134153D01*
X0155553Y0132974D02*
X0196306Y0132974D01*
X0197485Y0134153D02*
X0194585Y0134153D01*
X0195317Y0135333D02*
X0198665Y0135333D01*
X0199845Y0136513D02*
X0195317Y0136513D01*
X0195317Y0137692D02*
X0206770Y0137692D01*
X0205278Y0138872D02*
X0195317Y0138872D01*
X0195317Y0140052D02*
X0204514Y0140052D01*
X0204101Y0141231D02*
X0195317Y0141231D01*
X0194849Y0142411D02*
X0208871Y0142411D01*
X0209690Y0142411D02*
X0234255Y0142411D01*
X0234425Y0141231D02*
X0214459Y0141231D01*
X0214046Y0140052D02*
X0235077Y0140052D01*
X0234767Y0138872D02*
X0235882Y0138872D01*
X0232115Y0138872D02*
X0230934Y0138872D01*
X0230934Y0137692D02*
X0232115Y0137692D01*
X0232115Y0136513D02*
X0230934Y0136513D01*
X0230934Y0135333D02*
X0232115Y0135333D01*
X0230934Y0134153D02*
X0214300Y0134153D01*
X0214608Y0132974D02*
X0227375Y0132974D01*
X0227375Y0131794D02*
X0214608Y0131794D01*
X0214327Y0130615D02*
X0227654Y0130615D01*
X0227615Y0129435D02*
X0213839Y0129435D01*
X0212719Y0128255D02*
X0227572Y0128255D01*
X0227572Y0127076D02*
X0210466Y0127076D01*
X0204297Y0125896D02*
X0230737Y0125896D01*
X0231524Y0125896D02*
X0235252Y0125896D01*
X0234690Y0125717D02*
X0234690Y0123565D01*
X0235252Y0123565D01*
X0235252Y0129640D01*
X0235746Y0130134D01*
X0235082Y0130134D01*
X0234999Y0130217D01*
X0234697Y0130042D01*
X0234415Y0129966D01*
X0234581Y0129678D01*
X0234690Y0129273D01*
X0234690Y0126505D01*
X0231524Y0126505D01*
X0231524Y0125717D01*
X0234690Y0125717D01*
X0234690Y0124717D02*
X0235252Y0124717D01*
X0235252Y0127076D02*
X0234690Y0127076D01*
X0234690Y0128255D02*
X0235252Y0128255D01*
X0235252Y0129435D02*
X0234646Y0129435D01*
X0231524Y0129435D02*
X0230737Y0129435D01*
X0230737Y0128255D02*
X0231524Y0128255D01*
X0231524Y0127076D02*
X0230737Y0127076D01*
X0230934Y0130615D02*
X0231524Y0130615D01*
X0230934Y0131794D02*
X0232115Y0131794D01*
X0232115Y0132974D02*
X0230934Y0132974D01*
X0227375Y0135333D02*
X0213812Y0135333D01*
X0212653Y0136513D02*
X0227375Y0136513D01*
X0227389Y0137692D02*
X0211790Y0137692D01*
X0213283Y0138872D02*
X0228282Y0138872D01*
X0234474Y0143590D02*
X0214441Y0143590D01*
X0214183Y0144382D01*
X0213805Y0145124D01*
X0213316Y0145798D01*
X0212727Y0146387D01*
X0212053Y0146876D01*
X0211311Y0147254D01*
X0210519Y0147511D01*
X0209697Y0147642D01*
X0209690Y0147642D01*
X0209690Y0142761D01*
X0214571Y0142761D01*
X0214571Y0142768D01*
X0214441Y0143590D01*
X0213986Y0144770D02*
X0235196Y0144770D01*
X0240451Y0144770D02*
X0254540Y0144770D01*
X0254540Y0143590D02*
X0241173Y0143590D01*
X0241392Y0142411D02*
X0258099Y0142411D01*
X0258099Y0143590D02*
X0259280Y0143590D01*
X0259280Y0144770D02*
X0258099Y0144770D01*
X0258099Y0145950D02*
X0259280Y0145950D01*
X0258641Y0148309D02*
X0262281Y0148309D01*
X0261827Y0149488D02*
X0259096Y0149488D01*
X0259096Y0150668D02*
X0261827Y0150668D01*
X0261827Y0151848D02*
X0259096Y0151848D01*
X0261627Y0153027D02*
X0251025Y0153027D01*
X0250748Y0154207D02*
X0261627Y0154207D01*
X0261627Y0154162D02*
X0265383Y0154162D01*
X0261627Y0154162D01*
X0261627Y0155386D02*
X0251225Y0155386D01*
X0251591Y0156244D02*
X0252405Y0155429D01*
X0258281Y0155429D01*
X0259096Y0156244D01*
X0259096Y0159561D01*
X0258281Y0160376D01*
X0257285Y0160376D01*
X0257285Y0163598D01*
X0257494Y0163598D01*
X0258309Y0164413D01*
X0258309Y0171470D01*
X0257494Y0172285D01*
X0251224Y0172285D01*
X0250747Y0171808D01*
X0250711Y0171871D01*
X0250414Y0172167D01*
X0250052Y0172377D01*
X0249647Y0172485D01*
X0247469Y0172485D01*
X0247469Y0168532D01*
X0246288Y0168532D01*
X0246288Y0167351D01*
X0242729Y0167351D01*
X0242729Y0164780D01*
X0242838Y0164375D01*
X0243047Y0164012D01*
X0243343Y0163716D01*
X0243706Y0163507D01*
X0244110Y0163398D01*
X0246288Y0163398D01*
X0246288Y0167351D01*
X0247469Y0167351D01*
X0247469Y0163398D01*
X0249647Y0163398D01*
X0250052Y0163507D01*
X0250414Y0163716D01*
X0250711Y0164012D01*
X0250747Y0164075D01*
X0251224Y0163598D01*
X0253402Y0163598D01*
X0253402Y0160376D01*
X0252405Y0160376D01*
X0251591Y0159561D01*
X0251591Y0156244D01*
X0251591Y0156566D02*
X0251225Y0156566D01*
X0251591Y0157746D02*
X0247272Y0157746D01*
X0247272Y0158493D02*
X0251225Y0158493D01*
X0251225Y0160671D01*
X0251117Y0161075D01*
X0250907Y0161438D01*
X0250611Y0161734D01*
X0250249Y0161944D01*
X0249844Y0162052D01*
X0247272Y0162052D01*
X0247272Y0158493D01*
X0247272Y0158925D02*
X0246091Y0158925D01*
X0246091Y0158493D02*
X0246091Y0162052D01*
X0243520Y0162052D01*
X0243115Y0161944D01*
X0242753Y0161734D01*
X0242456Y0161438D01*
X0242247Y0161075D01*
X0242139Y0160671D01*
X0242139Y0158493D01*
X0246091Y0158493D01*
X0246091Y0157746D02*
X0236002Y0157746D01*
X0234822Y0158925D02*
X0242139Y0158925D01*
X0242139Y0160105D02*
X0233643Y0160105D01*
X0237181Y0156566D02*
X0242139Y0156566D01*
X0242139Y0155386D02*
X0238361Y0155386D01*
X0239541Y0154207D02*
X0242616Y0154207D01*
X0242339Y0153027D02*
X0240720Y0153027D01*
X0237588Y0150668D02*
X0196458Y0150668D01*
X0196458Y0149488D02*
X0238767Y0149488D01*
X0236408Y0151848D02*
X0202791Y0151848D01*
X0202994Y0153027D02*
X0235228Y0153027D01*
X0234049Y0154207D02*
X0202994Y0154207D01*
X0202994Y0159057D02*
X0202994Y0164148D01*
X0202179Y0164962D01*
X0201173Y0164962D01*
X0204737Y0168526D01*
X0204737Y0166367D01*
X0208690Y0166367D01*
X0208690Y0165186D01*
X0204737Y0165186D01*
X0204737Y0163008D01*
X0204845Y0162603D01*
X0205055Y0162241D01*
X0205351Y0161945D01*
X0205414Y0161908D01*
X0204937Y0161431D01*
X0204937Y0159057D01*
X0202994Y0159057D01*
X0202994Y0160105D02*
X0204937Y0160105D01*
X0204937Y0161285D02*
X0202994Y0161285D01*
X0202994Y0162464D02*
X0204926Y0162464D01*
X0204737Y0163644D02*
X0202994Y0163644D01*
X0202318Y0164823D02*
X0204737Y0164823D01*
X0204737Y0167183D02*
X0203393Y0167183D01*
X0204573Y0168362D02*
X0204737Y0168362D01*
X0202214Y0166003D02*
X0208690Y0166003D01*
X0208690Y0167183D02*
X0209871Y0167183D01*
X0209871Y0168362D02*
X0208690Y0168362D01*
X0208690Y0169542D02*
X0209871Y0169542D01*
X0212838Y0170721D02*
X0234255Y0170721D01*
X0234071Y0171901D02*
X0214017Y0171901D01*
X0215159Y0173081D02*
X0232891Y0173081D01*
X0231712Y0174260D02*
X0215159Y0174260D01*
X0215159Y0175440D02*
X0230532Y0175440D01*
X0229353Y0176620D02*
X0215159Y0176620D01*
X0215159Y0177799D02*
X0228173Y0177799D01*
X0226993Y0178979D02*
X0215159Y0178979D01*
X0215159Y0180158D02*
X0225814Y0180158D01*
X0224634Y0181338D02*
X0215159Y0181338D01*
X0215159Y0182518D02*
X0223454Y0182518D01*
X0222275Y0183697D02*
X0213987Y0183697D01*
X0212808Y0184877D02*
X0221095Y0184877D01*
X0219916Y0186056D02*
X0211655Y0186056D01*
X0211638Y0187236D02*
X0218736Y0187236D01*
X0217556Y0188416D02*
X0211222Y0188416D01*
X0211222Y0189595D02*
X0216377Y0189595D01*
X0215197Y0190775D02*
X0211222Y0190775D01*
X0211222Y0191955D02*
X0214018Y0191955D01*
X0213244Y0193134D02*
X0211222Y0193134D01*
X0211222Y0194314D02*
X0213244Y0194314D01*
X0213244Y0195493D02*
X0211222Y0195493D01*
X0211222Y0196673D02*
X0213244Y0196673D01*
X0213244Y0197853D02*
X0211222Y0197853D01*
X0211222Y0199032D02*
X0213244Y0199032D01*
X0212318Y0200212D02*
X0211222Y0200212D01*
X0211222Y0201391D02*
X0211737Y0201391D01*
X0211617Y0202571D02*
X0211222Y0202571D01*
X0211222Y0203751D02*
X0211887Y0203751D01*
X0212679Y0204930D02*
X0210471Y0204930D01*
X0209291Y0206110D02*
X0214429Y0206110D01*
X0213250Y0207289D02*
X0207518Y0207289D01*
X0207339Y0201010D02*
X0207339Y0188033D01*
X0203783Y0188033D01*
X0202969Y0187219D01*
X0202969Y0186025D01*
X0201813Y0186025D01*
X0201813Y0187219D01*
X0200998Y0188033D01*
X0198040Y0188033D01*
X0198310Y0188145D01*
X0199313Y0189149D01*
X0199857Y0190460D01*
X0199857Y0191880D01*
X0199313Y0193191D01*
X0199032Y0193472D01*
X0199581Y0193472D01*
X0200395Y0194287D01*
X0200395Y0200249D01*
X0202906Y0200249D01*
X0202906Y0202390D01*
X0202906Y0202390D01*
X0202906Y0200249D01*
X0206191Y0200249D01*
X0206595Y0200357D01*
X0206958Y0200567D01*
X0207254Y0200863D01*
X0207339Y0201010D01*
X0207339Y0200212D02*
X0200395Y0200212D01*
X0200395Y0199032D02*
X0207339Y0199032D01*
X0207339Y0197853D02*
X0200395Y0197853D01*
X0200395Y0196673D02*
X0207339Y0196673D01*
X0207339Y0195493D02*
X0200395Y0195493D01*
X0200395Y0194314D02*
X0207339Y0194314D01*
X0207339Y0193134D02*
X0199337Y0193134D01*
X0199826Y0191955D02*
X0207339Y0191955D01*
X0207339Y0190775D02*
X0199857Y0190775D01*
X0199498Y0189595D02*
X0207339Y0189595D01*
X0207339Y0188416D02*
X0198580Y0188416D01*
X0201795Y0187236D02*
X0202986Y0187236D01*
X0202969Y0186056D02*
X0201813Y0186056D01*
X0202906Y0201391D02*
X0202906Y0201391D01*
X0198295Y0207289D02*
X0192057Y0207289D01*
X0192180Y0208469D02*
X0198441Y0208469D01*
X0198441Y0209649D02*
X0192710Y0209649D01*
X0193889Y0210828D02*
X0198441Y0210828D01*
X0198441Y0212008D02*
X0195069Y0212008D01*
X0196249Y0213188D02*
X0198441Y0213188D01*
X0198441Y0214367D02*
X0197428Y0214367D01*
X0197469Y0224044D02*
X0182706Y0209280D01*
X0174831Y0201391D02*
X0174832Y0201391D01*
X0174831Y0200212D02*
X0174832Y0200212D01*
X0174831Y0199032D02*
X0174832Y0199032D01*
X0173508Y0193472D02*
X0173666Y0193381D01*
X0173853Y0193331D01*
X0172285Y0191763D01*
X0172285Y0192533D01*
X0171470Y0193348D01*
X0164413Y0193348D01*
X0163598Y0192533D01*
X0163598Y0186263D01*
X0164075Y0185786D01*
X0164012Y0185750D01*
X0163716Y0185454D01*
X0163507Y0185091D01*
X0163398Y0184687D01*
X0163398Y0182509D01*
X0167351Y0182509D01*
X0167351Y0181328D01*
X0163398Y0181328D01*
X0163398Y0179150D01*
X0163507Y0178745D01*
X0163716Y0178382D01*
X0163751Y0178348D01*
X0158505Y0178348D01*
X0158505Y0179541D01*
X0158294Y0179753D01*
X0158505Y0179964D01*
X0158505Y0186234D01*
X0157691Y0187049D01*
X0156104Y0187049D01*
X0156104Y0187807D01*
X0160041Y0191744D01*
X0162231Y0193934D01*
X0162311Y0193901D01*
X0163730Y0193901D01*
X0165042Y0194444D01*
X0166046Y0195448D01*
X0166589Y0196759D01*
X0166589Y0198179D01*
X0166046Y0199491D01*
X0165088Y0200449D01*
X0166984Y0200449D01*
X0166984Y0194287D01*
X0167799Y0193472D01*
X0173508Y0193472D01*
X0173656Y0193134D02*
X0171684Y0193134D01*
X0172285Y0191955D02*
X0172476Y0191955D01*
X0175609Y0189595D02*
X0175843Y0189595D01*
X0175843Y0189829D02*
X0175843Y0187443D01*
X0174255Y0187443D01*
X0173441Y0186628D01*
X0173441Y0182092D01*
X0172485Y0181137D01*
X0172485Y0181328D01*
X0168532Y0181328D01*
X0168532Y0182509D01*
X0172485Y0182509D01*
X0172485Y0184687D01*
X0172377Y0185091D01*
X0172167Y0185454D01*
X0171871Y0185750D01*
X0171808Y0185786D01*
X0172285Y0186263D01*
X0172285Y0187457D01*
X0173470Y0187457D01*
X0174608Y0188594D01*
X0175843Y0189829D01*
X0175843Y0188416D02*
X0174429Y0188416D01*
X0174049Y0187236D02*
X0172285Y0187236D01*
X0172078Y0186056D02*
X0173441Y0186056D01*
X0173441Y0184877D02*
X0172434Y0184877D01*
X0172485Y0183697D02*
X0173441Y0183697D01*
X0173441Y0182518D02*
X0172485Y0182518D01*
X0172686Y0181338D02*
X0168532Y0181338D01*
X0167351Y0181338D02*
X0158505Y0181338D01*
X0158505Y0182518D02*
X0163398Y0182518D01*
X0163398Y0183697D02*
X0158505Y0183697D01*
X0158505Y0184877D02*
X0163449Y0184877D01*
X0163805Y0186056D02*
X0158505Y0186056D01*
X0156104Y0187236D02*
X0163598Y0187236D01*
X0163598Y0188416D02*
X0156713Y0188416D01*
X0157892Y0189595D02*
X0163598Y0189595D01*
X0163598Y0190775D02*
X0159072Y0190775D01*
X0160252Y0191955D02*
X0163598Y0191955D01*
X0164199Y0193134D02*
X0161431Y0193134D01*
X0164727Y0194314D02*
X0166984Y0194314D01*
X0166984Y0195493D02*
X0166065Y0195493D01*
X0166553Y0196673D02*
X0166984Y0196673D01*
X0166984Y0197853D02*
X0166589Y0197853D01*
X0166236Y0199032D02*
X0166984Y0199032D01*
X0166984Y0200212D02*
X0165325Y0200212D01*
X0155939Y0193134D02*
X0117182Y0193134D01*
X0118734Y0191955D02*
X0154760Y0191955D01*
X0153580Y0190775D02*
X0119527Y0190775D01*
X0119962Y0189595D02*
X0152400Y0189595D01*
X0152220Y0188416D02*
X0115202Y0188416D01*
X0114383Y0188416D02*
X0106403Y0188416D01*
X0106403Y0189595D02*
X0109623Y0189595D01*
X0109632Y0189653D02*
X0109502Y0188831D01*
X0109502Y0188824D01*
X0114383Y0188824D01*
X0114383Y0188005D01*
X0109502Y0188005D01*
X0109502Y0187998D01*
X0109632Y0187175D01*
X0109889Y0186383D01*
X0110267Y0185641D01*
X0110757Y0184968D01*
X0111346Y0184379D01*
X0112019Y0183889D01*
X0112761Y0183511D01*
X0113341Y0183323D01*
X0111909Y0182730D01*
X0110477Y0181298D01*
X0109702Y0179427D01*
X0109702Y0177402D01*
X0110477Y0175531D01*
X0111909Y0174099D01*
X0113561Y0173414D01*
X0111909Y0172730D01*
X0110477Y0171298D01*
X0109702Y0169427D01*
X0109702Y0167402D01*
X0110477Y0165531D01*
X0111909Y0164099D01*
X0113561Y0163414D01*
X0111909Y0162730D01*
X0110477Y0161298D01*
X0109702Y0159427D01*
X0109702Y0157402D01*
X0110477Y0155531D01*
X0111909Y0154099D01*
X0113561Y0153414D01*
X0111909Y0152730D01*
X0110477Y0151298D01*
X0109702Y0149427D01*
X0109702Y0147402D01*
X0110477Y0145531D01*
X0111909Y0144099D01*
X0113561Y0143414D01*
X0111909Y0142730D01*
X0110477Y0141298D01*
X0109702Y0139427D01*
X0109702Y0137402D01*
X0110477Y0135531D01*
X0111530Y0134477D01*
X0106403Y0134477D01*
X0106403Y0193532D01*
X0113423Y0193532D01*
X0112761Y0193317D01*
X0112019Y0192939D01*
X0111346Y0192450D01*
X0110757Y0191861D01*
X0110267Y0191187D01*
X0109889Y0190445D01*
X0109632Y0189653D01*
X0110057Y0190775D02*
X0106403Y0190775D01*
X0106403Y0191955D02*
X0110850Y0191955D01*
X0112402Y0193134D02*
X0106403Y0193134D01*
X0106403Y0187236D02*
X0109622Y0187236D01*
X0110056Y0186056D02*
X0106403Y0186056D01*
X0106403Y0184877D02*
X0110848Y0184877D01*
X0112396Y0183697D02*
X0106403Y0183697D01*
X0106403Y0182518D02*
X0111696Y0182518D01*
X0110517Y0181338D02*
X0106403Y0181338D01*
X0106403Y0180158D02*
X0110005Y0180158D01*
X0109702Y0178979D02*
X0106403Y0178979D01*
X0106403Y0177799D02*
X0109702Y0177799D01*
X0110026Y0176620D02*
X0106403Y0176620D01*
X0106403Y0175440D02*
X0110567Y0175440D01*
X0111747Y0174260D02*
X0106403Y0174260D01*
X0106403Y0173081D02*
X0112756Y0173081D01*
X0111080Y0171901D02*
X0106403Y0171901D01*
X0106403Y0170721D02*
X0110238Y0170721D01*
X0109749Y0169542D02*
X0106403Y0169542D01*
X0106403Y0168362D02*
X0109702Y0168362D01*
X0109792Y0167183D02*
X0106403Y0167183D01*
X0106403Y0166003D02*
X0110281Y0166003D01*
X0111184Y0164823D02*
X0106403Y0164823D01*
X0106403Y0163644D02*
X0113007Y0163644D01*
X0111643Y0162464D02*
X0106403Y0162464D01*
X0106403Y0161285D02*
X0110471Y0161285D01*
X0109982Y0160105D02*
X0106403Y0160105D01*
X0106403Y0158925D02*
X0109702Y0158925D01*
X0109702Y0157746D02*
X0106403Y0157746D01*
X0106403Y0156566D02*
X0110048Y0156566D01*
X0110621Y0155386D02*
X0106403Y0155386D01*
X0106403Y0154207D02*
X0111800Y0154207D01*
X0112627Y0153027D02*
X0106403Y0153027D01*
X0106403Y0151848D02*
X0111026Y0151848D01*
X0110216Y0150668D02*
X0106403Y0150668D01*
X0106403Y0149488D02*
X0109727Y0149488D01*
X0109702Y0148309D02*
X0106403Y0148309D01*
X0106403Y0147129D02*
X0109814Y0147129D01*
X0110303Y0145950D02*
X0106403Y0145950D01*
X0106403Y0144770D02*
X0111237Y0144770D01*
X0113136Y0143590D02*
X0106403Y0143590D01*
X0106403Y0142411D02*
X0111590Y0142411D01*
X0110449Y0141231D02*
X0106403Y0141231D01*
X0106403Y0140052D02*
X0109960Y0140052D01*
X0109702Y0138872D02*
X0106403Y0138872D01*
X0106403Y0137692D02*
X0109702Y0137692D01*
X0110070Y0136513D02*
X0106403Y0136513D01*
X0106403Y0135333D02*
X0110674Y0135333D01*
X0118054Y0134477D02*
X0119108Y0135531D01*
X0119883Y0137402D01*
X0119883Y0139427D01*
X0119108Y0141298D01*
X0117676Y0142730D01*
X0116023Y0143414D01*
X0117676Y0144099D01*
X0119108Y0145531D01*
X0119883Y0147402D01*
X0119883Y0149427D01*
X0119493Y0150369D01*
X0132171Y0163047D01*
X0153079Y0163047D01*
X0152121Y0162089D01*
X0151578Y0160778D01*
X0151578Y0159358D01*
X0152121Y0158046D01*
X0153125Y0157042D01*
X0153205Y0157009D01*
X0153205Y0136856D01*
X0153200Y0136852D01*
X0148468Y0136852D01*
X0148385Y0136769D01*
X0148083Y0136944D01*
X0147679Y0137052D01*
X0145501Y0137052D01*
X0145501Y0133099D01*
X0144320Y0133099D01*
X0144320Y0137052D01*
X0142142Y0137052D01*
X0141737Y0136944D01*
X0141375Y0136734D01*
X0141078Y0136438D01*
X0140869Y0136075D01*
X0140761Y0135671D01*
X0140761Y0133099D01*
X0144320Y0133099D01*
X0144320Y0131918D01*
X0140761Y0131918D01*
X0140761Y0129346D01*
X0140869Y0128942D01*
X0141062Y0128608D01*
X0140950Y0128577D01*
X0140587Y0128368D01*
X0140291Y0128072D01*
X0140082Y0127709D01*
X0139973Y0127305D01*
X0139973Y0124536D01*
X0143138Y0124536D01*
X0143138Y0123749D01*
X0139973Y0123749D01*
X0139973Y0120980D01*
X0140082Y0120576D01*
X0140173Y0120417D01*
X0140173Y0116970D01*
X0135461Y0116970D01*
X0135461Y0134477D01*
X0118054Y0134477D01*
X0118910Y0135333D02*
X0140761Y0135333D01*
X0140761Y0134153D02*
X0135461Y0134153D01*
X0135461Y0132974D02*
X0144320Y0132974D01*
X0144320Y0134153D02*
X0145501Y0134153D01*
X0145501Y0135333D02*
X0144320Y0135333D01*
X0144320Y0136513D02*
X0145501Y0136513D01*
X0141153Y0136513D02*
X0119514Y0136513D01*
X0119883Y0137692D02*
X0153205Y0137692D01*
X0153205Y0138872D02*
X0119883Y0138872D01*
X0119624Y0140052D02*
X0153205Y0140052D01*
X0153205Y0141231D02*
X0119135Y0141231D01*
X0117995Y0142411D02*
X0153205Y0142411D01*
X0153205Y0143590D02*
X0116449Y0143590D01*
X0118347Y0144770D02*
X0153205Y0144770D01*
X0153205Y0145950D02*
X0119281Y0145950D01*
X0119770Y0147129D02*
X0153205Y0147129D01*
X0153205Y0148309D02*
X0119883Y0148309D01*
X0119857Y0149488D02*
X0153205Y0149488D01*
X0153205Y0150668D02*
X0119792Y0150668D01*
X0120972Y0151848D02*
X0153205Y0151848D01*
X0153205Y0153027D02*
X0122151Y0153027D01*
X0123331Y0154207D02*
X0153205Y0154207D01*
X0153205Y0155386D02*
X0124510Y0155386D01*
X0125690Y0156566D02*
X0153205Y0156566D01*
X0152422Y0157746D02*
X0126870Y0157746D01*
X0128049Y0158925D02*
X0151757Y0158925D01*
X0151578Y0160105D02*
X0129229Y0160105D01*
X0130409Y0161285D02*
X0151788Y0161285D01*
X0152496Y0162464D02*
X0131588Y0162464D01*
X0123102Y0169542D02*
X0119835Y0169542D01*
X0119883Y0168362D02*
X0121931Y0168362D01*
X0120760Y0167183D02*
X0119792Y0167183D01*
X0119589Y0166003D02*
X0119303Y0166003D01*
X0118418Y0164823D02*
X0118400Y0164823D01*
X0117247Y0163644D02*
X0116578Y0163644D01*
X0119346Y0170721D02*
X0124273Y0170721D01*
X0118504Y0171901D02*
X0169414Y0171901D01*
X0169416Y0166003D02*
X0169889Y0166003D01*
X0169542Y0164823D02*
X0176873Y0164823D01*
X0176197Y0163644D02*
X0169279Y0163644D01*
X0168495Y0162464D02*
X0176197Y0162464D01*
X0175997Y0161285D02*
X0158505Y0161285D01*
X0158715Y0160105D02*
X0176047Y0160105D01*
X0175997Y0158925D02*
X0174394Y0158925D01*
X0174454Y0157746D02*
X0175997Y0157746D01*
X0176861Y0157115D02*
X0176861Y0157115D01*
X0175997Y0156566D02*
X0174454Y0156566D01*
X0176861Y0155146D02*
X0176861Y0155146D01*
X0180540Y0155147D02*
X0180540Y0157115D01*
X0180540Y0159083D01*
X0180540Y0159083D01*
X0180540Y0157115D01*
X0180540Y0157115D01*
X0180540Y0157115D01*
X0180540Y0155147D01*
X0180540Y0155147D01*
X0180540Y0155386D02*
X0180540Y0155386D01*
X0180540Y0154207D02*
X0180540Y0154207D01*
X0180540Y0153027D02*
X0180540Y0153027D01*
X0180540Y0151848D02*
X0180540Y0151848D01*
X0180540Y0156566D02*
X0180540Y0156566D01*
X0180540Y0157746D02*
X0180540Y0157746D01*
X0180540Y0158925D02*
X0180540Y0158925D01*
X0180540Y0159084D02*
X0180540Y0161052D01*
X0180540Y0161052D01*
X0180540Y0159084D01*
X0180540Y0159084D01*
X0180540Y0160105D02*
X0180540Y0160105D01*
X0176861Y0161052D02*
X0176861Y0161052D01*
X0176861Y0159083D02*
X0176861Y0159083D01*
X0170501Y0158925D02*
X0169320Y0158925D01*
X0169320Y0157746D02*
X0170501Y0157746D01*
X0165367Y0157746D02*
X0157871Y0157746D01*
X0158536Y0158925D02*
X0165427Y0158925D01*
X0165367Y0156566D02*
X0157088Y0156566D01*
X0157797Y0162464D02*
X0163451Y0162464D01*
X0177194Y0171901D02*
X0178375Y0171901D01*
X0178375Y0173081D02*
X0177194Y0173081D01*
X0177194Y0174260D02*
X0178375Y0174260D01*
X0181089Y0171901D02*
X0182732Y0171901D01*
X0182732Y0173081D02*
X0182284Y0173081D01*
X0186643Y0167154D02*
X0188611Y0167154D01*
X0186643Y0167154D01*
X0186643Y0167154D01*
X0188611Y0167154D02*
X0188611Y0167154D01*
X0190579Y0153027D02*
X0190580Y0153027D01*
X0190579Y0151848D02*
X0190580Y0151848D01*
X0190579Y0150668D02*
X0190580Y0150668D01*
X0190579Y0149488D02*
X0190580Y0149488D01*
X0190579Y0148309D02*
X0190580Y0148309D01*
X0190579Y0147129D02*
X0190580Y0147129D01*
X0190579Y0145950D02*
X0190580Y0145950D01*
X0190579Y0144770D02*
X0190580Y0144770D01*
X0191102Y0143590D02*
X0204120Y0143590D01*
X0204575Y0144770D02*
X0195713Y0144770D01*
X0196458Y0145950D02*
X0205397Y0145950D01*
X0207004Y0147129D02*
X0196458Y0147129D01*
X0196458Y0148309D02*
X0242339Y0148309D01*
X0242496Y0147129D02*
X0211556Y0147129D01*
X0209690Y0147129D02*
X0208871Y0147129D01*
X0208871Y0145950D02*
X0209690Y0145950D01*
X0209690Y0144770D02*
X0208871Y0144770D01*
X0208871Y0143590D02*
X0209690Y0143590D01*
X0213164Y0145950D02*
X0254667Y0145950D01*
X0252045Y0148309D02*
X0251025Y0148309D01*
X0250867Y0147129D02*
X0265383Y0147129D01*
X0259280Y0141231D02*
X0258099Y0141231D01*
X0258099Y0140052D02*
X0259280Y0140052D01*
X0259280Y0138872D02*
X0258099Y0138872D01*
X0254625Y0138872D02*
X0239765Y0138872D01*
X0240571Y0140052D02*
X0254540Y0140052D01*
X0254540Y0141231D02*
X0241222Y0141231D01*
X0242167Y0137692D02*
X0265383Y0137692D01*
X0265383Y0136513D02*
X0242167Y0136513D01*
X0242167Y0135333D02*
X0251603Y0135333D01*
X0251603Y0134153D02*
X0242167Y0134153D01*
X0242167Y0132974D02*
X0251603Y0132974D01*
X0251603Y0131794D02*
X0242167Y0131794D01*
X0241833Y0130615D02*
X0251603Y0130615D01*
X0251603Y0129435D02*
X0241970Y0129435D01*
X0241970Y0128255D02*
X0251603Y0128255D01*
X0251603Y0127076D02*
X0250611Y0127076D01*
X0248439Y0127076D02*
X0241970Y0127076D01*
X0241970Y0125896D02*
X0247259Y0125896D01*
X0246080Y0124717D02*
X0241970Y0124717D01*
X0241970Y0123537D02*
X0245072Y0123537D01*
X0245272Y0122357D02*
X0241970Y0122357D01*
X0241970Y0121178D02*
X0246452Y0121178D01*
X0249099Y0119998D02*
X0241970Y0119998D01*
X0241970Y0118818D02*
X0250443Y0118818D01*
X0227772Y0118818D02*
X0203103Y0118818D01*
X0204183Y0117639D02*
X0227772Y0117639D01*
X0227772Y0116459D02*
X0204671Y0116459D01*
X0204923Y0115280D02*
X0227772Y0115280D01*
X0227772Y0119998D02*
X0200949Y0119998D01*
X0199578Y0121178D02*
X0227772Y0121178D01*
X0227772Y0122357D02*
X0200758Y0122357D01*
X0201937Y0123537D02*
X0227572Y0123537D01*
X0227572Y0124717D02*
X0203117Y0124717D01*
X0195126Y0131794D02*
X0155553Y0131794D01*
X0155553Y0130615D02*
X0193946Y0130615D01*
X0192767Y0129435D02*
X0155553Y0129435D01*
X0154828Y0128255D02*
X0191587Y0128255D01*
X0190408Y0127076D02*
X0154372Y0127076D01*
X0154372Y0125896D02*
X0189228Y0125896D01*
X0188048Y0124717D02*
X0154372Y0124717D01*
X0154372Y0123537D02*
X0186869Y0123537D01*
X0185689Y0122357D02*
X0154372Y0122357D01*
X0154372Y0121178D02*
X0184843Y0121178D01*
X0184354Y0119998D02*
X0154372Y0119998D01*
X0154372Y0118818D02*
X0176422Y0118818D01*
X0175264Y0117639D02*
X0154372Y0117639D01*
X0154372Y0116459D02*
X0174776Y0116459D01*
X0174505Y0115280D02*
X0154372Y0115280D01*
X0147654Y0121596D02*
X0147091Y0121596D01*
X0147091Y0123749D01*
X0143926Y0123749D01*
X0143926Y0124536D01*
X0147091Y0124536D01*
X0147091Y0127305D01*
X0146983Y0127709D01*
X0146835Y0127965D01*
X0147679Y0127965D01*
X0148046Y0128064D01*
X0147654Y0127671D01*
X0147654Y0121596D01*
X0147654Y0122357D02*
X0147091Y0122357D01*
X0147091Y0123537D02*
X0147654Y0123537D01*
X0147654Y0124717D02*
X0147091Y0124717D01*
X0147091Y0125896D02*
X0147654Y0125896D01*
X0147654Y0127076D02*
X0147091Y0127076D01*
X0140474Y0128255D02*
X0135461Y0128255D01*
X0135461Y0127076D02*
X0139973Y0127076D01*
X0139973Y0125896D02*
X0135461Y0125896D01*
X0135461Y0124717D02*
X0139973Y0124717D01*
X0139973Y0123537D02*
X0135461Y0123537D01*
X0135461Y0122357D02*
X0139973Y0122357D01*
X0139973Y0121178D02*
X0135461Y0121178D01*
X0135461Y0119998D02*
X0140173Y0119998D01*
X0140173Y0118818D02*
X0135461Y0118818D01*
X0135461Y0117639D02*
X0140173Y0117639D01*
X0140761Y0129435D02*
X0135461Y0129435D01*
X0135461Y0130615D02*
X0140761Y0130615D01*
X0140761Y0131794D02*
X0135461Y0131794D01*
X0174254Y0145950D02*
X0182732Y0145950D01*
X0187104Y0134153D02*
X0188149Y0134153D01*
X0184268Y0118818D02*
X0182768Y0118818D01*
X0183926Y0117639D02*
X0184268Y0117639D01*
X0213624Y0155386D02*
X0214780Y0155386D01*
X0214780Y0161285D02*
X0213624Y0161285D01*
X0213635Y0162464D02*
X0214768Y0162464D01*
X0214580Y0163644D02*
X0213824Y0163644D01*
X0213824Y0164823D02*
X0214580Y0164823D01*
X0214580Y0166367D02*
X0218532Y0166367D01*
X0218532Y0169926D01*
X0215961Y0169926D01*
X0215556Y0169818D01*
X0215193Y0169608D01*
X0214897Y0169312D01*
X0214688Y0168949D01*
X0214580Y0168545D01*
X0214580Y0166367D01*
X0214580Y0167183D02*
X0213824Y0167183D01*
X0213824Y0168362D02*
X0214580Y0168362D01*
X0215127Y0169542D02*
X0213276Y0169542D01*
X0209871Y0166003D02*
X0218532Y0166003D01*
X0218532Y0167183D02*
X0219713Y0167183D01*
X0219713Y0166367D02*
X0219713Y0169926D01*
X0222285Y0169926D01*
X0222690Y0169818D01*
X0223052Y0169608D01*
X0223348Y0169312D01*
X0223558Y0168949D01*
X0223666Y0168545D01*
X0223666Y0166367D01*
X0219713Y0166367D01*
X0219713Y0166003D02*
X0242729Y0166003D01*
X0242729Y0164823D02*
X0223666Y0164823D01*
X0223666Y0163644D02*
X0243469Y0163644D01*
X0242368Y0161285D02*
X0223466Y0161285D01*
X0223477Y0162464D02*
X0253402Y0162464D01*
X0253402Y0161285D02*
X0250996Y0161285D01*
X0251225Y0160105D02*
X0252134Y0160105D01*
X0251591Y0158925D02*
X0251225Y0158925D01*
X0247272Y0160105D02*
X0246091Y0160105D01*
X0246091Y0161285D02*
X0247272Y0161285D01*
X0247469Y0163644D02*
X0246288Y0163644D01*
X0246288Y0164823D02*
X0247469Y0164823D01*
X0247469Y0166003D02*
X0246288Y0166003D01*
X0246288Y0167183D02*
X0247469Y0167183D01*
X0246288Y0168362D02*
X0240338Y0168362D01*
X0241126Y0169542D02*
X0242729Y0169542D01*
X0242729Y0168532D02*
X0246288Y0168532D01*
X0246288Y0172485D01*
X0244110Y0172485D01*
X0243706Y0172377D01*
X0243343Y0172167D01*
X0243047Y0171871D01*
X0242838Y0171508D01*
X0242729Y0171104D01*
X0242729Y0168532D01*
X0242729Y0167183D02*
X0223666Y0167183D01*
X0223666Y0168362D02*
X0235309Y0168362D01*
X0234521Y0169542D02*
X0223119Y0169542D01*
X0219713Y0169542D02*
X0218532Y0169542D01*
X0218532Y0168362D02*
X0219713Y0168362D01*
X0231306Y0180158D02*
X0234773Y0180158D01*
X0234773Y0178979D02*
X0232485Y0178979D01*
X0233665Y0177799D02*
X0234773Y0177799D01*
X0234845Y0176620D02*
X0235702Y0176620D01*
X0236024Y0175440D02*
X0236882Y0175440D01*
X0239023Y0174260D02*
X0265383Y0174260D01*
X0265383Y0173081D02*
X0240684Y0173081D01*
X0241269Y0171901D02*
X0243077Y0171901D01*
X0242729Y0170721D02*
X0241392Y0170721D01*
X0242545Y0175440D02*
X0246599Y0175440D01*
X0245419Y0176620D02*
X0243725Y0176620D01*
X0246288Y0171901D02*
X0247469Y0171901D01*
X0247469Y0170721D02*
X0246288Y0170721D01*
X0246288Y0169542D02*
X0247469Y0169542D01*
X0250681Y0171901D02*
X0250840Y0171901D01*
X0250123Y0174455D02*
X0251843Y0174455D01*
X0254854Y0177466D01*
X0254854Y0179186D01*
X0250123Y0179186D01*
X0250123Y0174455D01*
X0250123Y0175440D02*
X0249304Y0175440D01*
X0249304Y0176620D02*
X0250123Y0176620D01*
X0250123Y0177799D02*
X0249304Y0177799D01*
X0249304Y0178979D02*
X0250123Y0178979D01*
X0252828Y0175440D02*
X0265383Y0175440D01*
X0265383Y0176620D02*
X0254007Y0176620D01*
X0254854Y0177799D02*
X0265383Y0177799D01*
X0265383Y0178979D02*
X0254854Y0178979D01*
X0254854Y0180158D02*
X0265383Y0180158D01*
X0265383Y0181338D02*
X0254854Y0181338D01*
X0254061Y0182518D02*
X0265383Y0182518D01*
X0264808Y0183697D02*
X0263989Y0183697D01*
X0263989Y0183517D02*
X0263989Y0188398D01*
X0259108Y0188398D01*
X0259108Y0188391D01*
X0259238Y0187569D01*
X0259495Y0186777D01*
X0259874Y0186035D01*
X0260363Y0185361D01*
X0260952Y0184772D01*
X0261626Y0184283D01*
X0262368Y0183905D01*
X0263160Y0183648D01*
X0263982Y0183517D01*
X0263989Y0183517D01*
X0263007Y0183697D02*
X0252881Y0183697D01*
X0251982Y0184877D02*
X0260848Y0184877D01*
X0259863Y0186056D02*
X0253162Y0186056D01*
X0254341Y0187236D02*
X0259346Y0187236D01*
X0259167Y0189595D02*
X0254654Y0189595D01*
X0254654Y0188416D02*
X0263989Y0188416D01*
X0263989Y0187236D02*
X0264808Y0187236D01*
X0264808Y0186056D02*
X0263989Y0186056D01*
X0263989Y0184877D02*
X0264808Y0184877D01*
X0259475Y0190775D02*
X0254654Y0190775D01*
X0254341Y0191955D02*
X0260145Y0191955D01*
X0261352Y0193134D02*
X0253162Y0193134D01*
X0251982Y0194314D02*
X0261946Y0194314D01*
X0260514Y0195493D02*
X0252598Y0195493D01*
X0251760Y0194655D02*
X0254654Y0197549D01*
X0254654Y0201642D01*
X0251760Y0204536D01*
X0247667Y0204536D01*
X0244773Y0201642D01*
X0244773Y0197549D01*
X0247667Y0194655D01*
X0251760Y0194655D01*
X0253778Y0196673D02*
X0259773Y0196673D01*
X0259308Y0197853D02*
X0254654Y0197853D01*
X0254654Y0199032D02*
X0259308Y0199032D01*
X0259470Y0200212D02*
X0254654Y0200212D01*
X0254654Y0201391D02*
X0259959Y0201391D01*
X0260962Y0202571D02*
X0253725Y0202571D01*
X0252545Y0203751D02*
X0263029Y0203751D01*
X0261077Y0204930D02*
X0226613Y0204930D01*
X0227792Y0203751D02*
X0234802Y0203751D01*
X0234773Y0202571D02*
X0228972Y0202571D01*
X0225433Y0206110D02*
X0260006Y0206110D01*
X0259517Y0207289D02*
X0239768Y0207289D01*
X0240198Y0208469D02*
X0240764Y0208469D01*
X0244625Y0203751D02*
X0246882Y0203751D01*
X0245702Y0202571D02*
X0244654Y0202571D01*
X0244654Y0201391D02*
X0244773Y0201391D01*
X0244773Y0200212D02*
X0244654Y0200212D01*
X0244654Y0199032D02*
X0244773Y0199032D01*
X0244773Y0197853D02*
X0244654Y0197853D01*
X0244654Y0196673D02*
X0245649Y0196673D01*
X0246561Y0195493D02*
X0246828Y0195493D01*
X0244608Y0191955D02*
X0244341Y0191955D01*
X0244654Y0190775D02*
X0244773Y0190775D01*
X0244773Y0189595D02*
X0244654Y0189595D01*
X0244654Y0188416D02*
X0244773Y0188416D01*
X0245086Y0187236D02*
X0244341Y0187236D01*
X0243162Y0186056D02*
X0246265Y0186056D01*
X0247445Y0184877D02*
X0241982Y0184877D01*
X0242598Y0183697D02*
X0246545Y0183697D01*
X0245366Y0182518D02*
X0243778Y0182518D01*
X0237445Y0184877D02*
X0226587Y0184877D01*
X0225408Y0186056D02*
X0236265Y0186056D01*
X0235086Y0187236D02*
X0224228Y0187236D01*
X0223048Y0188416D02*
X0232123Y0188416D01*
X0230944Y0189595D02*
X0221869Y0189595D01*
X0220689Y0190775D02*
X0229764Y0190775D01*
X0228585Y0191955D02*
X0219510Y0191955D01*
X0218330Y0193134D02*
X0227405Y0193134D01*
X0226225Y0194314D02*
X0217150Y0194314D01*
X0217128Y0195493D02*
X0225046Y0195493D01*
X0223866Y0196673D02*
X0217128Y0196673D01*
X0217128Y0197853D02*
X0222686Y0197853D01*
X0221507Y0199032D02*
X0217128Y0199032D01*
X0218054Y0200212D02*
X0220327Y0200212D01*
X0219148Y0201391D02*
X0218634Y0201391D01*
X0223074Y0208469D02*
X0225606Y0208469D01*
X0226037Y0207289D02*
X0224253Y0207289D01*
X0225606Y0214367D02*
X0219932Y0214367D01*
X0218752Y0215547D02*
X0226376Y0215547D01*
X0225606Y0221445D02*
X0223466Y0221445D01*
X0223466Y0222624D02*
X0225606Y0222624D01*
X0225606Y0223804D02*
X0223466Y0223804D01*
X0223466Y0224984D02*
X0225970Y0224984D01*
X0223466Y0226163D02*
X0254297Y0226163D01*
X0253375Y0224984D02*
X0252194Y0224984D01*
X0252194Y0225044D02*
X0250213Y0225044D01*
X0249808Y0224936D01*
X0249445Y0224726D01*
X0249149Y0224430D01*
X0248940Y0224067D01*
X0248831Y0223663D01*
X0248831Y0221682D01*
X0252194Y0221682D01*
X0252194Y0225044D01*
X0252194Y0223804D02*
X0253375Y0223804D01*
X0253375Y0222624D02*
X0252194Y0222624D01*
X0252194Y0221682D02*
X0253375Y0221682D01*
X0253375Y0220501D01*
X0256737Y0220501D01*
X0256737Y0218520D01*
X0256629Y0218115D01*
X0256419Y0217753D01*
X0256123Y0217456D01*
X0255760Y0217247D01*
X0255356Y0217139D01*
X0253375Y0217139D01*
X0253375Y0220501D01*
X0252194Y0220501D01*
X0252194Y0217139D01*
X0250213Y0217139D01*
X0249808Y0217247D01*
X0249445Y0217456D01*
X0249149Y0217753D01*
X0248940Y0218115D01*
X0248831Y0218520D01*
X0248831Y0220501D01*
X0252194Y0220501D01*
X0252194Y0221682D01*
X0252194Y0221445D02*
X0248269Y0221445D01*
X0248269Y0222624D02*
X0248831Y0222624D01*
X0248869Y0223804D02*
X0248269Y0223804D01*
X0249987Y0224984D02*
X0239835Y0224984D01*
X0240198Y0223804D02*
X0240764Y0223804D01*
X0240764Y0219086D02*
X0240198Y0219086D01*
X0240198Y0217906D02*
X0241011Y0217906D01*
X0239429Y0215547D02*
X0260460Y0215547D01*
X0259751Y0216726D02*
X0217572Y0216726D01*
X0214780Y0225986D02*
X0207572Y0225986D01*
X0207572Y0226013D01*
X0207572Y0226039D01*
X0209100Y0226039D01*
X0214580Y0231519D01*
X0214580Y0231328D01*
X0218532Y0231328D01*
X0218532Y0230146D01*
X0214580Y0230146D01*
X0214580Y0227969D01*
X0214688Y0227564D01*
X0214897Y0227201D01*
X0215193Y0226905D01*
X0215257Y0226869D01*
X0214780Y0226392D01*
X0214780Y0225986D01*
X0214780Y0226163D02*
X0209224Y0226163D01*
X0207572Y0226013D02*
X0202906Y0226013D01*
X0202906Y0226013D01*
X0207572Y0226013D01*
X0210404Y0227343D02*
X0214816Y0227343D01*
X0214580Y0228523D02*
X0211583Y0228523D01*
X0212763Y0229702D02*
X0214580Y0229702D01*
X0213943Y0230882D02*
X0218532Y0230882D01*
X0219713Y0230882D02*
X0228240Y0230882D01*
X0227060Y0232061D02*
X0223666Y0232061D01*
X0223666Y0229702D02*
X0250758Y0229702D01*
X0251938Y0228523D02*
X0223666Y0228523D01*
X0223430Y0227343D02*
X0253117Y0227343D01*
X0253375Y0221445D02*
X0259015Y0221445D01*
X0259492Y0220265D02*
X0256737Y0220265D01*
X0256737Y0219086D02*
X0259308Y0219086D01*
X0259308Y0217906D02*
X0256508Y0217906D01*
X0255760Y0215093D02*
X0255356Y0215202D01*
X0253375Y0215202D01*
X0253375Y0211839D01*
X0256737Y0211839D01*
X0256737Y0213820D01*
X0256629Y0214225D01*
X0256419Y0214588D01*
X0256123Y0214884D01*
X0255760Y0215093D01*
X0256547Y0214367D02*
X0261817Y0214367D01*
X0261670Y0213188D02*
X0256737Y0213188D01*
X0256737Y0212008D02*
X0260399Y0212008D01*
X0259725Y0210828D02*
X0253375Y0210828D01*
X0253375Y0210658D02*
X0253375Y0211839D01*
X0252194Y0211839D01*
X0252194Y0210658D01*
X0253375Y0210658D01*
X0253375Y0207296D01*
X0255356Y0207296D01*
X0255760Y0207404D01*
X0256123Y0207614D01*
X0256419Y0207910D01*
X0256629Y0208273D01*
X0256737Y0208677D01*
X0256737Y0210658D01*
X0253375Y0210658D01*
X0253375Y0209649D02*
X0252194Y0209649D01*
X0252194Y0210658D02*
X0252194Y0207296D01*
X0250213Y0207296D01*
X0249808Y0207404D01*
X0249445Y0207614D01*
X0249149Y0207910D01*
X0248940Y0208273D01*
X0248831Y0208677D01*
X0248831Y0210658D01*
X0252194Y0210658D01*
X0252194Y0210828D02*
X0248269Y0210828D01*
X0248831Y0211839D02*
X0252194Y0211839D01*
X0252194Y0215202D01*
X0250213Y0215202D01*
X0249808Y0215093D01*
X0249445Y0214884D01*
X0249149Y0214588D01*
X0248940Y0214225D01*
X0248831Y0213820D01*
X0248831Y0211839D01*
X0248831Y0212008D02*
X0248269Y0212008D01*
X0248269Y0213188D02*
X0248831Y0213188D01*
X0249022Y0214367D02*
X0248089Y0214367D01*
X0248022Y0217906D02*
X0249061Y0217906D01*
X0248831Y0219086D02*
X0248269Y0219086D01*
X0248269Y0220265D02*
X0248831Y0220265D01*
X0252194Y0220265D02*
X0253375Y0220265D01*
X0253375Y0219086D02*
X0252194Y0219086D01*
X0252194Y0217906D02*
X0253375Y0217906D01*
X0253375Y0214367D02*
X0252194Y0214367D01*
X0252194Y0213188D02*
X0253375Y0213188D01*
X0253375Y0212008D02*
X0252194Y0212008D01*
X0252194Y0208469D02*
X0253375Y0208469D01*
X0256681Y0208469D02*
X0259308Y0208469D01*
X0259308Y0209649D02*
X0256737Y0209649D01*
X0248831Y0209649D02*
X0248269Y0209649D01*
X0248269Y0208469D02*
X0248887Y0208469D01*
X0240944Y0214367D02*
X0240198Y0214367D01*
X0233068Y0215547D02*
X0232736Y0215547D01*
X0231699Y0235671D02*
X0228589Y0238781D01*
X0226980Y0238781D01*
X0213594Y0238781D01*
X0212457Y0237644D01*
X0211865Y0237052D01*
X0211865Y0237549D01*
X0211321Y0238861D01*
X0210317Y0239865D01*
X0209006Y0240408D01*
X0207586Y0240408D01*
X0206275Y0239865D01*
X0205271Y0238861D01*
X0205238Y0238781D01*
X0200395Y0238781D01*
X0200395Y0240022D01*
X0199581Y0240836D01*
X0198427Y0240836D01*
X0198427Y0240956D01*
X0204179Y0246709D01*
X0226591Y0246709D01*
X0226591Y0245122D01*
X0227405Y0244307D01*
X0233675Y0244307D01*
X0233758Y0244390D01*
X0234060Y0244215D01*
X0234465Y0244107D01*
X0236643Y0244107D01*
X0236643Y0248060D01*
X0237824Y0248060D01*
X0237824Y0249241D01*
X0241383Y0249241D01*
X0241383Y0251813D01*
X0241274Y0252217D01*
X0241065Y0252580D01*
X0240769Y0252876D01*
X0240698Y0252917D01*
X0240868Y0253087D01*
X0241077Y0253450D01*
X0241186Y0253854D01*
X0241186Y0256623D01*
X0238021Y0256623D01*
X0238021Y0257410D01*
X0241186Y0257410D01*
X0241186Y0260179D01*
X0241077Y0260583D01*
X0240986Y0260742D01*
X0240986Y0262614D01*
X0249635Y0262614D01*
X0249635Y0259883D01*
X0249282Y0259530D01*
X0248709Y0260102D01*
X0247557Y0260102D01*
X0245072Y0257618D01*
X0245072Y0256466D01*
X0248949Y0252589D01*
X0249635Y0252589D01*
X0249635Y0243729D01*
X0262977Y0243729D01*
X0261515Y0243123D01*
X0260083Y0241691D01*
X0259693Y0240750D01*
X0256340Y0240750D01*
X0256340Y0242337D01*
X0255526Y0243151D01*
X0249255Y0243151D01*
X0248650Y0242546D01*
X0248045Y0243151D01*
X0241775Y0243151D01*
X0240961Y0242337D01*
X0240961Y0240750D01*
X0238913Y0240750D01*
X0238880Y0240829D01*
X0237877Y0241833D01*
X0236565Y0242376D01*
X0235145Y0242376D01*
X0233834Y0241833D01*
X0232830Y0240829D01*
X0232287Y0239518D01*
X0232287Y0238098D01*
X0232830Y0236786D01*
X0233834Y0235783D01*
X0234104Y0235671D01*
X0231699Y0235671D01*
X0230590Y0236780D02*
X0232837Y0236780D01*
X0232344Y0237959D02*
X0229410Y0237959D01*
X0232287Y0239139D02*
X0211043Y0239139D01*
X0211695Y0237959D02*
X0212772Y0237959D01*
X0209221Y0240319D02*
X0232618Y0240319D01*
X0233499Y0241498D02*
X0198969Y0241498D01*
X0200098Y0240319D02*
X0207371Y0240319D01*
X0205549Y0239139D02*
X0200395Y0239139D01*
X0200148Y0242678D02*
X0241302Y0242678D01*
X0240961Y0241498D02*
X0238211Y0241498D01*
X0237824Y0244107D02*
X0240002Y0244107D01*
X0240406Y0244215D01*
X0240769Y0244425D01*
X0241065Y0244721D01*
X0241274Y0245084D01*
X0241383Y0245488D01*
X0241383Y0248060D01*
X0237824Y0248060D01*
X0237824Y0244107D01*
X0237824Y0245037D02*
X0236643Y0245037D01*
X0236643Y0246217D02*
X0237824Y0246217D01*
X0237824Y0247396D02*
X0236643Y0247396D01*
X0237824Y0248576D02*
X0249635Y0248576D01*
X0249635Y0249756D02*
X0241383Y0249756D01*
X0241383Y0250935D02*
X0249635Y0250935D01*
X0249635Y0252115D02*
X0241302Y0252115D01*
X0240988Y0253294D02*
X0248243Y0253294D01*
X0247064Y0254474D02*
X0241186Y0254474D01*
X0241186Y0255654D02*
X0245884Y0255654D01*
X0245072Y0256833D02*
X0238021Y0256833D01*
X0238020Y0256623D02*
X0238020Y0253194D01*
X0237824Y0253194D01*
X0237824Y0249241D01*
X0236643Y0249241D01*
X0236643Y0252473D01*
X0237233Y0252473D01*
X0237233Y0256623D01*
X0234068Y0256623D01*
X0234068Y0253854D01*
X0234176Y0253450D01*
X0234343Y0253161D01*
X0234060Y0253085D01*
X0233758Y0252911D01*
X0233675Y0252994D01*
X0233011Y0252994D01*
X0233505Y0253488D01*
X0233505Y0259563D01*
X0234068Y0259563D01*
X0234068Y0257410D01*
X0237233Y0257410D01*
X0237233Y0256623D01*
X0238020Y0256623D01*
X0237233Y0256833D02*
X0233505Y0256833D01*
X0233505Y0255654D02*
X0234068Y0255654D01*
X0234068Y0254474D02*
X0233505Y0254474D01*
X0233312Y0253294D02*
X0234266Y0253294D01*
X0236643Y0252115D02*
X0237824Y0252115D01*
X0237824Y0250935D02*
X0236643Y0250935D01*
X0236643Y0249756D02*
X0237824Y0249756D01*
X0238020Y0253294D02*
X0237233Y0253294D01*
X0237233Y0254474D02*
X0238020Y0254474D01*
X0238020Y0255654D02*
X0237233Y0255654D01*
X0234068Y0258013D02*
X0233505Y0258013D01*
X0233505Y0259192D02*
X0234068Y0259192D01*
X0241186Y0259192D02*
X0246647Y0259192D01*
X0245468Y0258013D02*
X0241186Y0258013D01*
X0241134Y0260372D02*
X0249635Y0260372D01*
X0249635Y0261552D02*
X0240986Y0261552D01*
X0241383Y0247396D02*
X0249635Y0247396D01*
X0249635Y0246217D02*
X0241383Y0246217D01*
X0241247Y0245037D02*
X0249635Y0245037D01*
X0249635Y0243858D02*
X0201328Y0243858D01*
X0202508Y0245037D02*
X0226675Y0245037D01*
X0226591Y0246217D02*
X0203687Y0246217D01*
X0200554Y0248576D02*
X0191773Y0248576D01*
X0191773Y0249268D02*
X0191773Y0247298D01*
X0192274Y0247298D01*
X0193585Y0246754D01*
X0194589Y0245751D01*
X0195132Y0244439D01*
X0195132Y0243154D01*
X0201433Y0249455D01*
X0202571Y0250592D01*
X0226591Y0250592D01*
X0226591Y0252179D01*
X0227343Y0252932D01*
X0226787Y0253488D01*
X0226787Y0267351D01*
X0191773Y0267351D01*
X0191773Y0261460D01*
X0190959Y0260646D01*
X0185476Y0260646D01*
X0184661Y0261460D01*
X0184661Y0267351D01*
X0182718Y0267351D01*
X0182718Y0264966D01*
X0184647Y0263037D01*
X0184647Y0250385D01*
X0184661Y0250400D01*
X0184661Y0255526D01*
X0185476Y0256340D01*
X0190959Y0256340D01*
X0191773Y0255526D01*
X0191773Y0253151D01*
X0193122Y0253151D01*
X0193126Y0253155D01*
X0193126Y0257888D01*
X0193603Y0258365D01*
X0193540Y0258401D01*
X0193244Y0258697D01*
X0193034Y0259060D01*
X0192926Y0259465D01*
X0192926Y0261643D01*
X0196879Y0261643D01*
X0196879Y0262824D01*
X0196879Y0266383D01*
X0194307Y0266383D01*
X0193903Y0266274D01*
X0193540Y0266065D01*
X0193244Y0265769D01*
X0193034Y0265406D01*
X0192926Y0265002D01*
X0192926Y0262824D01*
X0196879Y0262824D01*
X0198060Y0262824D01*
X0198060Y0266383D01*
X0200631Y0266383D01*
X0201036Y0266274D01*
X0201399Y0266065D01*
X0201695Y0265769D01*
X0201904Y0265406D01*
X0202013Y0265002D01*
X0202013Y0262824D01*
X0198060Y0262824D01*
X0198060Y0261643D01*
X0202013Y0261643D01*
X0202013Y0259465D01*
X0201904Y0259060D01*
X0201695Y0258697D01*
X0201399Y0258401D01*
X0201336Y0258365D01*
X0201813Y0257888D01*
X0201813Y0251618D01*
X0200998Y0250803D01*
X0196266Y0250803D01*
X0194730Y0249268D01*
X0191773Y0249268D01*
X0191773Y0247396D02*
X0199375Y0247396D01*
X0198195Y0246217D02*
X0194123Y0246217D01*
X0194885Y0245037D02*
X0197016Y0245037D01*
X0195836Y0243858D02*
X0195132Y0243858D01*
X0195218Y0249756D02*
X0201734Y0249756D01*
X0201130Y0250935D02*
X0226591Y0250935D01*
X0226591Y0252115D02*
X0201813Y0252115D01*
X0201813Y0253294D02*
X0226981Y0253294D01*
X0226787Y0254474D02*
X0201813Y0254474D01*
X0201813Y0255654D02*
X0226787Y0255654D01*
X0226787Y0256833D02*
X0201813Y0256833D01*
X0201688Y0258013D02*
X0226787Y0258013D01*
X0226787Y0259192D02*
X0201940Y0259192D01*
X0202013Y0260372D02*
X0226787Y0260372D01*
X0226787Y0261552D02*
X0202013Y0261552D01*
X0202013Y0263911D02*
X0226787Y0263911D01*
X0226787Y0265091D02*
X0201989Y0265091D01*
X0201043Y0266270D02*
X0226787Y0266270D01*
X0226787Y0262731D02*
X0198060Y0262731D01*
X0198060Y0263911D02*
X0196879Y0263911D01*
X0196879Y0265091D02*
X0198060Y0265091D01*
X0198060Y0266270D02*
X0196879Y0266270D01*
X0193895Y0266270D02*
X0191773Y0266270D01*
X0191773Y0265091D02*
X0192950Y0265091D01*
X0192926Y0263911D02*
X0191773Y0263911D01*
X0191773Y0262731D02*
X0196879Y0262731D01*
X0192926Y0261552D02*
X0191773Y0261552D01*
X0192926Y0260372D02*
X0184647Y0260372D01*
X0184647Y0259192D02*
X0192999Y0259192D01*
X0193251Y0258013D02*
X0184647Y0258013D01*
X0184647Y0256833D02*
X0193126Y0256833D01*
X0193126Y0255654D02*
X0191645Y0255654D01*
X0191773Y0254474D02*
X0193126Y0254474D01*
X0193126Y0253294D02*
X0191773Y0253294D01*
X0184661Y0253294D02*
X0184647Y0253294D01*
X0184647Y0252115D02*
X0184661Y0252115D01*
X0184647Y0250935D02*
X0184661Y0250935D01*
X0184647Y0254474D02*
X0184661Y0254474D01*
X0184647Y0255654D02*
X0184789Y0255654D01*
X0180764Y0256340D02*
X0180764Y0260646D01*
X0176421Y0260646D01*
X0175606Y0261460D01*
X0175606Y0263835D01*
X0174258Y0263835D01*
X0174254Y0263830D01*
X0174254Y0259098D01*
X0173777Y0258621D01*
X0173840Y0258585D01*
X0174136Y0258288D01*
X0174345Y0257926D01*
X0174454Y0257521D01*
X0174454Y0255343D01*
X0170501Y0255343D01*
X0170501Y0254162D01*
X0174454Y0254162D01*
X0174454Y0251984D01*
X0174345Y0251580D01*
X0174136Y0251217D01*
X0173840Y0250921D01*
X0173477Y0250712D01*
X0173072Y0250603D01*
X0170501Y0250603D01*
X0170501Y0254162D01*
X0169320Y0254162D01*
X0169320Y0250603D01*
X0166748Y0250603D01*
X0166344Y0250712D01*
X0165981Y0250921D01*
X0165685Y0251217D01*
X0165475Y0251580D01*
X0165367Y0251984D01*
X0165367Y0254162D01*
X0169320Y0254162D01*
X0169320Y0255343D01*
X0165367Y0255343D01*
X0165367Y0257521D01*
X0165475Y0257926D01*
X0165685Y0258288D01*
X0165981Y0258585D01*
X0166044Y0258621D01*
X0165567Y0259098D01*
X0165567Y0265368D01*
X0166381Y0266183D01*
X0171114Y0266183D01*
X0172282Y0267351D01*
X0151419Y0267351D01*
X0151419Y0260742D01*
X0151510Y0260583D01*
X0151619Y0260179D01*
X0151619Y0257410D01*
X0148454Y0257410D01*
X0148454Y0256623D01*
X0151619Y0256623D01*
X0151619Y0253854D01*
X0151510Y0253450D01*
X0151301Y0253087D01*
X0151131Y0252917D01*
X0151202Y0252876D01*
X0151498Y0252580D01*
X0151707Y0252217D01*
X0151816Y0251813D01*
X0151816Y0249241D01*
X0148257Y0249241D01*
X0148257Y0248060D01*
X0151816Y0248060D01*
X0151816Y0245488D01*
X0151707Y0245084D01*
X0151498Y0244721D01*
X0151202Y0244425D01*
X0150839Y0244215D01*
X0150435Y0244107D01*
X0148257Y0244107D01*
X0148257Y0248060D01*
X0147076Y0248060D01*
X0147076Y0244107D01*
X0144898Y0244107D01*
X0144493Y0244215D01*
X0144191Y0244390D01*
X0144108Y0244307D01*
X0142944Y0244307D01*
X0147486Y0239765D01*
X0159962Y0239765D01*
X0159995Y0239845D01*
X0160999Y0240849D01*
X0162311Y0241392D01*
X0162824Y0241392D01*
X0162824Y0245107D01*
X0161643Y0245107D01*
X0161643Y0241154D01*
X0159465Y0241154D01*
X0159060Y0241263D01*
X0158697Y0241472D01*
X0158401Y0241768D01*
X0158192Y0242131D01*
X0158083Y0242535D01*
X0158083Y0245107D01*
X0161642Y0245107D01*
X0161642Y0246288D01*
X0158083Y0246288D01*
X0158083Y0248860D01*
X0158192Y0249264D01*
X0158401Y0249627D01*
X0158697Y0249923D01*
X0159060Y0250133D01*
X0159465Y0250241D01*
X0161643Y0250241D01*
X0161643Y0246288D01*
X0162824Y0246288D01*
X0162824Y0250241D01*
X0165002Y0250241D01*
X0165406Y0250133D01*
X0165769Y0249923D01*
X0166065Y0249627D01*
X0166101Y0249564D01*
X0166578Y0250041D01*
X0172848Y0250041D01*
X0173663Y0249226D01*
X0173663Y0247639D01*
X0174652Y0247639D01*
X0175789Y0246502D01*
X0178742Y0243549D01*
X0178742Y0240836D01*
X0179413Y0240836D01*
X0179572Y0240928D01*
X0179976Y0241036D01*
X0180737Y0241036D01*
X0180737Y0236371D01*
X0180737Y0236371D01*
X0180737Y0241036D01*
X0180764Y0241036D01*
X0180764Y0246079D01*
X0176421Y0246079D01*
X0175606Y0246893D01*
X0175606Y0255526D01*
X0176421Y0256340D01*
X0180764Y0256340D01*
X0180764Y0256833D02*
X0174454Y0256833D01*
X0174454Y0255654D02*
X0175734Y0255654D01*
X0175606Y0254474D02*
X0170501Y0254474D01*
X0170501Y0253294D02*
X0169320Y0253294D01*
X0169320Y0252115D02*
X0170501Y0252115D01*
X0170501Y0250935D02*
X0169320Y0250935D01*
X0166293Y0249756D02*
X0165936Y0249756D01*
X0165967Y0250935D02*
X0151816Y0250935D01*
X0151816Y0249756D02*
X0158530Y0249756D01*
X0158083Y0248576D02*
X0148257Y0248576D01*
X0148257Y0249241D02*
X0147076Y0249241D01*
X0147076Y0252473D01*
X0147666Y0252473D01*
X0147666Y0256623D01*
X0144501Y0256623D01*
X0144501Y0253854D01*
X0144609Y0253450D01*
X0144776Y0253161D01*
X0144493Y0253085D01*
X0144191Y0252911D01*
X0144108Y0252994D01*
X0143444Y0252994D01*
X0143939Y0253488D01*
X0143939Y0259563D01*
X0144501Y0259563D01*
X0144501Y0257410D01*
X0147666Y0257410D01*
X0147666Y0256623D01*
X0148454Y0256623D01*
X0148454Y0253194D01*
X0148257Y0253194D01*
X0148257Y0249241D01*
X0148257Y0249756D02*
X0147076Y0249756D01*
X0147076Y0250935D02*
X0148257Y0250935D01*
X0148257Y0252115D02*
X0147076Y0252115D01*
X0147666Y0253294D02*
X0148454Y0253294D01*
X0148454Y0254474D02*
X0147666Y0254474D01*
X0147666Y0255654D02*
X0148454Y0255654D01*
X0148454Y0256833D02*
X0165367Y0256833D01*
X0165367Y0255654D02*
X0151619Y0255654D01*
X0151619Y0254474D02*
X0169320Y0254474D01*
X0165367Y0253294D02*
X0151421Y0253294D01*
X0151735Y0252115D02*
X0165367Y0252115D01*
X0162824Y0249756D02*
X0161643Y0249756D01*
X0161643Y0248576D02*
X0162824Y0248576D01*
X0162824Y0247396D02*
X0161643Y0247396D01*
X0161642Y0246217D02*
X0151816Y0246217D01*
X0151816Y0247396D02*
X0158083Y0247396D01*
X0158083Y0245037D02*
X0151680Y0245037D01*
X0148257Y0245037D02*
X0147076Y0245037D01*
X0147076Y0246217D02*
X0148257Y0246217D01*
X0148257Y0247396D02*
X0147076Y0247396D01*
X0143394Y0243858D02*
X0158083Y0243858D01*
X0158083Y0242678D02*
X0144574Y0242678D01*
X0145753Y0241498D02*
X0158671Y0241498D01*
X0160469Y0240319D02*
X0146933Y0240319D01*
X0144699Y0253294D02*
X0143745Y0253294D01*
X0143939Y0254474D02*
X0144501Y0254474D01*
X0144501Y0255654D02*
X0143939Y0255654D01*
X0143939Y0256833D02*
X0147666Y0256833D01*
X0144501Y0258013D02*
X0143939Y0258013D01*
X0143939Y0259192D02*
X0144501Y0259192D01*
X0151619Y0259192D02*
X0165567Y0259192D01*
X0165526Y0258013D02*
X0151619Y0258013D01*
X0151567Y0260372D02*
X0165567Y0260372D01*
X0165567Y0261552D02*
X0151419Y0261552D01*
X0151419Y0262731D02*
X0165567Y0262731D01*
X0165567Y0263911D02*
X0151419Y0263911D01*
X0151419Y0265091D02*
X0165567Y0265091D01*
X0171201Y0266270D02*
X0151419Y0266270D01*
X0174254Y0262731D02*
X0175606Y0262731D01*
X0175606Y0261552D02*
X0174254Y0261552D01*
X0174254Y0260372D02*
X0180764Y0260372D01*
X0180764Y0259192D02*
X0174254Y0259192D01*
X0174295Y0258013D02*
X0180764Y0258013D01*
X0184647Y0261552D02*
X0184661Y0261552D01*
X0184647Y0262731D02*
X0184661Y0262731D01*
X0184661Y0263911D02*
X0183774Y0263911D01*
X0184661Y0265091D02*
X0182718Y0265091D01*
X0182718Y0266270D02*
X0184661Y0266270D01*
X0175606Y0253294D02*
X0174454Y0253294D01*
X0174454Y0252115D02*
X0175606Y0252115D01*
X0175606Y0250935D02*
X0173854Y0250935D01*
X0173134Y0249756D02*
X0175606Y0249756D01*
X0175606Y0248576D02*
X0173663Y0248576D01*
X0174895Y0247396D02*
X0175606Y0247396D01*
X0176074Y0246217D02*
X0176283Y0246217D01*
X0177254Y0245037D02*
X0180764Y0245037D01*
X0180764Y0243858D02*
X0178433Y0243858D01*
X0178742Y0242678D02*
X0180764Y0242678D01*
X0180764Y0241498D02*
X0178742Y0241498D01*
X0180737Y0240319D02*
X0180737Y0240319D01*
X0180737Y0239139D02*
X0180737Y0239139D01*
X0180737Y0237959D02*
X0180737Y0237959D01*
X0180737Y0236780D02*
X0180737Y0236780D01*
X0180737Y0236371D02*
X0180737Y0231711D01*
X0180737Y0231711D01*
X0180737Y0236371D01*
X0180737Y0236371D01*
X0180737Y0235600D02*
X0180737Y0235600D01*
X0180737Y0234421D02*
X0180737Y0234421D01*
X0180737Y0233241D02*
X0180737Y0233241D01*
X0180737Y0232061D02*
X0180737Y0232061D01*
X0180743Y0231706D02*
X0181498Y0231706D01*
X0181902Y0231814D01*
X0182061Y0231906D01*
X0185319Y0231906D01*
X0185477Y0231814D01*
X0185882Y0231706D01*
X0186642Y0231706D01*
X0186642Y0236371D01*
X0186642Y0241036D01*
X0186616Y0241036D01*
X0186616Y0246079D01*
X0188867Y0246079D01*
X0188539Y0245751D01*
X0187995Y0244439D01*
X0187995Y0243019D01*
X0188539Y0241708D01*
X0189410Y0240836D01*
X0187966Y0240836D01*
X0187808Y0240928D01*
X0187403Y0241036D01*
X0186643Y0241036D01*
X0186643Y0236371D01*
X0186642Y0236371D01*
X0186643Y0236371D01*
X0186643Y0231706D01*
X0186669Y0231706D01*
X0186669Y0231114D01*
X0191797Y0225986D01*
X0186463Y0225986D01*
X0180743Y0231706D01*
X0181567Y0230882D02*
X0186901Y0230882D01*
X0186643Y0232061D02*
X0186642Y0232061D01*
X0186642Y0233241D02*
X0186643Y0233241D01*
X0186642Y0234421D02*
X0186643Y0234421D01*
X0186642Y0235600D02*
X0186643Y0235600D01*
X0186642Y0236780D02*
X0186643Y0236780D01*
X0186642Y0237959D02*
X0186643Y0237959D01*
X0186642Y0239139D02*
X0186643Y0239139D01*
X0186642Y0240319D02*
X0186643Y0240319D01*
X0186616Y0241498D02*
X0188748Y0241498D01*
X0188137Y0242678D02*
X0186616Y0242678D01*
X0186616Y0243858D02*
X0187995Y0243858D01*
X0188243Y0245037D02*
X0186616Y0245037D01*
X0174858Y0241498D02*
X0172992Y0241498D01*
X0173663Y0242678D02*
X0174121Y0242678D01*
X0174831Y0240319D02*
X0174832Y0240319D01*
X0174831Y0239139D02*
X0174832Y0239139D01*
X0174831Y0237959D02*
X0174832Y0237959D01*
X0174831Y0236780D02*
X0174832Y0236780D01*
X0174831Y0235600D02*
X0174832Y0235600D01*
X0174831Y0234421D02*
X0174832Y0234421D01*
X0174831Y0233241D02*
X0174832Y0233241D01*
X0174831Y0232061D02*
X0174832Y0232061D01*
X0176827Y0230882D02*
X0168939Y0230882D01*
X0168939Y0229702D02*
X0177254Y0229702D01*
X0178434Y0228523D02*
X0168939Y0228523D01*
X0168939Y0227343D02*
X0179613Y0227343D01*
X0180793Y0226163D02*
X0168939Y0226163D01*
X0168939Y0224984D02*
X0181973Y0224984D01*
X0183152Y0223804D02*
X0168939Y0223804D01*
X0168939Y0222624D02*
X0184332Y0222624D01*
X0186285Y0226163D02*
X0191620Y0226163D01*
X0190440Y0227343D02*
X0185105Y0227343D01*
X0183926Y0228523D02*
X0189261Y0228523D01*
X0188081Y0229702D02*
X0182746Y0229702D01*
X0197469Y0224044D02*
X0199438Y0224044D01*
X0166984Y0234421D02*
X0164130Y0234421D01*
X0165844Y0235600D02*
X0166984Y0235600D01*
X0166984Y0236780D02*
X0166451Y0236780D01*
X0166589Y0237959D02*
X0166984Y0237959D01*
X0166984Y0239139D02*
X0166338Y0239139D01*
X0165572Y0240319D02*
X0167281Y0240319D01*
X0166434Y0241498D02*
X0165795Y0241498D01*
X0162824Y0241498D02*
X0161643Y0241498D01*
X0161643Y0242678D02*
X0162824Y0242678D01*
X0162824Y0243858D02*
X0161643Y0243858D01*
X0161643Y0245037D02*
X0162824Y0245037D01*
X0164473Y0214201D02*
X0164473Y0212233D01*
X0164473Y0212233D01*
X0164473Y0214201D01*
X0164473Y0214201D01*
X0164473Y0213188D02*
X0164473Y0213188D01*
X0142942Y0195493D02*
X0141761Y0195493D01*
X0141761Y0194314D02*
X0142942Y0194314D01*
X0138020Y0194314D02*
X0132509Y0194314D01*
X0132509Y0195493D02*
X0137808Y0195493D01*
X0137808Y0196673D02*
X0132509Y0196673D01*
X0119962Y0187236D02*
X0152220Y0187236D01*
X0149819Y0186056D02*
X0119529Y0186056D01*
X0118737Y0184877D02*
X0149819Y0184877D01*
X0149819Y0183697D02*
X0117188Y0183697D01*
X0117888Y0182518D02*
X0149819Y0182518D01*
X0149819Y0181338D02*
X0119067Y0181338D01*
X0119580Y0180158D02*
X0149819Y0180158D01*
X0149819Y0178979D02*
X0119883Y0178979D01*
X0119883Y0177799D02*
X0149819Y0177799D01*
X0149819Y0176620D02*
X0119559Y0176620D01*
X0119017Y0175440D02*
X0149819Y0175440D01*
X0149819Y0174260D02*
X0117837Y0174260D01*
X0116828Y0173081D02*
X0150009Y0173081D01*
X0158505Y0178979D02*
X0163444Y0178979D01*
X0163398Y0180158D02*
X0158505Y0180158D01*
X0223466Y0155386D02*
X0232869Y0155386D01*
X0250289Y0163644D02*
X0251179Y0163644D01*
X0257285Y0162464D02*
X0265383Y0162464D01*
X0265383Y0161285D02*
X0257285Y0161285D01*
X0258552Y0160105D02*
X0262371Y0160105D01*
X0261827Y0158925D02*
X0259096Y0158925D01*
X0259096Y0157746D02*
X0261827Y0157746D01*
X0261827Y0156566D02*
X0259096Y0156566D01*
X0265383Y0154162D02*
X0265383Y0154162D01*
X0265383Y0163644D02*
X0257539Y0163644D01*
X0258309Y0164823D02*
X0265383Y0164823D01*
X0265383Y0166003D02*
X0258309Y0166003D01*
X0258309Y0167183D02*
X0265383Y0167183D01*
X0265383Y0168362D02*
X0258309Y0168362D01*
X0258309Y0169542D02*
X0265383Y0169542D01*
X0265383Y0170721D02*
X0258309Y0170721D01*
X0257878Y0171901D02*
X0265383Y0171901D01*
X0236828Y0183697D02*
X0227767Y0183697D01*
X0228947Y0182518D02*
X0235649Y0182518D01*
X0234773Y0181338D02*
X0230126Y0181338D01*
X0256737Y0222624D02*
X0257836Y0222624D01*
X0256340Y0241498D02*
X0260003Y0241498D01*
X0261069Y0242678D02*
X0255999Y0242678D01*
X0248782Y0242678D02*
X0248519Y0242678D01*
D31*
X0248829Y0256346D02*
X0249456Y0256346D01*
X0257509Y0264398D01*
X0256918Y0264989D01*
X0233887Y0264989D01*
X0144320Y0264989D02*
X0122272Y0264989D01*
X0121682Y0264398D01*
X0129735Y0256346D01*
X0130361Y0256346D01*
X0140580Y0257017D02*
X0140580Y0249044D01*
X0130361Y0122845D02*
X0130128Y0122845D01*
X0121879Y0114595D01*
X0142745Y0114595D01*
X0147272Y0116170D01*
X0234871Y0118139D02*
X0236249Y0115776D01*
X0257509Y0115776D01*
X0249456Y0122845D01*
X0248829Y0123829D01*
X0266170Y0142351D02*
X0270304Y0142351D01*
X0269517Y0150422D02*
X0265580Y0150422D01*
X0265580Y0157902D02*
X0269517Y0157902D01*
D32*
X0270304Y0157115D01*
X0269842Y0157222D02*
X0272478Y0157222D01*
X0272478Y0155424D02*
X0269642Y0155424D01*
X0269642Y0155949D02*
X0269642Y0152375D01*
X0269636Y0152370D01*
X0269712Y0152238D01*
X0269842Y0151755D01*
X0269842Y0150422D01*
X0268335Y0150422D01*
X0269842Y0150422D01*
X0269842Y0149089D01*
X0269712Y0148606D01*
X0269462Y0148173D01*
X0269108Y0147819D01*
X0268675Y0147569D01*
X0268335Y0147478D01*
X0268335Y0147204D01*
X0268979Y0147204D01*
X0269463Y0147074D01*
X0269896Y0146824D01*
X0270250Y0146471D01*
X0270500Y0146037D01*
X0270629Y0145554D01*
X0270629Y0142731D01*
X0268335Y0142731D01*
X0268335Y0141972D01*
X0270629Y0141972D01*
X0270629Y0139148D01*
X0270500Y0138665D01*
X0270250Y0138232D01*
X0269896Y0137878D01*
X0269463Y0137628D01*
X0268979Y0137498D01*
X0268335Y0137498D01*
X0268335Y0132509D01*
X0260554Y0132509D01*
X0260612Y0132292D01*
X0260612Y0131791D01*
X0260482Y0131308D01*
X0260232Y0130875D01*
X0258524Y0129167D01*
X0256346Y0131345D01*
X0256346Y0131346D01*
X0258524Y0129167D01*
X0256816Y0127459D01*
X0256383Y0127209D01*
X0255900Y0127079D01*
X0255400Y0127079D01*
X0254916Y0127209D01*
X0254556Y0127417D01*
X0254556Y0121940D01*
X0255749Y0120892D01*
X0256435Y0121176D01*
X0258583Y0121176D01*
X0259336Y0120864D01*
X0259118Y0121536D01*
X0258980Y0122407D01*
X0258980Y0123288D01*
X0259118Y0124159D01*
X0259390Y0124997D01*
X0259790Y0125782D01*
X0260308Y0126496D01*
X0260549Y0126736D01*
X0264438Y0122847D01*
X0264580Y0122989D01*
X0268469Y0126878D01*
X0268228Y0127119D01*
X0267515Y0127637D01*
X0266729Y0128037D01*
X0265891Y0128310D01*
X0265020Y0128447D01*
X0264139Y0128447D01*
X0263268Y0128310D01*
X0262430Y0128037D01*
X0261645Y0127637D01*
X0260932Y0127119D01*
X0260691Y0126878D01*
X0264580Y0122989D01*
X0264721Y0122847D01*
X0268610Y0118958D01*
X0268851Y0119199D01*
X0269369Y0119912D01*
X0269769Y0120698D01*
X0270042Y0121536D01*
X0270180Y0122407D01*
X0270180Y0123288D01*
X0270042Y0124159D01*
X0269769Y0124997D01*
X0269369Y0125782D01*
X0268851Y0126496D01*
X0268610Y0126736D01*
X0264721Y0122847D01*
X0264580Y0122706D01*
X0268469Y0118817D01*
X0268228Y0118576D01*
X0267515Y0118058D01*
X0266729Y0117658D01*
X0265891Y0117385D01*
X0265020Y0117247D01*
X0264139Y0117247D01*
X0263268Y0117385D01*
X0262597Y0117604D01*
X0262909Y0116851D01*
X0262909Y0114702D01*
X0262087Y0112718D01*
X0260568Y0111198D01*
X0258583Y0110376D01*
X0256435Y0110376D01*
X0254450Y0111198D01*
X0253809Y0111839D01*
X0204372Y0111839D01*
X0203867Y0111144D01*
X0203243Y0110521D01*
X0202530Y0110003D01*
X0201745Y0109602D01*
X0200907Y0109330D01*
X0200036Y0109192D01*
X0199695Y0109192D01*
X0199695Y0111839D01*
X0199495Y0111839D01*
X0199495Y0109192D01*
X0199155Y0109192D01*
X0198284Y0109330D01*
X0197446Y0109602D01*
X0196660Y0110003D01*
X0195947Y0110521D01*
X0195324Y0111144D01*
X0194819Y0111839D01*
X0194474Y0111839D01*
X0194374Y0111599D01*
X0192788Y0110013D01*
X0190717Y0109155D01*
X0188474Y0109155D01*
X0186402Y0110013D01*
X0184816Y0111599D01*
X0184717Y0111839D01*
X0184217Y0111839D01*
X0184173Y0111733D01*
X0182654Y0110214D01*
X0180669Y0109392D01*
X0178521Y0109392D01*
X0176536Y0110214D01*
X0175017Y0111733D01*
X0174973Y0111839D01*
X0154681Y0111839D01*
X0154681Y0111430D01*
X0153685Y0110435D01*
X0140860Y0110435D01*
X0139864Y0111430D01*
X0139864Y0111839D01*
X0132509Y0111839D01*
X0132509Y0111911D01*
X0126612Y0111911D01*
X0126457Y0111536D01*
X0124938Y0110017D01*
X0122953Y0109195D01*
X0120805Y0109195D01*
X0118820Y0110017D01*
X0117301Y0111536D01*
X0116479Y0113521D01*
X0116479Y0115669D01*
X0116791Y0116422D01*
X0116119Y0116204D01*
X0115248Y0116066D01*
X0114367Y0116066D01*
X0113496Y0116204D01*
X0112658Y0116477D01*
X0111873Y0116877D01*
X0111160Y0117395D01*
X0110919Y0117636D01*
X0114808Y0121525D01*
X0114666Y0121666D01*
X0110777Y0117777D01*
X0110536Y0118018D01*
X0110018Y0118731D01*
X0109618Y0119517D01*
X0109346Y0120355D01*
X0109208Y0121226D01*
X0109208Y0122107D01*
X0109346Y0122978D01*
X0109618Y0123816D01*
X0110018Y0124601D01*
X0110536Y0125314D01*
X0110777Y0125555D01*
X0114666Y0121666D01*
X0114808Y0121808D01*
X0118697Y0125697D01*
X0118456Y0125938D01*
X0117743Y0126456D01*
X0116957Y0126856D01*
X0116119Y0127128D01*
X0115248Y0127266D01*
X0114367Y0127266D01*
X0113496Y0127128D01*
X0112658Y0126856D01*
X0111873Y0126456D01*
X0111160Y0125938D01*
X0110919Y0125697D01*
X0114808Y0121808D01*
X0114949Y0121666D01*
X0118838Y0125555D01*
X0119079Y0125314D01*
X0119597Y0124601D01*
X0119997Y0123816D01*
X0120270Y0122978D01*
X0120408Y0122107D01*
X0120408Y0121226D01*
X0120270Y0120355D01*
X0120052Y0119683D01*
X0120805Y0119995D01*
X0122953Y0119995D01*
X0123327Y0119840D01*
X0126310Y0122822D01*
X0126295Y0122837D01*
X0126295Y0124245D01*
X0128961Y0126911D01*
X0130370Y0126911D01*
X0132509Y0124772D01*
X0132509Y0131524D01*
X0126039Y0131524D01*
X0126732Y0130832D01*
X0126982Y0130399D01*
X0127111Y0129916D01*
X0127111Y0129415D01*
X0126982Y0128932D01*
X0126732Y0128499D01*
X0125720Y0127487D01*
X0122845Y0130361D01*
X0122845Y0130361D01*
X0125719Y0127487D01*
X0124707Y0126475D01*
X0124274Y0126225D01*
X0123791Y0126095D01*
X0123291Y0126095D01*
X0122807Y0126225D01*
X0122374Y0126475D01*
X0120666Y0128183D01*
X0122845Y0130361D01*
X0120666Y0128183D01*
X0118958Y0129891D01*
X0118708Y0130324D01*
X0118579Y0130807D01*
X0118579Y0131307D01*
X0118637Y0131524D01*
X0106713Y0131524D01*
X0106713Y0111690D01*
X0105845Y0109595D01*
X0101013Y0104763D01*
X0101013Y0101013D01*
X0104763Y0101013D01*
X0107991Y0104241D01*
X0109595Y0105845D01*
X0111690Y0106713D01*
X0267501Y0106713D01*
X0269596Y0105845D01*
X0274428Y0101013D01*
X0278178Y0101013D01*
X0278178Y0104763D01*
X0274949Y0107991D01*
X0273346Y0109595D01*
X0272478Y0111690D01*
X0272478Y0267501D01*
X0273346Y0269596D01*
X0278178Y0274428D01*
X0278178Y0278178D01*
X0274428Y0278178D01*
X0271199Y0274949D01*
X0269596Y0273346D01*
X0267501Y0272478D01*
X0111690Y0272478D01*
X0109595Y0273346D01*
X0107991Y0274949D01*
X0107991Y0274949D01*
X0104763Y0278178D01*
X0101013Y0278178D01*
X0101013Y0274428D01*
X0104241Y0271199D01*
X0104241Y0271199D01*
X0105845Y0269596D01*
X0106713Y0267501D01*
X0106713Y0246682D01*
X0119243Y0246682D01*
X0118958Y0246967D01*
X0118708Y0247400D01*
X0118579Y0247883D01*
X0118579Y0248383D01*
X0118708Y0248867D01*
X0118958Y0249300D01*
X0120666Y0251008D01*
X0122845Y0248829D01*
X0122845Y0248829D01*
X0125720Y0251704D01*
X0126732Y0250692D01*
X0126982Y0250258D01*
X0127111Y0249775D01*
X0127111Y0249275D01*
X0126982Y0248792D01*
X0126732Y0248358D01*
X0125055Y0246682D01*
X0129556Y0246682D01*
X0129556Y0252279D01*
X0128961Y0252279D01*
X0126295Y0254946D01*
X0126295Y0255989D01*
X0123131Y0259154D01*
X0122756Y0258998D01*
X0120608Y0258998D01*
X0119855Y0259310D01*
X0120073Y0258639D01*
X0120211Y0257768D01*
X0120211Y0256887D01*
X0120073Y0256016D01*
X0119801Y0255178D01*
X0119400Y0254392D01*
X0118882Y0253679D01*
X0118641Y0253438D01*
X0114752Y0257327D01*
X0114611Y0257186D01*
X0118500Y0253297D01*
X0118259Y0253056D01*
X0117546Y0252538D01*
X0116760Y0252138D01*
X0115922Y0251865D01*
X0115052Y0251727D01*
X0114170Y0251727D01*
X0113299Y0251865D01*
X0112461Y0252138D01*
X0111676Y0252538D01*
X0110963Y0253056D01*
X0110722Y0253297D01*
X0114611Y0257186D01*
X0114469Y0257327D01*
X0110580Y0253438D01*
X0110339Y0253679D01*
X0109821Y0254392D01*
X0109421Y0255178D01*
X0109149Y0256016D01*
X0109011Y0256887D01*
X0109011Y0257768D01*
X0109149Y0258639D01*
X0109421Y0259477D01*
X0109821Y0260262D01*
X0110339Y0260975D01*
X0110580Y0261216D01*
X0114469Y0257327D01*
X0114611Y0257469D01*
X0110722Y0261358D01*
X0110963Y0261599D01*
X0111676Y0262117D01*
X0112461Y0262517D01*
X0113299Y0262789D01*
X0114170Y0262927D01*
X0115052Y0262927D01*
X0115922Y0262789D01*
X0116594Y0262571D01*
X0116282Y0263324D01*
X0116282Y0265473D01*
X0117104Y0267457D01*
X0118623Y0268976D01*
X0120608Y0269798D01*
X0122756Y0269798D01*
X0124741Y0268976D01*
X0126044Y0267673D01*
X0129556Y0267673D01*
X0129556Y0270304D01*
X0137486Y0270304D01*
X0137907Y0270724D01*
X0150733Y0270724D01*
X0151153Y0270304D01*
X0175380Y0270304D01*
X0176293Y0271217D01*
X0182032Y0271217D01*
X0182944Y0270304D01*
X0184435Y0270304D01*
X0185348Y0271217D01*
X0191087Y0271217D01*
X0191999Y0270304D01*
X0227053Y0270304D01*
X0227474Y0270724D01*
X0240299Y0270724D01*
X0240720Y0270304D01*
X0252587Y0270304D01*
X0252587Y0267673D01*
X0253147Y0267673D01*
X0254450Y0268976D01*
X0256435Y0269798D01*
X0258583Y0269798D01*
X0260568Y0268976D01*
X0262087Y0267457D01*
X0262909Y0265473D01*
X0262909Y0263324D01*
X0262597Y0262571D01*
X0263268Y0262789D01*
X0264139Y0262927D01*
X0265020Y0262927D01*
X0265891Y0262789D01*
X0266729Y0262517D01*
X0267515Y0262117D01*
X0268228Y0261599D01*
X0268469Y0261358D01*
X0264580Y0257469D01*
X0264721Y0257327D01*
X0268610Y0253438D01*
X0268851Y0253679D01*
X0269369Y0254392D01*
X0269769Y0255178D01*
X0270042Y0256016D01*
X0270180Y0256887D01*
X0270180Y0257768D01*
X0270042Y0258639D01*
X0269769Y0259477D01*
X0269369Y0260262D01*
X0268851Y0260975D01*
X0268610Y0261216D01*
X0264721Y0257327D01*
X0264580Y0257186D01*
X0268469Y0253297D01*
X0268228Y0253056D01*
X0267515Y0252538D01*
X0266729Y0252138D01*
X0265891Y0251865D01*
X0265020Y0251727D01*
X0264139Y0251727D01*
X0263268Y0251865D01*
X0262430Y0252138D01*
X0261645Y0252538D01*
X0260932Y0253056D01*
X0260691Y0253297D01*
X0264580Y0257186D01*
X0264438Y0257327D01*
X0260549Y0253438D01*
X0260308Y0253679D01*
X0259790Y0254392D01*
X0259390Y0255178D01*
X0259118Y0256016D01*
X0258980Y0256887D01*
X0258980Y0257768D01*
X0259118Y0258639D01*
X0259336Y0259310D01*
X0258583Y0258998D01*
X0256435Y0258998D01*
X0256060Y0259154D01*
X0252895Y0255989D01*
X0252895Y0254946D01*
X0252587Y0254637D01*
X0252587Y0250820D01*
X0253471Y0251704D01*
X0256346Y0248829D01*
X0256346Y0248829D01*
X0258524Y0251008D01*
X0256816Y0252716D01*
X0256383Y0252966D01*
X0255900Y0253095D01*
X0255400Y0253095D01*
X0254916Y0252966D01*
X0254483Y0252716D01*
X0253471Y0251704D01*
X0256345Y0248829D01*
X0256346Y0248829D01*
X0258524Y0251008D01*
X0260232Y0249300D01*
X0260482Y0248867D01*
X0260612Y0248383D01*
X0260612Y0247883D01*
X0260482Y0247400D01*
X0260232Y0246967D01*
X0259948Y0246682D01*
X0268335Y0246682D01*
X0268335Y0242508D01*
X0268976Y0241867D01*
X0269798Y0239882D01*
X0269798Y0237734D01*
X0268976Y0235749D01*
X0268335Y0235108D01*
X0268335Y0232508D01*
X0268976Y0231867D01*
X0269798Y0229882D01*
X0269798Y0227734D01*
X0268976Y0225749D01*
X0268335Y0225108D01*
X0268335Y0222508D01*
X0268976Y0221867D01*
X0269798Y0219882D01*
X0269798Y0217734D01*
X0268976Y0215749D01*
X0268335Y0215108D01*
X0268335Y0212508D01*
X0268976Y0211867D01*
X0269798Y0209882D01*
X0269798Y0207734D01*
X0268976Y0205749D01*
X0268335Y0205108D01*
X0268335Y0202508D01*
X0268976Y0201867D01*
X0269798Y0199882D01*
X0269798Y0197734D01*
X0268976Y0195749D01*
X0268335Y0195108D01*
X0268335Y0192508D01*
X0268976Y0191867D01*
X0269798Y0189882D01*
X0269798Y0187734D01*
X0268976Y0185749D01*
X0268335Y0185108D01*
X0268335Y0160847D01*
X0268675Y0160756D01*
X0269108Y0160505D01*
X0269462Y0160152D01*
X0269712Y0159718D01*
X0269842Y0159235D01*
X0269842Y0157902D01*
X0268335Y0157902D01*
X0268335Y0157902D01*
X0269842Y0157902D01*
X0269842Y0156570D01*
X0269712Y0156086D01*
X0269636Y0155955D01*
X0269642Y0155949D01*
X0269642Y0153625D02*
X0272478Y0153625D01*
X0272478Y0151827D02*
X0269823Y0151827D01*
X0270304Y0151209D02*
X0269517Y0150422D01*
X0269842Y0150028D02*
X0272478Y0150028D01*
X0272478Y0148230D02*
X0269495Y0148230D01*
X0270272Y0146431D02*
X0272478Y0146431D01*
X0272478Y0144632D02*
X0270629Y0144632D01*
X0270629Y0142834D02*
X0272478Y0142834D01*
X0272478Y0141035D02*
X0270629Y0141035D01*
X0270629Y0139237D02*
X0272478Y0139237D01*
X0272478Y0137438D02*
X0268335Y0137438D01*
X0268335Y0135640D02*
X0272478Y0135640D01*
X0272478Y0133841D02*
X0268335Y0133841D01*
X0272478Y0132043D02*
X0260612Y0132043D01*
X0259602Y0130244D02*
X0272478Y0130244D01*
X0272478Y0128446D02*
X0265030Y0128446D01*
X0264129Y0128446D02*
X0257803Y0128446D01*
X0257447Y0130244D02*
X0257447Y0130244D01*
X0254556Y0126647D02*
X0260460Y0126647D01*
X0260638Y0126647D02*
X0260921Y0126647D01*
X0262437Y0124849D02*
X0262720Y0124849D01*
X0264235Y0123050D02*
X0264518Y0123050D01*
X0264641Y0123050D02*
X0264924Y0123050D01*
X0264580Y0122847D02*
X0264580Y0114611D01*
X0291560Y0087631D01*
X0278178Y0101468D02*
X0273972Y0101468D01*
X0272174Y0103267D02*
X0278178Y0103267D01*
X0277875Y0105065D02*
X0270375Y0105065D01*
X0274278Y0108662D02*
X0104912Y0108662D01*
X0106204Y0110461D02*
X0118376Y0110461D01*
X0117001Y0112259D02*
X0106713Y0112259D01*
X0106713Y0114058D02*
X0116479Y0114058D01*
X0116556Y0115856D02*
X0106713Y0115856D01*
X0106713Y0117655D02*
X0110938Y0117655D01*
X0109650Y0119453D02*
X0106713Y0119453D01*
X0106713Y0121252D02*
X0109208Y0121252D01*
X0109369Y0123050D02*
X0106713Y0123050D01*
X0106713Y0124849D02*
X0110198Y0124849D01*
X0111484Y0124849D02*
X0111767Y0124849D01*
X0112248Y0126647D02*
X0106713Y0126647D01*
X0106713Y0128446D02*
X0120403Y0128446D01*
X0120929Y0128446D02*
X0120929Y0128446D01*
X0122202Y0126647D02*
X0117367Y0126647D01*
X0117849Y0124849D02*
X0118132Y0124849D01*
X0119417Y0124849D02*
X0126899Y0124849D01*
X0126295Y0123050D02*
X0120246Y0123050D01*
X0120408Y0121252D02*
X0124739Y0121252D01*
X0124880Y0126647D02*
X0128697Y0126647D01*
X0130633Y0126647D02*
X0132509Y0126647D01*
X0132509Y0124849D02*
X0132432Y0124849D01*
X0132509Y0128446D02*
X0126679Y0128446D01*
X0127023Y0130244D02*
X0132509Y0130244D01*
X0124760Y0128446D02*
X0124760Y0128446D01*
X0122962Y0130244D02*
X0122962Y0130244D01*
X0122845Y0130361D02*
X0122845Y0130361D01*
X0122728Y0130244D02*
X0122728Y0130244D01*
X0118754Y0130244D02*
X0106713Y0130244D01*
X0113282Y0123050D02*
X0113565Y0123050D01*
X0114808Y0121666D02*
X0114808Y0114808D01*
X0087631Y0087631D01*
X0101013Y0101468D02*
X0105218Y0101468D01*
X0107017Y0103267D02*
X0101013Y0103267D01*
X0101315Y0105065D02*
X0108815Y0105065D01*
X0103114Y0106864D02*
X0276077Y0106864D01*
X0272987Y0110461D02*
X0258787Y0110461D01*
X0256231Y0110461D02*
X0203161Y0110461D01*
X0199695Y0110461D02*
X0199495Y0110461D01*
X0196030Y0110461D02*
X0193236Y0110461D01*
X0185955Y0110461D02*
X0182901Y0110461D01*
X0176290Y0110461D02*
X0153711Y0110461D01*
X0140833Y0110461D02*
X0125381Y0110461D01*
X0114535Y0121252D02*
X0114252Y0121252D01*
X0112736Y0119453D02*
X0112453Y0119453D01*
X0116050Y0123050D02*
X0116333Y0123050D01*
X0118854Y0247148D02*
X0106713Y0247148D01*
X0106713Y0248946D02*
X0118754Y0248946D01*
X0120403Y0250745D02*
X0106713Y0250745D01*
X0106713Y0252543D02*
X0111668Y0252543D01*
X0111767Y0254342D02*
X0111484Y0254342D01*
X0109858Y0254342D02*
X0106713Y0254342D01*
X0106713Y0256140D02*
X0109129Y0256140D01*
X0109038Y0257939D02*
X0106713Y0257939D01*
X0106713Y0259737D02*
X0109554Y0259737D01*
X0110900Y0261536D02*
X0106713Y0261536D01*
X0106713Y0263334D02*
X0116282Y0263334D01*
X0116282Y0265133D02*
X0106713Y0265133D01*
X0106713Y0266931D02*
X0116886Y0266931D01*
X0118376Y0268730D02*
X0106204Y0268730D01*
X0104912Y0270528D02*
X0137711Y0270528D01*
X0129556Y0268730D02*
X0124987Y0268730D01*
X0124346Y0257939D02*
X0120184Y0257939D01*
X0120093Y0256140D02*
X0126144Y0256140D01*
X0126899Y0254342D02*
X0119364Y0254342D01*
X0117738Y0254342D02*
X0117455Y0254342D01*
X0117553Y0252543D02*
X0122202Y0252543D01*
X0122374Y0252716D02*
X0120666Y0251008D01*
X0122845Y0248829D01*
X0125719Y0251704D01*
X0124707Y0252716D01*
X0124274Y0252966D01*
X0123791Y0253095D01*
X0123291Y0253095D01*
X0122807Y0252966D01*
X0122374Y0252716D01*
X0120929Y0250745D02*
X0120929Y0250745D01*
X0122728Y0248946D02*
X0122728Y0248946D01*
X0122845Y0248829D02*
X0122845Y0248829D01*
X0122962Y0248946D02*
X0122962Y0248946D01*
X0124760Y0250745D02*
X0124760Y0250745D01*
X0124880Y0252543D02*
X0128697Y0252543D01*
X0129556Y0250745D02*
X0126679Y0250745D01*
X0127023Y0248946D02*
X0129556Y0248946D01*
X0129556Y0247148D02*
X0125521Y0247148D01*
X0115939Y0256140D02*
X0115656Y0256140D01*
X0114611Y0257327D02*
X0114611Y0264580D01*
X0087631Y0291560D01*
X0101013Y0277722D02*
X0105218Y0277722D01*
X0107017Y0275924D02*
X0101013Y0275924D01*
X0101315Y0274125D02*
X0108815Y0274125D01*
X0103114Y0272327D02*
X0276077Y0272327D01*
X0277875Y0274125D02*
X0270375Y0274125D01*
X0272174Y0275924D02*
X0278178Y0275924D01*
X0278178Y0277722D02*
X0273972Y0277722D01*
X0274278Y0270528D02*
X0240496Y0270528D01*
X0252587Y0268730D02*
X0254203Y0268730D01*
X0260814Y0268730D02*
X0272987Y0268730D01*
X0272478Y0266931D02*
X0262304Y0266931D01*
X0262909Y0265133D02*
X0272478Y0265133D01*
X0272478Y0263334D02*
X0262909Y0263334D01*
X0264580Y0264580D02*
X0291560Y0291560D01*
X0264580Y0264580D02*
X0264580Y0257327D01*
X0265050Y0257939D02*
X0265333Y0257939D01*
X0265625Y0256140D02*
X0265908Y0256140D01*
X0267424Y0254342D02*
X0267707Y0254342D01*
X0269332Y0254342D02*
X0272478Y0254342D01*
X0272478Y0256140D02*
X0270061Y0256140D01*
X0270153Y0257939D02*
X0272478Y0257939D01*
X0272478Y0259737D02*
X0269637Y0259737D01*
X0268291Y0261536D02*
X0272478Y0261536D01*
X0267131Y0259737D02*
X0266848Y0259737D01*
X0263534Y0256140D02*
X0263251Y0256140D01*
X0261736Y0254342D02*
X0261453Y0254342D01*
X0259827Y0254342D02*
X0252587Y0254342D01*
X0252587Y0252543D02*
X0254310Y0252543D01*
X0254430Y0250745D02*
X0254430Y0250745D01*
X0256229Y0248946D02*
X0256229Y0248946D01*
X0256463Y0248946D02*
X0256463Y0248946D01*
X0258261Y0250745D02*
X0258261Y0250745D01*
X0258787Y0250745D02*
X0272478Y0250745D01*
X0272478Y0252543D02*
X0267522Y0252543D01*
X0272478Y0248946D02*
X0260437Y0248946D01*
X0260337Y0247148D02*
X0272478Y0247148D01*
X0272478Y0245349D02*
X0268335Y0245349D01*
X0268335Y0243551D02*
X0272478Y0243551D01*
X0272478Y0241752D02*
X0269024Y0241752D01*
X0269769Y0239954D02*
X0272478Y0239954D01*
X0272478Y0238155D02*
X0269798Y0238155D01*
X0269228Y0236357D02*
X0272478Y0236357D01*
X0272478Y0234558D02*
X0268335Y0234558D01*
X0268335Y0232760D02*
X0272478Y0232760D01*
X0272478Y0230961D02*
X0269351Y0230961D01*
X0269798Y0229163D02*
X0272478Y0229163D01*
X0272478Y0227364D02*
X0269645Y0227364D01*
X0268793Y0225566D02*
X0272478Y0225566D01*
X0272478Y0223767D02*
X0268335Y0223767D01*
X0268875Y0221968D02*
X0272478Y0221968D01*
X0272478Y0220170D02*
X0269679Y0220170D01*
X0269798Y0218371D02*
X0272478Y0218371D01*
X0272478Y0216573D02*
X0269318Y0216573D01*
X0268335Y0214774D02*
X0272478Y0214774D01*
X0272478Y0212976D02*
X0268335Y0212976D01*
X0269262Y0211177D02*
X0272478Y0211177D01*
X0272478Y0209379D02*
X0269798Y0209379D01*
X0269735Y0207580D02*
X0272478Y0207580D01*
X0272478Y0205782D02*
X0268990Y0205782D01*
X0268335Y0203983D02*
X0272478Y0203983D01*
X0272478Y0202185D02*
X0268658Y0202185D01*
X0269590Y0200386D02*
X0272478Y0200386D01*
X0272478Y0198588D02*
X0269798Y0198588D01*
X0269407Y0196789D02*
X0272478Y0196789D01*
X0272478Y0194991D02*
X0268335Y0194991D01*
X0268335Y0193192D02*
X0272478Y0193192D01*
X0272478Y0191394D02*
X0269172Y0191394D01*
X0269798Y0189595D02*
X0272478Y0189595D01*
X0272478Y0187797D02*
X0269798Y0187797D01*
X0269080Y0185998D02*
X0272478Y0185998D01*
X0272478Y0184200D02*
X0268335Y0184200D01*
X0268335Y0182401D02*
X0272478Y0182401D01*
X0272478Y0180603D02*
X0268335Y0180603D01*
X0268335Y0178804D02*
X0272478Y0178804D01*
X0272478Y0177006D02*
X0268335Y0177006D01*
X0268335Y0175207D02*
X0272478Y0175207D01*
X0272478Y0173409D02*
X0268335Y0173409D01*
X0268335Y0171610D02*
X0272478Y0171610D01*
X0272478Y0169812D02*
X0268335Y0169812D01*
X0268335Y0168013D02*
X0272478Y0168013D01*
X0272478Y0166215D02*
X0268335Y0166215D01*
X0268335Y0164416D02*
X0272478Y0164416D01*
X0272478Y0162618D02*
X0268335Y0162618D01*
X0268438Y0160819D02*
X0272478Y0160819D01*
X0272478Y0159021D02*
X0269842Y0159021D01*
X0268335Y0150422D02*
X0268335Y0150422D01*
X0268238Y0126647D02*
X0268521Y0126647D01*
X0268699Y0126647D02*
X0272478Y0126647D01*
X0272478Y0124849D02*
X0269818Y0124849D01*
X0270180Y0123050D02*
X0272478Y0123050D01*
X0272478Y0121252D02*
X0269949Y0121252D01*
X0269036Y0119453D02*
X0272478Y0119453D01*
X0272478Y0117655D02*
X0266720Y0117655D01*
X0267832Y0119453D02*
X0268115Y0119453D01*
X0266317Y0121252D02*
X0266034Y0121252D01*
X0266440Y0124849D02*
X0266723Y0124849D01*
X0259342Y0124849D02*
X0254556Y0124849D01*
X0254556Y0123050D02*
X0258980Y0123050D01*
X0259210Y0121252D02*
X0255340Y0121252D01*
X0262909Y0115856D02*
X0272478Y0115856D01*
X0272478Y0114058D02*
X0262642Y0114058D01*
X0261628Y0112259D02*
X0272478Y0112259D01*
X0261637Y0252543D02*
X0256989Y0252543D01*
X0259098Y0256140D02*
X0253047Y0256140D01*
X0254845Y0257939D02*
X0259007Y0257939D01*
X0227278Y0270528D02*
X0191775Y0270528D01*
X0184660Y0270528D02*
X0182720Y0270528D01*
X0175604Y0270528D02*
X0150929Y0270528D01*
X0114141Y0257939D02*
X0113858Y0257939D01*
X0113565Y0256140D02*
X0113282Y0256140D01*
X0112342Y0259737D02*
X0112059Y0259737D01*
D33*
X0203217Y0132351D02*
X0209280Y0132351D01*
X0203217Y0132351D02*
X0189595Y0118729D01*
X0189595Y0114792D01*
X0199595Y0114792D02*
X0199595Y0111013D01*
X0199438Y0110855D01*
M02*
