G75*
%MOIN*%
%OFA0B0*%
%FSLAX25Y25*%
%IPPOS*%
%LPD*%
%AMOC8*
5,1,8,0,0,1.08239X$1,22.5*
%
%ADD10R,0.07100X0.07100*%
%ADD11OC8,0.07100*%
%ADD12C,0.07400*%
%ADD13C,0.04356*%
%ADD14C,0.01102*%
D10*
X0239713Y0199595D03*
D11*
X0239713Y0189595D03*
X0239713Y0179595D03*
X0249713Y0179595D03*
X0249713Y0189595D03*
X0249713Y0199595D03*
D12*
X0264398Y0198808D03*
X0264398Y0208808D03*
X0264398Y0218808D03*
X0264398Y0228808D03*
X0264398Y0238808D03*
X0264580Y0257327D03*
X0257509Y0264398D03*
X0264398Y0188808D03*
X0209280Y0142351D03*
X0209280Y0132351D03*
X0199595Y0114792D03*
X0189595Y0114792D03*
X0179595Y0114792D03*
X0121879Y0114595D03*
X0114808Y0121666D03*
X0114792Y0138414D03*
X0114792Y0148414D03*
X0114792Y0158414D03*
X0114792Y0168414D03*
X0114792Y0178414D03*
X0114792Y0188414D03*
X0114611Y0257327D03*
X0121682Y0264398D03*
X0264580Y0122847D03*
X0257509Y0115776D03*
D13*
X0237824Y0142351D03*
X0237824Y0170894D03*
X0215186Y0202391D03*
X0204359Y0192548D03*
X0196288Y0191170D03*
X0190776Y0188414D03*
X0190580Y0182706D03*
X0184674Y0176800D03*
X0171682Y0169123D03*
X0165973Y0164989D03*
X0155146Y0160068D03*
X0137430Y0146288D03*
X0161052Y0185658D03*
X0163020Y0197469D03*
X0156131Y0212233D03*
X0156131Y0223060D03*
X0151209Y0225028D03*
X0146288Y0226013D03*
X0141367Y0225028D03*
X0136446Y0223060D03*
X0135461Y0205343D03*
X0163020Y0237824D03*
X0158099Y0254556D03*
X0191564Y0243729D03*
X0208296Y0236839D03*
X0214202Y0259477D03*
X0235855Y0238808D03*
X0245698Y0248650D03*
X0188611Y0208296D03*
X0053769Y0325422D03*
X0325422Y0325422D03*
X0325422Y0053769D03*
X0053769Y0053769D03*
D14*
X0047863Y0052106D02*
X0047863Y0047863D01*
X0052106Y0047863D01*
X0108287Y0104044D01*
X0109792Y0105549D01*
X0111759Y0106364D01*
X0267431Y0106364D01*
X0269398Y0105549D01*
X0327084Y0047863D01*
X0331328Y0047863D01*
X0331328Y0052106D01*
X0275147Y0108287D01*
X0273641Y0109792D01*
X0272827Y0111759D01*
X0272827Y0267431D01*
X0273641Y0269398D01*
X0331328Y0327084D01*
X0331328Y0331328D01*
X0327084Y0331328D01*
X0270903Y0275147D01*
X0269398Y0273641D01*
X0267431Y0272827D01*
X0111759Y0272827D01*
X0109792Y0273641D01*
X0108287Y0275147D01*
X0108287Y0275147D01*
X0052106Y0331328D01*
X0047863Y0331328D01*
X0047863Y0327084D01*
X0104044Y0270903D01*
X0104044Y0270903D01*
X0105549Y0269398D01*
X0106364Y0267431D01*
X0106364Y0246682D01*
X0132509Y0246682D01*
X0132509Y0193532D01*
X0116033Y0193532D01*
X0116808Y0193281D01*
X0117544Y0192905D01*
X0118213Y0192420D01*
X0118797Y0191835D01*
X0119283Y0191166D01*
X0119659Y0190430D01*
X0119914Y0189644D01*
X0120038Y0188863D01*
X0115241Y0188863D01*
X0115241Y0187965D01*
X0120038Y0187965D01*
X0119914Y0187185D01*
X0119659Y0186398D01*
X0119283Y0185662D01*
X0118797Y0184993D01*
X0118213Y0184409D01*
X0117544Y0183923D01*
X0116808Y0183548D01*
X0116130Y0183327D01*
X0117653Y0182696D01*
X0119074Y0181275D01*
X0119843Y0179419D01*
X0119843Y0177409D01*
X0119074Y0175553D01*
X0117653Y0174132D01*
X0115920Y0173414D01*
X0117653Y0172696D01*
X0119074Y0171275D01*
X0119843Y0169419D01*
X0119843Y0167409D01*
X0119074Y0165553D01*
X0117653Y0164132D01*
X0115920Y0163414D01*
X0117653Y0162696D01*
X0119074Y0161275D01*
X0119843Y0159419D01*
X0119843Y0157409D01*
X0119074Y0155553D01*
X0117653Y0154132D01*
X0115920Y0153414D01*
X0117653Y0152696D01*
X0119074Y0151275D01*
X0119843Y0149419D01*
X0119843Y0147409D01*
X0119074Y0145553D01*
X0117653Y0144132D01*
X0115920Y0143414D01*
X0117653Y0142696D01*
X0119074Y0141275D01*
X0119843Y0139419D01*
X0119843Y0137409D01*
X0119074Y0135553D01*
X0117653Y0134132D01*
X0115797Y0133363D01*
X0113787Y0133363D01*
X0111931Y0134132D01*
X0110510Y0135553D01*
X0109741Y0137409D01*
X0109741Y0139419D01*
X0110510Y0141275D01*
X0111931Y0142696D01*
X0113664Y0143414D01*
X0111931Y0144132D01*
X0110510Y0145553D01*
X0109741Y0147409D01*
X0109741Y0149419D01*
X0110510Y0151275D01*
X0111931Y0152696D01*
X0113664Y0153414D01*
X0111931Y0154132D01*
X0110510Y0155553D01*
X0109741Y0157409D01*
X0109741Y0159419D01*
X0110510Y0161275D01*
X0111931Y0162696D01*
X0113664Y0163414D01*
X0111931Y0164132D01*
X0110510Y0165553D01*
X0109741Y0167409D01*
X0109741Y0169419D01*
X0110510Y0171275D01*
X0111931Y0172696D01*
X0113664Y0173414D01*
X0111931Y0174132D01*
X0110510Y0175553D01*
X0109741Y0177409D01*
X0109741Y0179419D01*
X0110510Y0181275D01*
X0111931Y0182696D01*
X0113454Y0183327D01*
X0112776Y0183548D01*
X0112040Y0183923D01*
X0111371Y0184409D01*
X0110787Y0184993D01*
X0110301Y0185662D01*
X0109926Y0186398D01*
X0109670Y0187185D01*
X0109547Y0187965D01*
X0114343Y0187965D01*
X0114343Y0188863D01*
X0109547Y0188863D01*
X0109670Y0189644D01*
X0109926Y0190430D01*
X0110301Y0191166D01*
X0110787Y0191835D01*
X0111371Y0192420D01*
X0112040Y0192905D01*
X0112776Y0193281D01*
X0113551Y0193532D01*
X0106364Y0193532D01*
X0106364Y0111759D01*
X0105549Y0109792D01*
X0047863Y0052106D01*
X0047863Y0051986D02*
X0056229Y0051986D01*
X0055129Y0050885D02*
X0047863Y0050885D01*
X0047863Y0049784D02*
X0054028Y0049784D01*
X0052927Y0048683D02*
X0047863Y0048683D01*
X0048844Y0053087D02*
X0057330Y0053087D01*
X0058431Y0054188D02*
X0049945Y0054188D01*
X0051045Y0055289D02*
X0059532Y0055289D01*
X0060633Y0056390D02*
X0052146Y0056390D01*
X0053247Y0057490D02*
X0061734Y0057490D01*
X0062835Y0058591D02*
X0054348Y0058591D01*
X0055449Y0059692D02*
X0063936Y0059692D01*
X0065036Y0060793D02*
X0056550Y0060793D01*
X0057651Y0061894D02*
X0066137Y0061894D01*
X0067238Y0062995D02*
X0058752Y0062995D01*
X0059852Y0064096D02*
X0068339Y0064096D01*
X0069440Y0065197D02*
X0060953Y0065197D01*
X0062054Y0066297D02*
X0070541Y0066297D01*
X0071642Y0067398D02*
X0063155Y0067398D01*
X0064256Y0068499D02*
X0072743Y0068499D01*
X0073843Y0069600D02*
X0065357Y0069600D01*
X0066458Y0070701D02*
X0074944Y0070701D01*
X0076045Y0071802D02*
X0067558Y0071802D01*
X0068659Y0072903D02*
X0077146Y0072903D01*
X0078247Y0074004D02*
X0069760Y0074004D01*
X0070861Y0075104D02*
X0079348Y0075104D01*
X0080449Y0076205D02*
X0071962Y0076205D01*
X0073063Y0077306D02*
X0081549Y0077306D01*
X0082650Y0078407D02*
X0074164Y0078407D01*
X0075265Y0079508D02*
X0083751Y0079508D01*
X0084852Y0080609D02*
X0076365Y0080609D01*
X0077466Y0081710D02*
X0085953Y0081710D01*
X0087054Y0082811D02*
X0078567Y0082811D01*
X0079668Y0083911D02*
X0088155Y0083911D01*
X0089256Y0085012D02*
X0080769Y0085012D01*
X0081870Y0086113D02*
X0090356Y0086113D01*
X0091457Y0087214D02*
X0082971Y0087214D01*
X0084072Y0088315D02*
X0092558Y0088315D01*
X0093659Y0089416D02*
X0085172Y0089416D01*
X0086273Y0090517D02*
X0094760Y0090517D01*
X0095861Y0091618D02*
X0087374Y0091618D01*
X0088475Y0092718D02*
X0096962Y0092718D01*
X0098063Y0093819D02*
X0089576Y0093819D01*
X0090677Y0094920D02*
X0099163Y0094920D01*
X0100264Y0096021D02*
X0091778Y0096021D01*
X0092879Y0097122D02*
X0101365Y0097122D01*
X0102466Y0098223D02*
X0093979Y0098223D01*
X0095080Y0099324D02*
X0103567Y0099324D01*
X0104668Y0100425D02*
X0096181Y0100425D01*
X0097282Y0101525D02*
X0105769Y0101525D01*
X0106870Y0102626D02*
X0098383Y0102626D01*
X0099484Y0103727D02*
X0107970Y0103727D01*
X0109071Y0104828D02*
X0100585Y0104828D01*
X0101686Y0105929D02*
X0110709Y0105929D01*
X0104988Y0109232D02*
X0274202Y0109232D01*
X0273418Y0110332D02*
X0202028Y0110332D01*
X0202457Y0110510D02*
X0203877Y0111931D01*
X0204646Y0113787D01*
X0204646Y0115797D01*
X0203877Y0117653D01*
X0202457Y0119074D01*
X0200600Y0119843D01*
X0198591Y0119843D01*
X0196734Y0119074D01*
X0195313Y0117653D01*
X0194595Y0115920D01*
X0193877Y0117653D01*
X0192457Y0119074D01*
X0190600Y0119843D01*
X0188591Y0119843D01*
X0186734Y0119074D01*
X0185313Y0117653D01*
X0184595Y0115920D01*
X0183877Y0117653D01*
X0182457Y0119074D01*
X0180600Y0119843D01*
X0178591Y0119843D01*
X0176734Y0119074D01*
X0175313Y0117653D01*
X0174544Y0115797D01*
X0174544Y0113787D01*
X0175313Y0111931D01*
X0176734Y0110510D01*
X0178591Y0109741D01*
X0180600Y0109741D01*
X0182457Y0110510D01*
X0183877Y0111931D01*
X0184595Y0113664D01*
X0185313Y0111931D01*
X0186734Y0110510D01*
X0188591Y0109741D01*
X0190600Y0109741D01*
X0192457Y0110510D01*
X0193877Y0111931D01*
X0194595Y0113664D01*
X0195313Y0111931D01*
X0196734Y0110510D01*
X0198591Y0109741D01*
X0200600Y0109741D01*
X0202457Y0110510D01*
X0203380Y0111433D02*
X0254795Y0111433D01*
X0254647Y0111494D02*
X0256504Y0110725D01*
X0258513Y0110725D01*
X0260370Y0111494D01*
X0261791Y0112915D01*
X0262560Y0114772D01*
X0262560Y0116781D01*
X0261842Y0118514D01*
X0263575Y0117796D01*
X0265584Y0117796D01*
X0267441Y0118565D01*
X0268862Y0119986D01*
X0269631Y0121843D01*
X0269631Y0123852D01*
X0268862Y0125709D01*
X0267441Y0127130D01*
X0265584Y0127899D01*
X0263575Y0127899D01*
X0261718Y0127130D01*
X0260298Y0125709D01*
X0259529Y0123852D01*
X0259529Y0121843D01*
X0260246Y0120110D01*
X0258513Y0120828D01*
X0256504Y0120828D01*
X0254647Y0120059D01*
X0253226Y0118638D01*
X0252457Y0116781D01*
X0252457Y0114772D01*
X0253226Y0112915D01*
X0254647Y0111494D01*
X0253607Y0112534D02*
X0204127Y0112534D01*
X0204583Y0113635D02*
X0252928Y0113635D01*
X0252472Y0114736D02*
X0204646Y0114736D01*
X0204630Y0115837D02*
X0252457Y0115837D01*
X0252522Y0116938D02*
X0204174Y0116938D01*
X0203492Y0118038D02*
X0252978Y0118038D01*
X0253728Y0119139D02*
X0202299Y0119139D01*
X0196891Y0119139D02*
X0192299Y0119139D01*
X0193492Y0118038D02*
X0195698Y0118038D01*
X0195017Y0116938D02*
X0194174Y0116938D01*
X0194583Y0113635D02*
X0194607Y0113635D01*
X0195063Y0112534D02*
X0194127Y0112534D01*
X0193380Y0111433D02*
X0195811Y0111433D01*
X0197163Y0110332D02*
X0192028Y0110332D01*
X0187163Y0110332D02*
X0182028Y0110332D01*
X0183380Y0111433D02*
X0185811Y0111433D01*
X0185063Y0112534D02*
X0184127Y0112534D01*
X0184583Y0113635D02*
X0184607Y0113635D01*
X0185017Y0116938D02*
X0184174Y0116938D01*
X0183492Y0118038D02*
X0185698Y0118038D01*
X0186891Y0119139D02*
X0182299Y0119139D01*
X0176891Y0119139D02*
X0124108Y0119139D01*
X0124740Y0118877D02*
X0122883Y0119646D01*
X0120874Y0119646D01*
X0119141Y0118929D01*
X0119859Y0120662D01*
X0119859Y0122671D01*
X0119090Y0124528D01*
X0117669Y0125949D01*
X0115812Y0126718D01*
X0113803Y0126718D01*
X0111946Y0125949D01*
X0110525Y0124528D01*
X0109756Y0122671D01*
X0109756Y0120662D01*
X0110525Y0118805D01*
X0111946Y0117384D01*
X0113803Y0116615D01*
X0115812Y0116615D01*
X0117545Y0117333D01*
X0116828Y0115600D01*
X0116828Y0113591D01*
X0117597Y0111734D01*
X0119017Y0110313D01*
X0120874Y0109544D01*
X0122883Y0109544D01*
X0124740Y0110313D01*
X0126161Y0111734D01*
X0126930Y0113591D01*
X0126930Y0115600D01*
X0126161Y0117457D01*
X0124740Y0118877D01*
X0125579Y0118038D02*
X0175698Y0118038D01*
X0175017Y0116938D02*
X0126376Y0116938D01*
X0126832Y0115837D02*
X0174561Y0115837D01*
X0174544Y0114736D02*
X0126930Y0114736D01*
X0126930Y0113635D02*
X0174607Y0113635D01*
X0175063Y0112534D02*
X0126492Y0112534D01*
X0125860Y0111433D02*
X0175811Y0111433D01*
X0177163Y0110332D02*
X0124759Y0110332D01*
X0118998Y0110332D02*
X0105773Y0110332D01*
X0106229Y0111433D02*
X0117897Y0111433D01*
X0117265Y0112534D02*
X0106364Y0112534D01*
X0106364Y0113635D02*
X0116828Y0113635D01*
X0116828Y0114736D02*
X0106364Y0114736D01*
X0106364Y0115837D02*
X0116926Y0115837D01*
X0116591Y0116938D02*
X0117382Y0116938D01*
X0119228Y0119139D02*
X0119650Y0119139D01*
X0119684Y0120240D02*
X0255086Y0120240D01*
X0259736Y0121341D02*
X0119859Y0121341D01*
X0119859Y0122442D02*
X0259529Y0122442D01*
X0259529Y0123543D02*
X0119498Y0123543D01*
X0118974Y0124644D02*
X0259856Y0124644D01*
X0260333Y0125745D02*
X0117873Y0125745D01*
X0111742Y0125745D02*
X0106364Y0125745D01*
X0106364Y0126845D02*
X0261434Y0126845D01*
X0267725Y0126845D02*
X0272827Y0126845D01*
X0272827Y0125745D02*
X0268826Y0125745D01*
X0269303Y0124644D02*
X0272827Y0124644D01*
X0272827Y0123543D02*
X0269631Y0123543D01*
X0269631Y0122442D02*
X0272827Y0122442D01*
X0272827Y0121341D02*
X0269423Y0121341D01*
X0268967Y0120240D02*
X0272827Y0120240D01*
X0272827Y0119139D02*
X0268015Y0119139D01*
X0266169Y0118038D02*
X0272827Y0118038D01*
X0272827Y0116938D02*
X0262495Y0116938D01*
X0262560Y0115837D02*
X0272827Y0115837D01*
X0272827Y0114736D02*
X0262545Y0114736D01*
X0262089Y0113635D02*
X0272827Y0113635D01*
X0272827Y0112534D02*
X0261410Y0112534D01*
X0260223Y0111433D02*
X0272962Y0111433D01*
X0275303Y0108131D02*
X0103887Y0108131D01*
X0102786Y0107030D02*
X0276404Y0107030D01*
X0277505Y0105929D02*
X0268481Y0105929D01*
X0270119Y0104828D02*
X0278606Y0104828D01*
X0279707Y0103727D02*
X0271220Y0103727D01*
X0272321Y0102626D02*
X0280808Y0102626D01*
X0281908Y0101525D02*
X0273422Y0101525D01*
X0274523Y0100425D02*
X0283009Y0100425D01*
X0284110Y0099324D02*
X0275624Y0099324D01*
X0276724Y0098223D02*
X0285211Y0098223D01*
X0286312Y0097122D02*
X0277825Y0097122D01*
X0278926Y0096021D02*
X0287413Y0096021D01*
X0288514Y0094920D02*
X0280027Y0094920D01*
X0281128Y0093819D02*
X0289615Y0093819D01*
X0290715Y0092718D02*
X0282229Y0092718D01*
X0283330Y0091618D02*
X0291816Y0091618D01*
X0292917Y0090517D02*
X0284431Y0090517D01*
X0285531Y0089416D02*
X0294018Y0089416D01*
X0295119Y0088315D02*
X0286632Y0088315D01*
X0287733Y0087214D02*
X0296220Y0087214D01*
X0297321Y0086113D02*
X0288834Y0086113D01*
X0289935Y0085012D02*
X0298422Y0085012D01*
X0299522Y0083911D02*
X0291036Y0083911D01*
X0292137Y0082811D02*
X0300623Y0082811D01*
X0301724Y0081710D02*
X0293238Y0081710D01*
X0294338Y0080609D02*
X0302825Y0080609D01*
X0303926Y0079508D02*
X0295439Y0079508D01*
X0296540Y0078407D02*
X0305027Y0078407D01*
X0306128Y0077306D02*
X0297641Y0077306D01*
X0298742Y0076205D02*
X0307229Y0076205D01*
X0308329Y0075104D02*
X0299843Y0075104D01*
X0300944Y0074004D02*
X0309430Y0074004D01*
X0310531Y0072903D02*
X0302045Y0072903D01*
X0303145Y0071802D02*
X0311632Y0071802D01*
X0312733Y0070701D02*
X0304246Y0070701D01*
X0305347Y0069600D02*
X0313834Y0069600D01*
X0314935Y0068499D02*
X0306448Y0068499D01*
X0307549Y0067398D02*
X0316036Y0067398D01*
X0317136Y0066297D02*
X0308650Y0066297D01*
X0309751Y0065197D02*
X0318237Y0065197D01*
X0319338Y0064096D02*
X0310852Y0064096D01*
X0311952Y0062995D02*
X0320439Y0062995D01*
X0321540Y0061894D02*
X0313053Y0061894D01*
X0314154Y0060793D02*
X0322641Y0060793D01*
X0323742Y0059692D02*
X0315255Y0059692D01*
X0316356Y0058591D02*
X0324843Y0058591D01*
X0325943Y0057490D02*
X0317457Y0057490D01*
X0318558Y0056390D02*
X0327044Y0056390D01*
X0328145Y0055289D02*
X0319659Y0055289D01*
X0320759Y0054188D02*
X0329246Y0054188D01*
X0330347Y0053087D02*
X0321860Y0053087D01*
X0322961Y0051986D02*
X0331328Y0051986D01*
X0331328Y0050885D02*
X0324062Y0050885D01*
X0325163Y0049784D02*
X0331328Y0049784D01*
X0331328Y0048683D02*
X0326264Y0048683D01*
X0262990Y0118038D02*
X0262039Y0118038D01*
X0260192Y0120240D02*
X0259931Y0120240D01*
X0272827Y0127946D02*
X0211845Y0127946D01*
X0212142Y0128069D02*
X0213562Y0129490D01*
X0214331Y0131346D01*
X0214331Y0133356D01*
X0213562Y0135212D01*
X0212142Y0136633D01*
X0210618Y0137264D01*
X0211296Y0137485D01*
X0212033Y0137860D01*
X0212701Y0138346D01*
X0213286Y0138930D01*
X0213772Y0139599D01*
X0214147Y0140335D01*
X0214402Y0141122D01*
X0214526Y0141902D01*
X0209729Y0141902D01*
X0209729Y0142800D01*
X0208831Y0142800D01*
X0208831Y0141902D01*
X0204035Y0141902D01*
X0204158Y0141122D01*
X0204414Y0140335D01*
X0204789Y0139599D01*
X0205275Y0138930D01*
X0205859Y0138346D01*
X0206528Y0137860D01*
X0207265Y0137485D01*
X0207943Y0137264D01*
X0206419Y0136633D01*
X0204998Y0135212D01*
X0204229Y0133356D01*
X0204229Y0131346D01*
X0204998Y0129490D01*
X0206419Y0128069D01*
X0208276Y0127300D01*
X0210285Y0127300D01*
X0212142Y0128069D01*
X0213120Y0129047D02*
X0272827Y0129047D01*
X0272827Y0130148D02*
X0213835Y0130148D01*
X0214291Y0131249D02*
X0272827Y0131249D01*
X0272827Y0132350D02*
X0214331Y0132350D01*
X0214292Y0133451D02*
X0272827Y0133451D01*
X0272827Y0134552D02*
X0213836Y0134552D01*
X0213122Y0135652D02*
X0272827Y0135652D01*
X0272827Y0136753D02*
X0211852Y0136753D01*
X0212021Y0137854D02*
X0272827Y0137854D01*
X0272827Y0138955D02*
X0238847Y0138955D01*
X0238526Y0138822D02*
X0239823Y0139359D01*
X0240815Y0140352D01*
X0241353Y0141649D01*
X0241353Y0143053D01*
X0240815Y0144350D01*
X0239823Y0145343D01*
X0239726Y0145383D01*
X0239726Y0167863D01*
X0239823Y0167903D01*
X0240815Y0168895D01*
X0241353Y0170192D01*
X0241353Y0171596D01*
X0240815Y0172894D01*
X0239823Y0173886D01*
X0238526Y0174424D01*
X0237122Y0174424D01*
X0235825Y0173886D01*
X0234832Y0172894D01*
X0234294Y0171596D01*
X0234294Y0170192D01*
X0234832Y0168895D01*
X0235825Y0167903D01*
X0235921Y0167863D01*
X0235921Y0145383D01*
X0235825Y0145343D01*
X0234832Y0144350D01*
X0234294Y0143053D01*
X0234294Y0141649D01*
X0234832Y0140352D01*
X0235825Y0139359D01*
X0237122Y0138822D01*
X0238526Y0138822D01*
X0236800Y0138955D02*
X0213304Y0138955D01*
X0214004Y0140056D02*
X0235128Y0140056D01*
X0234498Y0141157D02*
X0214408Y0141157D01*
X0214526Y0142800D02*
X0214402Y0143581D01*
X0214147Y0144367D01*
X0213772Y0145103D01*
X0213286Y0145772D01*
X0212701Y0146357D01*
X0212033Y0146842D01*
X0211296Y0147218D01*
X0210510Y0147473D01*
X0209729Y0147597D01*
X0209729Y0142800D01*
X0214526Y0142800D01*
X0214437Y0143359D02*
X0234421Y0143359D01*
X0234294Y0142258D02*
X0209729Y0142258D01*
X0208831Y0142258D02*
X0118092Y0142258D01*
X0119123Y0141157D02*
X0204153Y0141157D01*
X0204556Y0140056D02*
X0119579Y0140056D01*
X0119843Y0138955D02*
X0205257Y0138955D01*
X0206539Y0137854D02*
X0119843Y0137854D01*
X0119572Y0136753D02*
X0206709Y0136753D01*
X0205438Y0135652D02*
X0119116Y0135652D01*
X0118073Y0134552D02*
X0204724Y0134552D01*
X0204268Y0133451D02*
X0116009Y0133451D01*
X0113576Y0133451D02*
X0106364Y0133451D01*
X0106364Y0134552D02*
X0111511Y0134552D01*
X0110469Y0135652D02*
X0106364Y0135652D01*
X0106364Y0136753D02*
X0110013Y0136753D01*
X0109741Y0137854D02*
X0106364Y0137854D01*
X0106364Y0138955D02*
X0109741Y0138955D01*
X0110005Y0140056D02*
X0106364Y0140056D01*
X0106364Y0141157D02*
X0110461Y0141157D01*
X0111492Y0142258D02*
X0106364Y0142258D01*
X0106364Y0143359D02*
X0113530Y0143359D01*
X0111603Y0144459D02*
X0106364Y0144459D01*
X0106364Y0145560D02*
X0110507Y0145560D01*
X0110051Y0146661D02*
X0106364Y0146661D01*
X0106364Y0147762D02*
X0109741Y0147762D01*
X0109741Y0148863D02*
X0106364Y0148863D01*
X0106364Y0149964D02*
X0109967Y0149964D01*
X0110423Y0151065D02*
X0106364Y0151065D01*
X0106364Y0152166D02*
X0111400Y0152166D01*
X0113307Y0153266D02*
X0106364Y0153266D01*
X0106364Y0154367D02*
X0111696Y0154367D01*
X0110595Y0155468D02*
X0106364Y0155468D01*
X0106364Y0156569D02*
X0110089Y0156569D01*
X0109741Y0157670D02*
X0106364Y0157670D01*
X0106364Y0158771D02*
X0109741Y0158771D01*
X0109928Y0159872D02*
X0106364Y0159872D01*
X0106364Y0160973D02*
X0110384Y0160973D01*
X0111308Y0162073D02*
X0106364Y0162073D01*
X0106364Y0163174D02*
X0113085Y0163174D01*
X0111788Y0164275D02*
X0106364Y0164275D01*
X0106364Y0165376D02*
X0110687Y0165376D01*
X0110127Y0166477D02*
X0106364Y0166477D01*
X0106364Y0167578D02*
X0109741Y0167578D01*
X0109741Y0168679D02*
X0106364Y0168679D01*
X0106364Y0169780D02*
X0109890Y0169780D01*
X0110346Y0170880D02*
X0106364Y0170880D01*
X0106364Y0171981D02*
X0111216Y0171981D01*
X0112862Y0173082D02*
X0106364Y0173082D01*
X0106364Y0174183D02*
X0111880Y0174183D01*
X0110779Y0175284D02*
X0106364Y0175284D01*
X0106364Y0176385D02*
X0110165Y0176385D01*
X0109741Y0177486D02*
X0106364Y0177486D01*
X0106364Y0178587D02*
X0109741Y0178587D01*
X0109852Y0179687D02*
X0106364Y0179687D01*
X0106364Y0180788D02*
X0110308Y0180788D01*
X0111124Y0181889D02*
X0106364Y0181889D01*
X0106364Y0182990D02*
X0112640Y0182990D01*
X0111809Y0184091D02*
X0106364Y0184091D01*
X0106364Y0185192D02*
X0110643Y0185192D01*
X0109980Y0186293D02*
X0106364Y0186293D01*
X0106364Y0187394D02*
X0109637Y0187394D01*
X0109663Y0189595D02*
X0106364Y0189595D01*
X0106364Y0188494D02*
X0114343Y0188494D01*
X0115241Y0188494D02*
X0153244Y0188494D01*
X0153244Y0187394D02*
X0119947Y0187394D01*
X0119605Y0186293D02*
X0153244Y0186293D01*
X0153244Y0185192D02*
X0118942Y0185192D01*
X0117775Y0184091D02*
X0153244Y0184091D01*
X0153244Y0182990D02*
X0116944Y0182990D01*
X0118461Y0181889D02*
X0153244Y0181889D01*
X0153244Y0180788D02*
X0119276Y0180788D01*
X0119732Y0179687D02*
X0153244Y0179687D01*
X0153244Y0178587D02*
X0119843Y0178587D01*
X0119843Y0177486D02*
X0153244Y0177486D01*
X0153244Y0176385D02*
X0119419Y0176385D01*
X0118805Y0175284D02*
X0153244Y0175284D01*
X0153244Y0174183D02*
X0117704Y0174183D01*
X0116722Y0173082D02*
X0153244Y0173082D01*
X0153244Y0171981D02*
X0118368Y0171981D01*
X0119238Y0170880D02*
X0153244Y0170880D01*
X0153244Y0169780D02*
X0119694Y0169780D01*
X0119843Y0168679D02*
X0153244Y0168679D01*
X0153244Y0167578D02*
X0119843Y0167578D01*
X0119457Y0166477D02*
X0153244Y0166477D01*
X0153244Y0165376D02*
X0118897Y0165376D01*
X0117797Y0164275D02*
X0153244Y0164275D01*
X0153244Y0163174D02*
X0116499Y0163174D01*
X0118276Y0162073D02*
X0152161Y0162073D01*
X0152155Y0162067D02*
X0151617Y0160770D01*
X0151617Y0159366D01*
X0152155Y0158069D01*
X0153147Y0157076D01*
X0154444Y0156539D01*
X0155848Y0156539D01*
X0157146Y0157076D01*
X0158138Y0158069D01*
X0158676Y0159366D01*
X0158676Y0160770D01*
X0158138Y0162067D01*
X0157146Y0163060D01*
X0157049Y0163100D01*
X0157049Y0195697D01*
X0159491Y0198140D01*
X0159491Y0196767D01*
X0160029Y0195470D01*
X0161021Y0194477D01*
X0162318Y0193940D01*
X0163722Y0193940D01*
X0165020Y0194477D01*
X0166012Y0195470D01*
X0166052Y0195567D01*
X0221879Y0195567D01*
X0222994Y0196681D01*
X0231000Y0204688D01*
X0231000Y0184870D01*
X0234812Y0181058D01*
X0234812Y0177565D01*
X0237683Y0174694D01*
X0241744Y0174694D01*
X0244612Y0177563D01*
X0244612Y0177482D01*
X0247600Y0174494D01*
X0249265Y0174494D01*
X0249265Y0179146D01*
X0250162Y0179146D01*
X0250162Y0174494D01*
X0251826Y0174494D01*
X0254815Y0177482D01*
X0254815Y0179146D01*
X0250162Y0179146D01*
X0250162Y0180044D01*
X0254815Y0180044D01*
X0254815Y0181708D01*
X0251826Y0184696D01*
X0251746Y0184696D01*
X0254615Y0187565D01*
X0254615Y0191625D01*
X0251744Y0194496D01*
X0247683Y0194496D01*
X0244812Y0191625D01*
X0244812Y0187565D01*
X0247681Y0184696D01*
X0247600Y0184696D01*
X0244612Y0181708D01*
X0244612Y0181628D01*
X0241744Y0184496D01*
X0237683Y0184496D01*
X0237219Y0184032D01*
X0234805Y0186446D01*
X0234805Y0208492D01*
X0237757Y0211445D01*
X0237757Y0235776D01*
X0237854Y0235816D01*
X0238847Y0236809D01*
X0239384Y0238106D01*
X0239384Y0239510D01*
X0238847Y0240807D01*
X0237854Y0241800D01*
X0236557Y0242337D01*
X0235153Y0242337D01*
X0233856Y0241800D01*
X0232863Y0240807D01*
X0232326Y0239510D01*
X0232326Y0238106D01*
X0232863Y0236809D01*
X0233856Y0235816D01*
X0233953Y0235776D01*
X0233953Y0213021D01*
X0232114Y0211183D01*
X0220303Y0199372D01*
X0217120Y0199372D01*
X0217185Y0199399D01*
X0218178Y0200391D01*
X0218715Y0201689D01*
X0218715Y0203093D01*
X0218178Y0204390D01*
X0217185Y0205382D01*
X0217088Y0205422D01*
X0217088Y0230738D01*
X0215974Y0231852D01*
X0211785Y0236041D01*
X0211825Y0236137D01*
X0211825Y0237541D01*
X0211288Y0238838D01*
X0210295Y0239831D01*
X0208998Y0240368D01*
X0207594Y0240368D01*
X0206297Y0239831D01*
X0205304Y0238838D01*
X0204767Y0237541D01*
X0204767Y0236137D01*
X0205304Y0234840D01*
X0206297Y0233848D01*
X0207594Y0233310D01*
X0208998Y0233310D01*
X0209095Y0233350D01*
X0213283Y0229162D01*
X0213283Y0205422D01*
X0213187Y0205382D01*
X0212194Y0204390D01*
X0211657Y0203093D01*
X0211657Y0201689D01*
X0212194Y0200391D01*
X0213187Y0199399D01*
X0213252Y0199372D01*
X0166052Y0199372D01*
X0166012Y0199468D01*
X0165020Y0200461D01*
X0163722Y0200998D01*
X0162350Y0200998D01*
X0167745Y0206394D01*
X0185579Y0206394D01*
X0185619Y0206297D01*
X0186612Y0205304D01*
X0187909Y0204767D01*
X0189313Y0204767D01*
X0190610Y0205304D01*
X0191603Y0206297D01*
X0192140Y0207594D01*
X0192140Y0208998D01*
X0191603Y0210295D01*
X0190610Y0211288D01*
X0189313Y0211825D01*
X0187909Y0211825D01*
X0186612Y0211288D01*
X0185619Y0210295D01*
X0185579Y0210198D01*
X0166169Y0210198D01*
X0154358Y0198387D01*
X0153244Y0197273D01*
X0153244Y0163100D01*
X0153147Y0163060D01*
X0152155Y0162067D01*
X0151701Y0160973D02*
X0119200Y0160973D01*
X0119656Y0159872D02*
X0151617Y0159872D01*
X0151864Y0158771D02*
X0119843Y0158771D01*
X0119843Y0157670D02*
X0152553Y0157670D01*
X0154371Y0156569D02*
X0119495Y0156569D01*
X0118990Y0155468D02*
X0235921Y0155468D01*
X0235921Y0154367D02*
X0117889Y0154367D01*
X0116277Y0153266D02*
X0235921Y0153266D01*
X0235921Y0152166D02*
X0118184Y0152166D01*
X0119162Y0151065D02*
X0235921Y0151065D01*
X0235921Y0149964D02*
X0119618Y0149964D01*
X0119843Y0148863D02*
X0235921Y0148863D01*
X0235921Y0147762D02*
X0119843Y0147762D01*
X0119533Y0146661D02*
X0206279Y0146661D01*
X0206528Y0146842D02*
X0205859Y0146357D01*
X0205275Y0145772D01*
X0204789Y0145103D01*
X0204414Y0144367D01*
X0204158Y0143581D01*
X0204035Y0142800D01*
X0208831Y0142800D01*
X0208831Y0147597D01*
X0208051Y0147473D01*
X0207265Y0147218D01*
X0206528Y0146842D01*
X0205121Y0145560D02*
X0119077Y0145560D01*
X0117981Y0144459D02*
X0204461Y0144459D01*
X0204123Y0143359D02*
X0116055Y0143359D01*
X0106364Y0132350D02*
X0204229Y0132350D01*
X0204269Y0131249D02*
X0106364Y0131249D01*
X0106364Y0130148D02*
X0204725Y0130148D01*
X0205441Y0129047D02*
X0106364Y0129047D01*
X0106364Y0127946D02*
X0206715Y0127946D01*
X0208831Y0143359D02*
X0209729Y0143359D01*
X0209729Y0144459D02*
X0208831Y0144459D01*
X0208831Y0145560D02*
X0209729Y0145560D01*
X0209729Y0146661D02*
X0208831Y0146661D01*
X0212282Y0146661D02*
X0235921Y0146661D01*
X0235921Y0145560D02*
X0213440Y0145560D01*
X0214100Y0144459D02*
X0234941Y0144459D01*
X0237824Y0142351D02*
X0237824Y0170894D01*
X0241353Y0170880D02*
X0272827Y0170880D01*
X0272827Y0169780D02*
X0241182Y0169780D01*
X0240599Y0168679D02*
X0272827Y0168679D01*
X0272827Y0167578D02*
X0239726Y0167578D01*
X0239726Y0166477D02*
X0272827Y0166477D01*
X0272827Y0165376D02*
X0239726Y0165376D01*
X0239726Y0164275D02*
X0272827Y0164275D01*
X0272827Y0163174D02*
X0239726Y0163174D01*
X0239726Y0162073D02*
X0272827Y0162073D01*
X0272827Y0160973D02*
X0239726Y0160973D01*
X0239726Y0159872D02*
X0272827Y0159872D01*
X0272827Y0158771D02*
X0239726Y0158771D01*
X0239726Y0157670D02*
X0272827Y0157670D01*
X0272827Y0156569D02*
X0239726Y0156569D01*
X0239726Y0155468D02*
X0272827Y0155468D01*
X0272827Y0154367D02*
X0239726Y0154367D01*
X0239726Y0153266D02*
X0272827Y0153266D01*
X0272827Y0152166D02*
X0239726Y0152166D01*
X0239726Y0151065D02*
X0272827Y0151065D01*
X0272827Y0149964D02*
X0239726Y0149964D01*
X0239726Y0148863D02*
X0272827Y0148863D01*
X0272827Y0147762D02*
X0239726Y0147762D01*
X0239726Y0146661D02*
X0272827Y0146661D01*
X0272827Y0145560D02*
X0239726Y0145560D01*
X0240706Y0144459D02*
X0272827Y0144459D01*
X0272827Y0143359D02*
X0241226Y0143359D01*
X0241353Y0142258D02*
X0272827Y0142258D01*
X0272827Y0141157D02*
X0241149Y0141157D01*
X0240519Y0140056D02*
X0272827Y0140056D01*
X0272827Y0171981D02*
X0241193Y0171981D01*
X0240627Y0173082D02*
X0272827Y0173082D01*
X0272827Y0174183D02*
X0239106Y0174183D01*
X0237093Y0175284D02*
X0190966Y0175284D01*
X0189866Y0174183D02*
X0236541Y0174183D01*
X0235020Y0173082D02*
X0188765Y0173082D01*
X0187664Y0171981D02*
X0234454Y0171981D01*
X0234294Y0170880D02*
X0186563Y0170880D01*
X0185462Y0169780D02*
X0234466Y0169780D01*
X0235048Y0168679D02*
X0184361Y0168679D01*
X0183260Y0167578D02*
X0235921Y0167578D01*
X0235921Y0166477D02*
X0182159Y0166477D01*
X0181059Y0165376D02*
X0235921Y0165376D01*
X0235921Y0164275D02*
X0179958Y0164275D01*
X0179883Y0164201D02*
X0198191Y0182508D01*
X0198191Y0184084D01*
X0198191Y0188138D01*
X0198287Y0188178D01*
X0199280Y0189171D01*
X0199817Y0190468D01*
X0199817Y0191872D01*
X0199280Y0193169D01*
X0198287Y0194162D01*
X0196990Y0194699D01*
X0195586Y0194699D01*
X0194289Y0194162D01*
X0193296Y0193169D01*
X0192759Y0191872D01*
X0192759Y0191413D01*
X0191478Y0191943D01*
X0190074Y0191943D01*
X0188777Y0191406D01*
X0187785Y0190413D01*
X0187247Y0189116D01*
X0187247Y0187712D01*
X0187345Y0187476D01*
X0172481Y0172612D01*
X0172384Y0172652D01*
X0170980Y0172652D01*
X0169683Y0172115D01*
X0168690Y0171122D01*
X0168153Y0169825D01*
X0168153Y0168421D01*
X0168591Y0167362D01*
X0167972Y0167981D01*
X0166675Y0168518D01*
X0165271Y0168518D01*
X0163974Y0167981D01*
X0162981Y0166988D01*
X0162444Y0165691D01*
X0162444Y0164287D01*
X0162981Y0162990D01*
X0163974Y0161997D01*
X0165271Y0161460D01*
X0166675Y0161460D01*
X0167972Y0161997D01*
X0168965Y0162990D01*
X0169005Y0163087D01*
X0178769Y0163087D01*
X0179883Y0164201D01*
X0178857Y0163174D02*
X0235921Y0163174D01*
X0235921Y0162073D02*
X0168049Y0162073D01*
X0165973Y0164989D02*
X0177981Y0164989D01*
X0196288Y0183296D01*
X0196288Y0191170D01*
X0199456Y0189595D02*
X0231000Y0189595D01*
X0231000Y0188494D02*
X0198603Y0188494D01*
X0198191Y0187394D02*
X0231000Y0187394D01*
X0231000Y0186293D02*
X0198191Y0186293D01*
X0198191Y0185192D02*
X0231000Y0185192D01*
X0231779Y0184091D02*
X0198191Y0184091D01*
X0198191Y0182990D02*
X0232880Y0182990D01*
X0233981Y0181889D02*
X0197572Y0181889D01*
X0196471Y0180788D02*
X0234812Y0180788D01*
X0234812Y0179687D02*
X0195370Y0179687D01*
X0194269Y0178587D02*
X0234812Y0178587D01*
X0234892Y0177486D02*
X0193168Y0177486D01*
X0192067Y0176385D02*
X0235993Y0176385D01*
X0238965Y0179595D02*
X0232902Y0185658D01*
X0232902Y0209280D01*
X0221091Y0197469D01*
X0163020Y0197469D01*
X0159726Y0196201D02*
X0157552Y0196201D01*
X0157049Y0195100D02*
X0160399Y0195100D01*
X0162177Y0193999D02*
X0157049Y0193999D01*
X0157049Y0192898D02*
X0193184Y0192898D01*
X0192759Y0191797D02*
X0191831Y0191797D01*
X0189721Y0191797D02*
X0157049Y0191797D01*
X0157049Y0190696D02*
X0188067Y0190696D01*
X0187446Y0189595D02*
X0157049Y0189595D01*
X0157049Y0188494D02*
X0187247Y0188494D01*
X0187262Y0187394D02*
X0157049Y0187394D01*
X0157049Y0186293D02*
X0186161Y0186293D01*
X0185060Y0185192D02*
X0157049Y0185192D01*
X0157049Y0184091D02*
X0183960Y0184091D01*
X0182859Y0182990D02*
X0157049Y0182990D01*
X0157049Y0181889D02*
X0181758Y0181889D01*
X0180657Y0180788D02*
X0157049Y0180788D01*
X0157049Y0179687D02*
X0179556Y0179687D01*
X0178455Y0178587D02*
X0157049Y0178587D01*
X0157049Y0177486D02*
X0177354Y0177486D01*
X0176254Y0176385D02*
X0157049Y0176385D01*
X0157049Y0175284D02*
X0175153Y0175284D01*
X0174052Y0174183D02*
X0157049Y0174183D01*
X0157049Y0173082D02*
X0172951Y0173082D01*
X0169549Y0171981D02*
X0157049Y0171981D01*
X0157049Y0170880D02*
X0168590Y0170880D01*
X0168153Y0169780D02*
X0157049Y0169780D01*
X0157049Y0168679D02*
X0168153Y0168679D01*
X0168375Y0167578D02*
X0168502Y0167578D01*
X0171682Y0169123D02*
X0190776Y0188217D01*
X0190776Y0188414D01*
X0190580Y0182706D02*
X0184674Y0176800D01*
X0199817Y0190696D02*
X0231000Y0190696D01*
X0231000Y0191797D02*
X0199817Y0191797D01*
X0199392Y0192898D02*
X0231000Y0192898D01*
X0231000Y0193999D02*
X0198450Y0193999D01*
X0194126Y0193999D02*
X0163864Y0193999D01*
X0165642Y0195100D02*
X0231000Y0195100D01*
X0231000Y0196201D02*
X0222513Y0196201D01*
X0223614Y0197301D02*
X0231000Y0197301D01*
X0231000Y0198402D02*
X0224715Y0198402D01*
X0225816Y0199503D02*
X0231000Y0199503D01*
X0231000Y0200604D02*
X0226916Y0200604D01*
X0228017Y0201705D02*
X0231000Y0201705D01*
X0231000Y0202806D02*
X0229118Y0202806D01*
X0230219Y0203907D02*
X0231000Y0203907D01*
X0234805Y0203907D02*
X0235014Y0203907D01*
X0234812Y0203705D02*
X0234812Y0195486D01*
X0235604Y0194694D01*
X0243823Y0194694D01*
X0244615Y0195486D01*
X0244615Y0203705D01*
X0243823Y0204496D01*
X0235604Y0204496D01*
X0234812Y0203705D01*
X0234805Y0202806D02*
X0234812Y0202806D01*
X0234805Y0201705D02*
X0234812Y0201705D01*
X0234805Y0200604D02*
X0234812Y0200604D01*
X0234805Y0199503D02*
X0234812Y0199503D01*
X0234805Y0198402D02*
X0234812Y0198402D01*
X0234805Y0197301D02*
X0234812Y0197301D01*
X0234805Y0196201D02*
X0234812Y0196201D01*
X0234805Y0195100D02*
X0235198Y0195100D01*
X0234805Y0193999D02*
X0237186Y0193999D01*
X0237683Y0194496D02*
X0234812Y0191625D01*
X0234812Y0187565D01*
X0237683Y0184694D01*
X0241744Y0184694D01*
X0244615Y0187565D01*
X0244615Y0191625D01*
X0241744Y0194496D01*
X0237683Y0194496D01*
X0236085Y0192898D02*
X0234805Y0192898D01*
X0234805Y0191797D02*
X0234984Y0191797D01*
X0234812Y0190696D02*
X0234805Y0190696D01*
X0234805Y0189595D02*
X0234812Y0189595D01*
X0234805Y0188494D02*
X0234812Y0188494D01*
X0234805Y0187394D02*
X0234984Y0187394D01*
X0234958Y0186293D02*
X0236085Y0186293D01*
X0236059Y0185192D02*
X0237186Y0185192D01*
X0237160Y0184091D02*
X0237278Y0184091D01*
X0238965Y0179595D02*
X0239713Y0179595D01*
X0243250Y0182990D02*
X0245894Y0182990D01*
X0244793Y0181889D02*
X0244351Y0181889D01*
X0242149Y0184091D02*
X0246995Y0184091D01*
X0247186Y0185192D02*
X0242241Y0185192D01*
X0243342Y0186293D02*
X0246085Y0186293D01*
X0244984Y0187394D02*
X0244443Y0187394D01*
X0244615Y0188494D02*
X0244812Y0188494D01*
X0244812Y0189595D02*
X0244615Y0189595D01*
X0244615Y0190696D02*
X0244812Y0190696D01*
X0244984Y0191797D02*
X0244443Y0191797D01*
X0243342Y0192898D02*
X0246085Y0192898D01*
X0247186Y0193999D02*
X0242241Y0193999D01*
X0244229Y0195100D02*
X0247278Y0195100D01*
X0247683Y0194694D02*
X0251744Y0194694D01*
X0254615Y0197565D01*
X0254615Y0201625D01*
X0251744Y0204496D01*
X0247683Y0204496D01*
X0244812Y0201625D01*
X0244812Y0197565D01*
X0247683Y0194694D01*
X0246177Y0196201D02*
X0244615Y0196201D01*
X0244615Y0197301D02*
X0245076Y0197301D01*
X0244812Y0198402D02*
X0244615Y0198402D01*
X0244615Y0199503D02*
X0244812Y0199503D01*
X0244812Y0200604D02*
X0244615Y0200604D01*
X0244615Y0201705D02*
X0244892Y0201705D01*
X0244615Y0202806D02*
X0245993Y0202806D01*
X0247093Y0203907D02*
X0244413Y0203907D01*
X0252333Y0203907D02*
X0263032Y0203907D01*
X0263270Y0203808D02*
X0261537Y0203090D01*
X0260116Y0201669D01*
X0259347Y0199813D01*
X0259347Y0197803D01*
X0260116Y0195947D01*
X0261537Y0194526D01*
X0263061Y0193895D01*
X0262383Y0193674D01*
X0261646Y0193299D01*
X0260978Y0192813D01*
X0260393Y0192229D01*
X0259907Y0191560D01*
X0259532Y0190824D01*
X0259277Y0190038D01*
X0259153Y0189257D01*
X0263950Y0189257D01*
X0263950Y0188359D01*
X0264847Y0188359D01*
X0264847Y0183562D01*
X0265628Y0183686D01*
X0266414Y0183941D01*
X0267151Y0184317D01*
X0267819Y0184802D01*
X0268404Y0185387D01*
X0268890Y0186056D01*
X0269265Y0186792D01*
X0269520Y0187578D01*
X0269644Y0188359D01*
X0264847Y0188359D01*
X0264847Y0189257D01*
X0269644Y0189257D01*
X0269520Y0190038D01*
X0269265Y0190824D01*
X0268890Y0191560D01*
X0268404Y0192229D01*
X0267819Y0192813D01*
X0267151Y0193299D01*
X0266414Y0193674D01*
X0265736Y0193895D01*
X0267260Y0194526D01*
X0268681Y0195947D01*
X0269450Y0197803D01*
X0269450Y0199813D01*
X0268681Y0201669D01*
X0267260Y0203090D01*
X0265527Y0203808D01*
X0267260Y0204526D01*
X0268681Y0205947D01*
X0269450Y0207803D01*
X0269450Y0209813D01*
X0268681Y0211669D01*
X0267260Y0213090D01*
X0265527Y0213808D01*
X0267260Y0214526D01*
X0268681Y0215947D01*
X0269450Y0217803D01*
X0269450Y0219813D01*
X0268681Y0221669D01*
X0267260Y0223090D01*
X0265527Y0223808D01*
X0267260Y0224526D01*
X0268681Y0225947D01*
X0269450Y0227803D01*
X0269450Y0229813D01*
X0268681Y0231669D01*
X0267260Y0233090D01*
X0265527Y0233808D01*
X0267260Y0234526D01*
X0268681Y0235947D01*
X0269450Y0237803D01*
X0269450Y0239813D01*
X0268681Y0241669D01*
X0267260Y0243090D01*
X0265403Y0243859D01*
X0263394Y0243859D01*
X0261537Y0243090D01*
X0260116Y0241669D01*
X0259347Y0239813D01*
X0259347Y0237803D01*
X0260116Y0235947D01*
X0261537Y0234526D01*
X0263270Y0233808D01*
X0261537Y0233090D01*
X0260116Y0231669D01*
X0259347Y0229813D01*
X0259347Y0227803D01*
X0260116Y0225947D01*
X0261537Y0224526D01*
X0263270Y0223808D01*
X0261537Y0223090D01*
X0260116Y0221669D01*
X0259347Y0219813D01*
X0259347Y0217803D01*
X0260116Y0215947D01*
X0261537Y0214526D01*
X0263270Y0213808D01*
X0261537Y0213090D01*
X0260116Y0211669D01*
X0259347Y0209813D01*
X0259347Y0207803D01*
X0260116Y0205947D01*
X0261537Y0204526D01*
X0263270Y0203808D01*
X0261253Y0202806D02*
X0253434Y0202806D01*
X0254535Y0201705D02*
X0260152Y0201705D01*
X0259675Y0200604D02*
X0254615Y0200604D01*
X0254615Y0199503D02*
X0259347Y0199503D01*
X0259347Y0198402D02*
X0254615Y0198402D01*
X0254351Y0197301D02*
X0259555Y0197301D01*
X0260011Y0196201D02*
X0253250Y0196201D01*
X0252149Y0195100D02*
X0260963Y0195100D01*
X0262809Y0193999D02*
X0252241Y0193999D01*
X0253342Y0192898D02*
X0261094Y0192898D01*
X0260079Y0191797D02*
X0254443Y0191797D01*
X0254615Y0190696D02*
X0259491Y0190696D01*
X0259207Y0189595D02*
X0254615Y0189595D01*
X0254615Y0188494D02*
X0263950Y0188494D01*
X0263950Y0188359D02*
X0259153Y0188359D01*
X0259277Y0187578D01*
X0259532Y0186792D01*
X0259907Y0186056D01*
X0260393Y0185387D01*
X0260978Y0184802D01*
X0261646Y0184317D01*
X0262383Y0183941D01*
X0263169Y0183686D01*
X0263950Y0183562D01*
X0263950Y0188359D01*
X0264847Y0188494D02*
X0272827Y0188494D01*
X0272827Y0187394D02*
X0269460Y0187394D01*
X0269010Y0186293D02*
X0272827Y0186293D01*
X0272827Y0185192D02*
X0268209Y0185192D01*
X0266708Y0184091D02*
X0272827Y0184091D01*
X0272827Y0182990D02*
X0253533Y0182990D01*
X0254634Y0181889D02*
X0272827Y0181889D01*
X0272827Y0180788D02*
X0254815Y0180788D01*
X0254815Y0178587D02*
X0272827Y0178587D01*
X0272827Y0179687D02*
X0250162Y0179687D01*
X0250162Y0178587D02*
X0249265Y0178587D01*
X0249265Y0177486D02*
X0250162Y0177486D01*
X0250162Y0176385D02*
X0249265Y0176385D01*
X0249265Y0175284D02*
X0250162Y0175284D01*
X0252616Y0175284D02*
X0272827Y0175284D01*
X0272827Y0176385D02*
X0253717Y0176385D01*
X0254815Y0177486D02*
X0272827Y0177486D01*
X0264847Y0184091D02*
X0263950Y0184091D01*
X0263950Y0185192D02*
X0264847Y0185192D01*
X0264847Y0186293D02*
X0263950Y0186293D01*
X0263950Y0187394D02*
X0264847Y0187394D01*
X0262089Y0184091D02*
X0252432Y0184091D01*
X0252241Y0185192D02*
X0260588Y0185192D01*
X0259786Y0186293D02*
X0253342Y0186293D01*
X0254443Y0187394D02*
X0259337Y0187394D01*
X0265988Y0193999D02*
X0272827Y0193999D01*
X0272827Y0195100D02*
X0267834Y0195100D01*
X0268786Y0196201D02*
X0272827Y0196201D01*
X0272827Y0197301D02*
X0269242Y0197301D01*
X0269450Y0198402D02*
X0272827Y0198402D01*
X0272827Y0199503D02*
X0269450Y0199503D01*
X0269122Y0200604D02*
X0272827Y0200604D01*
X0272827Y0201705D02*
X0268645Y0201705D01*
X0267544Y0202806D02*
X0272827Y0202806D01*
X0272827Y0203907D02*
X0265765Y0203907D01*
X0267741Y0205008D02*
X0272827Y0205008D01*
X0272827Y0206108D02*
X0268748Y0206108D01*
X0269204Y0207209D02*
X0272827Y0207209D01*
X0272827Y0208310D02*
X0269450Y0208310D01*
X0269450Y0209411D02*
X0272827Y0209411D01*
X0272827Y0210512D02*
X0269160Y0210512D01*
X0268704Y0211613D02*
X0272827Y0211613D01*
X0272827Y0212714D02*
X0267636Y0212714D01*
X0267649Y0214915D02*
X0272827Y0214915D01*
X0272827Y0213814D02*
X0265543Y0213814D01*
X0263254Y0213814D02*
X0237757Y0213814D01*
X0237757Y0212714D02*
X0261161Y0212714D01*
X0260093Y0211613D02*
X0237757Y0211613D01*
X0236824Y0210512D02*
X0259637Y0210512D01*
X0259347Y0209411D02*
X0235723Y0209411D01*
X0234805Y0208310D02*
X0259347Y0208310D01*
X0259593Y0207209D02*
X0234805Y0207209D01*
X0234805Y0206108D02*
X0260049Y0206108D01*
X0261055Y0205008D02*
X0234805Y0205008D01*
X0232902Y0209280D02*
X0235855Y0212233D01*
X0235855Y0238808D01*
X0233393Y0241336D02*
X0194162Y0241336D01*
X0194556Y0241730D02*
X0195093Y0243027D01*
X0195093Y0244431D01*
X0194556Y0245728D01*
X0193563Y0246721D01*
X0192266Y0247258D01*
X0190862Y0247258D01*
X0189565Y0246721D01*
X0188572Y0245728D01*
X0188532Y0245631D01*
X0168138Y0245631D01*
X0163819Y0241313D01*
X0163722Y0241353D01*
X0162318Y0241353D01*
X0161021Y0240815D01*
X0160029Y0239823D01*
X0159491Y0238526D01*
X0159491Y0237122D01*
X0160029Y0235825D01*
X0161021Y0234832D01*
X0162318Y0234294D01*
X0163722Y0234294D01*
X0165020Y0234832D01*
X0166012Y0235825D01*
X0166550Y0237122D01*
X0166550Y0238526D01*
X0166510Y0238622D01*
X0169714Y0241827D01*
X0188532Y0241827D01*
X0188572Y0241730D01*
X0189565Y0240737D01*
X0190862Y0240200D01*
X0192266Y0240200D01*
X0193563Y0240737D01*
X0194556Y0241730D01*
X0194849Y0242437D02*
X0260884Y0242437D01*
X0259978Y0241336D02*
X0238318Y0241336D01*
X0239084Y0240235D02*
X0259522Y0240235D01*
X0259347Y0239135D02*
X0239384Y0239135D01*
X0239354Y0238034D02*
X0259347Y0238034D01*
X0259708Y0236933D02*
X0238898Y0236933D01*
X0237870Y0235832D02*
X0260231Y0235832D01*
X0261332Y0234731D02*
X0237757Y0234731D01*
X0237757Y0233630D02*
X0262841Y0233630D01*
X0260976Y0232529D02*
X0237757Y0232529D01*
X0237757Y0231428D02*
X0260017Y0231428D01*
X0259561Y0230328D02*
X0237757Y0230328D01*
X0237757Y0229227D02*
X0259347Y0229227D01*
X0259347Y0228126D02*
X0237757Y0228126D01*
X0237757Y0227025D02*
X0259670Y0227025D01*
X0260139Y0225924D02*
X0237757Y0225924D01*
X0237757Y0224823D02*
X0261240Y0224823D01*
X0263064Y0223722D02*
X0237757Y0223722D01*
X0237757Y0222621D02*
X0261069Y0222621D01*
X0260055Y0221521D02*
X0237757Y0221521D01*
X0237757Y0220420D02*
X0259599Y0220420D01*
X0259347Y0219319D02*
X0237757Y0219319D01*
X0237757Y0218218D02*
X0259347Y0218218D01*
X0259631Y0217117D02*
X0237757Y0217117D01*
X0237757Y0216016D02*
X0260087Y0216016D01*
X0261147Y0214915D02*
X0237757Y0214915D01*
X0233953Y0214915D02*
X0217088Y0214915D01*
X0217088Y0213814D02*
X0233953Y0213814D01*
X0233645Y0212714D02*
X0217088Y0212714D01*
X0217088Y0211613D02*
X0232544Y0211613D01*
X0231444Y0210512D02*
X0217088Y0210512D01*
X0217088Y0209411D02*
X0230343Y0209411D01*
X0229242Y0208310D02*
X0217088Y0208310D01*
X0217088Y0207209D02*
X0228141Y0207209D01*
X0227040Y0206108D02*
X0217088Y0206108D01*
X0217560Y0205008D02*
X0225939Y0205008D01*
X0224838Y0203907D02*
X0218378Y0203907D01*
X0218715Y0202806D02*
X0223737Y0202806D01*
X0222637Y0201705D02*
X0218715Y0201705D01*
X0218266Y0200604D02*
X0221536Y0200604D01*
X0220435Y0199503D02*
X0217289Y0199503D01*
X0215186Y0202391D02*
X0215186Y0229950D01*
X0208296Y0236839D01*
X0204767Y0236933D02*
X0166471Y0236933D01*
X0166550Y0238034D02*
X0204971Y0238034D01*
X0205600Y0239135D02*
X0167022Y0239135D01*
X0168123Y0240235D02*
X0190776Y0240235D01*
X0192351Y0240235D02*
X0207273Y0240235D01*
X0209319Y0240235D02*
X0232627Y0240235D01*
X0232326Y0239135D02*
X0210992Y0239135D01*
X0211621Y0238034D02*
X0232356Y0238034D01*
X0232812Y0236933D02*
X0211825Y0236933D01*
X0211994Y0235832D02*
X0233840Y0235832D01*
X0233953Y0234731D02*
X0213095Y0234731D01*
X0214196Y0233630D02*
X0233953Y0233630D01*
X0233953Y0232529D02*
X0215296Y0232529D01*
X0216397Y0231428D02*
X0233953Y0231428D01*
X0233953Y0230328D02*
X0217088Y0230328D01*
X0217088Y0229227D02*
X0233953Y0229227D01*
X0233953Y0228126D02*
X0217088Y0228126D01*
X0217088Y0227025D02*
X0233953Y0227025D01*
X0233953Y0225924D02*
X0217088Y0225924D01*
X0217088Y0224823D02*
X0233953Y0224823D01*
X0233953Y0223722D02*
X0217088Y0223722D01*
X0217088Y0222621D02*
X0233953Y0222621D01*
X0233953Y0221521D02*
X0217088Y0221521D01*
X0217088Y0220420D02*
X0233953Y0220420D01*
X0233953Y0219319D02*
X0217088Y0219319D01*
X0217088Y0218218D02*
X0233953Y0218218D01*
X0233953Y0217117D02*
X0217088Y0217117D01*
X0217088Y0216016D02*
X0233953Y0216016D01*
X0213283Y0216016D02*
X0132509Y0216016D01*
X0132509Y0214915D02*
X0213283Y0214915D01*
X0213283Y0213814D02*
X0132509Y0213814D01*
X0132509Y0212714D02*
X0213283Y0212714D01*
X0213283Y0211613D02*
X0189826Y0211613D01*
X0191386Y0210512D02*
X0213283Y0210512D01*
X0213283Y0209411D02*
X0191969Y0209411D01*
X0192140Y0208310D02*
X0213283Y0208310D01*
X0213283Y0207209D02*
X0191981Y0207209D01*
X0191414Y0206108D02*
X0213283Y0206108D01*
X0212812Y0205008D02*
X0189894Y0205008D01*
X0187328Y0205008D02*
X0166359Y0205008D01*
X0167460Y0206108D02*
X0185808Y0206108D01*
X0188611Y0208296D02*
X0166957Y0208296D01*
X0155146Y0196485D01*
X0155146Y0160068D01*
X0158429Y0158771D02*
X0235921Y0158771D01*
X0235921Y0159872D02*
X0158676Y0159872D01*
X0158592Y0160973D02*
X0235921Y0160973D01*
X0235921Y0157670D02*
X0157740Y0157670D01*
X0155922Y0156569D02*
X0235921Y0156569D01*
X0242333Y0175284D02*
X0246811Y0175284D01*
X0245710Y0176385D02*
X0243434Y0176385D01*
X0244535Y0177486D02*
X0244612Y0177486D01*
X0267703Y0192898D02*
X0272827Y0192898D01*
X0272827Y0191797D02*
X0268717Y0191797D01*
X0269306Y0190696D02*
X0272827Y0190696D01*
X0272827Y0189595D02*
X0269590Y0189595D01*
X0268709Y0216016D02*
X0272827Y0216016D01*
X0272827Y0217117D02*
X0269165Y0217117D01*
X0269450Y0218218D02*
X0272827Y0218218D01*
X0272827Y0219319D02*
X0269450Y0219319D01*
X0269198Y0220420D02*
X0272827Y0220420D01*
X0272827Y0221521D02*
X0268742Y0221521D01*
X0267728Y0222621D02*
X0272827Y0222621D01*
X0272827Y0223722D02*
X0265733Y0223722D01*
X0267557Y0224823D02*
X0272827Y0224823D01*
X0272827Y0225924D02*
X0268658Y0225924D01*
X0269127Y0227025D02*
X0272827Y0227025D01*
X0272827Y0228126D02*
X0269450Y0228126D01*
X0269450Y0229227D02*
X0272827Y0229227D01*
X0272827Y0230328D02*
X0269236Y0230328D01*
X0268780Y0231428D02*
X0272827Y0231428D01*
X0272827Y0232529D02*
X0267820Y0232529D01*
X0265956Y0233630D02*
X0272827Y0233630D01*
X0272827Y0234731D02*
X0267465Y0234731D01*
X0268566Y0235832D02*
X0272827Y0235832D01*
X0272827Y0236933D02*
X0269089Y0236933D01*
X0269450Y0238034D02*
X0272827Y0238034D01*
X0272827Y0239135D02*
X0269450Y0239135D01*
X0269274Y0240235D02*
X0272827Y0240235D01*
X0272827Y0241336D02*
X0268818Y0241336D01*
X0267913Y0242437D02*
X0272827Y0242437D01*
X0272827Y0243538D02*
X0266178Y0243538D01*
X0262619Y0243538D02*
X0195093Y0243538D01*
X0195007Y0244639D02*
X0272827Y0244639D01*
X0272827Y0245740D02*
X0194544Y0245740D01*
X0193274Y0246841D02*
X0272827Y0246841D01*
X0272827Y0247942D02*
X0106364Y0247942D01*
X0106364Y0249042D02*
X0272827Y0249042D01*
X0272827Y0250143D02*
X0106364Y0250143D01*
X0106364Y0251244D02*
X0272827Y0251244D01*
X0272827Y0252345D02*
X0265751Y0252345D01*
X0265584Y0252276D02*
X0267441Y0253045D01*
X0268862Y0254466D01*
X0269631Y0256323D01*
X0269631Y0258332D01*
X0268862Y0260189D01*
X0267441Y0261610D01*
X0265584Y0262379D01*
X0263575Y0262379D01*
X0261842Y0261661D01*
X0262560Y0263394D01*
X0262560Y0265403D01*
X0261791Y0267260D01*
X0260370Y0268681D01*
X0258513Y0269450D01*
X0256504Y0269450D01*
X0254647Y0268681D01*
X0253226Y0267260D01*
X0252457Y0265403D01*
X0252457Y0263394D01*
X0253226Y0261537D01*
X0254647Y0260116D01*
X0256504Y0259347D01*
X0258513Y0259347D01*
X0260246Y0260065D01*
X0259529Y0258332D01*
X0259529Y0256323D01*
X0260298Y0254466D01*
X0261718Y0253045D01*
X0263575Y0252276D01*
X0265584Y0252276D01*
X0263409Y0252345D02*
X0115782Y0252345D01*
X0115616Y0252276D02*
X0117472Y0253045D01*
X0118893Y0254466D01*
X0119662Y0256323D01*
X0119662Y0258332D01*
X0118944Y0260065D01*
X0120677Y0259347D01*
X0122687Y0259347D01*
X0124543Y0260116D01*
X0125964Y0261537D01*
X0126733Y0263394D01*
X0126733Y0265403D01*
X0125964Y0267260D01*
X0124543Y0268681D01*
X0122687Y0269450D01*
X0120677Y0269450D01*
X0118821Y0268681D01*
X0117400Y0267260D01*
X0116631Y0265403D01*
X0116631Y0263394D01*
X0117349Y0261661D01*
X0115616Y0262379D01*
X0113606Y0262379D01*
X0111750Y0261610D01*
X0110329Y0260189D01*
X0109560Y0258332D01*
X0109560Y0256323D01*
X0110329Y0254466D01*
X0111750Y0253045D01*
X0113606Y0252276D01*
X0115616Y0252276D01*
X0113440Y0252345D02*
X0106364Y0252345D01*
X0106364Y0253446D02*
X0111349Y0253446D01*
X0110295Y0254547D02*
X0106364Y0254547D01*
X0106364Y0255648D02*
X0109839Y0255648D01*
X0109560Y0256749D02*
X0106364Y0256749D01*
X0106364Y0257849D02*
X0109560Y0257849D01*
X0109816Y0258950D02*
X0106364Y0258950D01*
X0106364Y0260051D02*
X0110272Y0260051D01*
X0111292Y0261152D02*
X0106364Y0261152D01*
X0106364Y0262253D02*
X0113303Y0262253D01*
X0115919Y0262253D02*
X0117103Y0262253D01*
X0116647Y0263354D02*
X0106364Y0263354D01*
X0106364Y0264455D02*
X0116631Y0264455D01*
X0116694Y0265556D02*
X0106364Y0265556D01*
X0106364Y0266656D02*
X0117150Y0266656D01*
X0117897Y0267757D02*
X0106229Y0267757D01*
X0105773Y0268858D02*
X0119249Y0268858D01*
X0124114Y0268858D02*
X0255076Y0268858D01*
X0253724Y0267757D02*
X0125466Y0267757D01*
X0126214Y0266656D02*
X0252977Y0266656D01*
X0252521Y0265556D02*
X0126670Y0265556D01*
X0126733Y0264455D02*
X0252457Y0264455D01*
X0252474Y0263354D02*
X0126717Y0263354D01*
X0126261Y0262253D02*
X0252930Y0262253D01*
X0253612Y0261152D02*
X0125579Y0261152D01*
X0124386Y0260051D02*
X0254804Y0260051D01*
X0259785Y0258950D02*
X0119406Y0258950D01*
X0119662Y0257849D02*
X0259529Y0257849D01*
X0259529Y0256749D02*
X0119662Y0256749D01*
X0119382Y0255648D02*
X0259808Y0255648D01*
X0260264Y0254547D02*
X0118926Y0254547D01*
X0117873Y0253446D02*
X0261318Y0253446D01*
X0267842Y0253446D02*
X0272827Y0253446D01*
X0272827Y0254547D02*
X0268895Y0254547D01*
X0269351Y0255648D02*
X0272827Y0255648D01*
X0272827Y0256749D02*
X0269631Y0256749D01*
X0269631Y0257849D02*
X0272827Y0257849D01*
X0272827Y0258950D02*
X0269375Y0258950D01*
X0268919Y0260051D02*
X0272827Y0260051D01*
X0272827Y0261152D02*
X0267898Y0261152D01*
X0265888Y0262253D02*
X0272827Y0262253D01*
X0272827Y0263354D02*
X0262543Y0263354D01*
X0262560Y0264455D02*
X0272827Y0264455D01*
X0272827Y0265556D02*
X0262497Y0265556D01*
X0262041Y0266656D02*
X0272827Y0266656D01*
X0272962Y0267757D02*
X0261293Y0267757D01*
X0259941Y0268858D02*
X0273418Y0268858D01*
X0274202Y0269959D02*
X0104988Y0269959D01*
X0103887Y0271060D02*
X0275303Y0271060D01*
X0276404Y0272161D02*
X0102786Y0272161D01*
X0101686Y0273262D02*
X0110709Y0273262D01*
X0109071Y0274363D02*
X0100585Y0274363D01*
X0099484Y0275463D02*
X0107970Y0275463D01*
X0106870Y0276564D02*
X0098383Y0276564D01*
X0097282Y0277665D02*
X0105769Y0277665D01*
X0104668Y0278766D02*
X0096181Y0278766D01*
X0095080Y0279867D02*
X0103567Y0279867D01*
X0102466Y0280968D02*
X0093979Y0280968D01*
X0092879Y0282069D02*
X0101365Y0282069D01*
X0100264Y0283170D02*
X0091778Y0283170D01*
X0090677Y0284270D02*
X0099163Y0284270D01*
X0098063Y0285371D02*
X0089576Y0285371D01*
X0088475Y0286472D02*
X0096962Y0286472D01*
X0095861Y0287573D02*
X0087374Y0287573D01*
X0086273Y0288674D02*
X0094760Y0288674D01*
X0093659Y0289775D02*
X0085172Y0289775D01*
X0084072Y0290876D02*
X0092558Y0290876D01*
X0091457Y0291977D02*
X0082971Y0291977D01*
X0081870Y0293077D02*
X0090356Y0293077D01*
X0089256Y0294178D02*
X0080769Y0294178D01*
X0079668Y0295279D02*
X0088155Y0295279D01*
X0087054Y0296380D02*
X0078567Y0296380D01*
X0077466Y0297481D02*
X0085953Y0297481D01*
X0084852Y0298582D02*
X0076365Y0298582D01*
X0075265Y0299683D02*
X0083751Y0299683D01*
X0082650Y0300784D02*
X0074164Y0300784D01*
X0073063Y0301884D02*
X0081549Y0301884D01*
X0080449Y0302985D02*
X0071962Y0302985D01*
X0070861Y0304086D02*
X0079348Y0304086D01*
X0078247Y0305187D02*
X0069760Y0305187D01*
X0068659Y0306288D02*
X0077146Y0306288D01*
X0076045Y0307389D02*
X0067558Y0307389D01*
X0066458Y0308490D02*
X0074944Y0308490D01*
X0073843Y0309590D02*
X0065357Y0309590D01*
X0064256Y0310691D02*
X0072743Y0310691D01*
X0071642Y0311792D02*
X0063155Y0311792D01*
X0062054Y0312893D02*
X0070541Y0312893D01*
X0069440Y0313994D02*
X0060953Y0313994D01*
X0059852Y0315095D02*
X0068339Y0315095D01*
X0067238Y0316196D02*
X0058751Y0316196D01*
X0057651Y0317297D02*
X0066137Y0317297D01*
X0065036Y0318397D02*
X0056550Y0318397D01*
X0055449Y0319498D02*
X0063936Y0319498D01*
X0062835Y0320599D02*
X0054348Y0320599D01*
X0053247Y0321700D02*
X0061734Y0321700D01*
X0060633Y0322801D02*
X0052146Y0322801D01*
X0051045Y0323902D02*
X0059532Y0323902D01*
X0058431Y0325003D02*
X0049944Y0325003D01*
X0048844Y0326104D02*
X0057330Y0326104D01*
X0056229Y0327204D02*
X0047863Y0327204D01*
X0047863Y0328305D02*
X0055129Y0328305D01*
X0054028Y0329406D02*
X0047863Y0329406D01*
X0047863Y0330507D02*
X0052927Y0330507D01*
X0118950Y0260051D02*
X0118978Y0260051D01*
X0106364Y0246841D02*
X0189854Y0246841D01*
X0188584Y0245740D02*
X0132509Y0245740D01*
X0132509Y0244639D02*
X0167145Y0244639D01*
X0166045Y0243538D02*
X0132509Y0243538D01*
X0132509Y0242437D02*
X0164944Y0242437D01*
X0163843Y0241336D02*
X0163762Y0241336D01*
X0162279Y0241336D02*
X0132509Y0241336D01*
X0132509Y0240235D02*
X0160441Y0240235D01*
X0159744Y0239135D02*
X0132509Y0239135D01*
X0132509Y0238034D02*
X0159491Y0238034D01*
X0159570Y0236933D02*
X0132509Y0236933D01*
X0132509Y0235832D02*
X0160026Y0235832D01*
X0161264Y0234731D02*
X0132509Y0234731D01*
X0132509Y0233630D02*
X0206822Y0233630D01*
X0205413Y0234731D02*
X0164777Y0234731D01*
X0166015Y0235832D02*
X0204893Y0235832D01*
X0209916Y0232529D02*
X0132509Y0232529D01*
X0132509Y0231428D02*
X0211017Y0231428D01*
X0212117Y0230328D02*
X0132509Y0230328D01*
X0132509Y0229227D02*
X0213218Y0229227D01*
X0213283Y0228126D02*
X0132509Y0228126D01*
X0132509Y0227025D02*
X0213283Y0227025D01*
X0213283Y0225924D02*
X0132509Y0225924D01*
X0132509Y0224823D02*
X0213283Y0224823D01*
X0213283Y0223722D02*
X0132509Y0223722D01*
X0132509Y0222621D02*
X0213283Y0222621D01*
X0213283Y0221521D02*
X0132509Y0221521D01*
X0132509Y0220420D02*
X0213283Y0220420D01*
X0213283Y0219319D02*
X0132509Y0219319D01*
X0132509Y0218218D02*
X0213283Y0218218D01*
X0213283Y0217117D02*
X0132509Y0217117D01*
X0132509Y0211613D02*
X0187396Y0211613D01*
X0185836Y0210512D02*
X0132509Y0210512D01*
X0132509Y0209411D02*
X0165382Y0209411D01*
X0164281Y0208310D02*
X0132509Y0208310D01*
X0132509Y0207209D02*
X0163180Y0207209D01*
X0162079Y0206108D02*
X0132509Y0206108D01*
X0132509Y0205008D02*
X0160979Y0205008D01*
X0159878Y0203907D02*
X0132509Y0203907D01*
X0132509Y0202806D02*
X0158777Y0202806D01*
X0157676Y0201705D02*
X0132509Y0201705D01*
X0132509Y0200604D02*
X0156575Y0200604D01*
X0155474Y0199503D02*
X0132509Y0199503D01*
X0132509Y0198402D02*
X0154373Y0198402D01*
X0153272Y0197301D02*
X0132509Y0197301D01*
X0132509Y0196201D02*
X0153244Y0196201D01*
X0153244Y0195100D02*
X0132509Y0195100D01*
X0132509Y0193999D02*
X0153244Y0193999D01*
X0153244Y0192898D02*
X0117555Y0192898D01*
X0118825Y0191797D02*
X0153244Y0191797D01*
X0153244Y0190696D02*
X0119523Y0190696D01*
X0119922Y0189595D02*
X0153244Y0189595D01*
X0158653Y0197301D02*
X0159491Y0197301D01*
X0163057Y0201705D02*
X0211657Y0201705D01*
X0211657Y0202806D02*
X0164158Y0202806D01*
X0165258Y0203907D02*
X0211994Y0203907D01*
X0212106Y0200604D02*
X0164675Y0200604D01*
X0165978Y0199503D02*
X0213082Y0199503D01*
X0188966Y0241336D02*
X0169224Y0241336D01*
X0168926Y0243729D02*
X0163020Y0237824D01*
X0168926Y0243729D02*
X0191564Y0243729D01*
X0260213Y0260051D02*
X0260241Y0260051D01*
X0262087Y0262253D02*
X0263272Y0262253D01*
X0268481Y0273262D02*
X0277505Y0273262D01*
X0278606Y0274363D02*
X0270119Y0274363D01*
X0271220Y0275463D02*
X0279707Y0275463D01*
X0280808Y0276564D02*
X0272321Y0276564D01*
X0273422Y0277665D02*
X0281908Y0277665D01*
X0283009Y0278766D02*
X0274523Y0278766D01*
X0275624Y0279867D02*
X0284110Y0279867D01*
X0285211Y0280968D02*
X0276724Y0280968D01*
X0277825Y0282069D02*
X0286312Y0282069D01*
X0287413Y0283170D02*
X0278926Y0283170D01*
X0280027Y0284270D02*
X0288514Y0284270D01*
X0289615Y0285371D02*
X0281128Y0285371D01*
X0282229Y0286472D02*
X0290715Y0286472D01*
X0291816Y0287573D02*
X0283330Y0287573D01*
X0284431Y0288674D02*
X0292917Y0288674D01*
X0294018Y0289775D02*
X0285531Y0289775D01*
X0286632Y0290876D02*
X0295119Y0290876D01*
X0296220Y0291977D02*
X0287733Y0291977D01*
X0288834Y0293077D02*
X0297321Y0293077D01*
X0298422Y0294178D02*
X0289935Y0294178D01*
X0291036Y0295279D02*
X0299522Y0295279D01*
X0300623Y0296380D02*
X0292137Y0296380D01*
X0293238Y0297481D02*
X0301724Y0297481D01*
X0302825Y0298582D02*
X0294338Y0298582D01*
X0295439Y0299683D02*
X0303926Y0299683D01*
X0305027Y0300784D02*
X0296540Y0300784D01*
X0297641Y0301884D02*
X0306128Y0301884D01*
X0307229Y0302985D02*
X0298742Y0302985D01*
X0299843Y0304086D02*
X0308329Y0304086D01*
X0309430Y0305187D02*
X0300944Y0305187D01*
X0302045Y0306288D02*
X0310531Y0306288D01*
X0311632Y0307389D02*
X0303145Y0307389D01*
X0304246Y0308490D02*
X0312733Y0308490D01*
X0313834Y0309590D02*
X0305347Y0309590D01*
X0306448Y0310691D02*
X0314935Y0310691D01*
X0316036Y0311792D02*
X0307549Y0311792D01*
X0308650Y0312893D02*
X0317136Y0312893D01*
X0318237Y0313994D02*
X0309751Y0313994D01*
X0310852Y0315095D02*
X0319338Y0315095D01*
X0320439Y0316196D02*
X0311952Y0316196D01*
X0313053Y0317297D02*
X0321540Y0317297D01*
X0322641Y0318397D02*
X0314154Y0318397D01*
X0315255Y0319498D02*
X0323742Y0319498D01*
X0324843Y0320599D02*
X0316356Y0320599D01*
X0317457Y0321700D02*
X0325943Y0321700D01*
X0327044Y0322801D02*
X0318558Y0322801D01*
X0319659Y0323902D02*
X0328145Y0323902D01*
X0329246Y0325003D02*
X0320759Y0325003D01*
X0321860Y0326104D02*
X0330347Y0326104D01*
X0331328Y0327204D02*
X0322961Y0327204D01*
X0324062Y0328305D02*
X0331328Y0328305D01*
X0331328Y0329406D02*
X0325163Y0329406D01*
X0326264Y0330507D02*
X0331328Y0330507D01*
X0163571Y0167578D02*
X0157049Y0167578D01*
X0157049Y0166477D02*
X0162770Y0166477D01*
X0162444Y0165376D02*
X0157049Y0165376D01*
X0157049Y0164275D02*
X0162449Y0164275D01*
X0162905Y0163174D02*
X0157049Y0163174D01*
X0158132Y0162073D02*
X0163898Y0162073D01*
X0112030Y0192898D02*
X0106364Y0192898D01*
X0106364Y0191797D02*
X0110759Y0191797D01*
X0110061Y0190696D02*
X0106364Y0190696D01*
X0106364Y0124644D02*
X0110642Y0124644D01*
X0110118Y0123543D02*
X0106364Y0123543D01*
X0106364Y0122442D02*
X0109756Y0122442D01*
X0109756Y0121341D02*
X0106364Y0121341D01*
X0106364Y0120240D02*
X0109931Y0120240D01*
X0110387Y0119139D02*
X0106364Y0119139D01*
X0106364Y0118038D02*
X0111292Y0118038D01*
X0113024Y0116938D02*
X0106364Y0116938D01*
M02*
