G75*
%MOIN*%
%OFA0B0*%
%FSLAX25Y25*%
%IPPOS*%
%LPD*%
%AMOC8*
5,1,8,0,0,1.08239X$1,22.5*
%
%ADD10C,0.01600*%
%ADD11C,0.00400*%
%ADD12C,0.00787*%
%ADD13C,0.00394*%
%ADD14C,0.00300*%
%ADD15C,0.00500*%
%ADD16C,0.00800*%
%ADD17R,0.01181X0.01181*%
%ADD18R,0.01181X0.00591*%
%ADD19R,0.01181X0.01181*%
%ADD20R,0.00591X0.01181*%
%ADD21C,0.00600*%
%ADD22C,0.00591*%
D10*
X0001800Y0018335D02*
X0001805Y0018741D01*
X0001820Y0019146D01*
X0001845Y0019551D01*
X0001880Y0019956D01*
X0001924Y0020359D01*
X0001979Y0020761D01*
X0002043Y0021162D01*
X0002118Y0021561D01*
X0002202Y0021958D01*
X0002296Y0022353D01*
X0002399Y0022745D01*
X0002512Y0023135D01*
X0002635Y0023522D01*
X0002767Y0023905D01*
X0002908Y0024286D01*
X0003059Y0024663D01*
X0003219Y0025036D01*
X0003388Y0025405D01*
X0003566Y0025769D01*
X0003752Y0026130D01*
X0003948Y0026485D01*
X0004152Y0026836D01*
X0004365Y0027181D01*
X0004587Y0027521D01*
X0004816Y0027856D01*
X0005054Y0028185D01*
X0005300Y0028508D01*
X0005553Y0028825D01*
X0005815Y0029135D01*
X0006083Y0029439D01*
X0006360Y0029737D01*
X0006643Y0030027D01*
X0006933Y0030310D01*
X0007231Y0030587D01*
X0007535Y0030855D01*
X0007845Y0031117D01*
X0008162Y0031370D01*
X0008485Y0031616D01*
X0008814Y0031854D01*
X0009149Y0032083D01*
X0009489Y0032305D01*
X0009834Y0032518D01*
X0010185Y0032722D01*
X0010540Y0032918D01*
X0010901Y0033104D01*
X0011265Y0033282D01*
X0011634Y0033451D01*
X0012007Y0033611D01*
X0012384Y0033762D01*
X0012765Y0033903D01*
X0013148Y0034035D01*
X0013535Y0034158D01*
X0013925Y0034271D01*
X0014317Y0034374D01*
X0014712Y0034468D01*
X0015109Y0034552D01*
X0015508Y0034627D01*
X0015909Y0034691D01*
X0016311Y0034746D01*
X0016714Y0034790D01*
X0017119Y0034825D01*
X0017524Y0034850D01*
X0017929Y0034865D01*
X0018335Y0034870D01*
X0018741Y0034865D01*
X0019146Y0034850D01*
X0019551Y0034825D01*
X0019956Y0034790D01*
X0020359Y0034746D01*
X0020761Y0034691D01*
X0021162Y0034627D01*
X0021561Y0034552D01*
X0021958Y0034468D01*
X0022353Y0034374D01*
X0022745Y0034271D01*
X0023135Y0034158D01*
X0023522Y0034035D01*
X0023905Y0033903D01*
X0024286Y0033762D01*
X0024663Y0033611D01*
X0025036Y0033451D01*
X0025405Y0033282D01*
X0025769Y0033104D01*
X0026130Y0032918D01*
X0026485Y0032722D01*
X0026836Y0032518D01*
X0027181Y0032305D01*
X0027521Y0032083D01*
X0027856Y0031854D01*
X0028185Y0031616D01*
X0028508Y0031370D01*
X0028825Y0031117D01*
X0029135Y0030855D01*
X0029439Y0030587D01*
X0029737Y0030310D01*
X0030027Y0030027D01*
X0030310Y0029737D01*
X0030587Y0029439D01*
X0030855Y0029135D01*
X0031117Y0028825D01*
X0031370Y0028508D01*
X0031616Y0028185D01*
X0031854Y0027856D01*
X0032083Y0027521D01*
X0032305Y0027181D01*
X0032518Y0026836D01*
X0032722Y0026485D01*
X0032918Y0026130D01*
X0033104Y0025769D01*
X0033282Y0025405D01*
X0033451Y0025036D01*
X0033611Y0024663D01*
X0033762Y0024286D01*
X0033903Y0023905D01*
X0034035Y0023522D01*
X0034158Y0023135D01*
X0034271Y0022745D01*
X0034374Y0022353D01*
X0034468Y0021958D01*
X0034552Y0021561D01*
X0034627Y0021162D01*
X0034691Y0020761D01*
X0034746Y0020359D01*
X0034790Y0019956D01*
X0034825Y0019551D01*
X0034850Y0019146D01*
X0034865Y0018741D01*
X0034870Y0018335D01*
X0034865Y0017929D01*
X0034850Y0017524D01*
X0034825Y0017119D01*
X0034790Y0016714D01*
X0034746Y0016311D01*
X0034691Y0015909D01*
X0034627Y0015508D01*
X0034552Y0015109D01*
X0034468Y0014712D01*
X0034374Y0014317D01*
X0034271Y0013925D01*
X0034158Y0013535D01*
X0034035Y0013148D01*
X0033903Y0012765D01*
X0033762Y0012384D01*
X0033611Y0012007D01*
X0033451Y0011634D01*
X0033282Y0011265D01*
X0033104Y0010901D01*
X0032918Y0010540D01*
X0032722Y0010185D01*
X0032518Y0009834D01*
X0032305Y0009489D01*
X0032083Y0009149D01*
X0031854Y0008814D01*
X0031616Y0008485D01*
X0031370Y0008162D01*
X0031117Y0007845D01*
X0030855Y0007535D01*
X0030587Y0007231D01*
X0030310Y0006933D01*
X0030027Y0006643D01*
X0029737Y0006360D01*
X0029439Y0006083D01*
X0029135Y0005815D01*
X0028825Y0005553D01*
X0028508Y0005300D01*
X0028185Y0005054D01*
X0027856Y0004816D01*
X0027521Y0004587D01*
X0027181Y0004365D01*
X0026836Y0004152D01*
X0026485Y0003948D01*
X0026130Y0003752D01*
X0025769Y0003566D01*
X0025405Y0003388D01*
X0025036Y0003219D01*
X0024663Y0003059D01*
X0024286Y0002908D01*
X0023905Y0002767D01*
X0023522Y0002635D01*
X0023135Y0002512D01*
X0022745Y0002399D01*
X0022353Y0002296D01*
X0021958Y0002202D01*
X0021561Y0002118D01*
X0021162Y0002043D01*
X0020761Y0001979D01*
X0020359Y0001924D01*
X0019956Y0001880D01*
X0019551Y0001845D01*
X0019146Y0001820D01*
X0018741Y0001805D01*
X0018335Y0001800D01*
X0017929Y0001805D01*
X0017524Y0001820D01*
X0017119Y0001845D01*
X0016714Y0001880D01*
X0016311Y0001924D01*
X0015909Y0001979D01*
X0015508Y0002043D01*
X0015109Y0002118D01*
X0014712Y0002202D01*
X0014317Y0002296D01*
X0013925Y0002399D01*
X0013535Y0002512D01*
X0013148Y0002635D01*
X0012765Y0002767D01*
X0012384Y0002908D01*
X0012007Y0003059D01*
X0011634Y0003219D01*
X0011265Y0003388D01*
X0010901Y0003566D01*
X0010540Y0003752D01*
X0010185Y0003948D01*
X0009834Y0004152D01*
X0009489Y0004365D01*
X0009149Y0004587D01*
X0008814Y0004816D01*
X0008485Y0005054D01*
X0008162Y0005300D01*
X0007845Y0005553D01*
X0007535Y0005815D01*
X0007231Y0006083D01*
X0006933Y0006360D01*
X0006643Y0006643D01*
X0006360Y0006933D01*
X0006083Y0007231D01*
X0005815Y0007535D01*
X0005553Y0007845D01*
X0005300Y0008162D01*
X0005054Y0008485D01*
X0004816Y0008814D01*
X0004587Y0009149D01*
X0004365Y0009489D01*
X0004152Y0009834D01*
X0003948Y0010185D01*
X0003752Y0010540D01*
X0003566Y0010901D01*
X0003388Y0011265D01*
X0003219Y0011634D01*
X0003059Y0012007D01*
X0002908Y0012384D01*
X0002767Y0012765D01*
X0002635Y0013148D01*
X0002512Y0013535D01*
X0002399Y0013925D01*
X0002296Y0014317D01*
X0002202Y0014712D01*
X0002118Y0015109D01*
X0002043Y0015508D01*
X0001979Y0015909D01*
X0001924Y0016311D01*
X0001880Y0016714D01*
X0001845Y0017119D01*
X0001820Y0017524D01*
X0001805Y0017929D01*
X0001800Y0018335D01*
X0022272Y0034083D02*
X0034083Y0022272D01*
X0112824Y0101013D01*
X0266367Y0101013D01*
X0345107Y0022272D01*
X0356918Y0034083D01*
X0278178Y0112824D01*
X0278178Y0266367D01*
X0356918Y0345107D01*
X0345107Y0356918D01*
X0266367Y0278178D01*
X0112824Y0278178D01*
X0034083Y0356918D01*
X0022272Y0345107D01*
X0101013Y0266367D01*
X0101013Y0112824D01*
X0022272Y0034083D01*
X0001800Y0360855D02*
X0001805Y0361261D01*
X0001820Y0361666D01*
X0001845Y0362071D01*
X0001880Y0362476D01*
X0001924Y0362879D01*
X0001979Y0363281D01*
X0002043Y0363682D01*
X0002118Y0364081D01*
X0002202Y0364478D01*
X0002296Y0364873D01*
X0002399Y0365265D01*
X0002512Y0365655D01*
X0002635Y0366042D01*
X0002767Y0366425D01*
X0002908Y0366806D01*
X0003059Y0367183D01*
X0003219Y0367556D01*
X0003388Y0367925D01*
X0003566Y0368289D01*
X0003752Y0368650D01*
X0003948Y0369005D01*
X0004152Y0369356D01*
X0004365Y0369701D01*
X0004587Y0370041D01*
X0004816Y0370376D01*
X0005054Y0370705D01*
X0005300Y0371028D01*
X0005553Y0371345D01*
X0005815Y0371655D01*
X0006083Y0371959D01*
X0006360Y0372257D01*
X0006643Y0372547D01*
X0006933Y0372830D01*
X0007231Y0373107D01*
X0007535Y0373375D01*
X0007845Y0373637D01*
X0008162Y0373890D01*
X0008485Y0374136D01*
X0008814Y0374374D01*
X0009149Y0374603D01*
X0009489Y0374825D01*
X0009834Y0375038D01*
X0010185Y0375242D01*
X0010540Y0375438D01*
X0010901Y0375624D01*
X0011265Y0375802D01*
X0011634Y0375971D01*
X0012007Y0376131D01*
X0012384Y0376282D01*
X0012765Y0376423D01*
X0013148Y0376555D01*
X0013535Y0376678D01*
X0013925Y0376791D01*
X0014317Y0376894D01*
X0014712Y0376988D01*
X0015109Y0377072D01*
X0015508Y0377147D01*
X0015909Y0377211D01*
X0016311Y0377266D01*
X0016714Y0377310D01*
X0017119Y0377345D01*
X0017524Y0377370D01*
X0017929Y0377385D01*
X0018335Y0377390D01*
X0018741Y0377385D01*
X0019146Y0377370D01*
X0019551Y0377345D01*
X0019956Y0377310D01*
X0020359Y0377266D01*
X0020761Y0377211D01*
X0021162Y0377147D01*
X0021561Y0377072D01*
X0021958Y0376988D01*
X0022353Y0376894D01*
X0022745Y0376791D01*
X0023135Y0376678D01*
X0023522Y0376555D01*
X0023905Y0376423D01*
X0024286Y0376282D01*
X0024663Y0376131D01*
X0025036Y0375971D01*
X0025405Y0375802D01*
X0025769Y0375624D01*
X0026130Y0375438D01*
X0026485Y0375242D01*
X0026836Y0375038D01*
X0027181Y0374825D01*
X0027521Y0374603D01*
X0027856Y0374374D01*
X0028185Y0374136D01*
X0028508Y0373890D01*
X0028825Y0373637D01*
X0029135Y0373375D01*
X0029439Y0373107D01*
X0029737Y0372830D01*
X0030027Y0372547D01*
X0030310Y0372257D01*
X0030587Y0371959D01*
X0030855Y0371655D01*
X0031117Y0371345D01*
X0031370Y0371028D01*
X0031616Y0370705D01*
X0031854Y0370376D01*
X0032083Y0370041D01*
X0032305Y0369701D01*
X0032518Y0369356D01*
X0032722Y0369005D01*
X0032918Y0368650D01*
X0033104Y0368289D01*
X0033282Y0367925D01*
X0033451Y0367556D01*
X0033611Y0367183D01*
X0033762Y0366806D01*
X0033903Y0366425D01*
X0034035Y0366042D01*
X0034158Y0365655D01*
X0034271Y0365265D01*
X0034374Y0364873D01*
X0034468Y0364478D01*
X0034552Y0364081D01*
X0034627Y0363682D01*
X0034691Y0363281D01*
X0034746Y0362879D01*
X0034790Y0362476D01*
X0034825Y0362071D01*
X0034850Y0361666D01*
X0034865Y0361261D01*
X0034870Y0360855D01*
X0034865Y0360449D01*
X0034850Y0360044D01*
X0034825Y0359639D01*
X0034790Y0359234D01*
X0034746Y0358831D01*
X0034691Y0358429D01*
X0034627Y0358028D01*
X0034552Y0357629D01*
X0034468Y0357232D01*
X0034374Y0356837D01*
X0034271Y0356445D01*
X0034158Y0356055D01*
X0034035Y0355668D01*
X0033903Y0355285D01*
X0033762Y0354904D01*
X0033611Y0354527D01*
X0033451Y0354154D01*
X0033282Y0353785D01*
X0033104Y0353421D01*
X0032918Y0353060D01*
X0032722Y0352705D01*
X0032518Y0352354D01*
X0032305Y0352009D01*
X0032083Y0351669D01*
X0031854Y0351334D01*
X0031616Y0351005D01*
X0031370Y0350682D01*
X0031117Y0350365D01*
X0030855Y0350055D01*
X0030587Y0349751D01*
X0030310Y0349453D01*
X0030027Y0349163D01*
X0029737Y0348880D01*
X0029439Y0348603D01*
X0029135Y0348335D01*
X0028825Y0348073D01*
X0028508Y0347820D01*
X0028185Y0347574D01*
X0027856Y0347336D01*
X0027521Y0347107D01*
X0027181Y0346885D01*
X0026836Y0346672D01*
X0026485Y0346468D01*
X0026130Y0346272D01*
X0025769Y0346086D01*
X0025405Y0345908D01*
X0025036Y0345739D01*
X0024663Y0345579D01*
X0024286Y0345428D01*
X0023905Y0345287D01*
X0023522Y0345155D01*
X0023135Y0345032D01*
X0022745Y0344919D01*
X0022353Y0344816D01*
X0021958Y0344722D01*
X0021561Y0344638D01*
X0021162Y0344563D01*
X0020761Y0344499D01*
X0020359Y0344444D01*
X0019956Y0344400D01*
X0019551Y0344365D01*
X0019146Y0344340D01*
X0018741Y0344325D01*
X0018335Y0344320D01*
X0017929Y0344325D01*
X0017524Y0344340D01*
X0017119Y0344365D01*
X0016714Y0344400D01*
X0016311Y0344444D01*
X0015909Y0344499D01*
X0015508Y0344563D01*
X0015109Y0344638D01*
X0014712Y0344722D01*
X0014317Y0344816D01*
X0013925Y0344919D01*
X0013535Y0345032D01*
X0013148Y0345155D01*
X0012765Y0345287D01*
X0012384Y0345428D01*
X0012007Y0345579D01*
X0011634Y0345739D01*
X0011265Y0345908D01*
X0010901Y0346086D01*
X0010540Y0346272D01*
X0010185Y0346468D01*
X0009834Y0346672D01*
X0009489Y0346885D01*
X0009149Y0347107D01*
X0008814Y0347336D01*
X0008485Y0347574D01*
X0008162Y0347820D01*
X0007845Y0348073D01*
X0007535Y0348335D01*
X0007231Y0348603D01*
X0006933Y0348880D01*
X0006643Y0349163D01*
X0006360Y0349453D01*
X0006083Y0349751D01*
X0005815Y0350055D01*
X0005553Y0350365D01*
X0005300Y0350682D01*
X0005054Y0351005D01*
X0004816Y0351334D01*
X0004587Y0351669D01*
X0004365Y0352009D01*
X0004152Y0352354D01*
X0003948Y0352705D01*
X0003752Y0353060D01*
X0003566Y0353421D01*
X0003388Y0353785D01*
X0003219Y0354154D01*
X0003059Y0354527D01*
X0002908Y0354904D01*
X0002767Y0355285D01*
X0002635Y0355668D01*
X0002512Y0356055D01*
X0002399Y0356445D01*
X0002296Y0356837D01*
X0002202Y0357232D01*
X0002118Y0357629D01*
X0002043Y0358028D01*
X0001979Y0358429D01*
X0001924Y0358831D01*
X0001880Y0359234D01*
X0001845Y0359639D01*
X0001820Y0360044D01*
X0001805Y0360449D01*
X0001800Y0360855D01*
X0344320Y0360855D02*
X0344325Y0361261D01*
X0344340Y0361666D01*
X0344365Y0362071D01*
X0344400Y0362476D01*
X0344444Y0362879D01*
X0344499Y0363281D01*
X0344563Y0363682D01*
X0344638Y0364081D01*
X0344722Y0364478D01*
X0344816Y0364873D01*
X0344919Y0365265D01*
X0345032Y0365655D01*
X0345155Y0366042D01*
X0345287Y0366425D01*
X0345428Y0366806D01*
X0345579Y0367183D01*
X0345739Y0367556D01*
X0345908Y0367925D01*
X0346086Y0368289D01*
X0346272Y0368650D01*
X0346468Y0369005D01*
X0346672Y0369356D01*
X0346885Y0369701D01*
X0347107Y0370041D01*
X0347336Y0370376D01*
X0347574Y0370705D01*
X0347820Y0371028D01*
X0348073Y0371345D01*
X0348335Y0371655D01*
X0348603Y0371959D01*
X0348880Y0372257D01*
X0349163Y0372547D01*
X0349453Y0372830D01*
X0349751Y0373107D01*
X0350055Y0373375D01*
X0350365Y0373637D01*
X0350682Y0373890D01*
X0351005Y0374136D01*
X0351334Y0374374D01*
X0351669Y0374603D01*
X0352009Y0374825D01*
X0352354Y0375038D01*
X0352705Y0375242D01*
X0353060Y0375438D01*
X0353421Y0375624D01*
X0353785Y0375802D01*
X0354154Y0375971D01*
X0354527Y0376131D01*
X0354904Y0376282D01*
X0355285Y0376423D01*
X0355668Y0376555D01*
X0356055Y0376678D01*
X0356445Y0376791D01*
X0356837Y0376894D01*
X0357232Y0376988D01*
X0357629Y0377072D01*
X0358028Y0377147D01*
X0358429Y0377211D01*
X0358831Y0377266D01*
X0359234Y0377310D01*
X0359639Y0377345D01*
X0360044Y0377370D01*
X0360449Y0377385D01*
X0360855Y0377390D01*
X0361261Y0377385D01*
X0361666Y0377370D01*
X0362071Y0377345D01*
X0362476Y0377310D01*
X0362879Y0377266D01*
X0363281Y0377211D01*
X0363682Y0377147D01*
X0364081Y0377072D01*
X0364478Y0376988D01*
X0364873Y0376894D01*
X0365265Y0376791D01*
X0365655Y0376678D01*
X0366042Y0376555D01*
X0366425Y0376423D01*
X0366806Y0376282D01*
X0367183Y0376131D01*
X0367556Y0375971D01*
X0367925Y0375802D01*
X0368289Y0375624D01*
X0368650Y0375438D01*
X0369005Y0375242D01*
X0369356Y0375038D01*
X0369701Y0374825D01*
X0370041Y0374603D01*
X0370376Y0374374D01*
X0370705Y0374136D01*
X0371028Y0373890D01*
X0371345Y0373637D01*
X0371655Y0373375D01*
X0371959Y0373107D01*
X0372257Y0372830D01*
X0372547Y0372547D01*
X0372830Y0372257D01*
X0373107Y0371959D01*
X0373375Y0371655D01*
X0373637Y0371345D01*
X0373890Y0371028D01*
X0374136Y0370705D01*
X0374374Y0370376D01*
X0374603Y0370041D01*
X0374825Y0369701D01*
X0375038Y0369356D01*
X0375242Y0369005D01*
X0375438Y0368650D01*
X0375624Y0368289D01*
X0375802Y0367925D01*
X0375971Y0367556D01*
X0376131Y0367183D01*
X0376282Y0366806D01*
X0376423Y0366425D01*
X0376555Y0366042D01*
X0376678Y0365655D01*
X0376791Y0365265D01*
X0376894Y0364873D01*
X0376988Y0364478D01*
X0377072Y0364081D01*
X0377147Y0363682D01*
X0377211Y0363281D01*
X0377266Y0362879D01*
X0377310Y0362476D01*
X0377345Y0362071D01*
X0377370Y0361666D01*
X0377385Y0361261D01*
X0377390Y0360855D01*
X0377385Y0360449D01*
X0377370Y0360044D01*
X0377345Y0359639D01*
X0377310Y0359234D01*
X0377266Y0358831D01*
X0377211Y0358429D01*
X0377147Y0358028D01*
X0377072Y0357629D01*
X0376988Y0357232D01*
X0376894Y0356837D01*
X0376791Y0356445D01*
X0376678Y0356055D01*
X0376555Y0355668D01*
X0376423Y0355285D01*
X0376282Y0354904D01*
X0376131Y0354527D01*
X0375971Y0354154D01*
X0375802Y0353785D01*
X0375624Y0353421D01*
X0375438Y0353060D01*
X0375242Y0352705D01*
X0375038Y0352354D01*
X0374825Y0352009D01*
X0374603Y0351669D01*
X0374374Y0351334D01*
X0374136Y0351005D01*
X0373890Y0350682D01*
X0373637Y0350365D01*
X0373375Y0350055D01*
X0373107Y0349751D01*
X0372830Y0349453D01*
X0372547Y0349163D01*
X0372257Y0348880D01*
X0371959Y0348603D01*
X0371655Y0348335D01*
X0371345Y0348073D01*
X0371028Y0347820D01*
X0370705Y0347574D01*
X0370376Y0347336D01*
X0370041Y0347107D01*
X0369701Y0346885D01*
X0369356Y0346672D01*
X0369005Y0346468D01*
X0368650Y0346272D01*
X0368289Y0346086D01*
X0367925Y0345908D01*
X0367556Y0345739D01*
X0367183Y0345579D01*
X0366806Y0345428D01*
X0366425Y0345287D01*
X0366042Y0345155D01*
X0365655Y0345032D01*
X0365265Y0344919D01*
X0364873Y0344816D01*
X0364478Y0344722D01*
X0364081Y0344638D01*
X0363682Y0344563D01*
X0363281Y0344499D01*
X0362879Y0344444D01*
X0362476Y0344400D01*
X0362071Y0344365D01*
X0361666Y0344340D01*
X0361261Y0344325D01*
X0360855Y0344320D01*
X0360449Y0344325D01*
X0360044Y0344340D01*
X0359639Y0344365D01*
X0359234Y0344400D01*
X0358831Y0344444D01*
X0358429Y0344499D01*
X0358028Y0344563D01*
X0357629Y0344638D01*
X0357232Y0344722D01*
X0356837Y0344816D01*
X0356445Y0344919D01*
X0356055Y0345032D01*
X0355668Y0345155D01*
X0355285Y0345287D01*
X0354904Y0345428D01*
X0354527Y0345579D01*
X0354154Y0345739D01*
X0353785Y0345908D01*
X0353421Y0346086D01*
X0353060Y0346272D01*
X0352705Y0346468D01*
X0352354Y0346672D01*
X0352009Y0346885D01*
X0351669Y0347107D01*
X0351334Y0347336D01*
X0351005Y0347574D01*
X0350682Y0347820D01*
X0350365Y0348073D01*
X0350055Y0348335D01*
X0349751Y0348603D01*
X0349453Y0348880D01*
X0349163Y0349163D01*
X0348880Y0349453D01*
X0348603Y0349751D01*
X0348335Y0350055D01*
X0348073Y0350365D01*
X0347820Y0350682D01*
X0347574Y0351005D01*
X0347336Y0351334D01*
X0347107Y0351669D01*
X0346885Y0352009D01*
X0346672Y0352354D01*
X0346468Y0352705D01*
X0346272Y0353060D01*
X0346086Y0353421D01*
X0345908Y0353785D01*
X0345739Y0354154D01*
X0345579Y0354527D01*
X0345428Y0354904D01*
X0345287Y0355285D01*
X0345155Y0355668D01*
X0345032Y0356055D01*
X0344919Y0356445D01*
X0344816Y0356837D01*
X0344722Y0357232D01*
X0344638Y0357629D01*
X0344563Y0358028D01*
X0344499Y0358429D01*
X0344444Y0358831D01*
X0344400Y0359234D01*
X0344365Y0359639D01*
X0344340Y0360044D01*
X0344325Y0360449D01*
X0344320Y0360855D01*
X0344320Y0018335D02*
X0344325Y0018741D01*
X0344340Y0019146D01*
X0344365Y0019551D01*
X0344400Y0019956D01*
X0344444Y0020359D01*
X0344499Y0020761D01*
X0344563Y0021162D01*
X0344638Y0021561D01*
X0344722Y0021958D01*
X0344816Y0022353D01*
X0344919Y0022745D01*
X0345032Y0023135D01*
X0345155Y0023522D01*
X0345287Y0023905D01*
X0345428Y0024286D01*
X0345579Y0024663D01*
X0345739Y0025036D01*
X0345908Y0025405D01*
X0346086Y0025769D01*
X0346272Y0026130D01*
X0346468Y0026485D01*
X0346672Y0026836D01*
X0346885Y0027181D01*
X0347107Y0027521D01*
X0347336Y0027856D01*
X0347574Y0028185D01*
X0347820Y0028508D01*
X0348073Y0028825D01*
X0348335Y0029135D01*
X0348603Y0029439D01*
X0348880Y0029737D01*
X0349163Y0030027D01*
X0349453Y0030310D01*
X0349751Y0030587D01*
X0350055Y0030855D01*
X0350365Y0031117D01*
X0350682Y0031370D01*
X0351005Y0031616D01*
X0351334Y0031854D01*
X0351669Y0032083D01*
X0352009Y0032305D01*
X0352354Y0032518D01*
X0352705Y0032722D01*
X0353060Y0032918D01*
X0353421Y0033104D01*
X0353785Y0033282D01*
X0354154Y0033451D01*
X0354527Y0033611D01*
X0354904Y0033762D01*
X0355285Y0033903D01*
X0355668Y0034035D01*
X0356055Y0034158D01*
X0356445Y0034271D01*
X0356837Y0034374D01*
X0357232Y0034468D01*
X0357629Y0034552D01*
X0358028Y0034627D01*
X0358429Y0034691D01*
X0358831Y0034746D01*
X0359234Y0034790D01*
X0359639Y0034825D01*
X0360044Y0034850D01*
X0360449Y0034865D01*
X0360855Y0034870D01*
X0361261Y0034865D01*
X0361666Y0034850D01*
X0362071Y0034825D01*
X0362476Y0034790D01*
X0362879Y0034746D01*
X0363281Y0034691D01*
X0363682Y0034627D01*
X0364081Y0034552D01*
X0364478Y0034468D01*
X0364873Y0034374D01*
X0365265Y0034271D01*
X0365655Y0034158D01*
X0366042Y0034035D01*
X0366425Y0033903D01*
X0366806Y0033762D01*
X0367183Y0033611D01*
X0367556Y0033451D01*
X0367925Y0033282D01*
X0368289Y0033104D01*
X0368650Y0032918D01*
X0369005Y0032722D01*
X0369356Y0032518D01*
X0369701Y0032305D01*
X0370041Y0032083D01*
X0370376Y0031854D01*
X0370705Y0031616D01*
X0371028Y0031370D01*
X0371345Y0031117D01*
X0371655Y0030855D01*
X0371959Y0030587D01*
X0372257Y0030310D01*
X0372547Y0030027D01*
X0372830Y0029737D01*
X0373107Y0029439D01*
X0373375Y0029135D01*
X0373637Y0028825D01*
X0373890Y0028508D01*
X0374136Y0028185D01*
X0374374Y0027856D01*
X0374603Y0027521D01*
X0374825Y0027181D01*
X0375038Y0026836D01*
X0375242Y0026485D01*
X0375438Y0026130D01*
X0375624Y0025769D01*
X0375802Y0025405D01*
X0375971Y0025036D01*
X0376131Y0024663D01*
X0376282Y0024286D01*
X0376423Y0023905D01*
X0376555Y0023522D01*
X0376678Y0023135D01*
X0376791Y0022745D01*
X0376894Y0022353D01*
X0376988Y0021958D01*
X0377072Y0021561D01*
X0377147Y0021162D01*
X0377211Y0020761D01*
X0377266Y0020359D01*
X0377310Y0019956D01*
X0377345Y0019551D01*
X0377370Y0019146D01*
X0377385Y0018741D01*
X0377390Y0018335D01*
X0377385Y0017929D01*
X0377370Y0017524D01*
X0377345Y0017119D01*
X0377310Y0016714D01*
X0377266Y0016311D01*
X0377211Y0015909D01*
X0377147Y0015508D01*
X0377072Y0015109D01*
X0376988Y0014712D01*
X0376894Y0014317D01*
X0376791Y0013925D01*
X0376678Y0013535D01*
X0376555Y0013148D01*
X0376423Y0012765D01*
X0376282Y0012384D01*
X0376131Y0012007D01*
X0375971Y0011634D01*
X0375802Y0011265D01*
X0375624Y0010901D01*
X0375438Y0010540D01*
X0375242Y0010185D01*
X0375038Y0009834D01*
X0374825Y0009489D01*
X0374603Y0009149D01*
X0374374Y0008814D01*
X0374136Y0008485D01*
X0373890Y0008162D01*
X0373637Y0007845D01*
X0373375Y0007535D01*
X0373107Y0007231D01*
X0372830Y0006933D01*
X0372547Y0006643D01*
X0372257Y0006360D01*
X0371959Y0006083D01*
X0371655Y0005815D01*
X0371345Y0005553D01*
X0371028Y0005300D01*
X0370705Y0005054D01*
X0370376Y0004816D01*
X0370041Y0004587D01*
X0369701Y0004365D01*
X0369356Y0004152D01*
X0369005Y0003948D01*
X0368650Y0003752D01*
X0368289Y0003566D01*
X0367925Y0003388D01*
X0367556Y0003219D01*
X0367183Y0003059D01*
X0366806Y0002908D01*
X0366425Y0002767D01*
X0366042Y0002635D01*
X0365655Y0002512D01*
X0365265Y0002399D01*
X0364873Y0002296D01*
X0364478Y0002202D01*
X0364081Y0002118D01*
X0363682Y0002043D01*
X0363281Y0001979D01*
X0362879Y0001924D01*
X0362476Y0001880D01*
X0362071Y0001845D01*
X0361666Y0001820D01*
X0361261Y0001805D01*
X0360855Y0001800D01*
X0360449Y0001805D01*
X0360044Y0001820D01*
X0359639Y0001845D01*
X0359234Y0001880D01*
X0358831Y0001924D01*
X0358429Y0001979D01*
X0358028Y0002043D01*
X0357629Y0002118D01*
X0357232Y0002202D01*
X0356837Y0002296D01*
X0356445Y0002399D01*
X0356055Y0002512D01*
X0355668Y0002635D01*
X0355285Y0002767D01*
X0354904Y0002908D01*
X0354527Y0003059D01*
X0354154Y0003219D01*
X0353785Y0003388D01*
X0353421Y0003566D01*
X0353060Y0003752D01*
X0352705Y0003948D01*
X0352354Y0004152D01*
X0352009Y0004365D01*
X0351669Y0004587D01*
X0351334Y0004816D01*
X0351005Y0005054D01*
X0350682Y0005300D01*
X0350365Y0005553D01*
X0350055Y0005815D01*
X0349751Y0006083D01*
X0349453Y0006360D01*
X0349163Y0006643D01*
X0348880Y0006933D01*
X0348603Y0007231D01*
X0348335Y0007535D01*
X0348073Y0007845D01*
X0347820Y0008162D01*
X0347574Y0008485D01*
X0347336Y0008814D01*
X0347107Y0009149D01*
X0346885Y0009489D01*
X0346672Y0009834D01*
X0346468Y0010185D01*
X0346272Y0010540D01*
X0346086Y0010901D01*
X0345908Y0011265D01*
X0345739Y0011634D01*
X0345579Y0012007D01*
X0345428Y0012384D01*
X0345287Y0012765D01*
X0345155Y0013148D01*
X0345032Y0013535D01*
X0344919Y0013925D01*
X0344816Y0014317D01*
X0344722Y0014712D01*
X0344638Y0015109D01*
X0344563Y0015508D01*
X0344499Y0015909D01*
X0344444Y0016311D01*
X0344400Y0016714D01*
X0344365Y0017119D01*
X0344340Y0017524D01*
X0344325Y0017929D01*
X0344320Y0018335D01*
D11*
X0271017Y0133535D02*
X0267947Y0133535D01*
X0271017Y0136605D01*
X0271017Y0137372D01*
X0270249Y0138139D01*
X0268715Y0138139D01*
X0267947Y0137372D01*
X0264878Y0138139D02*
X0264878Y0133535D01*
X0263343Y0133535D02*
X0266413Y0133535D01*
X0263343Y0136605D02*
X0264878Y0138139D01*
X0261809Y0137372D02*
X0261041Y0138139D01*
X0259507Y0138139D01*
X0258739Y0137372D01*
X0258739Y0134303D01*
X0259507Y0133535D01*
X0261041Y0133535D01*
X0261809Y0134303D01*
X0242466Y0149145D02*
X0242466Y0150680D01*
X0241699Y0151447D01*
X0242466Y0152982D02*
X0242466Y0156051D01*
X0242466Y0154517D02*
X0237862Y0154517D01*
X0239397Y0152982D01*
X0238630Y0151447D02*
X0237862Y0150680D01*
X0237862Y0149145D01*
X0238630Y0148378D01*
X0241699Y0148378D01*
X0242466Y0149145D01*
X0241699Y0157586D02*
X0242466Y0158353D01*
X0242466Y0159888D01*
X0241699Y0160655D01*
X0240932Y0160655D01*
X0240164Y0159888D01*
X0240164Y0159120D01*
X0240164Y0159888D02*
X0239397Y0160655D01*
X0238630Y0160655D01*
X0237862Y0159888D01*
X0237862Y0158353D01*
X0238630Y0157586D01*
X0228687Y0157019D02*
X0228687Y0158554D01*
X0227919Y0159321D01*
X0228687Y0160856D02*
X0228687Y0163925D01*
X0228687Y0162391D02*
X0224083Y0162391D01*
X0225617Y0160856D01*
X0224850Y0159321D02*
X0224083Y0158554D01*
X0224083Y0157019D01*
X0224850Y0156252D01*
X0227919Y0156252D01*
X0228687Y0157019D01*
X0227919Y0165460D02*
X0227152Y0165460D01*
X0226385Y0166227D01*
X0226385Y0167762D01*
X0227152Y0168529D01*
X0227919Y0168529D01*
X0228687Y0167762D01*
X0228687Y0166227D01*
X0227919Y0165460D01*
X0226385Y0166227D02*
X0225617Y0165460D01*
X0224850Y0165460D01*
X0224083Y0166227D01*
X0224083Y0167762D01*
X0224850Y0168529D01*
X0225617Y0168529D01*
X0226385Y0167762D01*
X0216112Y0174062D02*
X0211508Y0174062D01*
X0211508Y0176364D01*
X0212275Y0177131D01*
X0213810Y0177131D01*
X0214577Y0176364D01*
X0214577Y0174062D01*
X0214577Y0175597D02*
X0216112Y0177131D01*
X0216112Y0178666D02*
X0216112Y0181735D01*
X0216112Y0180201D02*
X0211508Y0180201D01*
X0213043Y0178666D01*
X0212275Y0183270D02*
X0211508Y0184037D01*
X0211508Y0185572D01*
X0212275Y0186339D01*
X0213043Y0186339D01*
X0216112Y0183270D01*
X0216112Y0186339D01*
X0220350Y0207099D02*
X0220350Y0209401D01*
X0221118Y0210169D01*
X0222652Y0210169D01*
X0223420Y0209401D01*
X0223420Y0207099D01*
X0224954Y0207099D02*
X0220350Y0207099D01*
X0223420Y0208634D02*
X0224954Y0210169D01*
X0224954Y0211703D02*
X0221885Y0214772D01*
X0221118Y0214772D01*
X0220350Y0214005D01*
X0220350Y0212470D01*
X0221118Y0211703D01*
X0224954Y0211703D02*
X0224954Y0214772D01*
X0228863Y0225087D02*
X0228863Y0229691D01*
X0231165Y0229691D01*
X0231932Y0228923D01*
X0231932Y0227389D01*
X0231165Y0226621D01*
X0228863Y0226621D01*
X0230398Y0226621D02*
X0231932Y0225087D01*
X0233467Y0225854D02*
X0234234Y0225087D01*
X0235769Y0225087D01*
X0236536Y0225854D01*
X0236536Y0226621D01*
X0235769Y0227389D01*
X0235002Y0227389D01*
X0235769Y0227389D02*
X0236536Y0228156D01*
X0236536Y0228923D01*
X0235769Y0229691D01*
X0234234Y0229691D01*
X0233467Y0228923D01*
X0242991Y0230759D02*
X0243759Y0229992D01*
X0245293Y0229992D01*
X0246061Y0230759D01*
X0247595Y0229992D02*
X0250665Y0229992D01*
X0252199Y0229992D02*
X0255268Y0229992D01*
X0253734Y0229992D02*
X0253734Y0234596D01*
X0252199Y0233061D01*
X0249130Y0234596D02*
X0249130Y0229992D01*
X0247595Y0233061D02*
X0249130Y0234596D01*
X0246061Y0233829D02*
X0245293Y0234596D01*
X0243759Y0234596D01*
X0242991Y0233829D01*
X0242991Y0230759D01*
X0225765Y0244976D02*
X0221161Y0244976D01*
X0221161Y0247278D01*
X0221929Y0248046D01*
X0223463Y0248046D01*
X0224231Y0247278D01*
X0224231Y0244976D01*
X0224231Y0246511D02*
X0225765Y0248046D01*
X0224998Y0249580D02*
X0224231Y0249580D01*
X0223463Y0250348D01*
X0223463Y0251882D01*
X0224231Y0252650D01*
X0224998Y0252650D01*
X0225765Y0251882D01*
X0225765Y0250348D01*
X0224998Y0249580D01*
X0223463Y0250348D02*
X0222696Y0249580D01*
X0221929Y0249580D01*
X0221161Y0250348D01*
X0221161Y0251882D01*
X0221929Y0252650D01*
X0222696Y0252650D01*
X0223463Y0251882D01*
X0214140Y0232505D02*
X0211070Y0232505D01*
X0214140Y0229436D01*
X0214907Y0230204D01*
X0214907Y0231738D01*
X0214140Y0232505D01*
X0214140Y0229436D02*
X0211070Y0229436D01*
X0210303Y0230204D01*
X0210303Y0231738D01*
X0211070Y0232505D01*
X0214907Y0227902D02*
X0214907Y0224832D01*
X0214907Y0226367D02*
X0210303Y0226367D01*
X0211838Y0224832D01*
X0211070Y0223298D02*
X0210303Y0222530D01*
X0210303Y0220996D01*
X0211070Y0220228D01*
X0214140Y0220228D01*
X0214907Y0220996D01*
X0214907Y0222530D01*
X0214140Y0223298D01*
X0186801Y0193229D02*
X0187569Y0192462D01*
X0187569Y0190927D01*
X0186801Y0190160D01*
X0187569Y0188625D02*
X0187569Y0185556D01*
X0187569Y0187091D02*
X0182965Y0187091D01*
X0184499Y0185556D01*
X0183732Y0184021D02*
X0185267Y0184021D01*
X0186034Y0183254D01*
X0186034Y0180952D01*
X0187569Y0180952D02*
X0182965Y0180952D01*
X0182965Y0183254D01*
X0183732Y0184021D01*
X0186034Y0182487D02*
X0187569Y0184021D01*
X0183732Y0190160D02*
X0182965Y0190927D01*
X0182965Y0192462D01*
X0183732Y0193229D01*
X0184499Y0193229D01*
X0185267Y0192462D01*
X0186034Y0193229D01*
X0186801Y0193229D01*
X0185267Y0192462D02*
X0185267Y0191694D01*
X0181799Y0191742D02*
X0181799Y0188673D01*
X0181032Y0187906D01*
X0179497Y0187906D01*
X0178730Y0188673D01*
X0177195Y0188673D02*
X0176428Y0187906D01*
X0174893Y0187906D01*
X0174126Y0188673D01*
X0174126Y0191742D01*
X0174893Y0192509D01*
X0176428Y0192509D01*
X0177195Y0191742D01*
X0178730Y0191742D02*
X0178730Y0190975D01*
X0179497Y0190207D01*
X0181799Y0190207D01*
X0181799Y0191742D02*
X0181032Y0192509D01*
X0179497Y0192509D01*
X0178730Y0191742D01*
X0171189Y0177746D02*
X0169655Y0177746D01*
X0168887Y0176978D01*
X0167353Y0176978D02*
X0166585Y0177746D01*
X0165051Y0177746D01*
X0164283Y0176978D01*
X0164283Y0173909D01*
X0165051Y0173142D01*
X0166585Y0173142D01*
X0167353Y0173909D01*
X0168887Y0173909D02*
X0169655Y0173142D01*
X0171189Y0173142D01*
X0171957Y0173909D01*
X0171957Y0174676D01*
X0171189Y0175444D01*
X0170422Y0175444D01*
X0171189Y0175444D02*
X0171957Y0176211D01*
X0171957Y0176978D01*
X0171189Y0177746D01*
X0156627Y0171809D02*
X0156627Y0167205D01*
X0158161Y0167205D02*
X0155092Y0167205D01*
X0153557Y0167205D02*
X0152023Y0168739D01*
X0152790Y0168739D02*
X0150488Y0168739D01*
X0150488Y0167205D02*
X0150488Y0171809D01*
X0152790Y0171809D01*
X0153557Y0171041D01*
X0153557Y0169507D01*
X0152790Y0168739D01*
X0155092Y0170274D02*
X0156627Y0171809D01*
X0161091Y0157702D02*
X0161091Y0154633D01*
X0163393Y0154633D01*
X0162625Y0156168D01*
X0162625Y0156935D01*
X0163393Y0157702D01*
X0164927Y0157702D01*
X0165694Y0156935D01*
X0165694Y0155400D01*
X0164927Y0154633D01*
X0165694Y0153098D02*
X0165694Y0150029D01*
X0165694Y0151564D02*
X0161091Y0151564D01*
X0162625Y0150029D01*
X0161858Y0148494D02*
X0161091Y0147727D01*
X0161091Y0146193D01*
X0161858Y0145425D01*
X0164927Y0145425D01*
X0165694Y0146193D01*
X0165694Y0147727D01*
X0164927Y0148494D01*
X0150906Y0141108D02*
X0147837Y0141108D01*
X0147837Y0138806D01*
X0149372Y0139573D01*
X0150139Y0139573D01*
X0150906Y0138806D01*
X0150906Y0137271D01*
X0150139Y0136504D01*
X0148604Y0136504D01*
X0147837Y0137271D01*
X0146302Y0136504D02*
X0144768Y0138039D01*
X0145535Y0138039D02*
X0143233Y0138039D01*
X0143233Y0136504D02*
X0143233Y0141108D01*
X0145535Y0141108D01*
X0146302Y0140341D01*
X0146302Y0138806D01*
X0145535Y0138039D01*
X0126403Y0149967D02*
X0126403Y0151737D01*
X0125813Y0152327D01*
X0123453Y0152327D01*
X0122863Y0151737D01*
X0122863Y0149967D01*
X0126403Y0149967D01*
X0126403Y0153592D02*
X0122863Y0153592D01*
X0122863Y0155952D01*
X0122863Y0157218D02*
X0122863Y0158988D01*
X0123453Y0159578D01*
X0124043Y0159578D01*
X0124633Y0158988D01*
X0124633Y0157218D01*
X0124633Y0158988D02*
X0125223Y0159578D01*
X0125813Y0159578D01*
X0126403Y0158988D01*
X0126403Y0157218D01*
X0122863Y0157218D01*
X0124633Y0154772D02*
X0124633Y0153592D01*
X0126403Y0153592D02*
X0126403Y0155952D01*
X0125813Y0160843D02*
X0122863Y0160843D01*
X0122863Y0163203D02*
X0125813Y0163203D01*
X0126403Y0162613D01*
X0126403Y0161433D01*
X0125813Y0160843D01*
X0125813Y0164468D02*
X0123453Y0164468D01*
X0122863Y0165058D01*
X0122863Y0166238D01*
X0123453Y0166828D01*
X0124633Y0166828D02*
X0124633Y0165648D01*
X0124633Y0166828D02*
X0125813Y0166828D01*
X0126403Y0166238D01*
X0126403Y0165058D01*
X0125813Y0164468D01*
X0125813Y0168093D02*
X0123453Y0168093D01*
X0122863Y0168683D01*
X0122863Y0169863D01*
X0123453Y0170453D01*
X0124633Y0170453D02*
X0124633Y0169273D01*
X0124633Y0170453D02*
X0125813Y0170453D01*
X0126403Y0169863D01*
X0126403Y0168683D01*
X0125813Y0168093D01*
X0126403Y0171718D02*
X0122863Y0171718D01*
X0122863Y0174078D01*
X0122863Y0175343D02*
X0122863Y0177113D01*
X0123453Y0177703D01*
X0124633Y0177703D01*
X0125223Y0177113D01*
X0125223Y0175343D01*
X0126403Y0175343D02*
X0122863Y0175343D01*
X0125223Y0176523D02*
X0126403Y0177703D01*
X0126403Y0174078D02*
X0126403Y0171718D01*
X0124633Y0171718D02*
X0124633Y0172898D01*
X0139460Y0188890D02*
X0140995Y0188890D01*
X0141762Y0189657D01*
X0143297Y0189657D02*
X0143297Y0190424D01*
X0144064Y0191192D01*
X0145599Y0191192D01*
X0146366Y0190424D01*
X0146366Y0189657D01*
X0145599Y0188890D01*
X0144064Y0188890D01*
X0143297Y0189657D01*
X0144064Y0191192D02*
X0143297Y0191959D01*
X0143297Y0192726D01*
X0144064Y0193494D01*
X0145599Y0193494D01*
X0146366Y0192726D01*
X0146366Y0191959D01*
X0145599Y0191192D01*
X0148535Y0192726D02*
X0149303Y0193494D01*
X0150837Y0193494D01*
X0151605Y0192726D01*
X0153139Y0193494D02*
X0153139Y0191192D01*
X0154674Y0191959D01*
X0155441Y0191959D01*
X0156209Y0191192D01*
X0156209Y0189657D01*
X0155441Y0188890D01*
X0153907Y0188890D01*
X0153139Y0189657D01*
X0151605Y0189657D02*
X0150837Y0188890D01*
X0149303Y0188890D01*
X0148535Y0189657D01*
X0148535Y0192726D01*
X0153139Y0193494D02*
X0156209Y0193494D01*
X0141762Y0192726D02*
X0140995Y0193494D01*
X0139460Y0193494D01*
X0138693Y0192726D01*
X0138693Y0189657D01*
X0139460Y0188890D01*
X0119681Y0197275D02*
X0119091Y0196685D01*
X0117321Y0196685D01*
X0117321Y0200225D01*
X0119091Y0200225D01*
X0119681Y0199635D01*
X0119681Y0197275D01*
X0116056Y0196685D02*
X0116056Y0200225D01*
X0113696Y0200225D02*
X0113696Y0196685D01*
X0112431Y0197275D02*
X0111841Y0196685D01*
X0110661Y0196685D01*
X0110071Y0197275D01*
X0110071Y0199635D01*
X0110661Y0200225D01*
X0111841Y0200225D01*
X0112431Y0199635D01*
X0112431Y0198455D02*
X0111251Y0198455D01*
X0112431Y0198455D02*
X0112431Y0197275D01*
X0113696Y0200225D02*
X0116056Y0196685D01*
X0154220Y0242517D02*
X0157289Y0242517D01*
X0158057Y0243284D01*
X0158057Y0244819D01*
X0157289Y0245586D01*
X0155755Y0247120D02*
X0153453Y0249422D01*
X0158057Y0249422D01*
X0155755Y0250190D02*
X0155755Y0247120D01*
X0154220Y0245586D02*
X0153453Y0244819D01*
X0153453Y0243284D01*
X0154220Y0242517D01*
X0136198Y0243992D02*
X0131595Y0243992D01*
X0131595Y0246294D01*
X0132362Y0247061D01*
X0133896Y0247061D01*
X0134664Y0246294D01*
X0134664Y0243992D01*
X0134664Y0245527D02*
X0136198Y0247061D01*
X0135431Y0248596D02*
X0136198Y0249363D01*
X0136198Y0250898D01*
X0135431Y0251665D01*
X0134664Y0251665D01*
X0133896Y0250898D01*
X0133896Y0248596D01*
X0135431Y0248596D01*
X0133896Y0248596D02*
X0132362Y0250131D01*
X0131595Y0251665D01*
X0166252Y0268397D02*
X0167019Y0267630D01*
X0168554Y0267630D01*
X0169321Y0268397D01*
X0170856Y0267630D02*
X0173925Y0270699D01*
X0173925Y0271467D01*
X0173158Y0272234D01*
X0171623Y0272234D01*
X0170856Y0271467D01*
X0169321Y0271467D02*
X0168554Y0272234D01*
X0167019Y0272234D01*
X0166252Y0271467D01*
X0166252Y0268397D01*
X0170856Y0267630D02*
X0173925Y0267630D01*
X0193654Y0268240D02*
X0194421Y0267472D01*
X0195955Y0267472D01*
X0196723Y0268240D01*
X0198257Y0267472D02*
X0201327Y0267472D01*
X0199792Y0267472D02*
X0199792Y0272076D01*
X0198257Y0270542D01*
X0196723Y0271309D02*
X0195955Y0272076D01*
X0194421Y0272076D01*
X0193654Y0271309D01*
X0193654Y0268240D01*
X0259283Y0180540D02*
X0258693Y0179950D01*
X0258693Y0177590D01*
X0259283Y0177000D01*
X0260463Y0177000D01*
X0261053Y0177590D01*
X0261053Y0178770D01*
X0259873Y0178770D01*
X0261053Y0179950D02*
X0260463Y0180540D01*
X0259283Y0180540D01*
X0262318Y0180540D02*
X0264678Y0177000D01*
X0264678Y0180540D01*
X0265943Y0180540D02*
X0265943Y0177000D01*
X0267713Y0177000D01*
X0268303Y0177590D01*
X0268303Y0179950D01*
X0267713Y0180540D01*
X0265943Y0180540D01*
X0262318Y0180540D02*
X0262318Y0177000D01*
X0261070Y0174402D02*
X0261070Y0171333D01*
X0258768Y0173635D01*
X0263372Y0173635D01*
X0263372Y0169798D02*
X0263372Y0166729D01*
X0263372Y0168264D02*
X0258768Y0168264D01*
X0260302Y0166729D01*
X0259535Y0165194D02*
X0258768Y0164427D01*
X0258768Y0162893D01*
X0259535Y0162125D01*
X0262604Y0162125D01*
X0263372Y0162893D01*
X0263372Y0164427D01*
X0262604Y0165194D01*
X0234568Y0144061D02*
X0234568Y0143293D01*
X0231498Y0140224D01*
X0231498Y0139457D01*
X0229964Y0139457D02*
X0228429Y0140991D01*
X0229196Y0140991D02*
X0226895Y0140991D01*
X0226895Y0139457D02*
X0226895Y0144061D01*
X0229196Y0144061D01*
X0229964Y0143293D01*
X0229964Y0141759D01*
X0229196Y0140991D01*
X0231498Y0144061D02*
X0234568Y0144061D01*
X0215741Y0153120D02*
X0212672Y0150051D01*
X0212672Y0149283D01*
X0211137Y0149283D02*
X0208068Y0149283D01*
X0209602Y0149283D02*
X0209602Y0153887D01*
X0208068Y0152353D01*
X0206533Y0153120D02*
X0205766Y0153887D01*
X0204231Y0153887D01*
X0203464Y0153120D01*
X0203464Y0150051D01*
X0204231Y0149283D01*
X0205766Y0149283D01*
X0206533Y0150051D01*
X0212672Y0153887D02*
X0215741Y0153887D01*
X0215741Y0153120D01*
X0193261Y0134202D02*
X0191726Y0133435D01*
X0190191Y0131900D01*
X0192493Y0131900D01*
X0193261Y0131133D01*
X0193261Y0130366D01*
X0192493Y0129598D01*
X0190959Y0129598D01*
X0190191Y0130366D01*
X0190191Y0131900D01*
X0188657Y0129598D02*
X0185587Y0129598D01*
X0187122Y0129598D02*
X0187122Y0134202D01*
X0185587Y0132668D01*
X0184053Y0133435D02*
X0183285Y0134202D01*
X0181751Y0134202D01*
X0180983Y0133435D01*
X0180983Y0130366D01*
X0181751Y0129598D01*
X0183285Y0129598D01*
X0184053Y0130366D01*
D12*
X0188611Y0178769D02*
X0187627Y0179753D01*
X0188611Y0178769D02*
X0193532Y0178769D01*
X0254556Y0178769D02*
X0257509Y0178769D01*
X0264398Y0181721D02*
X0264398Y0183690D01*
X0114792Y0193532D02*
X0114792Y0195501D01*
D13*
X0126046Y0247576D02*
X0125211Y0248412D01*
X0126046Y0247576D02*
X0131614Y0253144D01*
X0130779Y0253979D01*
X0127995Y0256763D02*
X0127160Y0257598D01*
X0121592Y0252031D01*
X0122427Y0251195D01*
X0180934Y0166761D02*
X0180934Y0164792D01*
X0180934Y0166761D02*
X0182902Y0166761D01*
X0196288Y0166761D02*
X0198257Y0166761D01*
X0198257Y0164792D01*
X0198257Y0151406D02*
X0198257Y0149438D01*
X0196288Y0149438D01*
X0182863Y0149438D02*
X0180934Y0149438D01*
X0180934Y0151406D01*
X0174831Y0137430D02*
X0175816Y0135461D01*
X0173847Y0135461D02*
X0174831Y0137430D01*
X0174831Y0132509D01*
X0169910Y0132509D01*
X0171879Y0131524D01*
X0171879Y0133493D02*
X0169910Y0132509D01*
X0131614Y0126046D02*
X0130779Y0125211D01*
X0131614Y0126046D02*
X0126046Y0131614D01*
X0125211Y0130779D01*
X0122427Y0127995D02*
X0121592Y0127160D01*
X0127160Y0121592D01*
X0127995Y0122427D01*
X0247576Y0127031D02*
X0253144Y0132598D01*
X0253979Y0131763D01*
X0256763Y0128979D02*
X0257598Y0128144D01*
X0252031Y0122576D01*
X0251195Y0123412D01*
X0248412Y0126195D02*
X0247576Y0127031D01*
X0253144Y0247576D02*
X0247576Y0253144D01*
X0248412Y0253979D01*
X0251195Y0256763D02*
X0252031Y0257598D01*
X0257598Y0252031D01*
X0256763Y0251195D01*
X0253979Y0248412D02*
X0253144Y0247576D01*
D14*
X0175440Y0142204D02*
X0173013Y0138564D01*
X0175440Y0138564D02*
X0173013Y0142204D01*
X0169534Y0135315D02*
X0169534Y0134708D01*
X0168321Y0133494D01*
X0168321Y0131674D01*
X0168321Y0133494D02*
X0167107Y0134708D01*
X0167107Y0135315D01*
D15*
X0126882Y0129665D02*
X0123541Y0126325D01*
X0142351Y0214694D02*
X0142351Y0219615D01*
X0143120Y0216643D02*
X0143122Y0216669D01*
X0143128Y0216695D01*
X0143137Y0216719D01*
X0143151Y0216742D01*
X0143167Y0216763D01*
X0143186Y0216781D01*
X0143208Y0216795D01*
X0143232Y0216807D01*
X0143257Y0216815D01*
X0143283Y0216819D01*
X0143309Y0216819D01*
X0143335Y0216815D01*
X0143360Y0216807D01*
X0143384Y0216795D01*
X0143406Y0216781D01*
X0143425Y0216763D01*
X0143441Y0216742D01*
X0143455Y0216719D01*
X0143464Y0216695D01*
X0143470Y0216669D01*
X0143472Y0216643D01*
X0143470Y0216617D01*
X0143464Y0216591D01*
X0143455Y0216567D01*
X0143441Y0216544D01*
X0143425Y0216523D01*
X0143406Y0216505D01*
X0143384Y0216491D01*
X0143360Y0216479D01*
X0143335Y0216471D01*
X0143309Y0216467D01*
X0143283Y0216467D01*
X0143257Y0216471D01*
X0143232Y0216479D01*
X0143208Y0216491D01*
X0143186Y0216505D01*
X0143167Y0216523D01*
X0143151Y0216544D01*
X0143137Y0216567D01*
X0143128Y0216591D01*
X0143122Y0216617D01*
X0143120Y0216643D01*
X0150225Y0214694D02*
X0150225Y0219615D01*
X0126882Y0249525D02*
X0123541Y0252866D01*
X0252309Y0249525D02*
X0255650Y0252866D01*
X0252309Y0130650D02*
X0255650Y0127309D01*
D16*
X0259276Y0124615D02*
X0262812Y0128151D01*
X0266347Y0128151D01*
X0269883Y0124615D01*
X0269883Y0121080D01*
X0266347Y0117544D01*
X0262812Y0117544D01*
X0262812Y0114009D01*
X0259276Y0110473D01*
X0255741Y0110473D01*
X0252205Y0114009D01*
X0252205Y0117544D01*
X0255741Y0121080D01*
X0259276Y0121080D01*
X0259276Y0124615D01*
X0214280Y0129851D02*
X0211780Y0127351D01*
X0206780Y0127351D01*
X0204280Y0129851D01*
X0204280Y0134851D01*
X0206780Y0137351D01*
X0204280Y0139851D01*
X0204280Y0144851D01*
X0206780Y0147351D01*
X0211780Y0147351D01*
X0214280Y0144851D01*
X0214280Y0139851D01*
X0211780Y0137351D01*
X0214280Y0134851D01*
X0214280Y0129851D01*
X0237213Y0174595D02*
X0234713Y0177095D01*
X0234713Y0182095D01*
X0237213Y0184595D01*
X0252213Y0184595D01*
X0254713Y0182095D01*
X0254713Y0177095D01*
X0252213Y0174595D01*
X0237213Y0174595D01*
X0237213Y0184595D02*
X0234713Y0187095D01*
X0234713Y0192095D01*
X0237213Y0194595D01*
X0234713Y0197095D01*
X0234713Y0202095D01*
X0237213Y0204595D01*
X0252213Y0204595D01*
X0254713Y0202095D01*
X0254713Y0197095D01*
X0252213Y0194595D01*
X0237213Y0194595D01*
X0252213Y0184595D02*
X0254713Y0187095D01*
X0254713Y0192095D01*
X0259398Y0191308D02*
X0259398Y0186308D01*
X0261898Y0183808D01*
X0266898Y0183808D01*
X0269398Y0186308D01*
X0269398Y0191308D01*
X0266898Y0193808D01*
X0269398Y0196308D01*
X0269398Y0201308D01*
X0266898Y0203808D01*
X0269398Y0206308D01*
X0269398Y0211308D01*
X0266898Y0213808D01*
X0269398Y0216308D01*
X0269398Y0221308D01*
X0266898Y0223808D01*
X0269398Y0226308D01*
X0269398Y0231308D01*
X0266898Y0233808D01*
X0269398Y0236308D01*
X0269398Y0241308D01*
X0266898Y0243808D01*
X0261898Y0243808D01*
X0259398Y0241308D01*
X0259398Y0236308D01*
X0261898Y0233808D01*
X0259398Y0231308D01*
X0259398Y0226308D01*
X0261898Y0223808D01*
X0259398Y0221308D01*
X0259398Y0216308D01*
X0261898Y0213808D01*
X0259398Y0211308D01*
X0259398Y0206308D01*
X0261898Y0203808D01*
X0259398Y0201308D01*
X0259398Y0196308D01*
X0261898Y0193808D01*
X0259398Y0191308D01*
X0201406Y0199438D02*
X0201406Y0200619D01*
X0201406Y0199438D02*
X0200225Y0199438D01*
X0167154Y0199438D02*
X0165973Y0199438D01*
X0165973Y0200619D01*
X0165973Y0233690D02*
X0167154Y0234871D01*
X0182509Y0248650D02*
X0184871Y0248650D01*
X0189989Y0256131D02*
X0189989Y0260855D01*
X0184871Y0268335D02*
X0182509Y0268335D01*
X0177391Y0260855D02*
X0177391Y0256131D01*
X0200225Y0234871D02*
X0201406Y0234871D01*
X0201406Y0233690D01*
X0252205Y0262631D02*
X0255741Y0259095D01*
X0259276Y0259095D01*
X0259276Y0255560D01*
X0262812Y0252024D01*
X0266347Y0252024D01*
X0269883Y0255560D01*
X0269883Y0259095D01*
X0266347Y0262631D01*
X0262812Y0262631D01*
X0262812Y0266166D01*
X0259276Y0269702D01*
X0255741Y0269702D01*
X0252205Y0266166D01*
X0252205Y0262631D01*
X0131182Y0218702D02*
X0112182Y0218702D01*
X0114682Y0215702D02*
X0113182Y0214202D01*
X0114682Y0212702D01*
X0113182Y0214202D02*
X0116682Y0214202D01*
X0112182Y0209702D02*
X0131182Y0209702D01*
X0117292Y0193414D02*
X0112292Y0193414D01*
X0109792Y0190914D01*
X0109792Y0185914D01*
X0112292Y0183414D01*
X0109792Y0180914D01*
X0109792Y0175914D01*
X0112292Y0173414D01*
X0109792Y0170914D01*
X0109792Y0165914D01*
X0112292Y0163414D01*
X0109792Y0160914D01*
X0109792Y0155914D01*
X0112292Y0153414D01*
X0109792Y0150914D01*
X0109792Y0145914D01*
X0112292Y0143414D01*
X0109792Y0140914D01*
X0109792Y0135914D01*
X0112292Y0133414D01*
X0117292Y0133414D01*
X0119792Y0135914D01*
X0119792Y0140914D01*
X0117292Y0143414D01*
X0119792Y0145914D01*
X0119792Y0150914D01*
X0117292Y0153414D01*
X0119792Y0155914D01*
X0119792Y0160914D01*
X0117292Y0163414D01*
X0119792Y0165914D01*
X0119792Y0170914D01*
X0117292Y0173414D01*
X0119792Y0175914D01*
X0119792Y0180914D01*
X0117292Y0183414D01*
X0119792Y0185914D01*
X0119792Y0190914D01*
X0117292Y0193414D01*
X0116379Y0252024D02*
X0112843Y0252024D01*
X0109308Y0255560D01*
X0109308Y0259095D01*
X0112843Y0262631D01*
X0116379Y0262631D01*
X0116379Y0266166D01*
X0119914Y0269702D01*
X0123450Y0269702D01*
X0126985Y0266166D01*
X0126985Y0262631D01*
X0123450Y0259095D01*
X0119914Y0259095D01*
X0119914Y0255560D01*
X0116379Y0252024D01*
X0116575Y0126970D02*
X0113040Y0126970D01*
X0109504Y0123434D01*
X0109504Y0119899D01*
X0113040Y0116363D01*
X0116575Y0116363D01*
X0116575Y0112827D01*
X0120111Y0109292D01*
X0123647Y0109292D01*
X0127182Y0112827D01*
X0127182Y0116363D01*
X0123647Y0119899D01*
X0120111Y0119899D01*
X0120111Y0123434D01*
X0116575Y0126970D01*
D17*
X0249241Y0211249D03*
X0249241Y0221091D03*
D18*
X0249241Y0218729D03*
X0249241Y0223454D03*
X0249241Y0213611D03*
X0249241Y0208887D03*
D19*
G36*
X0317966Y0317132D02*
X0317132Y0317966D01*
X0317966Y0318800D01*
X0318800Y0317966D01*
X0317966Y0317132D01*
G37*
G36*
X0317132Y0061225D02*
X0317966Y0062059D01*
X0318800Y0061225D01*
X0317966Y0060391D01*
X0317132Y0061225D01*
G37*
G36*
X0061225Y0062059D02*
X0062059Y0061225D01*
X0061225Y0060391D01*
X0060391Y0061225D01*
X0061225Y0062059D01*
G37*
G36*
X0062059Y0317966D02*
X0061225Y0317132D01*
X0060391Y0317966D01*
X0061225Y0318800D01*
X0062059Y0317966D01*
G37*
D20*
G36*
X0063520Y0319428D02*
X0063103Y0319011D01*
X0062270Y0319844D01*
X0062687Y0320261D01*
X0063520Y0319428D01*
G37*
G36*
X0060180Y0316087D02*
X0059763Y0315670D01*
X0058930Y0316503D01*
X0059347Y0316920D01*
X0060180Y0316087D01*
G37*
G36*
X0059763Y0063520D02*
X0060180Y0063103D01*
X0059347Y0062270D01*
X0058930Y0062687D01*
X0059763Y0063520D01*
G37*
G36*
X0063103Y0060180D02*
X0063520Y0059763D01*
X0062687Y0058930D01*
X0062270Y0059347D01*
X0063103Y0060180D01*
G37*
G36*
X0315670Y0059763D02*
X0316087Y0060180D01*
X0316920Y0059347D01*
X0316503Y0058930D01*
X0315670Y0059763D01*
G37*
G36*
X0319011Y0063103D02*
X0319428Y0063520D01*
X0320261Y0062687D01*
X0319844Y0062270D01*
X0319011Y0063103D01*
G37*
G36*
X0319428Y0315670D02*
X0319011Y0316087D01*
X0319844Y0316920D01*
X0320261Y0316503D01*
X0319428Y0315670D01*
G37*
G36*
X0316087Y0319011D02*
X0315670Y0319428D01*
X0316503Y0320261D01*
X0316920Y0319844D01*
X0316087Y0319011D01*
G37*
D21*
X0263650Y0159761D02*
X0257272Y0159761D01*
X0257272Y0159391D01*
X0257272Y0156217D02*
X0257272Y0152107D01*
X0257272Y0148934D02*
X0257272Y0148564D01*
X0263650Y0148564D01*
X0263650Y0148934D01*
X0263650Y0152107D02*
X0263650Y0152477D01*
X0263650Y0155847D02*
X0263650Y0156217D01*
X0263650Y0159391D02*
X0263650Y0159761D01*
D22*
X0182411Y0164989D02*
X0182413Y0165023D01*
X0182419Y0165057D01*
X0182429Y0165090D01*
X0182442Y0165121D01*
X0182460Y0165151D01*
X0182480Y0165179D01*
X0182504Y0165204D01*
X0182530Y0165226D01*
X0182558Y0165244D01*
X0182589Y0165260D01*
X0182621Y0165272D01*
X0182655Y0165280D01*
X0182689Y0165284D01*
X0182723Y0165284D01*
X0182757Y0165280D01*
X0182791Y0165272D01*
X0182823Y0165260D01*
X0182853Y0165244D01*
X0182882Y0165226D01*
X0182908Y0165204D01*
X0182932Y0165179D01*
X0182952Y0165151D01*
X0182970Y0165121D01*
X0182983Y0165090D01*
X0182993Y0165057D01*
X0182999Y0165023D01*
X0183001Y0164989D01*
X0182999Y0164955D01*
X0182993Y0164921D01*
X0182983Y0164888D01*
X0182970Y0164857D01*
X0182952Y0164827D01*
X0182932Y0164799D01*
X0182908Y0164774D01*
X0182882Y0164752D01*
X0182854Y0164734D01*
X0182823Y0164718D01*
X0182791Y0164706D01*
X0182757Y0164698D01*
X0182723Y0164694D01*
X0182689Y0164694D01*
X0182655Y0164698D01*
X0182621Y0164706D01*
X0182589Y0164718D01*
X0182558Y0164734D01*
X0182530Y0164752D01*
X0182504Y0164774D01*
X0182480Y0164799D01*
X0182460Y0164827D01*
X0182442Y0164857D01*
X0182429Y0164888D01*
X0182419Y0164921D01*
X0182413Y0164955D01*
X0182411Y0164989D01*
M02*
