G75*
%MOIN*%
%OFA0B0*%
%FSLAX25Y25*%
%IPPOS*%
%LPD*%
%AMOC8*
5,1,8,0,0,1.08239X$1,22.5*
%
%ADD10C,0.01600*%
D10*
X0001800Y0018335D02*
X0001805Y0018741D01*
X0001820Y0019146D01*
X0001845Y0019551D01*
X0001880Y0019956D01*
X0001924Y0020359D01*
X0001979Y0020761D01*
X0002043Y0021162D01*
X0002118Y0021561D01*
X0002202Y0021958D01*
X0002296Y0022353D01*
X0002399Y0022745D01*
X0002512Y0023135D01*
X0002635Y0023522D01*
X0002767Y0023905D01*
X0002908Y0024286D01*
X0003059Y0024663D01*
X0003219Y0025036D01*
X0003388Y0025405D01*
X0003566Y0025769D01*
X0003752Y0026130D01*
X0003948Y0026485D01*
X0004152Y0026836D01*
X0004365Y0027181D01*
X0004587Y0027521D01*
X0004816Y0027856D01*
X0005054Y0028185D01*
X0005300Y0028508D01*
X0005553Y0028825D01*
X0005815Y0029135D01*
X0006083Y0029439D01*
X0006360Y0029737D01*
X0006643Y0030027D01*
X0006933Y0030310D01*
X0007231Y0030587D01*
X0007535Y0030855D01*
X0007845Y0031117D01*
X0008162Y0031370D01*
X0008485Y0031616D01*
X0008814Y0031854D01*
X0009149Y0032083D01*
X0009489Y0032305D01*
X0009834Y0032518D01*
X0010185Y0032722D01*
X0010540Y0032918D01*
X0010901Y0033104D01*
X0011265Y0033282D01*
X0011634Y0033451D01*
X0012007Y0033611D01*
X0012384Y0033762D01*
X0012765Y0033903D01*
X0013148Y0034035D01*
X0013535Y0034158D01*
X0013925Y0034271D01*
X0014317Y0034374D01*
X0014712Y0034468D01*
X0015109Y0034552D01*
X0015508Y0034627D01*
X0015909Y0034691D01*
X0016311Y0034746D01*
X0016714Y0034790D01*
X0017119Y0034825D01*
X0017524Y0034850D01*
X0017929Y0034865D01*
X0018335Y0034870D01*
X0018741Y0034865D01*
X0019146Y0034850D01*
X0019551Y0034825D01*
X0019956Y0034790D01*
X0020359Y0034746D01*
X0020761Y0034691D01*
X0021162Y0034627D01*
X0021561Y0034552D01*
X0021958Y0034468D01*
X0022353Y0034374D01*
X0022745Y0034271D01*
X0023135Y0034158D01*
X0023522Y0034035D01*
X0023905Y0033903D01*
X0024286Y0033762D01*
X0024663Y0033611D01*
X0025036Y0033451D01*
X0025405Y0033282D01*
X0025769Y0033104D01*
X0026130Y0032918D01*
X0026485Y0032722D01*
X0026836Y0032518D01*
X0027181Y0032305D01*
X0027521Y0032083D01*
X0027856Y0031854D01*
X0028185Y0031616D01*
X0028508Y0031370D01*
X0028825Y0031117D01*
X0029135Y0030855D01*
X0029439Y0030587D01*
X0029737Y0030310D01*
X0030027Y0030027D01*
X0030310Y0029737D01*
X0030587Y0029439D01*
X0030855Y0029135D01*
X0031117Y0028825D01*
X0031370Y0028508D01*
X0031616Y0028185D01*
X0031854Y0027856D01*
X0032083Y0027521D01*
X0032305Y0027181D01*
X0032518Y0026836D01*
X0032722Y0026485D01*
X0032918Y0026130D01*
X0033104Y0025769D01*
X0033282Y0025405D01*
X0033451Y0025036D01*
X0033611Y0024663D01*
X0033762Y0024286D01*
X0033903Y0023905D01*
X0034035Y0023522D01*
X0034158Y0023135D01*
X0034271Y0022745D01*
X0034374Y0022353D01*
X0034468Y0021958D01*
X0034552Y0021561D01*
X0034627Y0021162D01*
X0034691Y0020761D01*
X0034746Y0020359D01*
X0034790Y0019956D01*
X0034825Y0019551D01*
X0034850Y0019146D01*
X0034865Y0018741D01*
X0034870Y0018335D01*
X0034865Y0017929D01*
X0034850Y0017524D01*
X0034825Y0017119D01*
X0034790Y0016714D01*
X0034746Y0016311D01*
X0034691Y0015909D01*
X0034627Y0015508D01*
X0034552Y0015109D01*
X0034468Y0014712D01*
X0034374Y0014317D01*
X0034271Y0013925D01*
X0034158Y0013535D01*
X0034035Y0013148D01*
X0033903Y0012765D01*
X0033762Y0012384D01*
X0033611Y0012007D01*
X0033451Y0011634D01*
X0033282Y0011265D01*
X0033104Y0010901D01*
X0032918Y0010540D01*
X0032722Y0010185D01*
X0032518Y0009834D01*
X0032305Y0009489D01*
X0032083Y0009149D01*
X0031854Y0008814D01*
X0031616Y0008485D01*
X0031370Y0008162D01*
X0031117Y0007845D01*
X0030855Y0007535D01*
X0030587Y0007231D01*
X0030310Y0006933D01*
X0030027Y0006643D01*
X0029737Y0006360D01*
X0029439Y0006083D01*
X0029135Y0005815D01*
X0028825Y0005553D01*
X0028508Y0005300D01*
X0028185Y0005054D01*
X0027856Y0004816D01*
X0027521Y0004587D01*
X0027181Y0004365D01*
X0026836Y0004152D01*
X0026485Y0003948D01*
X0026130Y0003752D01*
X0025769Y0003566D01*
X0025405Y0003388D01*
X0025036Y0003219D01*
X0024663Y0003059D01*
X0024286Y0002908D01*
X0023905Y0002767D01*
X0023522Y0002635D01*
X0023135Y0002512D01*
X0022745Y0002399D01*
X0022353Y0002296D01*
X0021958Y0002202D01*
X0021561Y0002118D01*
X0021162Y0002043D01*
X0020761Y0001979D01*
X0020359Y0001924D01*
X0019956Y0001880D01*
X0019551Y0001845D01*
X0019146Y0001820D01*
X0018741Y0001805D01*
X0018335Y0001800D01*
X0017929Y0001805D01*
X0017524Y0001820D01*
X0017119Y0001845D01*
X0016714Y0001880D01*
X0016311Y0001924D01*
X0015909Y0001979D01*
X0015508Y0002043D01*
X0015109Y0002118D01*
X0014712Y0002202D01*
X0014317Y0002296D01*
X0013925Y0002399D01*
X0013535Y0002512D01*
X0013148Y0002635D01*
X0012765Y0002767D01*
X0012384Y0002908D01*
X0012007Y0003059D01*
X0011634Y0003219D01*
X0011265Y0003388D01*
X0010901Y0003566D01*
X0010540Y0003752D01*
X0010185Y0003948D01*
X0009834Y0004152D01*
X0009489Y0004365D01*
X0009149Y0004587D01*
X0008814Y0004816D01*
X0008485Y0005054D01*
X0008162Y0005300D01*
X0007845Y0005553D01*
X0007535Y0005815D01*
X0007231Y0006083D01*
X0006933Y0006360D01*
X0006643Y0006643D01*
X0006360Y0006933D01*
X0006083Y0007231D01*
X0005815Y0007535D01*
X0005553Y0007845D01*
X0005300Y0008162D01*
X0005054Y0008485D01*
X0004816Y0008814D01*
X0004587Y0009149D01*
X0004365Y0009489D01*
X0004152Y0009834D01*
X0003948Y0010185D01*
X0003752Y0010540D01*
X0003566Y0010901D01*
X0003388Y0011265D01*
X0003219Y0011634D01*
X0003059Y0012007D01*
X0002908Y0012384D01*
X0002767Y0012765D01*
X0002635Y0013148D01*
X0002512Y0013535D01*
X0002399Y0013925D01*
X0002296Y0014317D01*
X0002202Y0014712D01*
X0002118Y0015109D01*
X0002043Y0015508D01*
X0001979Y0015909D01*
X0001924Y0016311D01*
X0001880Y0016714D01*
X0001845Y0017119D01*
X0001820Y0017524D01*
X0001805Y0017929D01*
X0001800Y0018335D01*
X0022272Y0034083D02*
X0034083Y0022272D01*
X0112824Y0101013D01*
X0266367Y0101013D01*
X0345107Y0022272D01*
X0356918Y0034083D01*
X0278178Y0112824D01*
X0278178Y0266367D01*
X0356918Y0345107D01*
X0345107Y0356918D01*
X0266367Y0278178D01*
X0112824Y0278178D01*
X0034083Y0356918D01*
X0022272Y0345107D01*
X0101013Y0266367D01*
X0101013Y0112824D01*
X0022272Y0034083D01*
X0001800Y0360855D02*
X0001805Y0361261D01*
X0001820Y0361666D01*
X0001845Y0362071D01*
X0001880Y0362476D01*
X0001924Y0362879D01*
X0001979Y0363281D01*
X0002043Y0363682D01*
X0002118Y0364081D01*
X0002202Y0364478D01*
X0002296Y0364873D01*
X0002399Y0365265D01*
X0002512Y0365655D01*
X0002635Y0366042D01*
X0002767Y0366425D01*
X0002908Y0366806D01*
X0003059Y0367183D01*
X0003219Y0367556D01*
X0003388Y0367925D01*
X0003566Y0368289D01*
X0003752Y0368650D01*
X0003948Y0369005D01*
X0004152Y0369356D01*
X0004365Y0369701D01*
X0004587Y0370041D01*
X0004816Y0370376D01*
X0005054Y0370705D01*
X0005300Y0371028D01*
X0005553Y0371345D01*
X0005815Y0371655D01*
X0006083Y0371959D01*
X0006360Y0372257D01*
X0006643Y0372547D01*
X0006933Y0372830D01*
X0007231Y0373107D01*
X0007535Y0373375D01*
X0007845Y0373637D01*
X0008162Y0373890D01*
X0008485Y0374136D01*
X0008814Y0374374D01*
X0009149Y0374603D01*
X0009489Y0374825D01*
X0009834Y0375038D01*
X0010185Y0375242D01*
X0010540Y0375438D01*
X0010901Y0375624D01*
X0011265Y0375802D01*
X0011634Y0375971D01*
X0012007Y0376131D01*
X0012384Y0376282D01*
X0012765Y0376423D01*
X0013148Y0376555D01*
X0013535Y0376678D01*
X0013925Y0376791D01*
X0014317Y0376894D01*
X0014712Y0376988D01*
X0015109Y0377072D01*
X0015508Y0377147D01*
X0015909Y0377211D01*
X0016311Y0377266D01*
X0016714Y0377310D01*
X0017119Y0377345D01*
X0017524Y0377370D01*
X0017929Y0377385D01*
X0018335Y0377390D01*
X0018741Y0377385D01*
X0019146Y0377370D01*
X0019551Y0377345D01*
X0019956Y0377310D01*
X0020359Y0377266D01*
X0020761Y0377211D01*
X0021162Y0377147D01*
X0021561Y0377072D01*
X0021958Y0376988D01*
X0022353Y0376894D01*
X0022745Y0376791D01*
X0023135Y0376678D01*
X0023522Y0376555D01*
X0023905Y0376423D01*
X0024286Y0376282D01*
X0024663Y0376131D01*
X0025036Y0375971D01*
X0025405Y0375802D01*
X0025769Y0375624D01*
X0026130Y0375438D01*
X0026485Y0375242D01*
X0026836Y0375038D01*
X0027181Y0374825D01*
X0027521Y0374603D01*
X0027856Y0374374D01*
X0028185Y0374136D01*
X0028508Y0373890D01*
X0028825Y0373637D01*
X0029135Y0373375D01*
X0029439Y0373107D01*
X0029737Y0372830D01*
X0030027Y0372547D01*
X0030310Y0372257D01*
X0030587Y0371959D01*
X0030855Y0371655D01*
X0031117Y0371345D01*
X0031370Y0371028D01*
X0031616Y0370705D01*
X0031854Y0370376D01*
X0032083Y0370041D01*
X0032305Y0369701D01*
X0032518Y0369356D01*
X0032722Y0369005D01*
X0032918Y0368650D01*
X0033104Y0368289D01*
X0033282Y0367925D01*
X0033451Y0367556D01*
X0033611Y0367183D01*
X0033762Y0366806D01*
X0033903Y0366425D01*
X0034035Y0366042D01*
X0034158Y0365655D01*
X0034271Y0365265D01*
X0034374Y0364873D01*
X0034468Y0364478D01*
X0034552Y0364081D01*
X0034627Y0363682D01*
X0034691Y0363281D01*
X0034746Y0362879D01*
X0034790Y0362476D01*
X0034825Y0362071D01*
X0034850Y0361666D01*
X0034865Y0361261D01*
X0034870Y0360855D01*
X0034865Y0360449D01*
X0034850Y0360044D01*
X0034825Y0359639D01*
X0034790Y0359234D01*
X0034746Y0358831D01*
X0034691Y0358429D01*
X0034627Y0358028D01*
X0034552Y0357629D01*
X0034468Y0357232D01*
X0034374Y0356837D01*
X0034271Y0356445D01*
X0034158Y0356055D01*
X0034035Y0355668D01*
X0033903Y0355285D01*
X0033762Y0354904D01*
X0033611Y0354527D01*
X0033451Y0354154D01*
X0033282Y0353785D01*
X0033104Y0353421D01*
X0032918Y0353060D01*
X0032722Y0352705D01*
X0032518Y0352354D01*
X0032305Y0352009D01*
X0032083Y0351669D01*
X0031854Y0351334D01*
X0031616Y0351005D01*
X0031370Y0350682D01*
X0031117Y0350365D01*
X0030855Y0350055D01*
X0030587Y0349751D01*
X0030310Y0349453D01*
X0030027Y0349163D01*
X0029737Y0348880D01*
X0029439Y0348603D01*
X0029135Y0348335D01*
X0028825Y0348073D01*
X0028508Y0347820D01*
X0028185Y0347574D01*
X0027856Y0347336D01*
X0027521Y0347107D01*
X0027181Y0346885D01*
X0026836Y0346672D01*
X0026485Y0346468D01*
X0026130Y0346272D01*
X0025769Y0346086D01*
X0025405Y0345908D01*
X0025036Y0345739D01*
X0024663Y0345579D01*
X0024286Y0345428D01*
X0023905Y0345287D01*
X0023522Y0345155D01*
X0023135Y0345032D01*
X0022745Y0344919D01*
X0022353Y0344816D01*
X0021958Y0344722D01*
X0021561Y0344638D01*
X0021162Y0344563D01*
X0020761Y0344499D01*
X0020359Y0344444D01*
X0019956Y0344400D01*
X0019551Y0344365D01*
X0019146Y0344340D01*
X0018741Y0344325D01*
X0018335Y0344320D01*
X0017929Y0344325D01*
X0017524Y0344340D01*
X0017119Y0344365D01*
X0016714Y0344400D01*
X0016311Y0344444D01*
X0015909Y0344499D01*
X0015508Y0344563D01*
X0015109Y0344638D01*
X0014712Y0344722D01*
X0014317Y0344816D01*
X0013925Y0344919D01*
X0013535Y0345032D01*
X0013148Y0345155D01*
X0012765Y0345287D01*
X0012384Y0345428D01*
X0012007Y0345579D01*
X0011634Y0345739D01*
X0011265Y0345908D01*
X0010901Y0346086D01*
X0010540Y0346272D01*
X0010185Y0346468D01*
X0009834Y0346672D01*
X0009489Y0346885D01*
X0009149Y0347107D01*
X0008814Y0347336D01*
X0008485Y0347574D01*
X0008162Y0347820D01*
X0007845Y0348073D01*
X0007535Y0348335D01*
X0007231Y0348603D01*
X0006933Y0348880D01*
X0006643Y0349163D01*
X0006360Y0349453D01*
X0006083Y0349751D01*
X0005815Y0350055D01*
X0005553Y0350365D01*
X0005300Y0350682D01*
X0005054Y0351005D01*
X0004816Y0351334D01*
X0004587Y0351669D01*
X0004365Y0352009D01*
X0004152Y0352354D01*
X0003948Y0352705D01*
X0003752Y0353060D01*
X0003566Y0353421D01*
X0003388Y0353785D01*
X0003219Y0354154D01*
X0003059Y0354527D01*
X0002908Y0354904D01*
X0002767Y0355285D01*
X0002635Y0355668D01*
X0002512Y0356055D01*
X0002399Y0356445D01*
X0002296Y0356837D01*
X0002202Y0357232D01*
X0002118Y0357629D01*
X0002043Y0358028D01*
X0001979Y0358429D01*
X0001924Y0358831D01*
X0001880Y0359234D01*
X0001845Y0359639D01*
X0001820Y0360044D01*
X0001805Y0360449D01*
X0001800Y0360855D01*
X0344320Y0360855D02*
X0344325Y0361261D01*
X0344340Y0361666D01*
X0344365Y0362071D01*
X0344400Y0362476D01*
X0344444Y0362879D01*
X0344499Y0363281D01*
X0344563Y0363682D01*
X0344638Y0364081D01*
X0344722Y0364478D01*
X0344816Y0364873D01*
X0344919Y0365265D01*
X0345032Y0365655D01*
X0345155Y0366042D01*
X0345287Y0366425D01*
X0345428Y0366806D01*
X0345579Y0367183D01*
X0345739Y0367556D01*
X0345908Y0367925D01*
X0346086Y0368289D01*
X0346272Y0368650D01*
X0346468Y0369005D01*
X0346672Y0369356D01*
X0346885Y0369701D01*
X0347107Y0370041D01*
X0347336Y0370376D01*
X0347574Y0370705D01*
X0347820Y0371028D01*
X0348073Y0371345D01*
X0348335Y0371655D01*
X0348603Y0371959D01*
X0348880Y0372257D01*
X0349163Y0372547D01*
X0349453Y0372830D01*
X0349751Y0373107D01*
X0350055Y0373375D01*
X0350365Y0373637D01*
X0350682Y0373890D01*
X0351005Y0374136D01*
X0351334Y0374374D01*
X0351669Y0374603D01*
X0352009Y0374825D01*
X0352354Y0375038D01*
X0352705Y0375242D01*
X0353060Y0375438D01*
X0353421Y0375624D01*
X0353785Y0375802D01*
X0354154Y0375971D01*
X0354527Y0376131D01*
X0354904Y0376282D01*
X0355285Y0376423D01*
X0355668Y0376555D01*
X0356055Y0376678D01*
X0356445Y0376791D01*
X0356837Y0376894D01*
X0357232Y0376988D01*
X0357629Y0377072D01*
X0358028Y0377147D01*
X0358429Y0377211D01*
X0358831Y0377266D01*
X0359234Y0377310D01*
X0359639Y0377345D01*
X0360044Y0377370D01*
X0360449Y0377385D01*
X0360855Y0377390D01*
X0361261Y0377385D01*
X0361666Y0377370D01*
X0362071Y0377345D01*
X0362476Y0377310D01*
X0362879Y0377266D01*
X0363281Y0377211D01*
X0363682Y0377147D01*
X0364081Y0377072D01*
X0364478Y0376988D01*
X0364873Y0376894D01*
X0365265Y0376791D01*
X0365655Y0376678D01*
X0366042Y0376555D01*
X0366425Y0376423D01*
X0366806Y0376282D01*
X0367183Y0376131D01*
X0367556Y0375971D01*
X0367925Y0375802D01*
X0368289Y0375624D01*
X0368650Y0375438D01*
X0369005Y0375242D01*
X0369356Y0375038D01*
X0369701Y0374825D01*
X0370041Y0374603D01*
X0370376Y0374374D01*
X0370705Y0374136D01*
X0371028Y0373890D01*
X0371345Y0373637D01*
X0371655Y0373375D01*
X0371959Y0373107D01*
X0372257Y0372830D01*
X0372547Y0372547D01*
X0372830Y0372257D01*
X0373107Y0371959D01*
X0373375Y0371655D01*
X0373637Y0371345D01*
X0373890Y0371028D01*
X0374136Y0370705D01*
X0374374Y0370376D01*
X0374603Y0370041D01*
X0374825Y0369701D01*
X0375038Y0369356D01*
X0375242Y0369005D01*
X0375438Y0368650D01*
X0375624Y0368289D01*
X0375802Y0367925D01*
X0375971Y0367556D01*
X0376131Y0367183D01*
X0376282Y0366806D01*
X0376423Y0366425D01*
X0376555Y0366042D01*
X0376678Y0365655D01*
X0376791Y0365265D01*
X0376894Y0364873D01*
X0376988Y0364478D01*
X0377072Y0364081D01*
X0377147Y0363682D01*
X0377211Y0363281D01*
X0377266Y0362879D01*
X0377310Y0362476D01*
X0377345Y0362071D01*
X0377370Y0361666D01*
X0377385Y0361261D01*
X0377390Y0360855D01*
X0377385Y0360449D01*
X0377370Y0360044D01*
X0377345Y0359639D01*
X0377310Y0359234D01*
X0377266Y0358831D01*
X0377211Y0358429D01*
X0377147Y0358028D01*
X0377072Y0357629D01*
X0376988Y0357232D01*
X0376894Y0356837D01*
X0376791Y0356445D01*
X0376678Y0356055D01*
X0376555Y0355668D01*
X0376423Y0355285D01*
X0376282Y0354904D01*
X0376131Y0354527D01*
X0375971Y0354154D01*
X0375802Y0353785D01*
X0375624Y0353421D01*
X0375438Y0353060D01*
X0375242Y0352705D01*
X0375038Y0352354D01*
X0374825Y0352009D01*
X0374603Y0351669D01*
X0374374Y0351334D01*
X0374136Y0351005D01*
X0373890Y0350682D01*
X0373637Y0350365D01*
X0373375Y0350055D01*
X0373107Y0349751D01*
X0372830Y0349453D01*
X0372547Y0349163D01*
X0372257Y0348880D01*
X0371959Y0348603D01*
X0371655Y0348335D01*
X0371345Y0348073D01*
X0371028Y0347820D01*
X0370705Y0347574D01*
X0370376Y0347336D01*
X0370041Y0347107D01*
X0369701Y0346885D01*
X0369356Y0346672D01*
X0369005Y0346468D01*
X0368650Y0346272D01*
X0368289Y0346086D01*
X0367925Y0345908D01*
X0367556Y0345739D01*
X0367183Y0345579D01*
X0366806Y0345428D01*
X0366425Y0345287D01*
X0366042Y0345155D01*
X0365655Y0345032D01*
X0365265Y0344919D01*
X0364873Y0344816D01*
X0364478Y0344722D01*
X0364081Y0344638D01*
X0363682Y0344563D01*
X0363281Y0344499D01*
X0362879Y0344444D01*
X0362476Y0344400D01*
X0362071Y0344365D01*
X0361666Y0344340D01*
X0361261Y0344325D01*
X0360855Y0344320D01*
X0360449Y0344325D01*
X0360044Y0344340D01*
X0359639Y0344365D01*
X0359234Y0344400D01*
X0358831Y0344444D01*
X0358429Y0344499D01*
X0358028Y0344563D01*
X0357629Y0344638D01*
X0357232Y0344722D01*
X0356837Y0344816D01*
X0356445Y0344919D01*
X0356055Y0345032D01*
X0355668Y0345155D01*
X0355285Y0345287D01*
X0354904Y0345428D01*
X0354527Y0345579D01*
X0354154Y0345739D01*
X0353785Y0345908D01*
X0353421Y0346086D01*
X0353060Y0346272D01*
X0352705Y0346468D01*
X0352354Y0346672D01*
X0352009Y0346885D01*
X0351669Y0347107D01*
X0351334Y0347336D01*
X0351005Y0347574D01*
X0350682Y0347820D01*
X0350365Y0348073D01*
X0350055Y0348335D01*
X0349751Y0348603D01*
X0349453Y0348880D01*
X0349163Y0349163D01*
X0348880Y0349453D01*
X0348603Y0349751D01*
X0348335Y0350055D01*
X0348073Y0350365D01*
X0347820Y0350682D01*
X0347574Y0351005D01*
X0347336Y0351334D01*
X0347107Y0351669D01*
X0346885Y0352009D01*
X0346672Y0352354D01*
X0346468Y0352705D01*
X0346272Y0353060D01*
X0346086Y0353421D01*
X0345908Y0353785D01*
X0345739Y0354154D01*
X0345579Y0354527D01*
X0345428Y0354904D01*
X0345287Y0355285D01*
X0345155Y0355668D01*
X0345032Y0356055D01*
X0344919Y0356445D01*
X0344816Y0356837D01*
X0344722Y0357232D01*
X0344638Y0357629D01*
X0344563Y0358028D01*
X0344499Y0358429D01*
X0344444Y0358831D01*
X0344400Y0359234D01*
X0344365Y0359639D01*
X0344340Y0360044D01*
X0344325Y0360449D01*
X0344320Y0360855D01*
X0344320Y0018335D02*
X0344325Y0018741D01*
X0344340Y0019146D01*
X0344365Y0019551D01*
X0344400Y0019956D01*
X0344444Y0020359D01*
X0344499Y0020761D01*
X0344563Y0021162D01*
X0344638Y0021561D01*
X0344722Y0021958D01*
X0344816Y0022353D01*
X0344919Y0022745D01*
X0345032Y0023135D01*
X0345155Y0023522D01*
X0345287Y0023905D01*
X0345428Y0024286D01*
X0345579Y0024663D01*
X0345739Y0025036D01*
X0345908Y0025405D01*
X0346086Y0025769D01*
X0346272Y0026130D01*
X0346468Y0026485D01*
X0346672Y0026836D01*
X0346885Y0027181D01*
X0347107Y0027521D01*
X0347336Y0027856D01*
X0347574Y0028185D01*
X0347820Y0028508D01*
X0348073Y0028825D01*
X0348335Y0029135D01*
X0348603Y0029439D01*
X0348880Y0029737D01*
X0349163Y0030027D01*
X0349453Y0030310D01*
X0349751Y0030587D01*
X0350055Y0030855D01*
X0350365Y0031117D01*
X0350682Y0031370D01*
X0351005Y0031616D01*
X0351334Y0031854D01*
X0351669Y0032083D01*
X0352009Y0032305D01*
X0352354Y0032518D01*
X0352705Y0032722D01*
X0353060Y0032918D01*
X0353421Y0033104D01*
X0353785Y0033282D01*
X0354154Y0033451D01*
X0354527Y0033611D01*
X0354904Y0033762D01*
X0355285Y0033903D01*
X0355668Y0034035D01*
X0356055Y0034158D01*
X0356445Y0034271D01*
X0356837Y0034374D01*
X0357232Y0034468D01*
X0357629Y0034552D01*
X0358028Y0034627D01*
X0358429Y0034691D01*
X0358831Y0034746D01*
X0359234Y0034790D01*
X0359639Y0034825D01*
X0360044Y0034850D01*
X0360449Y0034865D01*
X0360855Y0034870D01*
X0361261Y0034865D01*
X0361666Y0034850D01*
X0362071Y0034825D01*
X0362476Y0034790D01*
X0362879Y0034746D01*
X0363281Y0034691D01*
X0363682Y0034627D01*
X0364081Y0034552D01*
X0364478Y0034468D01*
X0364873Y0034374D01*
X0365265Y0034271D01*
X0365655Y0034158D01*
X0366042Y0034035D01*
X0366425Y0033903D01*
X0366806Y0033762D01*
X0367183Y0033611D01*
X0367556Y0033451D01*
X0367925Y0033282D01*
X0368289Y0033104D01*
X0368650Y0032918D01*
X0369005Y0032722D01*
X0369356Y0032518D01*
X0369701Y0032305D01*
X0370041Y0032083D01*
X0370376Y0031854D01*
X0370705Y0031616D01*
X0371028Y0031370D01*
X0371345Y0031117D01*
X0371655Y0030855D01*
X0371959Y0030587D01*
X0372257Y0030310D01*
X0372547Y0030027D01*
X0372830Y0029737D01*
X0373107Y0029439D01*
X0373375Y0029135D01*
X0373637Y0028825D01*
X0373890Y0028508D01*
X0374136Y0028185D01*
X0374374Y0027856D01*
X0374603Y0027521D01*
X0374825Y0027181D01*
X0375038Y0026836D01*
X0375242Y0026485D01*
X0375438Y0026130D01*
X0375624Y0025769D01*
X0375802Y0025405D01*
X0375971Y0025036D01*
X0376131Y0024663D01*
X0376282Y0024286D01*
X0376423Y0023905D01*
X0376555Y0023522D01*
X0376678Y0023135D01*
X0376791Y0022745D01*
X0376894Y0022353D01*
X0376988Y0021958D01*
X0377072Y0021561D01*
X0377147Y0021162D01*
X0377211Y0020761D01*
X0377266Y0020359D01*
X0377310Y0019956D01*
X0377345Y0019551D01*
X0377370Y0019146D01*
X0377385Y0018741D01*
X0377390Y0018335D01*
X0377385Y0017929D01*
X0377370Y0017524D01*
X0377345Y0017119D01*
X0377310Y0016714D01*
X0377266Y0016311D01*
X0377211Y0015909D01*
X0377147Y0015508D01*
X0377072Y0015109D01*
X0376988Y0014712D01*
X0376894Y0014317D01*
X0376791Y0013925D01*
X0376678Y0013535D01*
X0376555Y0013148D01*
X0376423Y0012765D01*
X0376282Y0012384D01*
X0376131Y0012007D01*
X0375971Y0011634D01*
X0375802Y0011265D01*
X0375624Y0010901D01*
X0375438Y0010540D01*
X0375242Y0010185D01*
X0375038Y0009834D01*
X0374825Y0009489D01*
X0374603Y0009149D01*
X0374374Y0008814D01*
X0374136Y0008485D01*
X0373890Y0008162D01*
X0373637Y0007845D01*
X0373375Y0007535D01*
X0373107Y0007231D01*
X0372830Y0006933D01*
X0372547Y0006643D01*
X0372257Y0006360D01*
X0371959Y0006083D01*
X0371655Y0005815D01*
X0371345Y0005553D01*
X0371028Y0005300D01*
X0370705Y0005054D01*
X0370376Y0004816D01*
X0370041Y0004587D01*
X0369701Y0004365D01*
X0369356Y0004152D01*
X0369005Y0003948D01*
X0368650Y0003752D01*
X0368289Y0003566D01*
X0367925Y0003388D01*
X0367556Y0003219D01*
X0367183Y0003059D01*
X0366806Y0002908D01*
X0366425Y0002767D01*
X0366042Y0002635D01*
X0365655Y0002512D01*
X0365265Y0002399D01*
X0364873Y0002296D01*
X0364478Y0002202D01*
X0364081Y0002118D01*
X0363682Y0002043D01*
X0363281Y0001979D01*
X0362879Y0001924D01*
X0362476Y0001880D01*
X0362071Y0001845D01*
X0361666Y0001820D01*
X0361261Y0001805D01*
X0360855Y0001800D01*
X0360449Y0001805D01*
X0360044Y0001820D01*
X0359639Y0001845D01*
X0359234Y0001880D01*
X0358831Y0001924D01*
X0358429Y0001979D01*
X0358028Y0002043D01*
X0357629Y0002118D01*
X0357232Y0002202D01*
X0356837Y0002296D01*
X0356445Y0002399D01*
X0356055Y0002512D01*
X0355668Y0002635D01*
X0355285Y0002767D01*
X0354904Y0002908D01*
X0354527Y0003059D01*
X0354154Y0003219D01*
X0353785Y0003388D01*
X0353421Y0003566D01*
X0353060Y0003752D01*
X0352705Y0003948D01*
X0352354Y0004152D01*
X0352009Y0004365D01*
X0351669Y0004587D01*
X0351334Y0004816D01*
X0351005Y0005054D01*
X0350682Y0005300D01*
X0350365Y0005553D01*
X0350055Y0005815D01*
X0349751Y0006083D01*
X0349453Y0006360D01*
X0349163Y0006643D01*
X0348880Y0006933D01*
X0348603Y0007231D01*
X0348335Y0007535D01*
X0348073Y0007845D01*
X0347820Y0008162D01*
X0347574Y0008485D01*
X0347336Y0008814D01*
X0347107Y0009149D01*
X0346885Y0009489D01*
X0346672Y0009834D01*
X0346468Y0010185D01*
X0346272Y0010540D01*
X0346086Y0010901D01*
X0345908Y0011265D01*
X0345739Y0011634D01*
X0345579Y0012007D01*
X0345428Y0012384D01*
X0345287Y0012765D01*
X0345155Y0013148D01*
X0345032Y0013535D01*
X0344919Y0013925D01*
X0344816Y0014317D01*
X0344722Y0014712D01*
X0344638Y0015109D01*
X0344563Y0015508D01*
X0344499Y0015909D01*
X0344444Y0016311D01*
X0344400Y0016714D01*
X0344365Y0017119D01*
X0344340Y0017524D01*
X0344325Y0017929D01*
X0344320Y0018335D01*
M02*
