G75*
%MOIN*%
%OFA0B0*%
%FSLAX25Y25*%
%IPPOS*%
%LPD*%
%AMOC8*
5,1,8,0,0,1.08239X$1,22.5*
%
%ADD10C,0.07400*%
%ADD11C,0.06299*%
%ADD12R,0.07400X0.07400*%
%ADD13R,0.08268X0.08268*%
%ADD14C,0.08268*%
%ADD15C,0.01600*%
D10*
X0319961Y0174291D03*
X0343583Y0174291D03*
X0363268Y0174291D03*
X0394764Y0190039D03*
X0363268Y0197913D03*
X0418386Y0199724D03*
X0418386Y0209724D03*
X0477441Y0209724D03*
X0501063Y0212165D03*
X0501063Y0202165D03*
X0501063Y0192165D03*
X0515236Y0192402D03*
X0548043Y0201622D03*
X0588043Y0201622D03*
X0621772Y0201445D03*
X0670354Y0209724D03*
X0705787Y0205787D03*
X0705787Y0182165D03*
X0686102Y0150669D03*
X0768780Y0130591D03*
X0792402Y0130591D03*
D11*
X0792402Y0115236D03*
X0800276Y0115236D03*
X0784528Y0115236D03*
X0528622Y0111299D03*
X0528622Y0119173D03*
X0528622Y0103425D03*
X0331772Y0190039D03*
X0331772Y0197913D03*
X0331772Y0205787D03*
X0284528Y0205787D03*
X0284528Y0197913D03*
X0284528Y0190039D03*
X0737283Y0197913D03*
X0737283Y0205787D03*
X0737283Y0213661D03*
D12*
X0501063Y0182165D03*
D13*
X0629878Y0117858D03*
D14*
X0582634Y0117858D03*
X0582634Y0137543D03*
X0629878Y0137543D03*
D15*
X0522559Y0103425D02*
X0426260Y0199724D01*
X0418386Y0199724D01*
X0392953Y0174291D01*
X0363268Y0174291D01*
X0343583Y0174291D01*
X0319961Y0174291D02*
X0296339Y0197913D01*
X0284528Y0197913D01*
X0276654Y0193976D02*
X0280591Y0190039D01*
X0284528Y0190039D01*
X0276654Y0193976D02*
X0276654Y0209724D01*
X0284528Y0217598D01*
X0430197Y0217598D01*
X0445945Y0201850D01*
X0501063Y0201850D01*
X0501063Y0202165D01*
X0479882Y0212165D02*
X0477441Y0209724D01*
X0479882Y0212165D02*
X0501063Y0212165D01*
X0520748Y0174327D02*
X0548043Y0201622D01*
X0567992Y0209724D02*
X0670354Y0209724D01*
X0705787Y0205787D02*
X0737283Y0205787D01*
X0737283Y0213661D02*
X0733346Y0217598D01*
X0552244Y0217598D01*
X0516811Y0182165D01*
X0501063Y0182165D01*
X0520748Y0174327D02*
X0520748Y0115236D01*
X0426260Y0209724D01*
X0418386Y0209724D01*
X0335709Y0209724D01*
X0331772Y0205787D01*
X0284528Y0205787D01*
X0331772Y0197913D02*
X0363268Y0197913D01*
X0331772Y0190039D02*
X0394764Y0190039D01*
X0501063Y0192165D02*
X0515000Y0192165D01*
X0515236Y0192402D01*
X0528622Y0170354D02*
X0567992Y0209724D01*
X0582634Y0196213D02*
X0588043Y0201622D01*
X0588220Y0201445D01*
X0621772Y0201445D01*
X0582634Y0196213D02*
X0582634Y0137543D01*
X0629878Y0137543D01*
X0638858Y0127047D02*
X0579803Y0127047D01*
X0564055Y0111299D01*
X0528622Y0111299D01*
X0524685Y0111299D01*
X0520748Y0115236D01*
X0528622Y0119173D02*
X0528622Y0170354D01*
X0638858Y0127047D02*
X0709724Y0197913D01*
X0737283Y0197913D01*
X0737283Y0174291D01*
X0772717Y0138858D01*
X0796339Y0138858D01*
X0800276Y0134921D01*
X0800276Y0115236D01*
X0792402Y0115236D02*
X0792402Y0130591D01*
X0768780Y0130984D02*
X0717598Y0182165D01*
X0705787Y0182165D01*
X0641480Y0117858D01*
X0629878Y0117858D01*
X0582634Y0117858D01*
X0568201Y0103425D01*
X0528622Y0103425D01*
X0522559Y0103425D01*
X0686102Y0150669D02*
X0721535Y0115236D01*
X0784528Y0115236D01*
M02*
