G75*
%MOIN*%
%OFA0B0*%
%FSLAX25Y25*%
%IPPOS*%
%LPD*%
%AMOC8*
5,1,8,0,0,1.08239X$1,22.5*
%
%ADD10C,0.07400*%
%ADD11C,0.06299*%
%ADD12R,0.07400X0.07400*%
%ADD13R,0.08268X0.08268*%
%ADD14C,0.08268*%
%ADD15C,0.01600*%
D10*
X0319961Y0174291D03*
X0343583Y0174291D03*
X0363268Y0174291D03*
X0394764Y0190039D03*
X0363268Y0197913D03*
X0418386Y0199724D03*
X0418386Y0209724D03*
X0477441Y0209724D03*
X0501063Y0212165D03*
X0501063Y0202165D03*
X0501063Y0192165D03*
X0515236Y0192402D03*
X0548043Y0201622D03*
X0588043Y0201622D03*
X0621772Y0201445D03*
X0670354Y0209724D03*
X0705787Y0205787D03*
X0705787Y0182165D03*
X0686102Y0150669D03*
X0768780Y0130591D03*
X0792402Y0130591D03*
D11*
X0528622Y0103425D03*
X0528622Y0111299D03*
X0528622Y0119173D03*
X0784528Y0115236D03*
X0792402Y0115236D03*
X0800276Y0115236D03*
X0737283Y0197913D03*
X0737283Y0205787D03*
X0737283Y0213661D03*
X0331772Y0205787D03*
X0331772Y0197913D03*
X0331772Y0190039D03*
X0284528Y0190039D03*
X0284528Y0197913D03*
X0284528Y0205787D03*
D12*
X0501063Y0182165D03*
D13*
X0629878Y0117858D03*
D14*
X0582634Y0117858D03*
X0582634Y0137543D03*
X0629878Y0137543D03*
D15*
X0669173Y0167598D02*
X0686102Y0150669D01*
X0669173Y0167598D02*
X0540433Y0167598D01*
X0515630Y0192402D01*
X0515236Y0192402D01*
X0477441Y0209724D02*
X0445945Y0209764D01*
X0414409Y0178228D01*
X0406535Y0178228D01*
X0394764Y0190039D01*
M02*
