%
M48
M72
T01C0.02756
T02C0.03543
T03C0.04000
T04C0.05512
T05C0.11024
%
T01
X528622Y103425
X528622Y111299
X528622Y119173
X784528Y115236
X792402Y115236
X800276Y115236
X737283Y197913
X737283Y205787
X737283Y213661
X331772Y205787
X331772Y197913
X331772Y190039
X284528Y190039
X284528Y197913
X284528Y205787
T02
X363268Y197913
X394764Y190039
X363268Y174291
X343583Y174291
X319961Y174291
X477441Y209724
X515236Y192402
X548043Y201622
X588043Y201622
X705787Y205787
X705787Y182165
X686102Y150669
X768780Y130591
X792402Y130591
T03
X621772Y201445
X670354Y209724
X501063Y212165
X501063Y202165
X501063Y192165
X501063Y182165
X418386Y199724
X418386Y209724
T04
X606256Y145417
X629878Y137543
X582634Y137543
X582634Y117858
X606256Y109984
X629878Y117858
T05
X284528Y119173
X611299Y182165
M30
