G75*
%MOIN*%
%OFA0B0*%
%FSLAX25Y25*%
%IPPOS*%
%LPD*%
%AMOC8*
5,1,8,0,0,1.08239X$1,22.5*
%
%ADD10C,0.01000*%
%ADD11C,0.00500*%
%ADD12C,0.00800*%
%ADD13C,0.00100*%
%ADD14C,0.00600*%
%ADD15C,0.00000*%
%ADD16R,0.00250X0.00050*%
%ADD17R,0.00550X0.00050*%
%ADD18R,0.00800X0.00050*%
%ADD19R,0.01050X0.00050*%
%ADD20R,0.01250X0.00050*%
%ADD21R,0.01400X0.00050*%
%ADD22R,0.01600X0.00050*%
%ADD23R,0.01750X0.00050*%
%ADD24R,0.01850X0.00050*%
%ADD25R,0.02000X0.00050*%
%ADD26R,0.02100X0.00050*%
%ADD27R,0.02150X0.00050*%
%ADD28R,0.02300X0.00050*%
%ADD29R,0.02350X0.00050*%
%ADD30R,0.02400X0.00050*%
%ADD31R,0.00100X0.00050*%
%ADD32R,0.02500X0.00050*%
%ADD33R,0.02550X0.00050*%
%ADD34R,0.01900X0.00050*%
%ADD35R,0.02050X0.00050*%
%ADD36R,0.02600X0.00050*%
%ADD37R,0.02250X0.00050*%
%ADD38R,0.02650X0.00050*%
%ADD39R,0.02450X0.00050*%
%ADD40R,0.02700X0.00050*%
%ADD41R,0.02750X0.00050*%
%ADD42R,0.02800X0.00050*%
%ADD43R,0.01100X0.00050*%
%ADD44R,0.00900X0.00050*%
%ADD45R,0.01200X0.00050*%
%ADD46R,0.02950X0.00050*%
%ADD47R,0.00950X0.00050*%
%ADD48R,0.00700X0.00050*%
%ADD49R,0.00400X0.00050*%
%ADD50R,0.01000X0.00050*%
%ADD51R,0.00650X0.00050*%
%ADD52R,0.01150X0.00050*%
%ADD53R,0.00850X0.00050*%
%ADD54R,0.00600X0.00050*%
%ADD55R,0.02850X0.00050*%
%ADD56R,0.02900X0.00050*%
%ADD57R,0.00750X0.00050*%
%ADD58R,0.00500X0.00050*%
%ADD59R,0.01700X0.00050*%
%ADD60R,0.00200X0.00050*%
%ADD61R,0.00450X0.00050*%
%ADD62R,0.01500X0.00050*%
%ADD63R,0.01350X0.00050*%
%ADD64R,0.01550X0.00050*%
%ADD65R,0.01800X0.00050*%
%ADD66R,0.02200X0.00050*%
%ADD67R,0.03200X0.00050*%
%ADD68R,0.03500X0.00050*%
%ADD69R,0.01300X0.00050*%
%ADD70R,0.03750X0.00050*%
%ADD71R,0.04050X0.00050*%
%ADD72R,0.01450X0.00050*%
%ADD73R,0.04300X0.00050*%
%ADD74R,0.04600X0.00050*%
%ADD75R,0.04900X0.00050*%
%ADD76R,0.01650X0.00050*%
%ADD77R,0.05250X0.00050*%
%ADD78R,0.05550X0.00050*%
%ADD79R,0.05900X0.00050*%
%ADD80R,0.00350X0.00050*%
%ADD81R,0.06250X0.00050*%
%ADD82R,0.06650X0.00050*%
%ADD83R,0.00300X0.00050*%
%ADD84R,0.07050X0.00050*%
%ADD85R,0.07500X0.00050*%
%ADD86R,0.08000X0.00050*%
%ADD87R,0.00150X0.00050*%
%ADD88R,0.08650X0.00050*%
%ADD89R,0.09550X0.00050*%
%ADD90R,0.09750X0.00050*%
%ADD91R,0.09900X0.00050*%
%ADD92R,0.10100X0.00050*%
%ADD93R,0.10250X0.00050*%
%ADD94R,0.10450X0.00050*%
%ADD95R,0.10650X0.00050*%
%ADD96R,0.10850X0.00050*%
%ADD97R,0.11000X0.00050*%
%ADD98R,0.11200X0.00050*%
%ADD99R,0.11350X0.00050*%
%ADD100R,0.11450X0.00050*%
%ADD101R,0.03700X0.00050*%
%ADD102R,0.03650X0.00050*%
%ADD103R,0.03600X0.00050*%
%ADD104R,0.09700X0.00050*%
%ADD105R,0.03100X0.00050*%
%ADD106R,0.03050X0.00050*%
%ADD107R,0.03300X0.00050*%
%ADD108R,0.01950X0.00050*%
%ADD109R,0.06600X0.00050*%
D10*
X0001500Y0001500D02*
X0001500Y0091461D01*
X0115201Y0091461D01*
X0115201Y0001500D01*
X0001500Y0001500D01*
D11*
X0010890Y0031343D02*
X0010890Y0088823D01*
X0010791Y0088884D02*
X0046295Y0088816D01*
X0046323Y0088823D02*
X0046323Y0031343D01*
X0010890Y0031343D01*
X0061815Y0041815D02*
X0061815Y0081185D01*
X0101185Y0081185D01*
X0101185Y0041815D01*
X0061815Y0041815D01*
X0089646Y0040710D02*
X0089646Y0038458D01*
X0094150Y0038458D01*
X0094150Y0040710D01*
X0093399Y0041460D01*
X0090397Y0041460D01*
X0089646Y0040710D01*
X0091147Y0043062D02*
X0089646Y0044563D01*
X0094150Y0044563D01*
X0094150Y0043062D02*
X0094150Y0046064D01*
X0094150Y0036856D02*
X0094150Y0033854D01*
X0089646Y0033854D01*
X0089646Y0036856D01*
X0091898Y0035355D02*
X0091898Y0033854D01*
X0094150Y0032253D02*
X0094150Y0029250D01*
X0089646Y0029250D01*
D12*
X0089000Y0026500D02*
X0104000Y0026500D01*
X0072500Y0021500D02*
X0071500Y0021500D01*
X0071500Y0018500D01*
X0051500Y0018500D01*
X0051500Y0021500D01*
X0050500Y0021500D01*
X0051500Y0021500D02*
X0051500Y0024500D01*
X0071500Y0024500D01*
X0071500Y0021500D01*
D13*
X0070577Y0016451D02*
X0070577Y0014950D01*
X0070077Y0014950D02*
X0071078Y0014950D01*
X0070077Y0015951D02*
X0070577Y0016451D01*
X0069604Y0016201D02*
X0069604Y0015701D01*
X0069354Y0015450D01*
X0068603Y0015450D01*
X0068603Y0014950D02*
X0068603Y0016451D01*
X0069354Y0016451D01*
X0069604Y0016201D01*
X0069104Y0015450D02*
X0069604Y0014950D01*
X0088691Y0026829D02*
X0089231Y0026109D01*
X0089230Y0026110D02*
X0088997Y0025929D01*
X0088769Y0025743D01*
X0088545Y0025551D01*
X0088326Y0025354D01*
X0088112Y0025152D01*
X0087903Y0024944D01*
X0087700Y0024731D01*
X0087501Y0024514D01*
X0087308Y0024291D01*
X0087120Y0024064D01*
X0086938Y0023833D01*
X0086761Y0023597D01*
X0086591Y0023356D01*
X0086426Y0023112D01*
X0086268Y0022864D01*
X0086115Y0022612D01*
X0085969Y0022356D01*
X0085829Y0022097D01*
X0085695Y0021834D01*
X0085568Y0021569D01*
X0085447Y0021300D01*
X0085333Y0021028D01*
X0085226Y0020754D01*
X0085125Y0020477D01*
X0085031Y0020198D01*
X0084944Y0019916D01*
X0084864Y0019633D01*
X0084791Y0019347D01*
X0084725Y0019060D01*
X0084666Y0018771D01*
X0084614Y0018481D01*
X0084569Y0018190D01*
X0084531Y0017898D01*
X0084501Y0017605D01*
X0084477Y0017311D01*
X0084461Y0017017D01*
X0084452Y0016723D01*
X0084450Y0016428D01*
X0084456Y0016133D01*
X0084468Y0015839D01*
X0084488Y0015545D01*
X0084515Y0015252D01*
X0084549Y0014959D01*
X0084590Y0014667D01*
X0084639Y0014377D01*
X0084694Y0014087D01*
X0084756Y0013800D01*
X0084826Y0013513D01*
X0084903Y0013229D01*
X0084986Y0012946D01*
X0085076Y0012666D01*
X0085173Y0012388D01*
X0085277Y0012112D01*
X0085388Y0011839D01*
X0085505Y0011569D01*
X0085629Y0011301D01*
X0085759Y0011037D01*
X0085896Y0010776D01*
X0086039Y0010519D01*
X0086189Y0010265D01*
X0086344Y0010014D01*
X0086506Y0009768D01*
X0086673Y0009526D01*
X0086847Y0009288D01*
X0087026Y0009054D01*
X0087211Y0008824D01*
X0087401Y0008600D01*
X0087597Y0008379D01*
X0087798Y0008164D01*
X0088005Y0007954D01*
X0088216Y0007749D01*
X0088433Y0007549D01*
X0088654Y0007354D01*
X0088880Y0007165D01*
X0089110Y0006982D01*
X0089345Y0006804D01*
X0089585Y0006632D01*
X0089828Y0006466D01*
X0090075Y0006306D01*
X0090326Y0006152D01*
X0090581Y0006004D01*
X0090840Y0005862D01*
X0091101Y0005727D01*
X0091366Y0005598D01*
X0091634Y0005476D01*
X0091905Y0005360D01*
X0092179Y0005251D01*
X0092455Y0005149D01*
X0092734Y0005054D01*
X0093015Y0004965D01*
X0093298Y0004883D01*
X0093583Y0004808D01*
X0093870Y0004741D01*
X0094158Y0004680D01*
X0094448Y0004626D01*
X0094739Y0004579D01*
X0095031Y0004540D01*
X0095323Y0004508D01*
X0095617Y0004482D01*
X0095911Y0004464D01*
X0096205Y0004454D01*
X0096500Y0004450D01*
X0096795Y0004454D01*
X0097089Y0004464D01*
X0097383Y0004482D01*
X0097677Y0004508D01*
X0097969Y0004540D01*
X0098261Y0004579D01*
X0098552Y0004626D01*
X0098842Y0004680D01*
X0099130Y0004741D01*
X0099417Y0004808D01*
X0099702Y0004883D01*
X0099985Y0004965D01*
X0100266Y0005054D01*
X0100545Y0005149D01*
X0100821Y0005251D01*
X0101095Y0005360D01*
X0101366Y0005476D01*
X0101634Y0005598D01*
X0101899Y0005727D01*
X0102160Y0005862D01*
X0102419Y0006004D01*
X0102674Y0006152D01*
X0102925Y0006306D01*
X0103172Y0006466D01*
X0103415Y0006632D01*
X0103655Y0006804D01*
X0103890Y0006982D01*
X0104120Y0007165D01*
X0104346Y0007354D01*
X0104567Y0007549D01*
X0104784Y0007749D01*
X0104995Y0007954D01*
X0105202Y0008164D01*
X0105403Y0008379D01*
X0105599Y0008600D01*
X0105789Y0008824D01*
X0105974Y0009054D01*
X0106153Y0009288D01*
X0106327Y0009526D01*
X0106494Y0009768D01*
X0106656Y0010014D01*
X0106811Y0010265D01*
X0106961Y0010519D01*
X0107104Y0010776D01*
X0107241Y0011037D01*
X0107371Y0011301D01*
X0107495Y0011569D01*
X0107612Y0011839D01*
X0107723Y0012112D01*
X0107827Y0012388D01*
X0107924Y0012666D01*
X0108014Y0012946D01*
X0108097Y0013229D01*
X0108174Y0013513D01*
X0108244Y0013800D01*
X0108306Y0014087D01*
X0108361Y0014377D01*
X0108410Y0014667D01*
X0108451Y0014959D01*
X0108485Y0015252D01*
X0108512Y0015545D01*
X0108532Y0015839D01*
X0108544Y0016133D01*
X0108550Y0016428D01*
X0108548Y0016723D01*
X0108539Y0017017D01*
X0108523Y0017311D01*
X0108499Y0017605D01*
X0108469Y0017898D01*
X0108431Y0018190D01*
X0108386Y0018481D01*
X0108334Y0018771D01*
X0108275Y0019060D01*
X0108209Y0019347D01*
X0108136Y0019633D01*
X0108056Y0019916D01*
X0107969Y0020198D01*
X0107875Y0020477D01*
X0107774Y0020754D01*
X0107667Y0021028D01*
X0107553Y0021300D01*
X0107432Y0021569D01*
X0107305Y0021834D01*
X0107171Y0022097D01*
X0107031Y0022356D01*
X0106885Y0022612D01*
X0106732Y0022864D01*
X0106574Y0023112D01*
X0106409Y0023356D01*
X0106239Y0023597D01*
X0106062Y0023833D01*
X0105880Y0024064D01*
X0105692Y0024291D01*
X0105499Y0024514D01*
X0105300Y0024731D01*
X0105097Y0024944D01*
X0104888Y0025152D01*
X0104674Y0025354D01*
X0104455Y0025551D01*
X0104231Y0025743D01*
X0104003Y0025929D01*
X0103770Y0026110D01*
X0104309Y0026829D01*
X0104310Y0026830D01*
X0104560Y0026636D01*
X0104806Y0026436D01*
X0105046Y0026230D01*
X0105281Y0026018D01*
X0105511Y0025800D01*
X0105736Y0025577D01*
X0105955Y0025349D01*
X0106169Y0025115D01*
X0106377Y0024876D01*
X0106579Y0024632D01*
X0106774Y0024383D01*
X0106964Y0024129D01*
X0107147Y0023871D01*
X0107324Y0023609D01*
X0107495Y0023342D01*
X0107659Y0023071D01*
X0107816Y0022796D01*
X0107967Y0022518D01*
X0108111Y0022235D01*
X0108247Y0021950D01*
X0108377Y0021661D01*
X0108500Y0021369D01*
X0108615Y0021074D01*
X0108723Y0020777D01*
X0108824Y0020476D01*
X0108918Y0020174D01*
X0109004Y0019869D01*
X0109083Y0019562D01*
X0109154Y0019254D01*
X0109217Y0018944D01*
X0109273Y0018632D01*
X0109322Y0018319D01*
X0109362Y0018005D01*
X0109395Y0017690D01*
X0109420Y0017374D01*
X0109438Y0017058D01*
X0109448Y0016742D01*
X0109450Y0016425D01*
X0109444Y0016108D01*
X0109431Y0015792D01*
X0109409Y0015476D01*
X0109381Y0015161D01*
X0109344Y0014846D01*
X0109300Y0014533D01*
X0109248Y0014220D01*
X0109188Y0013909D01*
X0109121Y0013600D01*
X0109046Y0013292D01*
X0108964Y0012986D01*
X0108875Y0012683D01*
X0108778Y0012381D01*
X0108673Y0012082D01*
X0108561Y0011786D01*
X0108443Y0011492D01*
X0108317Y0011202D01*
X0108184Y0010915D01*
X0108043Y0010630D01*
X0107896Y0010350D01*
X0107743Y0010073D01*
X0107582Y0009800D01*
X0107415Y0009531D01*
X0107241Y0009266D01*
X0107061Y0009006D01*
X0106875Y0008750D01*
X0106682Y0008499D01*
X0106484Y0008252D01*
X0106279Y0008010D01*
X0106069Y0007774D01*
X0105852Y0007542D01*
X0105630Y0007317D01*
X0105403Y0007096D01*
X0105171Y0006881D01*
X0104933Y0006672D01*
X0104690Y0006469D01*
X0104442Y0006271D01*
X0104190Y0006080D01*
X0103933Y0005895D01*
X0103671Y0005717D01*
X0103405Y0005545D01*
X0103136Y0005379D01*
X0102862Y0005220D01*
X0102584Y0005068D01*
X0102303Y0004923D01*
X0102018Y0004784D01*
X0101730Y0004653D01*
X0101438Y0004529D01*
X0101144Y0004411D01*
X0100847Y0004301D01*
X0100548Y0004199D01*
X0100246Y0004104D01*
X0099942Y0004016D01*
X0099635Y0003935D01*
X0099327Y0003862D01*
X0099017Y0003797D01*
X0098706Y0003739D01*
X0098393Y0003689D01*
X0098079Y0003647D01*
X0097765Y0003612D01*
X0097449Y0003585D01*
X0097133Y0003565D01*
X0096817Y0003554D01*
X0096500Y0003550D01*
X0096183Y0003554D01*
X0095867Y0003565D01*
X0095551Y0003585D01*
X0095235Y0003612D01*
X0094921Y0003647D01*
X0094607Y0003689D01*
X0094294Y0003739D01*
X0093983Y0003797D01*
X0093673Y0003862D01*
X0093365Y0003935D01*
X0093058Y0004016D01*
X0092754Y0004104D01*
X0092452Y0004199D01*
X0092153Y0004301D01*
X0091856Y0004411D01*
X0091562Y0004529D01*
X0091270Y0004653D01*
X0090982Y0004784D01*
X0090697Y0004923D01*
X0090416Y0005068D01*
X0090138Y0005220D01*
X0089864Y0005379D01*
X0089595Y0005545D01*
X0089329Y0005717D01*
X0089067Y0005895D01*
X0088810Y0006080D01*
X0088558Y0006271D01*
X0088310Y0006469D01*
X0088067Y0006672D01*
X0087829Y0006881D01*
X0087597Y0007096D01*
X0087370Y0007317D01*
X0087148Y0007542D01*
X0086931Y0007774D01*
X0086721Y0008010D01*
X0086516Y0008252D01*
X0086318Y0008499D01*
X0086125Y0008750D01*
X0085939Y0009006D01*
X0085759Y0009266D01*
X0085585Y0009531D01*
X0085418Y0009800D01*
X0085257Y0010073D01*
X0085104Y0010350D01*
X0084957Y0010630D01*
X0084816Y0010915D01*
X0084683Y0011202D01*
X0084557Y0011492D01*
X0084439Y0011786D01*
X0084327Y0012082D01*
X0084222Y0012381D01*
X0084125Y0012683D01*
X0084036Y0012986D01*
X0083954Y0013292D01*
X0083879Y0013600D01*
X0083812Y0013909D01*
X0083752Y0014220D01*
X0083700Y0014533D01*
X0083656Y0014846D01*
X0083619Y0015161D01*
X0083591Y0015476D01*
X0083569Y0015792D01*
X0083556Y0016108D01*
X0083550Y0016425D01*
X0083552Y0016742D01*
X0083562Y0017058D01*
X0083580Y0017374D01*
X0083605Y0017690D01*
X0083638Y0018005D01*
X0083678Y0018319D01*
X0083727Y0018632D01*
X0083783Y0018944D01*
X0083846Y0019254D01*
X0083917Y0019562D01*
X0083996Y0019869D01*
X0084082Y0020174D01*
X0084176Y0020476D01*
X0084277Y0020777D01*
X0084385Y0021074D01*
X0084500Y0021369D01*
X0084623Y0021661D01*
X0084753Y0021950D01*
X0084889Y0022235D01*
X0085033Y0022518D01*
X0085184Y0022796D01*
X0085341Y0023071D01*
X0085505Y0023342D01*
X0085676Y0023609D01*
X0085853Y0023871D01*
X0086036Y0024129D01*
X0086226Y0024383D01*
X0086421Y0024632D01*
X0086623Y0024876D01*
X0086831Y0025115D01*
X0087045Y0025349D01*
X0087264Y0025577D01*
X0087489Y0025800D01*
X0087719Y0026018D01*
X0087954Y0026230D01*
X0088194Y0026436D01*
X0088440Y0026636D01*
X0088690Y0026830D01*
X0088746Y0026755D01*
X0088498Y0026562D01*
X0088254Y0026363D01*
X0088016Y0026159D01*
X0087782Y0025949D01*
X0087554Y0025733D01*
X0087331Y0025511D01*
X0087113Y0025284D01*
X0086901Y0025052D01*
X0086695Y0024815D01*
X0086494Y0024573D01*
X0086300Y0024325D01*
X0086112Y0024074D01*
X0085930Y0023817D01*
X0085754Y0023557D01*
X0085585Y0023292D01*
X0085422Y0023023D01*
X0085266Y0022750D01*
X0085116Y0022474D01*
X0084974Y0022194D01*
X0084838Y0021910D01*
X0084709Y0021623D01*
X0084587Y0021333D01*
X0084473Y0021041D01*
X0084365Y0020745D01*
X0084265Y0020447D01*
X0084172Y0020147D01*
X0084087Y0019844D01*
X0084009Y0019540D01*
X0083938Y0019234D01*
X0083875Y0018926D01*
X0083819Y0018616D01*
X0083771Y0018306D01*
X0083731Y0017994D01*
X0083698Y0017681D01*
X0083673Y0017368D01*
X0083656Y0017054D01*
X0083646Y0016740D01*
X0083644Y0016425D01*
X0083650Y0016111D01*
X0083663Y0015797D01*
X0083684Y0015483D01*
X0083713Y0015170D01*
X0083749Y0014858D01*
X0083793Y0014547D01*
X0083845Y0014237D01*
X0083904Y0013928D01*
X0083971Y0013621D01*
X0084045Y0013315D01*
X0084126Y0013012D01*
X0084215Y0012710D01*
X0084312Y0012411D01*
X0084415Y0012114D01*
X0084526Y0011820D01*
X0084644Y0011529D01*
X0084769Y0011240D01*
X0084901Y0010955D01*
X0085040Y0010673D01*
X0085186Y0010395D01*
X0085339Y0010120D01*
X0085498Y0009849D01*
X0085664Y0009582D01*
X0085837Y0009319D01*
X0086015Y0009060D01*
X0086200Y0008806D01*
X0086392Y0008557D01*
X0086589Y0008312D01*
X0086792Y0008072D01*
X0087001Y0007837D01*
X0087216Y0007607D01*
X0087436Y0007383D01*
X0087661Y0007164D01*
X0087892Y0006951D01*
X0088128Y0006743D01*
X0088370Y0006541D01*
X0088615Y0006346D01*
X0088866Y0006156D01*
X0089121Y0005972D01*
X0089381Y0005795D01*
X0089645Y0005624D01*
X0089913Y0005460D01*
X0090185Y0005302D01*
X0090460Y0005151D01*
X0090740Y0005007D01*
X0091022Y0004869D01*
X0091308Y0004739D01*
X0091597Y0004615D01*
X0091890Y0004499D01*
X0092184Y0004390D01*
X0092482Y0004288D01*
X0092781Y0004194D01*
X0093084Y0004106D01*
X0093388Y0004026D01*
X0093693Y0003954D01*
X0094001Y0003889D01*
X0094310Y0003832D01*
X0094621Y0003782D01*
X0094932Y0003740D01*
X0095245Y0003705D01*
X0095558Y0003679D01*
X0095872Y0003659D01*
X0096186Y0003648D01*
X0096500Y0003644D01*
X0096814Y0003648D01*
X0097128Y0003659D01*
X0097442Y0003679D01*
X0097755Y0003705D01*
X0098068Y0003740D01*
X0098379Y0003782D01*
X0098690Y0003832D01*
X0098999Y0003889D01*
X0099307Y0003954D01*
X0099612Y0004026D01*
X0099916Y0004106D01*
X0100219Y0004194D01*
X0100518Y0004288D01*
X0100816Y0004390D01*
X0101110Y0004499D01*
X0101403Y0004615D01*
X0101692Y0004739D01*
X0101978Y0004869D01*
X0102260Y0005007D01*
X0102540Y0005151D01*
X0102815Y0005302D01*
X0103087Y0005460D01*
X0103355Y0005624D01*
X0103619Y0005795D01*
X0103879Y0005972D01*
X0104134Y0006156D01*
X0104385Y0006346D01*
X0104630Y0006541D01*
X0104872Y0006743D01*
X0105108Y0006951D01*
X0105339Y0007164D01*
X0105564Y0007383D01*
X0105784Y0007607D01*
X0105999Y0007837D01*
X0106208Y0008072D01*
X0106411Y0008312D01*
X0106608Y0008557D01*
X0106800Y0008806D01*
X0106985Y0009060D01*
X0107163Y0009319D01*
X0107336Y0009582D01*
X0107502Y0009849D01*
X0107661Y0010120D01*
X0107814Y0010395D01*
X0107960Y0010673D01*
X0108099Y0010955D01*
X0108231Y0011240D01*
X0108356Y0011529D01*
X0108474Y0011820D01*
X0108585Y0012114D01*
X0108688Y0012411D01*
X0108785Y0012710D01*
X0108874Y0013012D01*
X0108955Y0013315D01*
X0109029Y0013621D01*
X0109096Y0013928D01*
X0109155Y0014237D01*
X0109207Y0014547D01*
X0109251Y0014858D01*
X0109287Y0015170D01*
X0109316Y0015483D01*
X0109337Y0015797D01*
X0109350Y0016111D01*
X0109356Y0016425D01*
X0109354Y0016740D01*
X0109344Y0017054D01*
X0109327Y0017368D01*
X0109302Y0017681D01*
X0109269Y0017994D01*
X0109229Y0018306D01*
X0109181Y0018616D01*
X0109125Y0018926D01*
X0109062Y0019234D01*
X0108991Y0019540D01*
X0108913Y0019844D01*
X0108828Y0020147D01*
X0108735Y0020447D01*
X0108635Y0020745D01*
X0108527Y0021041D01*
X0108413Y0021333D01*
X0108291Y0021623D01*
X0108162Y0021910D01*
X0108026Y0022194D01*
X0107884Y0022474D01*
X0107734Y0022750D01*
X0107578Y0023023D01*
X0107415Y0023292D01*
X0107246Y0023557D01*
X0107070Y0023817D01*
X0106888Y0024074D01*
X0106700Y0024325D01*
X0106506Y0024573D01*
X0106305Y0024815D01*
X0106099Y0025052D01*
X0105887Y0025284D01*
X0105669Y0025511D01*
X0105446Y0025733D01*
X0105218Y0025949D01*
X0104984Y0026159D01*
X0104746Y0026363D01*
X0104502Y0026562D01*
X0104254Y0026755D01*
X0104197Y0026680D01*
X0104444Y0026488D01*
X0104686Y0026291D01*
X0104923Y0026088D01*
X0105154Y0025879D01*
X0105381Y0025665D01*
X0105603Y0025445D01*
X0105819Y0025220D01*
X0106029Y0024989D01*
X0106234Y0024754D01*
X0106433Y0024513D01*
X0106626Y0024268D01*
X0106812Y0024018D01*
X0106993Y0023764D01*
X0107168Y0023505D01*
X0107336Y0023242D01*
X0107497Y0022975D01*
X0107652Y0022704D01*
X0107801Y0022430D01*
X0107942Y0022152D01*
X0108077Y0021870D01*
X0108205Y0021586D01*
X0108326Y0021298D01*
X0108440Y0021007D01*
X0108546Y0020714D01*
X0108646Y0020418D01*
X0108738Y0020120D01*
X0108823Y0019820D01*
X0108900Y0019517D01*
X0108970Y0019213D01*
X0109033Y0018908D01*
X0109088Y0018601D01*
X0109136Y0018292D01*
X0109176Y0017983D01*
X0109208Y0017672D01*
X0109233Y0017361D01*
X0109250Y0017050D01*
X0109260Y0016738D01*
X0109262Y0016426D01*
X0109256Y0016114D01*
X0109243Y0015802D01*
X0109222Y0015491D01*
X0109194Y0015180D01*
X0109157Y0014870D01*
X0109114Y0014561D01*
X0109063Y0014253D01*
X0109004Y0013946D01*
X0108938Y0013642D01*
X0108864Y0013338D01*
X0108783Y0013037D01*
X0108695Y0012738D01*
X0108599Y0012441D01*
X0108496Y0012146D01*
X0108386Y0011854D01*
X0108269Y0011565D01*
X0108145Y0011278D01*
X0108014Y0010995D01*
X0107876Y0010715D01*
X0107731Y0010439D01*
X0107579Y0010166D01*
X0107421Y0009897D01*
X0107256Y0009632D01*
X0107085Y0009371D01*
X0106908Y0009115D01*
X0106724Y0008862D01*
X0106534Y0008615D01*
X0106339Y0008372D01*
X0106137Y0008133D01*
X0105929Y0007900D01*
X0105716Y0007672D01*
X0105498Y0007450D01*
X0105274Y0007232D01*
X0105045Y0007021D01*
X0104810Y0006815D01*
X0104571Y0006614D01*
X0104327Y0006420D01*
X0104078Y0006232D01*
X0103825Y0006049D01*
X0103567Y0005873D01*
X0103305Y0005704D01*
X0103039Y0005541D01*
X0102769Y0005384D01*
X0102495Y0005234D01*
X0102218Y0005091D01*
X0101938Y0004954D01*
X0101654Y0004825D01*
X0101367Y0004702D01*
X0101077Y0004587D01*
X0100784Y0004479D01*
X0100489Y0004377D01*
X0100191Y0004283D01*
X0099891Y0004197D01*
X0099590Y0004118D01*
X0099286Y0004046D01*
X0098981Y0003981D01*
X0098674Y0003924D01*
X0098366Y0003875D01*
X0098056Y0003833D01*
X0097746Y0003799D01*
X0097435Y0003772D01*
X0097124Y0003753D01*
X0096812Y0003742D01*
X0096500Y0003738D01*
X0096188Y0003742D01*
X0095876Y0003753D01*
X0095565Y0003772D01*
X0095254Y0003799D01*
X0094944Y0003833D01*
X0094634Y0003875D01*
X0094326Y0003924D01*
X0094019Y0003981D01*
X0093714Y0004046D01*
X0093410Y0004118D01*
X0093109Y0004197D01*
X0092809Y0004283D01*
X0092511Y0004377D01*
X0092216Y0004479D01*
X0091923Y0004587D01*
X0091633Y0004702D01*
X0091346Y0004825D01*
X0091062Y0004954D01*
X0090782Y0005091D01*
X0090505Y0005234D01*
X0090231Y0005384D01*
X0089961Y0005541D01*
X0089695Y0005704D01*
X0089433Y0005873D01*
X0089175Y0006049D01*
X0088922Y0006232D01*
X0088673Y0006420D01*
X0088429Y0006614D01*
X0088190Y0006815D01*
X0087955Y0007021D01*
X0087726Y0007232D01*
X0087502Y0007450D01*
X0087284Y0007672D01*
X0087071Y0007900D01*
X0086863Y0008133D01*
X0086661Y0008372D01*
X0086466Y0008615D01*
X0086276Y0008862D01*
X0086092Y0009115D01*
X0085915Y0009371D01*
X0085744Y0009632D01*
X0085579Y0009897D01*
X0085421Y0010166D01*
X0085269Y0010439D01*
X0085124Y0010715D01*
X0084986Y0010995D01*
X0084855Y0011278D01*
X0084731Y0011565D01*
X0084614Y0011854D01*
X0084504Y0012146D01*
X0084401Y0012441D01*
X0084305Y0012738D01*
X0084217Y0013037D01*
X0084136Y0013338D01*
X0084062Y0013642D01*
X0083996Y0013946D01*
X0083937Y0014253D01*
X0083886Y0014561D01*
X0083843Y0014870D01*
X0083806Y0015180D01*
X0083778Y0015491D01*
X0083757Y0015802D01*
X0083744Y0016114D01*
X0083738Y0016426D01*
X0083740Y0016738D01*
X0083750Y0017050D01*
X0083767Y0017361D01*
X0083792Y0017672D01*
X0083824Y0017983D01*
X0083864Y0018292D01*
X0083912Y0018601D01*
X0083967Y0018908D01*
X0084030Y0019213D01*
X0084100Y0019517D01*
X0084177Y0019820D01*
X0084262Y0020120D01*
X0084354Y0020418D01*
X0084454Y0020714D01*
X0084560Y0021007D01*
X0084674Y0021298D01*
X0084795Y0021586D01*
X0084923Y0021870D01*
X0085058Y0022152D01*
X0085199Y0022430D01*
X0085348Y0022704D01*
X0085503Y0022975D01*
X0085664Y0023242D01*
X0085832Y0023505D01*
X0086007Y0023764D01*
X0086188Y0024018D01*
X0086374Y0024268D01*
X0086567Y0024513D01*
X0086766Y0024754D01*
X0086971Y0024989D01*
X0087181Y0025220D01*
X0087397Y0025445D01*
X0087619Y0025665D01*
X0087846Y0025879D01*
X0088077Y0026088D01*
X0088314Y0026291D01*
X0088556Y0026488D01*
X0088803Y0026680D01*
X0088859Y0026604D01*
X0088614Y0026414D01*
X0088374Y0026219D01*
X0088139Y0026017D01*
X0087909Y0025810D01*
X0087684Y0025597D01*
X0087464Y0025379D01*
X0087250Y0025155D01*
X0087041Y0024926D01*
X0086838Y0024693D01*
X0086640Y0024454D01*
X0086449Y0024211D01*
X0086263Y0023962D01*
X0086084Y0023710D01*
X0085911Y0023453D01*
X0085744Y0023192D01*
X0085583Y0022927D01*
X0085430Y0022658D01*
X0085282Y0022386D01*
X0085142Y0022110D01*
X0085008Y0021830D01*
X0084881Y0021548D01*
X0084761Y0021262D01*
X0084648Y0020974D01*
X0084542Y0020683D01*
X0084444Y0020389D01*
X0084352Y0020093D01*
X0084268Y0019795D01*
X0084191Y0019495D01*
X0084122Y0019193D01*
X0084059Y0018890D01*
X0084005Y0018585D01*
X0083957Y0018279D01*
X0083918Y0017971D01*
X0083886Y0017663D01*
X0083861Y0017355D01*
X0083844Y0017045D01*
X0083834Y0016736D01*
X0083832Y0016426D01*
X0083838Y0016116D01*
X0083851Y0015807D01*
X0083872Y0015498D01*
X0083900Y0015189D01*
X0083936Y0014882D01*
X0083979Y0014575D01*
X0084030Y0014269D01*
X0084088Y0013965D01*
X0084154Y0013662D01*
X0084227Y0013361D01*
X0084307Y0013062D01*
X0084395Y0012765D01*
X0084490Y0012470D01*
X0084592Y0012178D01*
X0084701Y0011888D01*
X0084818Y0011601D01*
X0084941Y0011317D01*
X0085071Y0011036D01*
X0085208Y0010758D01*
X0085352Y0010484D01*
X0085502Y0010213D01*
X0085659Y0009946D01*
X0085823Y0009683D01*
X0085993Y0009424D01*
X0086169Y0009169D01*
X0086351Y0008918D01*
X0086540Y0008673D01*
X0086734Y0008431D01*
X0086934Y0008195D01*
X0087140Y0007964D01*
X0087352Y0007737D01*
X0087569Y0007516D01*
X0087791Y0007301D01*
X0088018Y0007090D01*
X0088251Y0006886D01*
X0088489Y0006687D01*
X0088731Y0006494D01*
X0088978Y0006307D01*
X0089229Y0006126D01*
X0089485Y0005952D01*
X0089745Y0005783D01*
X0090009Y0005621D01*
X0090277Y0005466D01*
X0090549Y0005317D01*
X0090824Y0005175D01*
X0091103Y0005039D01*
X0091384Y0004911D01*
X0091669Y0004789D01*
X0091957Y0004675D01*
X0092248Y0004567D01*
X0092541Y0004467D01*
X0092836Y0004373D01*
X0093134Y0004287D01*
X0093433Y0004209D01*
X0093735Y0004138D01*
X0094038Y0004074D01*
X0094342Y0004017D01*
X0094648Y0003968D01*
X0094955Y0003927D01*
X0095263Y0003893D01*
X0095572Y0003866D01*
X0095881Y0003847D01*
X0096190Y0003836D01*
X0096500Y0003832D01*
X0096810Y0003836D01*
X0097119Y0003847D01*
X0097428Y0003866D01*
X0097737Y0003893D01*
X0098045Y0003927D01*
X0098352Y0003968D01*
X0098658Y0004017D01*
X0098962Y0004074D01*
X0099265Y0004138D01*
X0099567Y0004209D01*
X0099866Y0004287D01*
X0100164Y0004373D01*
X0100459Y0004467D01*
X0100752Y0004567D01*
X0101043Y0004675D01*
X0101331Y0004789D01*
X0101616Y0004911D01*
X0101897Y0005039D01*
X0102176Y0005175D01*
X0102451Y0005317D01*
X0102723Y0005466D01*
X0102991Y0005621D01*
X0103255Y0005783D01*
X0103515Y0005952D01*
X0103771Y0006126D01*
X0104022Y0006307D01*
X0104269Y0006494D01*
X0104511Y0006687D01*
X0104749Y0006886D01*
X0104982Y0007090D01*
X0105209Y0007301D01*
X0105431Y0007516D01*
X0105648Y0007737D01*
X0105860Y0007964D01*
X0106066Y0008195D01*
X0106266Y0008431D01*
X0106460Y0008673D01*
X0106649Y0008918D01*
X0106831Y0009169D01*
X0107007Y0009424D01*
X0107177Y0009683D01*
X0107341Y0009946D01*
X0107498Y0010213D01*
X0107648Y0010484D01*
X0107792Y0010758D01*
X0107929Y0011036D01*
X0108059Y0011317D01*
X0108182Y0011601D01*
X0108299Y0011888D01*
X0108408Y0012178D01*
X0108510Y0012470D01*
X0108605Y0012765D01*
X0108693Y0013062D01*
X0108773Y0013361D01*
X0108846Y0013662D01*
X0108912Y0013965D01*
X0108970Y0014269D01*
X0109021Y0014575D01*
X0109064Y0014882D01*
X0109100Y0015189D01*
X0109128Y0015498D01*
X0109149Y0015807D01*
X0109162Y0016116D01*
X0109168Y0016426D01*
X0109166Y0016736D01*
X0109156Y0017045D01*
X0109139Y0017355D01*
X0109114Y0017663D01*
X0109082Y0017971D01*
X0109043Y0018279D01*
X0108995Y0018585D01*
X0108941Y0018890D01*
X0108878Y0019193D01*
X0108809Y0019495D01*
X0108732Y0019795D01*
X0108648Y0020093D01*
X0108556Y0020389D01*
X0108458Y0020683D01*
X0108352Y0020974D01*
X0108239Y0021262D01*
X0108119Y0021548D01*
X0107992Y0021830D01*
X0107858Y0022110D01*
X0107718Y0022386D01*
X0107570Y0022658D01*
X0107417Y0022927D01*
X0107256Y0023192D01*
X0107089Y0023453D01*
X0106916Y0023710D01*
X0106737Y0023962D01*
X0106551Y0024211D01*
X0106360Y0024454D01*
X0106162Y0024693D01*
X0105959Y0024926D01*
X0105750Y0025155D01*
X0105536Y0025379D01*
X0105316Y0025597D01*
X0105091Y0025810D01*
X0104861Y0026017D01*
X0104626Y0026219D01*
X0104386Y0026414D01*
X0104141Y0026604D01*
X0104084Y0026529D01*
X0104327Y0026341D01*
X0104566Y0026146D01*
X0104799Y0025946D01*
X0105027Y0025741D01*
X0105251Y0025529D01*
X0105469Y0025313D01*
X0105682Y0025091D01*
X0105889Y0024864D01*
X0106091Y0024632D01*
X0106287Y0024395D01*
X0106477Y0024153D01*
X0106661Y0023907D01*
X0106839Y0023656D01*
X0107011Y0023401D01*
X0107176Y0023142D01*
X0107336Y0022879D01*
X0107488Y0022612D01*
X0107635Y0022342D01*
X0107774Y0022068D01*
X0107907Y0021791D01*
X0108033Y0021510D01*
X0108152Y0021227D01*
X0108264Y0020940D01*
X0108369Y0020651D01*
X0108467Y0020360D01*
X0108558Y0020066D01*
X0108641Y0019770D01*
X0108718Y0019473D01*
X0108787Y0019173D01*
X0108848Y0018872D01*
X0108903Y0018569D01*
X0108949Y0018265D01*
X0108989Y0017960D01*
X0109021Y0017655D01*
X0109045Y0017348D01*
X0109062Y0017041D01*
X0109072Y0016734D01*
X0109074Y0016426D01*
X0109068Y0016119D01*
X0109055Y0015812D01*
X0109035Y0015505D01*
X0109006Y0015199D01*
X0108971Y0014893D01*
X0108928Y0014589D01*
X0108877Y0014286D01*
X0108820Y0013984D01*
X0108754Y0013683D01*
X0108682Y0013384D01*
X0108602Y0013088D01*
X0108515Y0012793D01*
X0108421Y0012500D01*
X0108319Y0012210D01*
X0108211Y0011922D01*
X0108096Y0011637D01*
X0107973Y0011355D01*
X0107844Y0011076D01*
X0107708Y0010800D01*
X0107565Y0010528D01*
X0107416Y0010259D01*
X0107260Y0009994D01*
X0107098Y0009733D01*
X0106929Y0009476D01*
X0106754Y0009223D01*
X0106573Y0008975D01*
X0106386Y0008731D01*
X0106193Y0008491D01*
X0105995Y0008257D01*
X0105790Y0008027D01*
X0105580Y0007802D01*
X0105365Y0007583D01*
X0105144Y0007369D01*
X0104919Y0007160D01*
X0104688Y0006957D01*
X0104452Y0006760D01*
X0104211Y0006568D01*
X0103966Y0006383D01*
X0103717Y0006203D01*
X0103463Y0006030D01*
X0103205Y0005863D01*
X0102943Y0005702D01*
X0102677Y0005548D01*
X0102407Y0005400D01*
X0102134Y0005259D01*
X0101857Y0005124D01*
X0101578Y0004997D01*
X0101295Y0004876D01*
X0101009Y0004762D01*
X0100721Y0004656D01*
X0100430Y0004556D01*
X0100137Y0004463D01*
X0099841Y0004378D01*
X0099544Y0004300D01*
X0099245Y0004229D01*
X0098944Y0004166D01*
X0098642Y0004110D01*
X0098338Y0004061D01*
X0098033Y0004020D01*
X0097728Y0003986D01*
X0097422Y0003960D01*
X0097115Y0003941D01*
X0096807Y0003930D01*
X0096500Y0003926D01*
X0096193Y0003930D01*
X0095885Y0003941D01*
X0095578Y0003960D01*
X0095272Y0003986D01*
X0094967Y0004020D01*
X0094662Y0004061D01*
X0094358Y0004110D01*
X0094056Y0004166D01*
X0093755Y0004229D01*
X0093456Y0004300D01*
X0093159Y0004378D01*
X0092863Y0004463D01*
X0092570Y0004556D01*
X0092279Y0004656D01*
X0091991Y0004762D01*
X0091705Y0004876D01*
X0091422Y0004997D01*
X0091143Y0005124D01*
X0090866Y0005259D01*
X0090593Y0005400D01*
X0090323Y0005548D01*
X0090057Y0005702D01*
X0089795Y0005863D01*
X0089537Y0006030D01*
X0089283Y0006203D01*
X0089034Y0006383D01*
X0088789Y0006568D01*
X0088548Y0006760D01*
X0088312Y0006957D01*
X0088081Y0007160D01*
X0087856Y0007369D01*
X0087635Y0007583D01*
X0087420Y0007802D01*
X0087210Y0008027D01*
X0087005Y0008257D01*
X0086807Y0008491D01*
X0086614Y0008731D01*
X0086427Y0008975D01*
X0086246Y0009223D01*
X0086071Y0009476D01*
X0085902Y0009733D01*
X0085740Y0009994D01*
X0085584Y0010259D01*
X0085435Y0010528D01*
X0085292Y0010800D01*
X0085156Y0011076D01*
X0085027Y0011355D01*
X0084904Y0011637D01*
X0084789Y0011922D01*
X0084681Y0012210D01*
X0084579Y0012500D01*
X0084485Y0012793D01*
X0084398Y0013088D01*
X0084318Y0013384D01*
X0084246Y0013683D01*
X0084180Y0013984D01*
X0084123Y0014286D01*
X0084072Y0014589D01*
X0084029Y0014893D01*
X0083994Y0015199D01*
X0083965Y0015505D01*
X0083945Y0015812D01*
X0083932Y0016119D01*
X0083926Y0016426D01*
X0083928Y0016734D01*
X0083938Y0017041D01*
X0083955Y0017348D01*
X0083979Y0017655D01*
X0084011Y0017960D01*
X0084051Y0018265D01*
X0084097Y0018569D01*
X0084152Y0018872D01*
X0084213Y0019173D01*
X0084282Y0019473D01*
X0084359Y0019770D01*
X0084442Y0020066D01*
X0084533Y0020360D01*
X0084631Y0020651D01*
X0084736Y0020940D01*
X0084848Y0021227D01*
X0084967Y0021510D01*
X0085093Y0021791D01*
X0085226Y0022068D01*
X0085365Y0022342D01*
X0085512Y0022612D01*
X0085664Y0022879D01*
X0085824Y0023142D01*
X0085989Y0023401D01*
X0086161Y0023656D01*
X0086339Y0023907D01*
X0086523Y0024153D01*
X0086713Y0024395D01*
X0086909Y0024632D01*
X0087111Y0024864D01*
X0087318Y0025091D01*
X0087531Y0025313D01*
X0087749Y0025529D01*
X0087973Y0025741D01*
X0088201Y0025946D01*
X0088434Y0026146D01*
X0088673Y0026341D01*
X0088916Y0026529D01*
X0088972Y0026454D01*
X0088731Y0026267D01*
X0088494Y0026074D01*
X0088263Y0025875D01*
X0088036Y0025671D01*
X0087814Y0025462D01*
X0087598Y0025247D01*
X0087387Y0025026D01*
X0087181Y0024801D01*
X0086981Y0024571D01*
X0086786Y0024335D01*
X0086598Y0024096D01*
X0086415Y0023851D01*
X0086238Y0023602D01*
X0086068Y0023349D01*
X0085903Y0023092D01*
X0085745Y0022831D01*
X0085594Y0022566D01*
X0085449Y0022298D01*
X0085310Y0022026D01*
X0085178Y0021751D01*
X0085053Y0021472D01*
X0084935Y0021191D01*
X0084824Y0020907D01*
X0084720Y0020620D01*
X0084622Y0020331D01*
X0084532Y0020039D01*
X0084449Y0019746D01*
X0084374Y0019450D01*
X0084305Y0019153D01*
X0084244Y0018854D01*
X0084190Y0018553D01*
X0084144Y0018252D01*
X0084104Y0017949D01*
X0084073Y0017646D01*
X0084048Y0017341D01*
X0084032Y0017037D01*
X0084022Y0016732D01*
X0084020Y0016427D01*
X0084026Y0016122D01*
X0084039Y0015817D01*
X0084059Y0015512D01*
X0084087Y0015208D01*
X0084122Y0014905D01*
X0084165Y0014603D01*
X0084215Y0014302D01*
X0084272Y0014002D01*
X0084337Y0013704D01*
X0084409Y0013408D01*
X0084488Y0013113D01*
X0084575Y0012820D01*
X0084668Y0012530D01*
X0084769Y0012242D01*
X0084877Y0011956D01*
X0084991Y0011673D01*
X0085113Y0011393D01*
X0085241Y0011116D01*
X0085376Y0010843D01*
X0085517Y0010573D01*
X0085666Y0010306D01*
X0085820Y0010043D01*
X0085981Y0009784D01*
X0086149Y0009528D01*
X0086322Y0009277D01*
X0086502Y0009031D01*
X0086688Y0008789D01*
X0086879Y0008551D01*
X0087076Y0008318D01*
X0087279Y0008090D01*
X0087488Y0007867D01*
X0087701Y0007649D01*
X0087920Y0007437D01*
X0088144Y0007230D01*
X0088374Y0007028D01*
X0088608Y0006832D01*
X0088846Y0006642D01*
X0089090Y0006458D01*
X0089337Y0006280D01*
X0089589Y0006108D01*
X0089846Y0005942D01*
X0090106Y0005783D01*
X0090370Y0005629D01*
X0090637Y0005483D01*
X0090908Y0005343D01*
X0091183Y0005209D01*
X0091460Y0005083D01*
X0091741Y0004963D01*
X0092025Y0004850D01*
X0092311Y0004744D01*
X0092599Y0004645D01*
X0092890Y0004553D01*
X0093184Y0004469D01*
X0093479Y0004391D01*
X0093776Y0004321D01*
X0094074Y0004258D01*
X0094374Y0004202D01*
X0094676Y0004154D01*
X0094978Y0004113D01*
X0095281Y0004080D01*
X0095585Y0004054D01*
X0095890Y0004035D01*
X0096195Y0004024D01*
X0096500Y0004020D01*
X0096805Y0004024D01*
X0097110Y0004035D01*
X0097415Y0004054D01*
X0097719Y0004080D01*
X0098022Y0004113D01*
X0098324Y0004154D01*
X0098626Y0004202D01*
X0098926Y0004258D01*
X0099224Y0004321D01*
X0099521Y0004391D01*
X0099816Y0004469D01*
X0100110Y0004553D01*
X0100401Y0004645D01*
X0100689Y0004744D01*
X0100975Y0004850D01*
X0101259Y0004963D01*
X0101540Y0005083D01*
X0101817Y0005209D01*
X0102092Y0005343D01*
X0102363Y0005483D01*
X0102630Y0005629D01*
X0102894Y0005783D01*
X0103154Y0005942D01*
X0103411Y0006108D01*
X0103663Y0006280D01*
X0103910Y0006458D01*
X0104154Y0006642D01*
X0104392Y0006832D01*
X0104626Y0007028D01*
X0104856Y0007230D01*
X0105080Y0007437D01*
X0105299Y0007649D01*
X0105512Y0007867D01*
X0105721Y0008090D01*
X0105924Y0008318D01*
X0106121Y0008551D01*
X0106312Y0008789D01*
X0106498Y0009031D01*
X0106678Y0009277D01*
X0106851Y0009528D01*
X0107019Y0009784D01*
X0107180Y0010043D01*
X0107334Y0010306D01*
X0107483Y0010573D01*
X0107624Y0010843D01*
X0107759Y0011116D01*
X0107887Y0011393D01*
X0108009Y0011673D01*
X0108123Y0011956D01*
X0108231Y0012242D01*
X0108332Y0012530D01*
X0108425Y0012820D01*
X0108512Y0013113D01*
X0108591Y0013408D01*
X0108663Y0013704D01*
X0108728Y0014002D01*
X0108785Y0014302D01*
X0108835Y0014603D01*
X0108878Y0014905D01*
X0108913Y0015208D01*
X0108941Y0015512D01*
X0108961Y0015817D01*
X0108974Y0016122D01*
X0108980Y0016427D01*
X0108978Y0016732D01*
X0108968Y0017037D01*
X0108952Y0017341D01*
X0108927Y0017646D01*
X0108896Y0017949D01*
X0108856Y0018252D01*
X0108810Y0018553D01*
X0108756Y0018854D01*
X0108695Y0019153D01*
X0108626Y0019450D01*
X0108551Y0019746D01*
X0108468Y0020039D01*
X0108378Y0020331D01*
X0108280Y0020620D01*
X0108176Y0020907D01*
X0108065Y0021191D01*
X0107947Y0021472D01*
X0107822Y0021751D01*
X0107690Y0022026D01*
X0107551Y0022298D01*
X0107406Y0022566D01*
X0107255Y0022831D01*
X0107097Y0023092D01*
X0106932Y0023349D01*
X0106762Y0023602D01*
X0106585Y0023851D01*
X0106402Y0024096D01*
X0106214Y0024335D01*
X0106019Y0024571D01*
X0105819Y0024801D01*
X0105613Y0025026D01*
X0105402Y0025247D01*
X0105186Y0025462D01*
X0104964Y0025671D01*
X0104737Y0025875D01*
X0104506Y0026074D01*
X0104269Y0026267D01*
X0104028Y0026454D01*
X0103972Y0026379D01*
X0104211Y0026193D01*
X0104446Y0026002D01*
X0104675Y0025805D01*
X0104900Y0025602D01*
X0105121Y0025394D01*
X0105335Y0025180D01*
X0105545Y0024962D01*
X0105749Y0024738D01*
X0105948Y0024510D01*
X0106141Y0024276D01*
X0106328Y0024038D01*
X0106509Y0023796D01*
X0106685Y0023549D01*
X0106854Y0023298D01*
X0107017Y0023042D01*
X0107174Y0022783D01*
X0107324Y0022520D01*
X0107468Y0022254D01*
X0107606Y0021984D01*
X0107737Y0021711D01*
X0107861Y0021435D01*
X0107978Y0021155D01*
X0108088Y0020873D01*
X0108192Y0020589D01*
X0108288Y0020302D01*
X0108378Y0020012D01*
X0108460Y0019721D01*
X0108535Y0019428D01*
X0108603Y0019132D01*
X0108664Y0018836D01*
X0108717Y0018538D01*
X0108763Y0018238D01*
X0108802Y0017938D01*
X0108834Y0017637D01*
X0108858Y0017335D01*
X0108875Y0017032D01*
X0108884Y0016730D01*
X0108886Y0016427D01*
X0108880Y0016124D01*
X0108867Y0015822D01*
X0108847Y0015519D01*
X0108819Y0015218D01*
X0108784Y0014917D01*
X0108742Y0014617D01*
X0108692Y0014318D01*
X0108635Y0014021D01*
X0108571Y0013725D01*
X0108500Y0013431D01*
X0108421Y0013138D01*
X0108335Y0012848D01*
X0108242Y0012559D01*
X0108143Y0012274D01*
X0108036Y0011990D01*
X0107922Y0011710D01*
X0107802Y0011432D01*
X0107674Y0011157D01*
X0107540Y0010885D01*
X0107400Y0010617D01*
X0107253Y0010352D01*
X0107099Y0010091D01*
X0106939Y0009834D01*
X0106773Y0009581D01*
X0106601Y0009332D01*
X0106423Y0009087D01*
X0106238Y0008846D01*
X0106048Y0008611D01*
X0105853Y0008380D01*
X0105651Y0008153D01*
X0105445Y0007932D01*
X0105232Y0007716D01*
X0105015Y0007505D01*
X0104793Y0007300D01*
X0104565Y0007100D01*
X0104333Y0006905D01*
X0104096Y0006717D01*
X0103854Y0006534D01*
X0103609Y0006357D01*
X0103358Y0006186D01*
X0103104Y0006022D01*
X0102846Y0005863D01*
X0102584Y0005711D01*
X0102319Y0005566D01*
X0102050Y0005427D01*
X0101777Y0005294D01*
X0101502Y0005169D01*
X0101223Y0005050D01*
X0100942Y0004938D01*
X0100658Y0004833D01*
X0100371Y0004734D01*
X0100082Y0004643D01*
X0099791Y0004559D01*
X0099498Y0004482D01*
X0099204Y0004413D01*
X0098907Y0004350D01*
X0098610Y0004295D01*
X0098311Y0004247D01*
X0098011Y0004206D01*
X0097709Y0004173D01*
X0097408Y0004147D01*
X0097105Y0004129D01*
X0096803Y0004118D01*
X0096500Y0004114D01*
X0096197Y0004118D01*
X0095895Y0004129D01*
X0095592Y0004147D01*
X0095291Y0004173D01*
X0094989Y0004206D01*
X0094689Y0004247D01*
X0094390Y0004295D01*
X0094093Y0004350D01*
X0093796Y0004413D01*
X0093502Y0004482D01*
X0093209Y0004559D01*
X0092918Y0004643D01*
X0092629Y0004734D01*
X0092342Y0004833D01*
X0092058Y0004938D01*
X0091777Y0005050D01*
X0091498Y0005169D01*
X0091223Y0005294D01*
X0090950Y0005427D01*
X0090681Y0005566D01*
X0090416Y0005711D01*
X0090154Y0005863D01*
X0089896Y0006022D01*
X0089642Y0006186D01*
X0089391Y0006357D01*
X0089146Y0006534D01*
X0088904Y0006717D01*
X0088667Y0006905D01*
X0088435Y0007100D01*
X0088207Y0007300D01*
X0087985Y0007505D01*
X0087768Y0007716D01*
X0087555Y0007932D01*
X0087349Y0008153D01*
X0087147Y0008380D01*
X0086952Y0008611D01*
X0086762Y0008846D01*
X0086577Y0009087D01*
X0086399Y0009332D01*
X0086227Y0009581D01*
X0086061Y0009834D01*
X0085901Y0010091D01*
X0085747Y0010352D01*
X0085600Y0010617D01*
X0085460Y0010885D01*
X0085326Y0011157D01*
X0085198Y0011432D01*
X0085078Y0011710D01*
X0084964Y0011990D01*
X0084857Y0012274D01*
X0084758Y0012559D01*
X0084665Y0012848D01*
X0084579Y0013138D01*
X0084500Y0013431D01*
X0084429Y0013725D01*
X0084365Y0014021D01*
X0084308Y0014318D01*
X0084258Y0014617D01*
X0084216Y0014917D01*
X0084181Y0015218D01*
X0084153Y0015519D01*
X0084133Y0015822D01*
X0084120Y0016124D01*
X0084114Y0016427D01*
X0084116Y0016730D01*
X0084125Y0017032D01*
X0084142Y0017335D01*
X0084166Y0017637D01*
X0084198Y0017938D01*
X0084237Y0018238D01*
X0084283Y0018538D01*
X0084336Y0018836D01*
X0084397Y0019132D01*
X0084465Y0019428D01*
X0084540Y0019721D01*
X0084622Y0020012D01*
X0084712Y0020302D01*
X0084808Y0020589D01*
X0084912Y0020873D01*
X0085022Y0021155D01*
X0085139Y0021435D01*
X0085263Y0021711D01*
X0085394Y0021984D01*
X0085532Y0022254D01*
X0085676Y0022520D01*
X0085826Y0022783D01*
X0085983Y0023042D01*
X0086146Y0023298D01*
X0086315Y0023549D01*
X0086491Y0023796D01*
X0086672Y0024038D01*
X0086859Y0024276D01*
X0087052Y0024510D01*
X0087251Y0024738D01*
X0087455Y0024962D01*
X0087665Y0025180D01*
X0087879Y0025394D01*
X0088100Y0025602D01*
X0088325Y0025805D01*
X0088554Y0026002D01*
X0088789Y0026193D01*
X0089028Y0026379D01*
X0089085Y0026304D01*
X0088847Y0026119D01*
X0088615Y0025929D01*
X0088386Y0025734D01*
X0088163Y0025533D01*
X0087945Y0025326D01*
X0087731Y0025114D01*
X0087523Y0024897D01*
X0087321Y0024675D01*
X0087124Y0024448D01*
X0086932Y0024217D01*
X0086746Y0023981D01*
X0086566Y0023740D01*
X0086392Y0023495D01*
X0086224Y0023246D01*
X0086062Y0022992D01*
X0085907Y0022735D01*
X0085758Y0022474D01*
X0085615Y0022210D01*
X0085478Y0021942D01*
X0085349Y0021671D01*
X0085226Y0021397D01*
X0085109Y0021120D01*
X0085000Y0020840D01*
X0084897Y0020557D01*
X0084801Y0020273D01*
X0084713Y0019985D01*
X0084631Y0019696D01*
X0084556Y0019405D01*
X0084489Y0019112D01*
X0084428Y0018818D01*
X0084375Y0018522D01*
X0084330Y0018225D01*
X0084291Y0017927D01*
X0084260Y0017628D01*
X0084236Y0017328D01*
X0084219Y0017028D01*
X0084210Y0016728D01*
X0084208Y0016427D01*
X0084214Y0016127D01*
X0084226Y0015826D01*
X0084247Y0015527D01*
X0084274Y0015227D01*
X0084309Y0014929D01*
X0084351Y0014631D01*
X0084400Y0014335D01*
X0084457Y0014040D01*
X0084521Y0013746D01*
X0084591Y0013454D01*
X0084669Y0013164D01*
X0084755Y0012875D01*
X0084847Y0012589D01*
X0084946Y0012305D01*
X0085052Y0012024D01*
X0085165Y0011746D01*
X0085284Y0011470D01*
X0085411Y0011197D01*
X0085544Y0010928D01*
X0085683Y0010662D01*
X0085829Y0010399D01*
X0085981Y0010140D01*
X0086140Y0009884D01*
X0086305Y0009633D01*
X0086476Y0009386D01*
X0086653Y0009143D01*
X0086836Y0008904D01*
X0087024Y0008670D01*
X0087218Y0008441D01*
X0087418Y0008217D01*
X0087623Y0007997D01*
X0087834Y0007783D01*
X0088050Y0007573D01*
X0088270Y0007369D01*
X0088496Y0007171D01*
X0088727Y0006978D01*
X0088962Y0006791D01*
X0089201Y0006609D01*
X0089445Y0006434D01*
X0089694Y0006264D01*
X0089946Y0006101D01*
X0090202Y0005944D01*
X0090462Y0005793D01*
X0090726Y0005649D01*
X0090993Y0005511D01*
X0091263Y0005379D01*
X0091536Y0005255D01*
X0091813Y0005137D01*
X0092092Y0005026D01*
X0092374Y0004921D01*
X0092658Y0004824D01*
X0092945Y0004733D01*
X0093234Y0004650D01*
X0093524Y0004574D01*
X0093817Y0004504D01*
X0094111Y0004442D01*
X0094406Y0004388D01*
X0094703Y0004340D01*
X0095001Y0004300D01*
X0095300Y0004267D01*
X0095599Y0004241D01*
X0095899Y0004223D01*
X0096199Y0004212D01*
X0096500Y0004208D01*
X0096801Y0004212D01*
X0097101Y0004223D01*
X0097401Y0004241D01*
X0097700Y0004267D01*
X0097999Y0004300D01*
X0098297Y0004340D01*
X0098594Y0004388D01*
X0098889Y0004442D01*
X0099183Y0004504D01*
X0099476Y0004574D01*
X0099766Y0004650D01*
X0100055Y0004733D01*
X0100342Y0004824D01*
X0100626Y0004921D01*
X0100908Y0005026D01*
X0101187Y0005137D01*
X0101464Y0005255D01*
X0101737Y0005379D01*
X0102007Y0005511D01*
X0102274Y0005649D01*
X0102538Y0005793D01*
X0102798Y0005944D01*
X0103054Y0006101D01*
X0103306Y0006264D01*
X0103555Y0006434D01*
X0103799Y0006609D01*
X0104038Y0006791D01*
X0104273Y0006978D01*
X0104504Y0007171D01*
X0104730Y0007369D01*
X0104950Y0007573D01*
X0105166Y0007783D01*
X0105377Y0007997D01*
X0105582Y0008217D01*
X0105782Y0008441D01*
X0105976Y0008670D01*
X0106164Y0008904D01*
X0106347Y0009143D01*
X0106524Y0009386D01*
X0106695Y0009633D01*
X0106860Y0009884D01*
X0107019Y0010140D01*
X0107171Y0010399D01*
X0107317Y0010662D01*
X0107456Y0010928D01*
X0107589Y0011197D01*
X0107716Y0011470D01*
X0107835Y0011746D01*
X0107948Y0012024D01*
X0108054Y0012305D01*
X0108153Y0012589D01*
X0108245Y0012875D01*
X0108331Y0013164D01*
X0108409Y0013454D01*
X0108479Y0013746D01*
X0108543Y0014040D01*
X0108600Y0014335D01*
X0108649Y0014631D01*
X0108691Y0014929D01*
X0108726Y0015227D01*
X0108753Y0015527D01*
X0108774Y0015826D01*
X0108786Y0016127D01*
X0108792Y0016427D01*
X0108790Y0016728D01*
X0108781Y0017028D01*
X0108764Y0017328D01*
X0108740Y0017628D01*
X0108709Y0017927D01*
X0108670Y0018225D01*
X0108625Y0018522D01*
X0108572Y0018818D01*
X0108511Y0019112D01*
X0108444Y0019405D01*
X0108369Y0019696D01*
X0108287Y0019985D01*
X0108199Y0020273D01*
X0108103Y0020557D01*
X0108000Y0020840D01*
X0107891Y0021120D01*
X0107774Y0021397D01*
X0107651Y0021671D01*
X0107522Y0021942D01*
X0107385Y0022210D01*
X0107242Y0022474D01*
X0107093Y0022735D01*
X0106938Y0022992D01*
X0106776Y0023246D01*
X0106608Y0023495D01*
X0106434Y0023740D01*
X0106254Y0023981D01*
X0106068Y0024217D01*
X0105876Y0024448D01*
X0105679Y0024675D01*
X0105477Y0024897D01*
X0105269Y0025114D01*
X0105055Y0025326D01*
X0104837Y0025533D01*
X0104614Y0025734D01*
X0104385Y0025929D01*
X0104153Y0026119D01*
X0103915Y0026304D01*
X0103859Y0026228D01*
X0104094Y0026046D01*
X0104325Y0025857D01*
X0104552Y0025663D01*
X0104774Y0025463D01*
X0104990Y0025258D01*
X0105202Y0025048D01*
X0105408Y0024833D01*
X0105609Y0024613D01*
X0105805Y0024387D01*
X0105995Y0024158D01*
X0106179Y0023923D01*
X0106358Y0023684D01*
X0106531Y0023441D01*
X0106697Y0023194D01*
X0106858Y0022942D01*
X0107012Y0022687D01*
X0107160Y0022428D01*
X0107302Y0022166D01*
X0107437Y0021900D01*
X0107566Y0021631D01*
X0107688Y0021359D01*
X0107804Y0021084D01*
X0107913Y0020806D01*
X0108014Y0020526D01*
X0108109Y0020243D01*
X0108197Y0019958D01*
X0108278Y0019671D01*
X0108353Y0019383D01*
X0108419Y0019092D01*
X0108479Y0018800D01*
X0108532Y0018506D01*
X0108577Y0018211D01*
X0108616Y0017916D01*
X0108647Y0017619D01*
X0108670Y0017322D01*
X0108687Y0017024D01*
X0108696Y0016726D01*
X0108698Y0016428D01*
X0108692Y0016129D01*
X0108680Y0015831D01*
X0108660Y0015534D01*
X0108632Y0015237D01*
X0108598Y0014941D01*
X0108556Y0014645D01*
X0108507Y0014351D01*
X0108451Y0014058D01*
X0108388Y0013767D01*
X0108317Y0013477D01*
X0108240Y0013189D01*
X0108156Y0012903D01*
X0108064Y0012619D01*
X0107966Y0012337D01*
X0107861Y0012058D01*
X0107749Y0011782D01*
X0107630Y0011508D01*
X0107505Y0011238D01*
X0107373Y0010970D01*
X0107234Y0010706D01*
X0107089Y0010445D01*
X0106938Y0010188D01*
X0106781Y0009935D01*
X0106617Y0009686D01*
X0106447Y0009440D01*
X0106272Y0009199D01*
X0106090Y0008962D01*
X0105903Y0008730D01*
X0105711Y0008503D01*
X0105512Y0008280D01*
X0105309Y0008062D01*
X0105100Y0007849D01*
X0104886Y0007641D01*
X0104666Y0007439D01*
X0104443Y0007242D01*
X0104214Y0007051D01*
X0103980Y0006865D01*
X0103743Y0006685D01*
X0103501Y0006511D01*
X0103254Y0006343D01*
X0103004Y0006181D01*
X0102750Y0006025D01*
X0102492Y0005875D01*
X0102230Y0005732D01*
X0101965Y0005595D01*
X0101697Y0005464D01*
X0101426Y0005341D01*
X0101151Y0005224D01*
X0100874Y0005113D01*
X0100594Y0005010D01*
X0100312Y0004913D01*
X0100028Y0004823D01*
X0099741Y0004741D01*
X0099453Y0004665D01*
X0099163Y0004596D01*
X0098871Y0004535D01*
X0098578Y0004480D01*
X0098283Y0004433D01*
X0097988Y0004393D01*
X0097691Y0004360D01*
X0097394Y0004335D01*
X0097096Y0004317D01*
X0096798Y0004306D01*
X0096500Y0004302D01*
X0096202Y0004306D01*
X0095904Y0004317D01*
X0095606Y0004335D01*
X0095309Y0004360D01*
X0095012Y0004393D01*
X0094717Y0004433D01*
X0094422Y0004480D01*
X0094129Y0004535D01*
X0093837Y0004596D01*
X0093547Y0004665D01*
X0093259Y0004741D01*
X0092972Y0004823D01*
X0092688Y0004913D01*
X0092406Y0005010D01*
X0092126Y0005113D01*
X0091849Y0005224D01*
X0091574Y0005341D01*
X0091303Y0005464D01*
X0091035Y0005595D01*
X0090770Y0005732D01*
X0090508Y0005875D01*
X0090250Y0006025D01*
X0089996Y0006181D01*
X0089746Y0006343D01*
X0089499Y0006511D01*
X0089257Y0006685D01*
X0089020Y0006865D01*
X0088786Y0007051D01*
X0088557Y0007242D01*
X0088334Y0007439D01*
X0088114Y0007641D01*
X0087900Y0007849D01*
X0087691Y0008062D01*
X0087488Y0008280D01*
X0087289Y0008503D01*
X0087097Y0008730D01*
X0086910Y0008962D01*
X0086728Y0009199D01*
X0086553Y0009440D01*
X0086383Y0009686D01*
X0086219Y0009935D01*
X0086062Y0010188D01*
X0085911Y0010445D01*
X0085766Y0010706D01*
X0085627Y0010970D01*
X0085495Y0011238D01*
X0085370Y0011508D01*
X0085251Y0011782D01*
X0085139Y0012058D01*
X0085034Y0012337D01*
X0084936Y0012619D01*
X0084844Y0012903D01*
X0084760Y0013189D01*
X0084683Y0013477D01*
X0084612Y0013767D01*
X0084549Y0014058D01*
X0084493Y0014351D01*
X0084444Y0014645D01*
X0084402Y0014941D01*
X0084368Y0015237D01*
X0084340Y0015534D01*
X0084320Y0015831D01*
X0084308Y0016129D01*
X0084302Y0016428D01*
X0084304Y0016726D01*
X0084313Y0017024D01*
X0084330Y0017322D01*
X0084353Y0017619D01*
X0084384Y0017916D01*
X0084423Y0018211D01*
X0084468Y0018506D01*
X0084521Y0018800D01*
X0084581Y0019092D01*
X0084647Y0019383D01*
X0084722Y0019671D01*
X0084803Y0019958D01*
X0084891Y0020243D01*
X0084986Y0020526D01*
X0085087Y0020806D01*
X0085196Y0021084D01*
X0085312Y0021359D01*
X0085434Y0021631D01*
X0085563Y0021900D01*
X0085698Y0022166D01*
X0085840Y0022428D01*
X0085988Y0022687D01*
X0086142Y0022942D01*
X0086303Y0023194D01*
X0086469Y0023441D01*
X0086642Y0023684D01*
X0086821Y0023923D01*
X0087005Y0024158D01*
X0087195Y0024387D01*
X0087391Y0024613D01*
X0087592Y0024833D01*
X0087798Y0025048D01*
X0088010Y0025258D01*
X0088226Y0025463D01*
X0088448Y0025663D01*
X0088675Y0025857D01*
X0088906Y0026046D01*
X0089141Y0026228D01*
X0089198Y0026153D01*
X0088964Y0025972D01*
X0088735Y0025785D01*
X0088510Y0025592D01*
X0088290Y0025394D01*
X0088075Y0025191D01*
X0087865Y0024982D01*
X0087660Y0024768D01*
X0087461Y0024550D01*
X0087267Y0024326D01*
X0087078Y0024098D01*
X0086895Y0023866D01*
X0086718Y0023629D01*
X0086547Y0023387D01*
X0086381Y0023142D01*
X0086222Y0022893D01*
X0086069Y0022639D01*
X0085922Y0022383D01*
X0085781Y0022122D01*
X0085647Y0021858D01*
X0085519Y0021591D01*
X0085398Y0021321D01*
X0085283Y0021049D01*
X0085175Y0020773D01*
X0085074Y0020495D01*
X0084980Y0020214D01*
X0084893Y0019932D01*
X0084812Y0019647D01*
X0084739Y0019360D01*
X0084672Y0019072D01*
X0084613Y0018782D01*
X0084561Y0018490D01*
X0084516Y0018198D01*
X0084478Y0017904D01*
X0084447Y0017610D01*
X0084423Y0017315D01*
X0084407Y0017020D01*
X0084398Y0016724D01*
X0084396Y0016428D01*
X0084402Y0016132D01*
X0084414Y0015836D01*
X0084434Y0015541D01*
X0084461Y0015246D01*
X0084495Y0014952D01*
X0084537Y0014659D01*
X0084585Y0014367D01*
X0084641Y0014077D01*
X0084704Y0013788D01*
X0084774Y0013500D01*
X0084851Y0013214D01*
X0084934Y0012930D01*
X0085025Y0012649D01*
X0085123Y0012369D01*
X0085227Y0012092D01*
X0085338Y0011818D01*
X0085456Y0011547D01*
X0085580Y0011278D01*
X0085711Y0011013D01*
X0085849Y0010751D01*
X0085992Y0010492D01*
X0086142Y0010237D01*
X0086299Y0009985D01*
X0086461Y0009738D01*
X0086629Y0009495D01*
X0086804Y0009255D01*
X0086984Y0009020D01*
X0087169Y0008790D01*
X0087361Y0008564D01*
X0087557Y0008343D01*
X0087759Y0008127D01*
X0087967Y0007916D01*
X0088179Y0007710D01*
X0088397Y0007509D01*
X0088619Y0007313D01*
X0088846Y0007123D01*
X0089077Y0006939D01*
X0089313Y0006761D01*
X0089553Y0006588D01*
X0089798Y0006421D01*
X0090046Y0006260D01*
X0090299Y0006105D01*
X0090555Y0005957D01*
X0090814Y0005815D01*
X0091077Y0005679D01*
X0091343Y0005549D01*
X0091612Y0005427D01*
X0091885Y0005310D01*
X0092160Y0005201D01*
X0092437Y0005098D01*
X0092717Y0005002D01*
X0092999Y0004913D01*
X0093284Y0004831D01*
X0093570Y0004756D01*
X0093858Y0004688D01*
X0094147Y0004627D01*
X0094438Y0004573D01*
X0094731Y0004526D01*
X0095024Y0004486D01*
X0095318Y0004454D01*
X0095613Y0004429D01*
X0095908Y0004410D01*
X0096204Y0004400D01*
X0096500Y0004396D01*
X0096796Y0004400D01*
X0097092Y0004410D01*
X0097387Y0004429D01*
X0097682Y0004454D01*
X0097976Y0004486D01*
X0098269Y0004526D01*
X0098562Y0004573D01*
X0098853Y0004627D01*
X0099142Y0004688D01*
X0099430Y0004756D01*
X0099716Y0004831D01*
X0100001Y0004913D01*
X0100283Y0005002D01*
X0100563Y0005098D01*
X0100840Y0005201D01*
X0101115Y0005310D01*
X0101388Y0005427D01*
X0101657Y0005549D01*
X0101923Y0005679D01*
X0102186Y0005815D01*
X0102445Y0005957D01*
X0102701Y0006105D01*
X0102954Y0006260D01*
X0103202Y0006421D01*
X0103447Y0006588D01*
X0103687Y0006761D01*
X0103923Y0006939D01*
X0104154Y0007123D01*
X0104381Y0007313D01*
X0104603Y0007509D01*
X0104821Y0007710D01*
X0105033Y0007916D01*
X0105241Y0008127D01*
X0105443Y0008343D01*
X0105639Y0008564D01*
X0105831Y0008790D01*
X0106016Y0009020D01*
X0106196Y0009255D01*
X0106371Y0009495D01*
X0106539Y0009738D01*
X0106701Y0009985D01*
X0106858Y0010237D01*
X0107008Y0010492D01*
X0107151Y0010751D01*
X0107289Y0011013D01*
X0107420Y0011278D01*
X0107544Y0011547D01*
X0107662Y0011818D01*
X0107773Y0012092D01*
X0107877Y0012369D01*
X0107975Y0012649D01*
X0108066Y0012930D01*
X0108149Y0013214D01*
X0108226Y0013500D01*
X0108296Y0013788D01*
X0108359Y0014077D01*
X0108415Y0014367D01*
X0108463Y0014659D01*
X0108505Y0014952D01*
X0108539Y0015246D01*
X0108566Y0015541D01*
X0108586Y0015836D01*
X0108598Y0016132D01*
X0108604Y0016428D01*
X0108602Y0016724D01*
X0108593Y0017020D01*
X0108577Y0017315D01*
X0108553Y0017610D01*
X0108522Y0017904D01*
X0108484Y0018198D01*
X0108439Y0018490D01*
X0108387Y0018782D01*
X0108328Y0019072D01*
X0108261Y0019360D01*
X0108188Y0019647D01*
X0108107Y0019932D01*
X0108020Y0020214D01*
X0107926Y0020495D01*
X0107825Y0020773D01*
X0107717Y0021049D01*
X0107602Y0021321D01*
X0107481Y0021591D01*
X0107353Y0021858D01*
X0107219Y0022122D01*
X0107078Y0022383D01*
X0106931Y0022639D01*
X0106778Y0022893D01*
X0106619Y0023142D01*
X0106453Y0023387D01*
X0106282Y0023629D01*
X0106105Y0023866D01*
X0105922Y0024098D01*
X0105733Y0024326D01*
X0105539Y0024550D01*
X0105340Y0024768D01*
X0105135Y0024982D01*
X0104925Y0025191D01*
X0104710Y0025394D01*
X0104490Y0025592D01*
X0104265Y0025785D01*
X0104036Y0025972D01*
X0103802Y0026153D01*
D14*
X0086500Y0016500D02*
X0086503Y0016745D01*
X0086512Y0016991D01*
X0086527Y0017236D01*
X0086548Y0017480D01*
X0086575Y0017724D01*
X0086608Y0017967D01*
X0086647Y0018210D01*
X0086692Y0018451D01*
X0086743Y0018691D01*
X0086800Y0018930D01*
X0086862Y0019167D01*
X0086931Y0019403D01*
X0087005Y0019637D01*
X0087085Y0019869D01*
X0087170Y0020099D01*
X0087261Y0020327D01*
X0087358Y0020552D01*
X0087460Y0020776D01*
X0087568Y0020996D01*
X0087681Y0021214D01*
X0087799Y0021429D01*
X0087923Y0021641D01*
X0088051Y0021850D01*
X0088185Y0022056D01*
X0088324Y0022258D01*
X0088468Y0022457D01*
X0088617Y0022652D01*
X0088770Y0022844D01*
X0088928Y0023032D01*
X0089090Y0023216D01*
X0089258Y0023395D01*
X0089429Y0023571D01*
X0089605Y0023742D01*
X0089784Y0023910D01*
X0089968Y0024072D01*
X0090156Y0024230D01*
X0090348Y0024383D01*
X0090543Y0024532D01*
X0090742Y0024676D01*
X0090944Y0024815D01*
X0091150Y0024949D01*
X0091359Y0025077D01*
X0091571Y0025201D01*
X0091786Y0025319D01*
X0092004Y0025432D01*
X0092224Y0025540D01*
X0092448Y0025642D01*
X0092673Y0025739D01*
X0092901Y0025830D01*
X0093131Y0025915D01*
X0093363Y0025995D01*
X0093597Y0026069D01*
X0093833Y0026138D01*
X0094070Y0026200D01*
X0094309Y0026257D01*
X0094549Y0026308D01*
X0094790Y0026353D01*
X0095033Y0026392D01*
X0095276Y0026425D01*
X0095520Y0026452D01*
X0095764Y0026473D01*
X0096009Y0026488D01*
X0096255Y0026497D01*
X0096500Y0026500D01*
X0096745Y0026497D01*
X0096991Y0026488D01*
X0097236Y0026473D01*
X0097480Y0026452D01*
X0097724Y0026425D01*
X0097967Y0026392D01*
X0098210Y0026353D01*
X0098451Y0026308D01*
X0098691Y0026257D01*
X0098930Y0026200D01*
X0099167Y0026138D01*
X0099403Y0026069D01*
X0099637Y0025995D01*
X0099869Y0025915D01*
X0100099Y0025830D01*
X0100327Y0025739D01*
X0100552Y0025642D01*
X0100776Y0025540D01*
X0100996Y0025432D01*
X0101214Y0025319D01*
X0101429Y0025201D01*
X0101641Y0025077D01*
X0101850Y0024949D01*
X0102056Y0024815D01*
X0102258Y0024676D01*
X0102457Y0024532D01*
X0102652Y0024383D01*
X0102844Y0024230D01*
X0103032Y0024072D01*
X0103216Y0023910D01*
X0103395Y0023742D01*
X0103571Y0023571D01*
X0103742Y0023395D01*
X0103910Y0023216D01*
X0104072Y0023032D01*
X0104230Y0022844D01*
X0104383Y0022652D01*
X0104532Y0022457D01*
X0104676Y0022258D01*
X0104815Y0022056D01*
X0104949Y0021850D01*
X0105077Y0021641D01*
X0105201Y0021429D01*
X0105319Y0021214D01*
X0105432Y0020996D01*
X0105540Y0020776D01*
X0105642Y0020552D01*
X0105739Y0020327D01*
X0105830Y0020099D01*
X0105915Y0019869D01*
X0105995Y0019637D01*
X0106069Y0019403D01*
X0106138Y0019167D01*
X0106200Y0018930D01*
X0106257Y0018691D01*
X0106308Y0018451D01*
X0106353Y0018210D01*
X0106392Y0017967D01*
X0106425Y0017724D01*
X0106452Y0017480D01*
X0106473Y0017236D01*
X0106488Y0016991D01*
X0106497Y0016745D01*
X0106500Y0016500D01*
X0106497Y0016255D01*
X0106488Y0016009D01*
X0106473Y0015764D01*
X0106452Y0015520D01*
X0106425Y0015276D01*
X0106392Y0015033D01*
X0106353Y0014790D01*
X0106308Y0014549D01*
X0106257Y0014309D01*
X0106200Y0014070D01*
X0106138Y0013833D01*
X0106069Y0013597D01*
X0105995Y0013363D01*
X0105915Y0013131D01*
X0105830Y0012901D01*
X0105739Y0012673D01*
X0105642Y0012448D01*
X0105540Y0012224D01*
X0105432Y0012004D01*
X0105319Y0011786D01*
X0105201Y0011571D01*
X0105077Y0011359D01*
X0104949Y0011150D01*
X0104815Y0010944D01*
X0104676Y0010742D01*
X0104532Y0010543D01*
X0104383Y0010348D01*
X0104230Y0010156D01*
X0104072Y0009968D01*
X0103910Y0009784D01*
X0103742Y0009605D01*
X0103571Y0009429D01*
X0103395Y0009258D01*
X0103216Y0009090D01*
X0103032Y0008928D01*
X0102844Y0008770D01*
X0102652Y0008617D01*
X0102457Y0008468D01*
X0102258Y0008324D01*
X0102056Y0008185D01*
X0101850Y0008051D01*
X0101641Y0007923D01*
X0101429Y0007799D01*
X0101214Y0007681D01*
X0100996Y0007568D01*
X0100776Y0007460D01*
X0100552Y0007358D01*
X0100327Y0007261D01*
X0100099Y0007170D01*
X0099869Y0007085D01*
X0099637Y0007005D01*
X0099403Y0006931D01*
X0099167Y0006862D01*
X0098930Y0006800D01*
X0098691Y0006743D01*
X0098451Y0006692D01*
X0098210Y0006647D01*
X0097967Y0006608D01*
X0097724Y0006575D01*
X0097480Y0006548D01*
X0097236Y0006527D01*
X0096991Y0006512D01*
X0096745Y0006503D01*
X0096500Y0006500D01*
X0096255Y0006503D01*
X0096009Y0006512D01*
X0095764Y0006527D01*
X0095520Y0006548D01*
X0095276Y0006575D01*
X0095033Y0006608D01*
X0094790Y0006647D01*
X0094549Y0006692D01*
X0094309Y0006743D01*
X0094070Y0006800D01*
X0093833Y0006862D01*
X0093597Y0006931D01*
X0093363Y0007005D01*
X0093131Y0007085D01*
X0092901Y0007170D01*
X0092673Y0007261D01*
X0092448Y0007358D01*
X0092224Y0007460D01*
X0092004Y0007568D01*
X0091786Y0007681D01*
X0091571Y0007799D01*
X0091359Y0007923D01*
X0091150Y0008051D01*
X0090944Y0008185D01*
X0090742Y0008324D01*
X0090543Y0008468D01*
X0090348Y0008617D01*
X0090156Y0008770D01*
X0089968Y0008928D01*
X0089784Y0009090D01*
X0089605Y0009258D01*
X0089429Y0009429D01*
X0089258Y0009605D01*
X0089090Y0009784D01*
X0088928Y0009968D01*
X0088770Y0010156D01*
X0088617Y0010348D01*
X0088468Y0010543D01*
X0088324Y0010742D01*
X0088185Y0010944D01*
X0088051Y0011150D01*
X0087923Y0011359D01*
X0087799Y0011571D01*
X0087681Y0011786D01*
X0087568Y0012004D01*
X0087460Y0012224D01*
X0087358Y0012448D01*
X0087261Y0012673D01*
X0087170Y0012901D01*
X0087085Y0013131D01*
X0087005Y0013363D01*
X0086931Y0013597D01*
X0086862Y0013833D01*
X0086800Y0014070D01*
X0086743Y0014309D01*
X0086692Y0014549D01*
X0086647Y0014790D01*
X0086608Y0015033D01*
X0086575Y0015276D01*
X0086548Y0015520D01*
X0086527Y0015764D01*
X0086512Y0016009D01*
X0086503Y0016255D01*
X0086500Y0016500D01*
X0068385Y0019867D02*
X0067818Y0019300D01*
X0066684Y0019300D01*
X0066117Y0019867D01*
X0068385Y0022136D01*
X0068385Y0019867D01*
X0066117Y0019867D02*
X0066117Y0022136D01*
X0066684Y0022703D01*
X0067818Y0022703D01*
X0068385Y0022136D01*
X0064702Y0022136D02*
X0064702Y0021569D01*
X0064135Y0021001D01*
X0064702Y0020434D01*
X0064702Y0019867D01*
X0064135Y0019300D01*
X0063001Y0019300D01*
X0062434Y0019867D01*
X0061019Y0019867D02*
X0060452Y0019300D01*
X0059318Y0019300D01*
X0058751Y0019867D01*
X0059885Y0021001D02*
X0060452Y0021001D01*
X0061019Y0020434D01*
X0061019Y0019867D01*
X0060452Y0021001D02*
X0061019Y0021569D01*
X0061019Y0022136D01*
X0060452Y0022703D01*
X0059318Y0022703D01*
X0058751Y0022136D01*
X0062434Y0022136D02*
X0063001Y0022703D01*
X0064135Y0022703D01*
X0064702Y0022136D01*
X0064135Y0021001D02*
X0063568Y0021001D01*
D15*
X0078744Y0043783D02*
X0078746Y0043888D01*
X0078752Y0043993D01*
X0078762Y0044097D01*
X0078776Y0044201D01*
X0078794Y0044305D01*
X0078816Y0044407D01*
X0078841Y0044509D01*
X0078871Y0044610D01*
X0078904Y0044709D01*
X0078941Y0044807D01*
X0078982Y0044904D01*
X0079027Y0044999D01*
X0079075Y0045092D01*
X0079126Y0045184D01*
X0079182Y0045273D01*
X0079240Y0045360D01*
X0079302Y0045445D01*
X0079366Y0045528D01*
X0079434Y0045608D01*
X0079505Y0045685D01*
X0079579Y0045759D01*
X0079656Y0045831D01*
X0079735Y0045900D01*
X0079817Y0045965D01*
X0079901Y0046028D01*
X0079988Y0046087D01*
X0080077Y0046143D01*
X0080168Y0046196D01*
X0080261Y0046245D01*
X0080355Y0046290D01*
X0080451Y0046332D01*
X0080549Y0046370D01*
X0080648Y0046404D01*
X0080749Y0046435D01*
X0080850Y0046461D01*
X0080953Y0046484D01*
X0081056Y0046503D01*
X0081160Y0046518D01*
X0081264Y0046529D01*
X0081369Y0046536D01*
X0081474Y0046539D01*
X0081579Y0046538D01*
X0081684Y0046533D01*
X0081788Y0046524D01*
X0081892Y0046511D01*
X0081996Y0046494D01*
X0082099Y0046473D01*
X0082201Y0046448D01*
X0082302Y0046420D01*
X0082401Y0046387D01*
X0082500Y0046351D01*
X0082597Y0046311D01*
X0082692Y0046268D01*
X0082786Y0046220D01*
X0082878Y0046170D01*
X0082968Y0046116D01*
X0083056Y0046058D01*
X0083141Y0045997D01*
X0083224Y0045933D01*
X0083305Y0045866D01*
X0083383Y0045796D01*
X0083458Y0045722D01*
X0083530Y0045647D01*
X0083600Y0045568D01*
X0083666Y0045487D01*
X0083730Y0045403D01*
X0083790Y0045317D01*
X0083846Y0045229D01*
X0083900Y0045138D01*
X0083950Y0045046D01*
X0083996Y0044952D01*
X0084039Y0044856D01*
X0084078Y0044758D01*
X0084113Y0044660D01*
X0084144Y0044559D01*
X0084172Y0044458D01*
X0084196Y0044356D01*
X0084216Y0044253D01*
X0084232Y0044149D01*
X0084244Y0044045D01*
X0084252Y0043940D01*
X0084256Y0043835D01*
X0084256Y0043731D01*
X0084252Y0043626D01*
X0084244Y0043521D01*
X0084232Y0043417D01*
X0084216Y0043313D01*
X0084196Y0043210D01*
X0084172Y0043108D01*
X0084144Y0043007D01*
X0084113Y0042906D01*
X0084078Y0042808D01*
X0084039Y0042710D01*
X0083996Y0042614D01*
X0083950Y0042520D01*
X0083900Y0042428D01*
X0083846Y0042337D01*
X0083790Y0042249D01*
X0083730Y0042163D01*
X0083666Y0042079D01*
X0083600Y0041998D01*
X0083530Y0041919D01*
X0083458Y0041844D01*
X0083383Y0041770D01*
X0083305Y0041700D01*
X0083224Y0041633D01*
X0083141Y0041569D01*
X0083056Y0041508D01*
X0082968Y0041450D01*
X0082878Y0041396D01*
X0082786Y0041346D01*
X0082692Y0041298D01*
X0082597Y0041255D01*
X0082500Y0041215D01*
X0082401Y0041179D01*
X0082302Y0041146D01*
X0082201Y0041118D01*
X0082099Y0041093D01*
X0081996Y0041072D01*
X0081892Y0041055D01*
X0081788Y0041042D01*
X0081684Y0041033D01*
X0081579Y0041028D01*
X0081474Y0041027D01*
X0081369Y0041030D01*
X0081264Y0041037D01*
X0081160Y0041048D01*
X0081056Y0041063D01*
X0080953Y0041082D01*
X0080850Y0041105D01*
X0080749Y0041131D01*
X0080648Y0041162D01*
X0080549Y0041196D01*
X0080451Y0041234D01*
X0080355Y0041276D01*
X0080261Y0041321D01*
X0080168Y0041370D01*
X0080077Y0041423D01*
X0079988Y0041479D01*
X0079901Y0041538D01*
X0079817Y0041601D01*
X0079735Y0041666D01*
X0079656Y0041735D01*
X0079579Y0041807D01*
X0079505Y0041881D01*
X0079434Y0041958D01*
X0079366Y0042038D01*
X0079302Y0042121D01*
X0079240Y0042206D01*
X0079182Y0042293D01*
X0079126Y0042382D01*
X0079075Y0042474D01*
X0079027Y0042567D01*
X0078982Y0042662D01*
X0078941Y0042759D01*
X0078904Y0042857D01*
X0078871Y0042956D01*
X0078841Y0043057D01*
X0078816Y0043159D01*
X0078794Y0043261D01*
X0078776Y0043365D01*
X0078762Y0043469D01*
X0078752Y0043573D01*
X0078746Y0043678D01*
X0078744Y0043783D01*
X0078744Y0079217D02*
X0078746Y0079322D01*
X0078752Y0079427D01*
X0078762Y0079531D01*
X0078776Y0079635D01*
X0078794Y0079739D01*
X0078816Y0079841D01*
X0078841Y0079943D01*
X0078871Y0080044D01*
X0078904Y0080143D01*
X0078941Y0080241D01*
X0078982Y0080338D01*
X0079027Y0080433D01*
X0079075Y0080526D01*
X0079126Y0080618D01*
X0079182Y0080707D01*
X0079240Y0080794D01*
X0079302Y0080879D01*
X0079366Y0080962D01*
X0079434Y0081042D01*
X0079505Y0081119D01*
X0079579Y0081193D01*
X0079656Y0081265D01*
X0079735Y0081334D01*
X0079817Y0081399D01*
X0079901Y0081462D01*
X0079988Y0081521D01*
X0080077Y0081577D01*
X0080168Y0081630D01*
X0080261Y0081679D01*
X0080355Y0081724D01*
X0080451Y0081766D01*
X0080549Y0081804D01*
X0080648Y0081838D01*
X0080749Y0081869D01*
X0080850Y0081895D01*
X0080953Y0081918D01*
X0081056Y0081937D01*
X0081160Y0081952D01*
X0081264Y0081963D01*
X0081369Y0081970D01*
X0081474Y0081973D01*
X0081579Y0081972D01*
X0081684Y0081967D01*
X0081788Y0081958D01*
X0081892Y0081945D01*
X0081996Y0081928D01*
X0082099Y0081907D01*
X0082201Y0081882D01*
X0082302Y0081854D01*
X0082401Y0081821D01*
X0082500Y0081785D01*
X0082597Y0081745D01*
X0082692Y0081702D01*
X0082786Y0081654D01*
X0082878Y0081604D01*
X0082968Y0081550D01*
X0083056Y0081492D01*
X0083141Y0081431D01*
X0083224Y0081367D01*
X0083305Y0081300D01*
X0083383Y0081230D01*
X0083458Y0081156D01*
X0083530Y0081081D01*
X0083600Y0081002D01*
X0083666Y0080921D01*
X0083730Y0080837D01*
X0083790Y0080751D01*
X0083846Y0080663D01*
X0083900Y0080572D01*
X0083950Y0080480D01*
X0083996Y0080386D01*
X0084039Y0080290D01*
X0084078Y0080192D01*
X0084113Y0080094D01*
X0084144Y0079993D01*
X0084172Y0079892D01*
X0084196Y0079790D01*
X0084216Y0079687D01*
X0084232Y0079583D01*
X0084244Y0079479D01*
X0084252Y0079374D01*
X0084256Y0079269D01*
X0084256Y0079165D01*
X0084252Y0079060D01*
X0084244Y0078955D01*
X0084232Y0078851D01*
X0084216Y0078747D01*
X0084196Y0078644D01*
X0084172Y0078542D01*
X0084144Y0078441D01*
X0084113Y0078340D01*
X0084078Y0078242D01*
X0084039Y0078144D01*
X0083996Y0078048D01*
X0083950Y0077954D01*
X0083900Y0077862D01*
X0083846Y0077771D01*
X0083790Y0077683D01*
X0083730Y0077597D01*
X0083666Y0077513D01*
X0083600Y0077432D01*
X0083530Y0077353D01*
X0083458Y0077278D01*
X0083383Y0077204D01*
X0083305Y0077134D01*
X0083224Y0077067D01*
X0083141Y0077003D01*
X0083056Y0076942D01*
X0082968Y0076884D01*
X0082878Y0076830D01*
X0082786Y0076780D01*
X0082692Y0076732D01*
X0082597Y0076689D01*
X0082500Y0076649D01*
X0082401Y0076613D01*
X0082302Y0076580D01*
X0082201Y0076552D01*
X0082099Y0076527D01*
X0081996Y0076506D01*
X0081892Y0076489D01*
X0081788Y0076476D01*
X0081684Y0076467D01*
X0081579Y0076462D01*
X0081474Y0076461D01*
X0081369Y0076464D01*
X0081264Y0076471D01*
X0081160Y0076482D01*
X0081056Y0076497D01*
X0080953Y0076516D01*
X0080850Y0076539D01*
X0080749Y0076565D01*
X0080648Y0076596D01*
X0080549Y0076630D01*
X0080451Y0076668D01*
X0080355Y0076710D01*
X0080261Y0076755D01*
X0080168Y0076804D01*
X0080077Y0076857D01*
X0079988Y0076913D01*
X0079901Y0076972D01*
X0079817Y0077035D01*
X0079735Y0077100D01*
X0079656Y0077169D01*
X0079579Y0077241D01*
X0079505Y0077315D01*
X0079434Y0077392D01*
X0079366Y0077472D01*
X0079302Y0077555D01*
X0079240Y0077640D01*
X0079182Y0077727D01*
X0079126Y0077816D01*
X0079075Y0077908D01*
X0079027Y0078001D01*
X0078982Y0078096D01*
X0078941Y0078193D01*
X0078904Y0078291D01*
X0078871Y0078390D01*
X0078841Y0078491D01*
X0078816Y0078593D01*
X0078794Y0078695D01*
X0078776Y0078799D01*
X0078762Y0078903D01*
X0078752Y0079007D01*
X0078746Y0079112D01*
X0078744Y0079217D01*
D16*
X0031250Y0010500D03*
X0031300Y0010400D03*
X0031300Y0010350D03*
X0027600Y0010300D03*
X0027600Y0010250D03*
X0027600Y0010200D03*
X0015300Y0006500D03*
X0007450Y0009500D03*
X0007250Y0009550D03*
D17*
X0008700Y0009150D03*
X0008900Y0009100D03*
X0015300Y0006550D03*
X0022900Y0007750D03*
X0022950Y0007800D03*
X0022950Y0007850D03*
X0023000Y0007900D03*
X0023050Y0008050D03*
X0023100Y0010800D03*
X0023100Y0010850D03*
X0027450Y0010650D03*
X0027200Y0007500D03*
D18*
X0028625Y0010050D03*
X0028975Y0010900D03*
X0027275Y0010850D03*
X0024575Y0010550D03*
X0024525Y0010500D03*
X0024475Y0010450D03*
X0024475Y0010400D03*
X0024425Y0010350D03*
X0024425Y0010300D03*
X0024375Y0010250D03*
X0024375Y0010200D03*
X0024325Y0010150D03*
X0024325Y0010100D03*
X0024325Y0010050D03*
X0024275Y0009950D03*
X0024275Y0009900D03*
X0024275Y0009850D03*
X0024275Y0009800D03*
X0024275Y0008900D03*
X0024325Y0008700D03*
X0024325Y0008650D03*
X0024425Y0008400D03*
X0020075Y0007850D03*
X0020025Y0007900D03*
X0019975Y0008000D03*
X0019975Y0008050D03*
X0019925Y0008150D03*
X0019925Y0008200D03*
X0019875Y0010700D03*
X0019875Y0010750D03*
X0019875Y0010800D03*
X0015275Y0006600D03*
X0031025Y0007750D03*
X0031075Y0007800D03*
X0031125Y0007850D03*
X0031175Y0007900D03*
X0031175Y0007950D03*
X0031225Y0008000D03*
X0031225Y0008050D03*
X0031275Y0008200D03*
X0031275Y0008250D03*
X0031275Y0008300D03*
X0032825Y0007900D03*
X0032825Y0007850D03*
X0032825Y0007800D03*
X0032825Y0007750D03*
X0032825Y0007700D03*
X0032825Y0007650D03*
X0035675Y0008000D03*
X0035725Y0008050D03*
X0035825Y0008200D03*
X0035875Y0008300D03*
X0035925Y0008400D03*
X0035975Y0008500D03*
X0035975Y0008550D03*
X0036025Y0008700D03*
X0036025Y0008750D03*
X0036025Y0009700D03*
X0036025Y0009750D03*
X0035975Y0009900D03*
X0035975Y0009950D03*
X0035925Y0010050D03*
X0035875Y0010150D03*
X0035825Y0010250D03*
X0035775Y0010350D03*
X0035725Y0010400D03*
X0032825Y0010550D03*
X0032825Y0010600D03*
X0032825Y0010650D03*
X0032825Y0010700D03*
X0032825Y0010750D03*
X0032825Y0010800D03*
D19*
X0030850Y0010950D03*
X0031050Y0008700D03*
X0028800Y0009850D03*
X0025150Y0010950D03*
X0025150Y0007650D03*
X0019750Y0011000D03*
X0015200Y0006650D03*
X0010550Y0008600D03*
X0010400Y0008650D03*
X0035050Y0007600D03*
D20*
X0034850Y0007550D03*
X0030850Y0008850D03*
X0030150Y0011200D03*
X0025400Y0007550D03*
X0015150Y0006700D03*
X0011000Y0008450D03*
D21*
X0011275Y0008350D03*
X0015075Y0006750D03*
X0021475Y0007250D03*
X0026375Y0007250D03*
X0029625Y0007250D03*
X0030675Y0008950D03*
X0029225Y0009600D03*
X0029125Y0009650D03*
D22*
X0029425Y0009500D03*
X0030375Y0009100D03*
X0025675Y0007500D03*
X0014975Y0006800D03*
X0011525Y0008250D03*
X0013925Y0012100D03*
D23*
X0014900Y0006850D03*
X0029900Y0009300D03*
D24*
X0014800Y0006900D03*
X0011750Y0008150D03*
D25*
X0013025Y0008600D03*
X0014675Y0006950D03*
X0026425Y0007300D03*
X0026225Y0011150D03*
X0033425Y0007300D03*
D26*
X0014575Y0007000D03*
X0011775Y0008100D03*
D27*
X0014450Y0007050D03*
D28*
X0014325Y0007100D03*
D29*
X0014200Y0007150D03*
X0029600Y0007350D03*
X0033600Y0007350D03*
X0030200Y0011100D03*
D30*
X0026275Y0007400D03*
X0014075Y0007200D03*
D31*
X0027425Y0007550D03*
X0028475Y0007600D03*
X0029625Y0007200D03*
D32*
X0026225Y0007450D03*
X0026275Y0011100D03*
X0030125Y0011050D03*
X0014825Y0011450D03*
X0013925Y0007250D03*
D33*
X0013800Y0007300D03*
X0014800Y0011350D03*
X0014800Y0011400D03*
X0021450Y0007400D03*
D34*
X0021475Y0007300D03*
D35*
X0029550Y0007300D03*
D36*
X0029725Y0007450D03*
X0030075Y0011000D03*
X0033725Y0007400D03*
X0014775Y0011300D03*
X0013675Y0007350D03*
D37*
X0021450Y0007350D03*
X0026350Y0007350D03*
D38*
X0033050Y0011150D03*
X0014750Y0011250D03*
X0013500Y0007400D03*
D39*
X0012900Y0008700D03*
X0029650Y0007400D03*
D40*
X0013375Y0007450D03*
X0013225Y0007500D03*
X0012875Y0008750D03*
D41*
X0021450Y0007450D03*
D42*
X0026275Y0011050D03*
X0033825Y0007450D03*
X0013075Y0007550D03*
X0012925Y0007600D03*
X0012775Y0007650D03*
D43*
X0013275Y0008400D03*
X0010725Y0008550D03*
X0020525Y0007500D03*
X0028875Y0009800D03*
X0030975Y0008750D03*
X0035025Y0010850D03*
D44*
X0035375Y0010700D03*
X0035525Y0010600D03*
X0032825Y0010850D03*
X0031175Y0008550D03*
X0031225Y0008450D03*
X0030825Y0007600D03*
X0028875Y0007500D03*
X0029125Y0010950D03*
X0024925Y0010850D03*
X0024575Y0008150D03*
X0024675Y0008000D03*
X0024725Y0007950D03*
X0024775Y0007900D03*
X0022475Y0007500D03*
X0020325Y0007600D03*
X0013325Y0008350D03*
X0010075Y0008750D03*
X0009925Y0008800D03*
X0035375Y0007750D03*
X0035525Y0007850D03*
D45*
X0030925Y0008800D03*
X0030525Y0007500D03*
X0022775Y0011050D03*
X0022775Y0011100D03*
X0022775Y0011150D03*
X0010875Y0008500D03*
D46*
X0011500Y0008050D03*
X0011700Y0008000D03*
X0011850Y0007950D03*
X0012000Y0007900D03*
X0012800Y0008800D03*
X0026200Y0011000D03*
X0033900Y0007500D03*
D47*
X0032900Y0007550D03*
X0031150Y0008600D03*
X0028750Y0009900D03*
X0027200Y0010900D03*
X0025000Y0010900D03*
X0024850Y0007850D03*
X0024900Y0007800D03*
X0020400Y0007550D03*
X0019800Y0010950D03*
X0010250Y0008700D03*
X0035300Y0007700D03*
X0035300Y0010750D03*
D48*
X0031025Y0010850D03*
X0028825Y0010800D03*
X0028775Y0010750D03*
X0028625Y0010600D03*
X0028575Y0010200D03*
X0028575Y0010150D03*
X0027325Y0010800D03*
X0022625Y0007550D03*
X0009425Y0008950D03*
D49*
X0008175Y0009300D03*
X0027525Y0010500D03*
X0028625Y0007550D03*
X0031175Y0010650D03*
D50*
X0032825Y0010900D03*
X0035175Y0010800D03*
X0035175Y0007650D03*
X0031075Y0008650D03*
X0030725Y0007550D03*
X0025075Y0007700D03*
X0024975Y0007750D03*
D51*
X0022700Y0007600D03*
X0023050Y0010950D03*
X0027350Y0010750D03*
X0028550Y0010450D03*
X0028550Y0010400D03*
X0028550Y0010350D03*
X0028550Y0010300D03*
X0028550Y0010250D03*
X0028600Y0010500D03*
X0028600Y0010550D03*
X0028650Y0010650D03*
X0028700Y0010700D03*
X0013400Y0008300D03*
X0009250Y0009000D03*
D52*
X0025250Y0007600D03*
X0027100Y0010950D03*
X0028950Y0009750D03*
D53*
X0028700Y0009950D03*
X0028650Y0010000D03*
X0030950Y0010900D03*
X0031200Y0008500D03*
X0031250Y0008400D03*
X0031250Y0008350D03*
X0030950Y0007700D03*
X0030900Y0007650D03*
X0032850Y0007600D03*
X0035450Y0007800D03*
X0035600Y0007900D03*
X0035650Y0007950D03*
X0035750Y0008100D03*
X0035800Y0008150D03*
X0035850Y0008250D03*
X0035900Y0008350D03*
X0035950Y0008450D03*
X0036000Y0008600D03*
X0036000Y0008650D03*
X0036050Y0008800D03*
X0036050Y0008850D03*
X0036050Y0008900D03*
X0036050Y0008950D03*
X0036050Y0009000D03*
X0036050Y0009050D03*
X0036050Y0009100D03*
X0036050Y0009150D03*
X0036050Y0009200D03*
X0036050Y0009250D03*
X0036050Y0009300D03*
X0036050Y0009350D03*
X0036050Y0009400D03*
X0036050Y0009450D03*
X0036050Y0009500D03*
X0036050Y0009550D03*
X0036050Y0009600D03*
X0036050Y0009650D03*
X0036000Y0009800D03*
X0036000Y0009850D03*
X0035950Y0010000D03*
X0035900Y0010100D03*
X0035850Y0010200D03*
X0035800Y0010300D03*
X0035700Y0010450D03*
X0035650Y0010500D03*
X0035600Y0010550D03*
X0035450Y0010650D03*
X0024850Y0010800D03*
X0024750Y0010750D03*
X0024700Y0010700D03*
X0024650Y0010650D03*
X0024600Y0010600D03*
X0024300Y0010000D03*
X0024250Y0009750D03*
X0024250Y0009700D03*
X0024250Y0009650D03*
X0024250Y0009600D03*
X0024250Y0009550D03*
X0024250Y0009500D03*
X0024250Y0009450D03*
X0024250Y0009400D03*
X0024250Y0009350D03*
X0024250Y0009300D03*
X0024250Y0009250D03*
X0024250Y0009200D03*
X0024250Y0009150D03*
X0024250Y0009100D03*
X0024250Y0009050D03*
X0024250Y0009000D03*
X0024250Y0008950D03*
X0024300Y0008850D03*
X0024300Y0008800D03*
X0024300Y0008750D03*
X0024350Y0008600D03*
X0024350Y0008550D03*
X0024400Y0008500D03*
X0024400Y0008450D03*
X0024450Y0008350D03*
X0024500Y0008300D03*
X0024500Y0008250D03*
X0024550Y0008200D03*
X0024600Y0008100D03*
X0024650Y0008050D03*
X0020250Y0007650D03*
X0020200Y0007700D03*
X0020150Y0007750D03*
X0020100Y0007800D03*
X0019850Y0010850D03*
X0019850Y0010900D03*
X0009750Y0008850D03*
D54*
X0009075Y0009050D03*
X0022775Y0007650D03*
X0022825Y0007700D03*
X0023075Y0010900D03*
X0027425Y0010700D03*
X0031075Y0010800D03*
D55*
X0012650Y0007700D03*
D56*
X0012475Y0007750D03*
X0012325Y0007800D03*
X0012175Y0007850D03*
D57*
X0009600Y0008900D03*
X0019900Y0008900D03*
X0019900Y0008950D03*
X0019900Y0009000D03*
X0019900Y0009050D03*
X0019900Y0009100D03*
X0019900Y0009150D03*
X0019900Y0009200D03*
X0019900Y0009250D03*
X0019900Y0009300D03*
X0019900Y0009350D03*
X0019900Y0009400D03*
X0019900Y0009450D03*
X0019900Y0009500D03*
X0019900Y0009550D03*
X0019900Y0009600D03*
X0019900Y0009650D03*
X0019900Y0009700D03*
X0019900Y0009750D03*
X0019900Y0009800D03*
X0019900Y0009850D03*
X0019900Y0009900D03*
X0019900Y0009950D03*
X0019900Y0010000D03*
X0019900Y0010050D03*
X0019900Y0010100D03*
X0019900Y0010150D03*
X0019900Y0010200D03*
X0019900Y0010250D03*
X0019900Y0010300D03*
X0019900Y0010350D03*
X0019900Y0010400D03*
X0019900Y0010450D03*
X0019900Y0010500D03*
X0019900Y0010550D03*
X0019900Y0010600D03*
X0019900Y0010650D03*
X0019900Y0008850D03*
X0019900Y0008800D03*
X0019900Y0008750D03*
X0019900Y0008700D03*
X0019900Y0008650D03*
X0019900Y0008600D03*
X0019900Y0008550D03*
X0019900Y0008500D03*
X0019900Y0008450D03*
X0019900Y0008400D03*
X0019900Y0008350D03*
X0019900Y0008300D03*
X0019900Y0008250D03*
X0019950Y0008100D03*
X0020000Y0007950D03*
X0023000Y0011000D03*
X0028600Y0010100D03*
X0028900Y0010850D03*
X0031250Y0008150D03*
X0031250Y0008100D03*
X0032800Y0008100D03*
X0032800Y0008150D03*
X0032800Y0008200D03*
X0032800Y0008250D03*
X0032800Y0008300D03*
X0032800Y0008350D03*
X0032800Y0008400D03*
X0032800Y0008450D03*
X0032800Y0008500D03*
X0032800Y0008550D03*
X0032800Y0008600D03*
X0032800Y0008650D03*
X0032800Y0008700D03*
X0032800Y0008750D03*
X0032800Y0008800D03*
X0032800Y0008850D03*
X0032800Y0008900D03*
X0032800Y0008950D03*
X0032800Y0009000D03*
X0032800Y0009050D03*
X0032800Y0009100D03*
X0032800Y0009150D03*
X0032800Y0009200D03*
X0032800Y0009250D03*
X0032800Y0009300D03*
X0032800Y0009350D03*
X0032800Y0009400D03*
X0032800Y0009450D03*
X0032800Y0009500D03*
X0032800Y0009550D03*
X0032800Y0009600D03*
X0032800Y0009650D03*
X0032800Y0009700D03*
X0032800Y0009750D03*
X0032800Y0009800D03*
X0032800Y0009850D03*
X0032800Y0009900D03*
X0032800Y0009950D03*
X0032800Y0010000D03*
X0032800Y0010050D03*
X0032800Y0010100D03*
X0032800Y0010150D03*
X0032800Y0010200D03*
X0032800Y0010250D03*
X0032800Y0010300D03*
X0032800Y0010350D03*
X0032800Y0010400D03*
X0032800Y0010450D03*
X0032800Y0010500D03*
X0032800Y0008050D03*
X0032800Y0008000D03*
X0032800Y0007950D03*
D58*
X0031125Y0010750D03*
X0027475Y0010600D03*
X0023125Y0010600D03*
X0023125Y0010650D03*
X0023125Y0010700D03*
X0023125Y0010750D03*
X0023125Y0010550D03*
X0023125Y0010500D03*
X0023125Y0010450D03*
X0023125Y0010400D03*
X0023125Y0010350D03*
X0023125Y0010300D03*
X0023125Y0010250D03*
X0023125Y0010200D03*
X0023125Y0010150D03*
X0023125Y0010100D03*
X0023125Y0010050D03*
X0023125Y0010000D03*
X0023125Y0009950D03*
X0023125Y0009900D03*
X0023125Y0009850D03*
X0023125Y0009800D03*
X0023125Y0009750D03*
X0023125Y0009700D03*
X0023125Y0009650D03*
X0023125Y0009600D03*
X0023125Y0009550D03*
X0023125Y0009500D03*
X0023125Y0009450D03*
X0023125Y0009400D03*
X0023125Y0009350D03*
X0023125Y0009300D03*
X0023125Y0009250D03*
X0023125Y0009200D03*
X0023125Y0009150D03*
X0023125Y0009100D03*
X0023125Y0009050D03*
X0023125Y0009000D03*
X0023125Y0008950D03*
X0023125Y0008900D03*
X0023125Y0008850D03*
X0023125Y0008800D03*
X0023125Y0008750D03*
X0023125Y0008700D03*
X0023125Y0008650D03*
X0023125Y0008600D03*
X0023125Y0008550D03*
X0023125Y0008500D03*
X0023125Y0008450D03*
X0023125Y0008400D03*
X0023125Y0008350D03*
X0023125Y0008300D03*
X0023075Y0008250D03*
X0023075Y0008200D03*
X0023075Y0008150D03*
X0023075Y0008100D03*
X0023025Y0008000D03*
X0023025Y0007950D03*
X0008525Y0009200D03*
D59*
X0011625Y0008200D03*
X0029675Y0009400D03*
X0029775Y0009350D03*
X0030025Y0009250D03*
X0030125Y0009200D03*
D60*
X0027625Y0010150D03*
X0013525Y0008200D03*
D61*
X0013450Y0008250D03*
X0008350Y0009250D03*
X0027500Y0010550D03*
X0031150Y0010700D03*
D62*
X0029325Y0009550D03*
X0030475Y0009050D03*
X0019525Y0011050D03*
X0019525Y0011100D03*
X0019525Y0011150D03*
X0013975Y0012250D03*
X0011425Y0008300D03*
D63*
X0011150Y0008400D03*
X0013200Y0008450D03*
X0026150Y0011200D03*
D64*
X0013950Y0012150D03*
X0013950Y0012200D03*
X0013150Y0008500D03*
D65*
X0013075Y0008550D03*
D66*
X0012975Y0008650D03*
D67*
X0012775Y0008850D03*
D68*
X0012725Y0008900D03*
D69*
X0029025Y0009700D03*
X0030775Y0008900D03*
X0034825Y0010900D03*
D70*
X0015650Y0010450D03*
X0012700Y0008950D03*
D71*
X0012650Y0009000D03*
X0012700Y0012350D03*
X0012700Y0012400D03*
X0012700Y0012450D03*
X0012700Y0012500D03*
X0012700Y0012550D03*
X0012700Y0012600D03*
X0012700Y0012650D03*
D72*
X0014000Y0012300D03*
X0030550Y0009000D03*
D73*
X0012625Y0009050D03*
D74*
X0012575Y0009100D03*
D75*
X0012575Y0009150D03*
D76*
X0029550Y0009450D03*
X0030250Y0009150D03*
D77*
X0012550Y0009200D03*
D78*
X0012550Y0009250D03*
D79*
X0012525Y0009300D03*
D80*
X0008000Y0009350D03*
X0007800Y0009400D03*
X0027550Y0010400D03*
X0027550Y0010450D03*
X0031200Y0010600D03*
D81*
X0012550Y0009350D03*
D82*
X0012550Y0009400D03*
X0012750Y0011650D03*
X0012750Y0011700D03*
X0012750Y0011750D03*
X0012750Y0011800D03*
D83*
X0007625Y0009450D03*
X0027575Y0010350D03*
X0031225Y0010550D03*
X0031275Y0010450D03*
D84*
X0012600Y0009450D03*
D85*
X0012625Y0009500D03*
D86*
X0012725Y0009550D03*
D87*
X0007050Y0009600D03*
X0006850Y0009650D03*
D88*
X0012850Y0009600D03*
D89*
X0013150Y0009650D03*
D90*
X0013050Y0009700D03*
D91*
X0012975Y0009750D03*
D92*
X0012875Y0009800D03*
D93*
X0012800Y0009850D03*
D94*
X0012700Y0009900D03*
D95*
X0012650Y0009950D03*
D96*
X0012550Y0010000D03*
D97*
X0012475Y0010050D03*
D98*
X0012375Y0010100D03*
D99*
X0012300Y0010150D03*
D100*
X0012250Y0010200D03*
D101*
X0015675Y0010500D03*
X0015675Y0010550D03*
D102*
X0015700Y0010600D03*
D103*
X0015725Y0010650D03*
D104*
X0012675Y0010700D03*
X0012675Y0010750D03*
X0012675Y0010800D03*
X0012675Y0010850D03*
X0012675Y0010900D03*
X0012675Y0010950D03*
X0012675Y0011000D03*
D105*
X0033825Y0010950D03*
D106*
X0033700Y0011000D03*
X0033250Y0011100D03*
D107*
X0033375Y0011050D03*
D108*
X0030200Y0011150D03*
D109*
X0012775Y0011500D03*
X0012775Y0011550D03*
X0012775Y0011600D03*
X0012775Y0011850D03*
M02*
